<svg width="321" height="293" viewBox="0 0 321 293" fill="none" xmlns="http://www.w3.org/2000/svg">
<g clip-path="url(#clip0_8_2)">
<path d="M209.452 44.4125C208.754 44.9724 207.942 45.3717 207.073 45.5818C204.687 46.1126 198.337 45.8438 197.261 48.7603C196.918 49.6355 196.383 50.4227 195.696 51.0645C195.008 51.7063 194.186 52.1864 193.29 52.4698C193.29 52.4698 188.257 52.7386 187.988 53.8138C187.719 54.889 185.871 56.7302 185.871 56.7302H272.552C272.552 56.7302 275.469 52.2278 270.698 47.9942C266.525 44.2848 258.897 49.9027 257.93 45.3062" stroke="#263238" stroke-linecap="round" stroke-linejoin="round"/>
<path d="M257.143 38.5593C256.176 35.0716 254.14 30.3676 250.007 28.6204C243.112 25.704 237.286 29.6822 235.693 33.6537C234.1 37.6252 233.045 40.2796 226.957 36.8323C220.869 33.3849 215.533 33.6537 213.705 38.1763C213.178 39.4856 212.518 40.7375 211.736 41.9126" stroke="#263238" stroke-linecap="round" stroke-linejoin="round"/>
<path d="M62.249 90.6191H92.3478C92.3478 90.6191 94.1085 87.9311 91.2256 85.3305C88.3427 82.7298 82.7248 87.5749 83.5312 82.125C83.5312 82.125 82.8592 75.405 78.7197 73.6309C77.6543 73.1429 76.4798 72.942 75.3128 73.0481C74.1458 73.1542 73.0268 73.5636 72.0669 74.2357" stroke="#263238" stroke-linecap="round" stroke-linejoin="round"/>
<path d="M70.0649 76.6752C69.104 79.0809 68.4589 80.7072 64.7763 78.5971C61.0937 76.487 57.8816 76.6752 56.7593 79.4035C55.6371 82.1318 54.1923 83.5699 52.7273 83.8857C51.2624 84.2016 47.4387 84.047 46.7936 85.8144C46.5841 86.3435 46.2596 86.8193 45.8435 87.2075C45.4274 87.5957 44.9302 87.8865 44.3878 88.0588C44.3878 88.0588 41.3437 88.2134 41.1824 88.8585C40.8618 89.5165 40.4272 90.1126 39.8989 90.6192H57.512" stroke="#263238" stroke-linecap="round" stroke-linejoin="round"/>
<path d="M212.912 90.6192H227.125C227.125 90.6192 228.885 87.9312 226.002 85.3305C223.12 82.7299 217.508 87.575 218.308 82.1251C218.308 82.1251 217.67 75.4051 213.496 73.631C209.323 71.8569 205.809 74.303 204.841 76.6752C203.873 79.0473 203.242 80.7072 199.552 78.5971C195.863 76.487 192.658 76.6752 191.542 79.4035C190.427 82.1318 188.975 83.5699 187.51 83.8857C186.045 84.2016 182.222 84.047 181.583 85.8144C181.373 86.343 181.048 86.8184 180.632 87.2065C180.216 87.5946 179.719 87.8857 179.177 88.0589C179.177 88.0589 176.133 88.2134 175.972 88.8585C175.651 89.5166 175.217 90.1126 174.688 90.6192H208.168" stroke="#263238" stroke-linecap="round" stroke-linejoin="round"/>
<g opacity="0.1">
<path opacity="0.1" d="M8.61069 135.018C11.2584 135.542 17.1384 134.125 17.1384 134.125C17.1384 134.125 15.0283 130.529 14.867 130.321C12.9787 127.888 7.89837 124.273 4.66605 125.483C4.13425 125.694 3.6528 126.015 3.2529 126.424C2.853 126.834 2.54355 127.322 2.34462 127.859C2.14569 128.396 2.06171 128.968 2.09812 129.539C2.13453 130.11 2.29051 130.667 2.55597 131.174C3.61101 133.365 6.35949 134.568 8.61069 135.018Z" fill="black"/>
<path opacity="0.1" d="M14.383 151.704C16.9635 151.523 21.9027 148.848 22.2992 148.633C23.8257 151.461 25.5386 154.184 27.4266 156.784C28.5152 158.303 29.6643 159.802 30.8336 161.287C30.1952 160.689 29.624 160.158 29.5366 160.091C27.0771 158.249 21.2307 156.133 18.4218 158.122C17.9646 158.466 17.5849 158.903 17.3074 159.403C17.0298 159.904 16.8605 160.457 16.8104 161.028C16.7604 161.598 16.8307 162.172 17.0168 162.713C17.2029 163.255 17.5007 163.751 17.8909 164.17C19.4902 165.997 22.4538 166.434 24.7453 166.273C27.0368 166.112 31.3309 163.908 32.4464 163.316C32.9034 163.881 33.3469 164.452 33.7904 165.016C35.9811 167.704 38.1786 170.392 40.255 173.121C40.9875 174.075 41.6662 175.043 42.3584 176.004C41.7939 175.473 41.3168 175.029 41.2362 174.969C38.7699 173.121 32.9302 171.004 30.1213 173C29.6624 173.343 29.281 173.779 29.0022 174.28C28.7234 174.78 28.5534 175.334 28.5033 175.905C28.4532 176.476 28.5241 177.051 28.7114 177.592C28.8988 178.134 29.1983 178.63 29.5904 179.048C31.1898 180.882 34.1533 181.312 36.4448 181.151C38.7363 180.99 42.6138 179.001 43.9443 178.302C44.6163 179.31 45.2883 180.318 45.9066 181.326C46.3098 181.998 46.7398 182.67 47.1027 183.389L48.2182 185.492C48.8902 186.836 49.5622 188.261 50.1738 189.605C50.6038 190.539 51.0003 191.433 51.3968 192.34C50.6778 191.379 49.2397 189.531 49.0986 189.39C46.9482 187.199 41.4915 184.222 38.407 185.761C37.9031 186.032 37.4617 186.406 37.1116 186.858C36.7615 187.31 36.5105 187.832 36.3748 188.387C36.2392 188.943 36.222 189.521 36.3244 190.084C36.4267 190.647 36.6464 191.182 36.969 191.654C38.2726 193.711 41.1354 194.584 43.4269 194.773C45.9469 194.981 51.0406 193.18 51.6723 192.951C52.3443 194.45 52.9491 195.908 53.5136 197.299C53.9392 198.321 54.3357 199.309 54.703 200.263L56.7997 199.806C56.3517 198.753 55.8835 197.651 55.3952 196.5C54.7232 194.981 54.0042 193.368 53.2314 191.722C54.6715 190.748 56.0516 189.689 57.3642 188.55C59.4944 190.042 64.3866 191.238 65.0182 191.419C64.736 193.025 64.4538 194.584 64.1581 196.056C64.0035 196.836 63.849 197.568 63.6944 198.301L65.912 197.817C65.9994 197.36 66.08 196.91 66.1606 196.432C66.4563 194.799 66.7318 193.072 67.0006 191.251C67.6726 191.251 73.0486 191.164 75.367 190.095C77.4502 189.121 79.8291 187.307 80.3398 184.928C80.4782 184.372 80.4981 183.794 80.3982 183.23C80.2984 182.667 80.081 182.13 79.7603 181.656C79.4396 181.182 79.0227 180.781 78.5367 180.479C78.0507 180.176 77.5065 179.979 76.9395 179.901C73.5191 179.525 69.4333 184.209 68.2035 187.018C68.1296 187.186 67.5315 189.074 67.1686 190.27C67.2694 189.531 67.3837 188.819 67.4778 188.059C67.6861 186.561 67.8474 185.062 68.0288 183.443C68.0893 182.663 68.1498 181.87 68.2102 181.07C68.2707 180.271 68.2707 179.438 68.3043 178.611C68.3043 176.689 68.3043 174.747 68.1834 172.791C69.5274 172.966 74.1709 173.531 76.3818 172.886C78.5926 172.24 81.2202 170.802 82.0803 168.531C82.3024 168.003 82.4107 167.435 82.3983 166.863C82.3858 166.29 82.2529 165.727 82.0081 165.21C81.7634 164.692 81.4123 164.232 80.9778 163.86C80.5433 163.487 80.0351 163.21 79.4864 163.047C76.1264 162.154 71.4224 166.166 69.7424 168.753C69.6416 168.914 68.6538 170.903 68.1296 172.005C68.0624 170.829 67.9952 169.66 67.8877 168.47C67.5718 165.043 67.1485 161.582 66.7453 158.128C66.6176 157.067 66.5034 156.012 66.3891 154.957C66.8528 155.024 72.3968 155.817 74.8765 155.091C77.0806 154.419 79.7082 153.008 80.5751 150.736C80.7959 150.208 80.9031 149.64 80.8897 149.067C80.8763 148.495 80.7426 147.932 80.4973 147.415C80.2521 146.898 79.9006 146.438 79.466 146.065C79.0313 145.693 78.5231 145.416 77.9744 145.253C74.6144 144.359 69.9104 148.378 68.2371 150.958C68.1094 151.153 66.6915 154.022 66.369 154.768C66.1136 152.437 65.8784 150.118 65.744 147.82C65.5424 144.719 65.5424 141.607 65.744 138.506C65.959 138.54 71.7382 139.393 74.2784 138.647C76.4826 137.975 79.1168 136.571 79.977 134.293C80.1979 133.765 80.3054 133.197 80.2924 132.625C80.2795 132.053 80.1464 131.49 79.9018 130.973C79.6571 130.456 79.3065 129.996 78.8726 129.623C78.4386 129.25 77.9311 128.973 77.383 128.809C74.023 127.922 69.319 131.934 67.639 134.521C67.5114 134.723 65.9859 137.8 65.7507 138.385C65.7507 138.204 65.7507 138.015 65.7507 137.834C66.0389 134.73 66.6034 131.658 67.4374 128.654C67.8742 126.988 68.3917 125.422 68.9226 123.91C69.9843 124.179 74.8429 125.355 77.2016 124.938C79.5603 124.522 82.2349 123.399 83.3437 121.236C83.6206 120.735 83.7891 120.182 83.8383 119.612C83.8875 119.042 83.8163 118.468 83.6294 117.928C83.4424 117.387 83.1439 116.892 82.7532 116.474C82.3624 116.057 81.8882 115.726 81.3613 115.503C78.1491 114.247 72.9949 117.721 71.0528 120.107C70.952 120.234 70.0246 121.672 69.3594 122.727C69.6147 122.055 69.8566 121.343 70.112 120.711C71.0595 118.286 72.0742 116.122 72.9882 114.206C73.519 113.125 74.0163 112.19 74.4934 111.256C75.6694 110.981 80.4071 109.798 82.2752 108.367C84.1434 106.935 86.0317 104.684 86.0182 102.252C86.0342 101.679 85.9295 101.11 85.7109 100.581C85.4924 100.052 85.1648 99.5743 84.7496 99.18C84.3344 98.7857 83.8409 98.4833 83.3011 98.2924C82.7613 98.1014 82.1874 98.0262 81.6166 98.0717C78.1894 98.4413 75.2125 103.891 74.5942 106.909C74.5405 107.164 74.1642 111.337 74.2246 111.324H74.2918C73.8147 112.184 73.3175 113.104 72.7866 114.126C71.8323 116.021 70.7706 118.158 69.7626 120.584C68.6627 123.156 67.7136 125.79 66.92 128.473C66.0086 131.497 65.3699 134.596 65.0115 137.733C65.0083 137.771 65.0083 137.809 65.0115 137.847C64.8099 136.86 64.1648 134.111 64.0909 133.903C63.056 131.006 59.3533 126.02 55.9059 126.128C55.3358 126.163 54.7794 126.318 54.2729 126.582C53.7663 126.846 53.321 127.214 52.9656 127.661C52.6102 128.109 52.3527 128.625 52.2098 129.179C52.0669 129.732 52.0417 130.309 52.136 130.872C52.4586 133.278 54.6896 135.274 56.6922 136.409C58.9501 137.679 64.5478 138.17 64.9914 138.21C64.7043 141.412 64.6302 144.629 64.7696 147.84C64.8435 149.708 64.9712 151.59 65.1258 153.478C64.9309 152.625 64.7427 151.865 64.7091 151.765C63.6742 148.868 59.9648 143.882 56.5242 143.99C55.953 144.023 55.3954 144.177 54.8875 144.44C54.3797 144.703 53.9331 145.071 53.5767 145.519C53.2204 145.966 52.9624 146.484 52.8195 147.038C52.6767 147.592 52.6521 148.17 52.7475 148.734C53.0701 151.146 55.3011 153.142 57.3037 154.271C59.3062 155.4 64.0976 155.938 65.3677 156.059C65.4349 156.778 65.4887 157.503 65.5626 158.222C65.8919 161.69 66.2346 165.144 66.4765 168.551C66.5638 169.747 66.5974 170.93 66.6445 172.113C66.463 171.36 66.3085 170.728 66.2749 170.634C65.24 167.731 61.5709 162.745 58.0899 162.853C57.5185 162.887 56.9607 163.041 56.4529 163.306C55.945 163.57 55.4985 163.938 55.1422 164.386C54.786 164.834 54.5281 165.352 54.3853 165.907C54.2425 166.461 54.2179 167.039 54.3133 167.604C54.6358 170.016 56.8736 172.012 58.8694 173.141C60.8653 174.27 65.1997 174.754 66.6982 174.902C66.6982 176.111 66.6982 177.327 66.6982 178.503C66.6445 179.31 66.6512 180.083 66.5571 180.889C66.463 181.695 66.4026 182.475 66.3286 183.254C66.1203 184.76 65.9254 186.305 65.6566 187.764C65.5021 188.778 65.3341 189.746 65.1661 190.72C65.0989 189.524 64.9107 187.186 64.8771 186.998C64.2546 184.36 62.9658 181.926 61.1341 179.928C61.0812 179.631 60.9978 179.341 60.8854 179.061C60.6954 178.521 60.3937 178.028 60.0001 177.612C59.6065 177.197 59.1297 176.869 58.6009 176.651C58.0721 176.432 57.5031 176.327 56.9311 176.343C56.3591 176.359 55.7968 176.495 55.281 176.743C52.2166 178.315 51.3968 184.478 51.921 187.495C51.921 187.67 52.4922 189.578 52.8483 190.774C52.5325 190.102 52.2301 189.43 51.8941 188.758C51.2221 187.414 50.5501 186.07 49.8042 184.605L48.6483 182.529C48.272 181.857 47.7949 181.131 47.3648 180.425C46.3366 178.806 45.2144 177.213 44.0518 175.641C45.248 175.063 49.4279 172.953 50.9466 171.192C52.4653 169.431 53.8295 166.79 53.2986 164.418C53.1888 163.858 52.9626 163.326 52.6348 162.859C52.3069 162.391 51.8846 161.997 51.3951 161.703C50.9056 161.408 50.3598 161.22 49.7929 161.149C49.226 161.079 48.6507 161.128 48.104 161.293C44.8381 162.389 43.0976 168.356 43.1312 171.427C43.1312 171.622 43.4067 173.826 43.5747 175.036C42.9027 174.095 42.1702 173.148 41.4243 172.214C39.2739 169.525 37.0093 166.878 34.7648 164.223C34.0928 163.41 33.4208 162.59 32.7488 161.777C33.1722 161.576 38.2323 159.177 39.8989 157.201C41.384 155.447 42.7818 152.799 42.2509 150.427C42.1446 149.864 41.9209 149.33 41.5942 148.86C41.2675 148.39 40.8453 147.993 40.355 147.697C39.8648 147.401 39.3176 147.212 38.7492 147.141C38.1808 147.071 37.6039 147.121 37.0563 147.289C33.7904 148.378 32.0499 154.345 32.0835 157.423C32.0835 157.651 32.4867 160.823 32.6211 161.623C31.1293 159.829 29.6509 158.021 28.2733 156.18C26.397 153.703 24.6821 151.108 23.1392 148.411C23.3341 148.317 28.6227 145.837 30.3296 143.815C31.8147 142.061 33.2192 139.413 32.6816 137.041C32.5752 136.479 32.3516 135.946 32.0254 135.476C31.6991 135.006 31.2776 134.61 30.7881 134.314C30.2987 134.018 29.7524 133.828 29.1848 133.757C28.6171 133.687 28.041 133.736 27.4938 133.903C24.2211 134.991 22.4806 140.959 22.5142 144.037C22.5142 144.278 22.951 147.692 23.072 148.304C22.9846 148.142 22.8704 147.995 22.783 147.833C21.3155 145.083 20.0923 142.209 19.1274 139.245C18.5763 137.619 18.1395 136.026 17.7834 134.467C18.8182 134.111 23.5155 132.411 25.256 130.758C26.9965 129.105 28.616 126.726 28.3338 124.286C28.2907 123.716 28.1277 123.16 27.8554 122.656C27.5832 122.153 27.2078 121.712 26.7538 121.363C26.2997 121.015 25.7772 120.766 25.2204 120.632C24.6636 120.499 24.085 120.485 23.5222 120.59C20.1622 121.316 17.7699 127.055 17.4742 130.119C17.4742 130.287 17.4742 131.994 17.5146 133.244C17.3466 132.539 17.1651 131.813 17.0173 131.134C16.4662 128.587 16.1168 126.222 15.8278 124.125C15.6733 122.929 15.559 121.847 15.4582 120.832C16.2848 119.952 19.5776 116.35 20.3504 114.112C21.1232 111.875 21.4525 108.965 20.1018 106.949C19.799 106.463 19.3973 106.046 18.9229 105.725C18.4484 105.404 17.9118 105.186 17.3478 105.086C16.7839 104.986 16.2051 105.005 15.6492 105.143C15.0933 105.281 14.5726 105.535 14.121 105.887C11.4733 108.085 11.9974 114.28 13.1398 117.136C13.2339 117.385 15.223 121.068 15.2634 121.021L15.3171 120.967C15.391 121.948 15.4851 122.983 15.6061 124.139C15.8547 126.242 16.1504 128.621 16.6477 131.195C17.16 133.969 17.8331 136.711 18.6637 139.406C19.5716 142.429 20.7478 145.363 22.1782 148.176C22.1782 148.176 22.2186 148.243 22.232 148.277C21.56 147.558 19.4701 145.622 19.2954 145.495C16.8291 143.647 10.9894 141.53 8.18049 143.526C7.72156 143.869 7.34023 144.305 7.06141 144.806C6.7826 145.306 6.61258 145.86 6.56247 146.431C6.51237 147.002 6.5833 147.577 6.77063 148.118C6.95797 148.66 7.25748 149.156 7.64961 149.574C9.12801 151.415 12.0915 151.845 14.383 151.704Z" fill="black"/>
<path opacity="0.1" d="M68.6539 123.285C68.7143 123.285 68.8756 119.126 68.8555 118.863C68.6203 115.792 66.3623 110.006 63.0158 109.2C62.4557 109.082 61.877 109.083 61.3174 109.204C60.7579 109.324 60.2299 109.561 59.7678 109.899C59.3058 110.237 58.92 110.668 58.6355 111.165C58.3511 111.661 58.1744 112.212 58.1169 112.782C57.7943 115.194 59.4206 117.708 61.0468 119.327C62.962 121.229 68.6539 123.285 68.6539 123.285Z" fill="black"/>
</g>
<g opacity="0.1">
<path opacity="0.1" d="M308.209 192.891C305.938 192.972 301.24 191.009 301.24 191.009C301.24 191.009 303.471 188.321 303.639 188.153C305.528 186.386 310.225 184.088 312.758 185.465C313.172 185.712 313.529 186.043 313.807 186.437C314.085 186.83 314.277 187.278 314.371 187.751C314.464 188.223 314.458 188.71 314.351 189.18C314.245 189.65 314.041 190.092 313.753 190.478C312.577 192.185 310.138 192.817 308.209 192.891Z" fill="black"/>
<path opacity="0.1" d="M301.186 205.968C299.063 205.477 295.319 202.608 295.017 202.359C293.365 204.508 291.568 206.542 289.641 208.448C288.532 209.57 287.383 210.659 286.214 211.74C286.819 211.324 287.363 210.961 287.45 210.921C289.742 209.711 294.876 208.737 296.946 210.766C297.28 211.113 297.538 211.526 297.702 211.979C297.866 212.431 297.933 212.913 297.899 213.394C297.865 213.874 297.73 214.342 297.503 214.767C297.277 215.192 296.963 215.564 296.583 215.86C295.01 217.17 292.49 217.13 290.609 216.693C288.727 216.256 285.448 213.851 284.601 213.205C284.144 213.615 283.701 214.032 283.257 214.435C281.08 216.397 278.896 218.34 276.806 220.315C276.073 220.987 275.375 221.72 274.676 222.425C275.213 222.062 275.67 221.753 275.744 221.713C278.036 220.51 283.176 219.536 285.246 221.565C285.58 221.911 285.838 222.324 286.002 222.776C286.166 223.228 286.233 223.71 286.199 224.19C286.165 224.669 286.03 225.137 285.803 225.561C285.577 225.985 285.263 226.357 284.883 226.652C283.311 227.996 280.791 227.929 278.903 227.492C277.014 227.055 274.064 224.878 273.049 224.132C272.377 224.878 271.658 225.631 271.033 226.383C270.603 226.908 270.16 227.385 269.763 227.942L268.554 229.542C267.828 230.583 267.069 231.659 266.383 232.693C265.899 233.412 265.456 234.105 264.999 234.804C265.725 234.098 267.169 232.788 267.304 232.66C269.387 231.121 274.313 229.381 276.671 231.067C277.054 231.36 277.371 231.73 277.601 232.153C277.832 232.576 277.971 233.043 278.009 233.523C278.048 234.003 277.985 234.486 277.825 234.94C277.666 235.395 277.412 235.811 277.081 236.161C275.737 237.693 273.224 238.043 271.295 237.888C269.179 237.727 265.187 235.549 264.69 235.274C263.944 236.43 263.231 237.559 262.58 238.634C262.096 239.427 261.632 240.2 261.195 240.939L259.515 240.267C260.019 239.447 260.557 238.6 261.121 237.707C261.874 236.531 262.701 235.294 263.561 234.024C262.494 233.024 261.488 231.961 260.55 230.839C258.581 231.793 254.354 232.183 253.83 232.183C253.83 233.527 253.877 234.871 253.931 236.148C253.931 236.82 253.985 237.451 254.012 238.076L252.238 237.404C252.238 237.008 252.238 236.625 252.238 236.215C252.238 234.817 252.238 233.325 252.238 231.8C251.686 231.706 247.198 230.919 245.437 229.723C243.838 228.635 242.077 226.807 241.996 224.764C241.955 224.284 242.015 223.8 242.172 223.345C242.33 222.89 242.582 222.473 242.912 222.122C243.241 221.77 243.642 221.493 244.086 221.306C244.53 221.12 245.009 221.03 245.491 221.041C248.38 221.189 251.149 225.624 251.821 228.124C251.861 228.272 252.11 229.918 252.251 230.966C252.251 230.335 252.251 229.73 252.285 229.085C252.285 227.815 252.379 226.545 252.439 225.18C252.5 224.508 252.553 223.836 252.607 223.164C252.661 222.492 252.775 221.82 252.863 221.108C253.084 219.509 253.393 217.903 253.736 216.29C252.621 216.29 248.662 216.109 246.909 215.275C245.155 214.442 243.172 212.903 242.756 210.894C242.643 210.426 242.63 209.94 242.718 209.466C242.806 208.993 242.992 208.544 243.264 208.147C243.536 207.751 243.889 207.416 244.299 207.164C244.71 206.913 245.168 206.75 245.645 206.687C248.528 206.391 251.935 210.356 252.977 212.735C253.044 212.883 253.602 214.67 253.884 215.652C254.099 214.684 254.307 213.716 254.556 212.748C255.275 209.94 256.088 207.124 256.888 204.308C257.136 203.441 257.365 202.581 257.607 201.721C257.21 201.721 252.5 201.634 250.537 200.7C248.79 199.866 246.794 198.321 246.384 196.318C246.27 195.85 246.255 195.363 246.342 194.889C246.429 194.415 246.614 193.965 246.887 193.568C247.16 193.171 247.514 192.836 247.925 192.585C248.336 192.334 248.796 192.172 249.274 192.111C252.157 191.816 255.564 195.781 256.606 198.159C256.679 198.334 257.479 200.908 257.647 201.566C258.171 199.671 258.675 197.77 259.092 195.881C259.674 193.333 260.09 190.749 260.335 188.147C260.147 188.147 255.235 188.079 253.225 187.118C251.478 186.292 249.482 184.746 249.066 182.744C248.952 182.275 248.939 181.788 249.026 181.314C249.113 180.84 249.299 180.39 249.571 179.993C249.844 179.595 250.197 179.26 250.608 179.008C251.018 178.756 251.478 178.593 251.955 178.53C254.845 178.235 258.245 182.206 259.287 184.578C259.374 184.766 260.228 187.535 260.349 188.046C260.349 187.891 260.389 187.737 260.402 187.589C260.577 184.97 260.516 182.341 260.221 179.733C260.08 178.295 259.865 176.924 259.623 175.594C258.709 175.674 254.516 176.004 252.607 175.345C250.699 174.686 248.629 173.396 247.997 171.447C247.833 170.994 247.767 170.512 247.802 170.031C247.837 169.551 247.972 169.083 248.2 168.658C248.427 168.234 248.742 167.862 249.123 167.567C249.503 167.271 249.942 167.06 250.41 166.945C253.239 166.333 257.063 169.902 258.359 172.146C258.427 172.267 259.031 173.584 259.415 174.552C259.3 173.954 259.186 173.336 259.065 172.764C258.601 170.621 258.044 168.685 257.54 166.979C257.244 166.011 256.955 165.137 256.679 164.291C255.739 163.901 251.975 162.275 250.631 160.85C249.287 159.425 247.997 157.288 248.333 155.272C248.395 154.794 248.557 154.334 248.809 153.923C249.06 153.512 249.396 153.158 249.794 152.885C250.191 152.613 250.642 152.427 251.117 152.34C251.591 152.254 252.078 152.268 252.547 152.383C255.342 153.149 257.089 158.075 257.21 160.662C257.21 160.89 256.975 164.398 256.928 164.378H256.868C257.15 165.157 257.446 165.991 257.748 166.911C258.292 168.612 258.89 170.54 259.401 172.677C259.983 174.979 260.432 177.312 260.745 179.666C261.097 182.3 261.217 184.96 261.101 187.616C261.097 187.647 261.097 187.679 261.101 187.71C261.397 186.91 262.304 184.713 262.391 184.551C263.635 182.287 267.378 178.631 270.227 179.175C270.697 179.28 271.14 179.483 271.526 179.77C271.913 180.057 272.235 180.422 272.471 180.841C272.708 181.261 272.853 181.725 272.898 182.205C272.944 182.684 272.887 183.168 272.734 183.624C272.142 185.586 270.046 186.984 268.211 187.656C266.161 188.415 261.444 188.073 261.074 188.046C260.843 190.74 260.435 193.416 259.851 196.056C259.542 197.602 259.179 199.147 258.803 200.693C259.079 200.021 259.334 199.409 259.381 199.349C260.631 197.077 264.374 193.428 267.216 193.973C267.687 194.077 268.13 194.279 268.518 194.565C268.905 194.852 269.227 195.217 269.464 195.637C269.7 196.057 269.846 196.522 269.89 197.002C269.935 197.481 269.878 197.965 269.723 198.421C269.132 200.377 267.035 201.741 265.2 202.413C263.366 203.085 259.334 202.89 258.265 202.816C258.118 203.408 257.97 204.006 257.815 204.59C257.076 207.426 256.33 210.255 255.678 213.051C255.45 214.039 255.255 215.013 255.067 215.994C255.315 215.389 255.524 214.885 255.564 214.812C256.814 212.54 260.557 208.891 263.406 209.436C263.876 209.54 264.319 209.743 264.706 210.03C265.092 210.317 265.414 210.682 265.65 211.101C265.887 211.521 266.032 211.986 266.078 212.465C266.123 212.944 266.067 213.428 265.913 213.884C265.321 215.84 263.225 217.204 261.383 217.876C259.542 218.548 255.913 218.366 254.663 218.292C254.495 219.3 254.327 220.308 254.207 221.296C254.146 221.968 254.038 222.64 254.005 223.312L253.884 225.328C253.85 226.605 253.81 227.916 253.81 229.159C253.81 230.026 253.81 230.852 253.81 231.679C254.025 230.698 254.482 228.782 254.549 228.628C255.411 226.521 256.8 224.67 258.581 223.252C258.667 223.018 258.775 222.793 258.904 222.58C259.135 222.158 259.452 221.789 259.834 221.497C260.217 221.205 260.657 220.997 261.125 220.886C261.593 220.776 262.08 220.764 262.552 220.853C263.025 220.943 263.474 221.13 263.87 221.404C266.208 223.124 266.067 228.352 265.214 230.812C265.167 230.953 264.468 232.472 264.011 233.419C264.367 232.902 264.683 232.398 265.073 231.867C265.799 230.825 266.551 229.797 267.364 228.695L268.601 227.123C269.004 226.592 269.495 226.074 269.945 225.543C271.02 224.341 272.162 223.164 273.338 222.009C272.418 221.37 269.206 219.059 268.204 217.399C267.203 215.739 266.39 213.367 267.156 211.452C267.32 211.002 267.576 210.592 267.908 210.247C268.24 209.903 268.64 209.632 269.083 209.451C269.527 209.271 270.003 209.185 270.481 209.2C270.959 209.215 271.429 209.329 271.86 209.536C274.427 210.88 275.079 216.068 274.642 218.622C274.642 218.776 274.091 220.577 273.789 221.552C274.501 220.88 275.207 220.174 275.952 219.502C278.103 217.553 280.334 215.652 282.551 213.75L284.567 211.982C284.238 211.761 280.354 209.093 279.232 207.231C278.231 205.578 277.424 203.199 278.183 201.291C278.348 200.841 278.604 200.431 278.936 200.087C279.267 199.742 279.668 199.471 280.11 199.29C280.553 199.109 281.029 199.022 281.507 199.036C281.986 199.05 282.456 199.163 282.887 199.369C285.455 200.713 286.106 205.901 285.67 208.454C285.67 208.649 284.883 211.23 284.662 211.875C286.147 210.585 287.612 209.274 289.003 207.93C290.926 206.11 292.727 204.163 294.392 202.104C294.238 201.997 290.179 199.235 289.016 197.326C288.015 195.666 287.202 193.294 287.961 191.379C288.126 190.926 288.384 190.513 288.719 190.167C289.054 189.821 289.457 189.548 289.904 189.368C290.351 189.187 290.83 189.103 291.312 189.119C291.793 189.136 292.266 189.253 292.699 189.464C295.266 190.808 295.918 195.996 295.481 198.549C295.447 198.751 294.634 201.526 294.453 202.017C294.547 201.902 294.654 201.788 294.748 201.667C296.338 199.58 297.739 197.356 298.935 195.021C299.607 193.738 300.185 192.474 300.716 191.238C299.903 190.801 296.227 188.758 295.004 187.159C293.781 185.559 292.759 183.335 293.303 181.366C293.416 180.897 293.626 180.457 293.92 180.075C294.213 179.693 294.585 179.377 295.009 179.148C295.433 178.919 295.901 178.782 296.382 178.746C296.863 178.711 297.346 178.777 297.799 178.94C300.487 179.995 301.717 185.076 301.562 187.676C301.562 187.817 301.307 189.235 301.119 190.263C301.347 189.706 301.596 189.128 301.791 188.583C302.584 186.567 303.189 184.619 303.713 182.912C304.002 181.944 304.244 181.057 304.459 180.224C303.887 179.377 301.63 175.95 301.287 174.001C300.944 172.052 301.058 169.572 302.449 168.081C302.765 167.717 303.154 167.424 303.591 167.22C304.027 167.016 304.502 166.907 304.984 166.899C305.465 166.89 305.943 166.984 306.387 167.172C306.83 167.361 307.228 167.641 307.557 167.993C309.472 170.177 308.229 175.251 306.885 177.468C306.77 177.663 304.627 180.459 304.6 180.419L304.559 180.365C304.371 181.171 304.15 182.025 303.887 182.959C303.464 184.632 302.873 186.594 302.12 188.664C301.331 190.902 300.411 193.092 299.365 195.223C298.208 197.614 296.838 199.897 295.272 202.044C295.254 202.07 295.234 202.095 295.212 202.117C295.884 201.62 297.866 200.283 298.028 200.196C300.319 198.993 305.46 198.012 307.53 200.041C307.864 200.388 308.122 200.801 308.286 201.253C308.45 201.706 308.517 202.188 308.483 202.669C308.449 203.149 308.314 203.617 308.087 204.042C307.861 204.467 307.547 204.839 307.167 205.135C305.594 206.445 303.068 206.412 301.186 205.968Z" fill="black"/>
<path opacity="0.1" d="M259.878 175.137C259.824 175.137 260.247 171.649 260.301 171.427C260.906 168.914 263.554 164.405 266.443 164.183C266.924 164.16 267.405 164.238 267.853 164.412C268.302 164.587 268.709 164.854 269.048 165.196C269.386 165.539 269.649 165.949 269.818 166.399C269.988 166.85 270.061 167.331 270.032 167.812C269.985 169.828 268.298 171.73 266.725 172.859C264.877 174.182 259.878 175.13 259.878 175.137Z" fill="black"/>
</g>
<path d="M133.213 1.41797L141.613 81.2448" stroke="#263238" stroke-linecap="round" stroke-linejoin="round"/>
<path d="M158.406 18.3793L152.143 19.8174L146.411 31.154L137.333 28.5601L137.077 31.033L148.367 35.7169L152.405 30.1124V39.89L164.528 40.4142L167.008 29.3329L171.437 33.2439V43.539H174.044L175.61 30.6366L168.701 19.4276L158.406 18.3793Z" fill="white" stroke="#263238" stroke-linecap="round" stroke-linejoin="round"/>
<path d="M152.406 30.1123L152.312 24.5952" stroke="#263238" stroke-linecap="round" stroke-linejoin="round"/>
<path d="M158.312 22.008L160.013 25.2C160.013 25.2 164.717 26.6918 165.55 26.9001C166.383 27.1085 168.957 26.2617 171.081 25.8384C173.204 25.415 180.025 28.8153 180.025 28.8153L185.985 29.0304L182.793 25.2L171.296 23.4931L165.335 25.415L161.303 24.3465L162.163 22.68L160.248 19.6963L158.312 22.008Z" fill="black" stroke="#263238" stroke-linecap="round" stroke-linejoin="round"/>
<path d="M158.924 17.4654C158.578 17.4 158.22 17.4732 157.927 17.6693C157.634 17.8653 157.43 18.1686 157.358 18.5138C157.103 19.8174 156.841 23.0766 156.841 23.0766L159.966 22.1627L163.621 23.7285C163.621 23.7285 164.791 20.3349 164.139 19.1656C163.487 17.9963 160.49 16.4238 158.924 17.4654Z" fill="white" stroke="#263238" stroke-linecap="round" stroke-linejoin="round"/>
<path d="M158.271 15.6442C158.271 15.6442 158.661 19.2931 158.796 20.5968C158.93 21.9005 159.71 23.856 160.227 23.4662C160.744 23.0765 162.572 19.4342 162.572 19.4342L163.486 16.9613L158.271 15.6442Z" fill="white" stroke="#263238" stroke-linecap="round" stroke-linejoin="round"/>
<path d="M158.312 10.3153C158.312 10.3153 157.17 10.2145 157.17 12.0826C157.17 13.9508 157.996 14.0516 157.996 14.0516L158.312 10.3153Z" fill="white" stroke="#263238" stroke-linecap="round" stroke-linejoin="round"/>
<path d="M165.953 11.8743C166.101 11.8822 166.246 11.9224 166.376 11.9922C166.507 12.0619 166.621 12.1595 166.71 12.278C166.799 12.3965 166.861 12.5331 166.892 12.6781C166.922 12.8231 166.921 12.9731 166.887 13.1175C166.679 14.2599 164.71 15.8055 164.71 15.8055L165.953 11.8743Z" fill="white" stroke="#263238" stroke-linecap="round" stroke-linejoin="round"/>
<path d="M162.183 6.55202C162.183 6.55202 160.099 6.02786 158.923 8.50754C157.747 10.9872 158.009 13.9843 158.251 15.6778C158.493 17.3712 160.079 18.1507 161.645 18.1507C163.211 18.1507 165.549 14.8983 166.073 12.4186C166.598 9.9389 166.221 6.55202 162.183 6.55202Z" fill="white" stroke="#263238" stroke-linecap="round" stroke-linejoin="round"/>
<path d="M134.812 27.1152L135.33 31.0263L137.675 31.2883L137.285 26.8531L134.812 27.1152Z" fill="white" stroke="#263238" stroke-linecap="round" stroke-linejoin="round"/>
<path d="M137.332 27.0548L138.28 26.9271L138.468 29.0103L137.52 29.138L137.332 27.0548Z" fill="white" stroke="#263238" stroke-linecap="round" stroke-linejoin="round"/>
<path d="M171.436 43.5389L170.012 45.77L170.381 48.0077L171.625 47.8868L173.741 47.1409L174.044 43.5389H171.436Z" fill="white" stroke="#263238" stroke-linecap="round" stroke-linejoin="round"/>
<path d="M152.405 39.89L151.484 43.9086L141.283 57.3351L148.124 76.6148L149.865 76.2385L148.373 57.8324L156.706 49.0023L157.7 49.6273L157.727 59.4788L167.276 75.6202L169.265 75.1162L164.79 59.5729L165.038 43.035L164.528 40.4142L152.405 39.89Z" fill="#263238" stroke="#263238" stroke-linecap="round" stroke-linejoin="round"/>
<path d="M148.125 76.6148L146.633 78.7249C146.633 78.7249 144.268 79.8472 143.898 80.4654C143.529 81.0837 145.914 80.9627 145.914 80.9627L148.649 80.7141L151.512 78.8526L149.893 76.2385L148.125 76.6148Z" fill="white" stroke="#263238" stroke-linecap="round" stroke-linejoin="round"/>
<path d="M133.569 4.2605C133.569 4.2605 132.319 7.10978 127.158 9.0653C121.997 11.0208 114.525 12.0893 112.569 16.1818C110.614 20.2743 110.614 19.9248 110.257 22.2298C110.067 23.5771 109.442 24.8254 108.477 25.7847C108.477 25.7847 110.257 25.9661 111.165 24.7229C112.072 23.4797 112.414 19.9181 113.853 19.3805C115.291 18.8429 117.905 17.976 117.905 17.976C117.905 17.976 115.418 20.113 115.217 21.1815C115.015 22.2499 114.861 24.7431 114.504 26.3424C114.349 27.2168 113.924 28.0206 113.288 28.6407C113.288 28.6407 115.6 28.6407 116.312 27.0413C117.024 25.4419 116.312 23.305 118.624 21.6989C120.935 20.0928 123.429 20.8119 127.36 20.9866C131.291 21.1613 135.014 18.8563 135.014 18.8563L133.569 4.2605Z" fill="black" stroke="#263238" stroke-linecap="round" stroke-linejoin="round"/>
<path d="M167.277 75.6202L165.563 81.312L169.817 81.144L169.266 75.1162L167.277 75.6202Z" fill="white" stroke="#263238" stroke-linecap="round" stroke-linejoin="round"/>
<path d="M160.758 11.5449C160.684 11.8809 160.449 12.1161 160.22 12.0691C159.992 12.022 159.871 11.7062 159.945 11.3971C160.018 11.088 160.254 10.8259 160.482 10.8729C160.711 10.92 160.825 11.2089 160.758 11.5449Z" fill="#263238"/>
<path d="M163.87 12.2708C163.796 12.6068 163.561 12.842 163.332 12.7949C163.104 12.7479 162.983 12.432 163.057 12.1229C163.131 11.8138 163.366 11.5517 163.594 11.5988C163.823 11.6458 163.937 11.928 163.87 12.2708Z" fill="#263238"/>
<path d="M161.8 11.9751L160.974 14.4682H162.324" stroke="#263238" stroke-linecap="round" stroke-linejoin="round"/>
<path d="M159.938 15.194C159.938 15.194 160.664 16.4372 162.532 15.7114" stroke="#263238" stroke-linecap="round" stroke-linejoin="round"/>
<path d="M159.831 9.7978C160.101 9.65187 160.414 9.60295 160.716 9.65919C161.018 9.71544 161.291 9.87346 161.491 10.1069" stroke="#263238" stroke-linecap="round" stroke-linejoin="round"/>
<path d="M163.05 10.5236C163.232 10.4239 163.432 10.3637 163.639 10.347C163.845 10.3302 164.053 10.3573 164.249 10.4265C164.444 10.4956 164.623 10.6053 164.773 10.7482C164.923 10.8912 165.041 11.0643 165.12 11.2561" stroke="#263238" stroke-linecap="round" stroke-linejoin="round"/>
<path d="M157.862 9.48871L165.328 8.56807C165.328 8.56807 165.019 9.81127 165.436 10.1204C165.852 10.4295 165.953 11.8877 165.953 11.8877L165.644 13.5476L167.304 10.6445C167.304 10.6445 167.821 8.35975 167.405 7.63399C167.268 7.41495 167.087 7.22739 166.873 7.08374C166.658 6.94008 166.416 6.84361 166.162 6.80071C165.717 6.1284 165.091 5.59637 164.355 5.26676C163.62 4.93715 162.806 4.82357 162.009 4.93927C159.106 5.24839 157.862 6.69991 157.862 7.84231V9.48871Z" fill="#263238" stroke="#263238" stroke-linecap="round" stroke-linejoin="round"/>
<path d="M152.351 291.614L165.522 216.035L115.808 170.413L133.851 108.938L114.538 109.368L106.38 116.666L89.3309 116.249L87.026 124.562L82.3489 123.977L80.7361 126.894L72.7594 142.82L68.6132 158.726L53.1572 178.046L51.4637 223.635L26.546 259.6L18.7104 291.614H152.351Z" fill="#808080" stroke="#39515E" stroke-linecap="round" stroke-linejoin="round"/>
<path d="M264.528 291.614L248.031 255.441L274.911 273.349V244.689L259.112 225.973L261.451 204.92L237.46 159.298L236.264 143.506L228.079 135.899L186.066 138.936L183.068 124.186L156.188 108.978L140.06 148.028L125.203 154.6L135.672 168.954L133.979 180.331L137.48 197.897L79.016 210.766C79.016 210.766 78.4313 238.842 78.4313 241.181C78.4313 243.519 66.7318 256.973 66.7318 256.973L66.1875 291.614H264.528Z" fill="#ABABAB" stroke="#39515E" stroke-linecap="round" stroke-linejoin="round"/>
<path d="M297.087 291.614L290.105 288.557L281.328 269.842L270.798 262.241L266.121 251.126L261.444 242.35L236.445 230.14L240.323 291.614H297.087Z" fill="#CCCCCC" stroke="#39515E" stroke-linecap="round" stroke-linejoin="round"/>
<path d="M35.4367 291.541H66.6914L67.2559 273.35L64.3327 262.826V234.75L57.317 233.581L51.4639 240.012L42.1097 245.28L21.8354 291.615H35.4367V291.541Z" fill="#CCCCCC" stroke="#39515E" stroke-linecap="round" stroke-linejoin="round"/>
<path d="M46.249 261.085L46.9345 258.169" stroke="#39515E" stroke-miterlimit="10"/>
<path d="M35.4366 291.614L39.603 275.157L43.5342 272.657L45.8325 262.859" stroke="#39515E" stroke-miterlimit="10"/>
<path d="M28.6895 291.789L35.3087 273.014" stroke="#39515E" stroke-miterlimit="10"/>
<path d="M57.4109 241.349L56.7657 244.4" stroke="#39515E" stroke-miterlimit="10"/>
<path d="M58.9095 234.212L57.6865 240.038" stroke="#39515E" stroke-miterlimit="10"/>
<path d="M66.6912 291.541L67.2556 273.35L64.3324 262.826V234.75L58.486 272.18L53.2176 273.934L51.4636 284.464L50.375 291.541H66.6912Z" fill="white" stroke="#39515E" stroke-linecap="round" stroke-linejoin="round"/>
<path d="M166.786 270.796C170.111 270.346 173.362 269.46 176.456 268.162C178.926 267.154 181.099 265.535 182.773 263.458C182.967 263.196 183.149 262.92 183.324 262.645L178.707 241.813L169.601 233.869L168.083 227.055L159.347 220.241L156.323 230.845L151.397 237.66L151.021 262.651L155.725 271.643C159.426 271.611 163.122 271.328 166.786 270.796V270.796Z" fill="white" stroke="#39515E" stroke-linecap="round" stroke-linejoin="round"/>
<path d="M166.786 270.796L165.858 263.014L168.593 255.642V251.274L168.042 244.447" stroke="#39515E" stroke-miterlimit="10"/>
<path d="M172.33 247.142L173.782 255.367L176.51 255.911L175.966 262.739L177.054 266.294" stroke="#39515E" stroke-miterlimit="10"/>
<path d="M171.321 241.443L171.805 244.185" stroke="#39515E" stroke-miterlimit="10"/>
<path d="M162.311 223.964L164.495 246.355" stroke="#39515E" stroke-miterlimit="10"/>
<path d="M135.632 270.238C141.914 271.193 148.261 271.665 154.616 271.649C155.892 271.649 157.142 271.616 158.372 271.569L158.238 264.54L155.966 261.516V239.931L159.756 236.141L159.373 220.248L154.831 228.581L148.783 233.876L144.993 244.857L138.945 252.054L137.426 259.627L130.236 265.675L127.366 268.733C130.076 269.311 132.832 269.813 135.632 270.238Z" fill="#CCCCCC" stroke="#39515E" stroke-linecap="round" stroke-linejoin="round"/>
<path d="M245.067 291.615L276.819 291.554L235.706 266.919L225.767 242.935L217.575 241.766L210.56 232.411L207.045 235.919L209.384 256.388L200.614 271.011V280.372L196.521 290.896L216.305 291.615H245.067Z" fill="white" stroke="#39515E" stroke-linecap="round" stroke-linejoin="round"/>
<path d="M229.141 291.574L227.643 283.208L230.001 278.269L229.356 268.612L231.292 270.547L244.382 291.574H229.141Z" fill="#CCCCCC" stroke="#39515E" stroke-linecap="round" stroke-linejoin="round"/>
<path d="M229.356 268.612L238.589 273.121L242.231 277.623L252.748 282.993L260.046 287.502L264.528 291.615L244.382 291.574L229.356 268.612Z" fill="white" stroke="#39515E" stroke-linecap="round" stroke-linejoin="round"/>
<path d="M200.614 271.011V280.372L196.206 291.426L212.905 291.641L209.384 271.596L216.406 265.164L207.045 235.919L209.384 256.388L200.614 271.011Z" fill="#CCCCCC" stroke="#39515E" stroke-linecap="round" stroke-linejoin="round"/>
<path d="M217.575 241.766L223.751 254.822L226.479 255.098L228.663 261.65" stroke="#39515E" stroke-miterlimit="10"/>
<path d="M221.722 281.266L222.662 284.317" stroke="#39515E" stroke-miterlimit="10"/>
<path d="M218.019 257.551L219.927 264.929L223.206 270.386L219.383 273.665L221.036 279.035" stroke="#39515E" stroke-miterlimit="10"/>
<path d="M139.993 107.52L126.284 122.512L125.813 95.0276L139.462 78.4561L139.993 107.52Z" fill="#CCCCCC" stroke="#39515E" stroke-linecap="round" stroke-linejoin="round"/>
<path d="M130.478 167.543L144.495 155.172C145.501 154.299 146.62 153.567 147.822 152.994C149.33 152.279 150.906 151.716 152.526 151.314C154.603 150.809 156.714 150.459 158.843 150.266C161.523 150.019 164.215 149.92 166.907 149.97C173.414 150.056 179.906 150.629 186.327 151.684C191.665 152.568 196.942 153.786 202.126 155.333C206.79 156.724 210.862 158.216 214.377 159.593C217.891 160.971 220.794 162.234 223.146 163.162L204.955 174.955C202.731 174.082 199.969 172.892 196.656 171.595C193.343 170.298 189.479 168.907 185.064 167.563C180.16 166.107 175.168 164.964 170.119 164.143C164.039 163.155 157.893 162.624 151.733 162.557C149.18 162.513 146.627 162.612 144.086 162.853C142.072 163.038 140.075 163.373 138.111 163.854C136.567 164.233 135.065 164.769 133.629 165.453C132.489 166.005 131.429 166.708 130.478 167.543V167.543Z" fill="#CCCCCC" stroke="#39515E" stroke-linecap="round" stroke-linejoin="round"/>
<path d="M175.112 268.706L159.293 274.754C160.676 274.24 162 273.583 163.245 272.792C164.347 272.089 165.339 271.226 166.188 270.231C166.989 269.289 167.609 268.207 168.016 267.039C168.435 265.796 168.63 264.487 168.594 263.175C168.583 260.886 167.88 258.654 166.578 256.771C164.908 254.557 162.775 252.734 160.328 251.429C156.804 249.503 153.099 247.928 149.267 246.725C144.697 245.186 139.187 243.667 132.702 242.088C123.87 240.031 115.222 237.253 106.844 233.782C99.2774 230.681 92.1747 226.552 85.7362 221.511C79.8228 216.892 74.952 211.075 71.4428 204.443C67.8845 197.394 66.0425 189.605 66.0668 181.709C66.0331 178.502 66.2579 175.297 66.7388 172.126C67.1979 169.078 67.9173 166.074 68.8892 163.148C69.8461 160.281 71.0536 157.504 72.4978 154.849C73.953 152.192 75.6371 149.667 77.5311 147.303L88.4242 133.641C84.4072 138.638 81.3166 144.314 79.2984 150.4C78.2598 153.493 77.4909 156.67 77.0002 159.896C76.5022 163.254 76.2775 166.648 76.3282 170.043C76.3228 178.413 78.2913 186.667 82.0738 194.134C85.7956 201.165 90.9566 207.334 97.2207 212.238C103.591 217.365 111.165 221.646 119.585 225.228C128.45 228.914 137.601 231.867 146.949 234.058C153.837 235.738 159.636 237.357 164.468 238.99C168.524 240.279 172.443 241.965 176.167 244.023C179.178 245.777 181.335 247.632 182.76 249.675C184.148 251.665 184.9 254.029 184.917 256.455C184.962 257.845 184.757 259.231 184.312 260.548C183.884 261.777 183.232 262.916 182.39 263.908C181.492 264.953 180.443 265.859 179.279 266.596C177.968 267.444 176.571 268.151 175.112 268.706V268.706Z" fill="#CCCCCC" stroke="#39515E" stroke-linecap="round" stroke-linejoin="round"/>
<path d="M97.2203 212.238C103.591 217.365 111.164 221.646 119.584 225.228C128.449 228.914 137.601 231.867 146.948 234.058C153.836 235.738 159.636 237.357 164.467 238.99C168.523 240.279 172.442 241.965 176.167 244.023C179.177 245.777 181.335 247.632 182.759 249.675C184.148 251.665 184.9 254.029 184.916 256.455C185.027 258.974 184.263 261.453 182.752 263.471C181.079 265.549 178.906 267.168 176.436 268.175C173.348 269.472 170.104 270.357 166.786 270.809C162.756 271.392 158.688 271.678 154.616 271.663C148.261 271.678 141.914 271.206 135.632 270.252C129.599 269.337 123.627 268.055 117.75 266.414C112.038 264.822 106.601 262.981 101.535 261.038C96.4676 259.096 91.7636 257.006 87.5233 254.99L78.9351 291.48H233.287C238.097 286.123 241.86 279.912 244.382 273.168C247.025 265.983 248.252 258.355 247.997 250.703C247.768 242.525 246.525 235.247 244.086 228.722C241.659 222.199 237.88 216.263 232.998 211.304C227.978 206.156 221.574 201.62 213.604 197.575C205.634 193.529 196.038 189.948 184.708 186.715C177.415 184.592 171.037 182.553 165.576 180.6C160.913 178.986 156.365 177.06 151.961 174.834C148.333 172.933 145.611 171.044 143.797 169.109C141.982 167.173 141.055 165.205 141.015 163.135C140.963 161.442 141.328 159.762 142.076 158.243C143.009 156.476 144.402 154.995 146.108 153.955C148.559 152.478 151.261 151.464 154.078 150.965C158.324 150.17 162.643 149.835 166.96 149.964C173.468 150.05 179.959 150.623 186.381 151.677C191.719 152.561 196.995 153.78 202.18 155.326C206.844 156.717 210.916 158.209 214.431 159.587C217.945 160.964 220.848 162.228 223.2 163.155L233.199 118.131C230.055 116.787 226.674 115.443 222.972 114.166C219.269 112.889 215.237 111.693 210.808 110.611C206.38 109.529 201.542 108.595 196.219 107.782C190.897 106.969 185.071 106.391 178.687 106.015L178.102 79.3901L139.496 78.4561L140.027 107.52C130.638 108.816 121.477 111.419 112.811 115.255C105.348 118.552 98.5367 123.158 92.6977 128.856C87.3555 134.131 83.1558 140.449 80.3598 147.417C77.5394 154.62 76.1692 162.309 76.3278 170.043C76.3224 178.413 78.2909 186.667 82.0734 194.134C85.7952 201.165 90.9561 207.334 97.2203 212.238V212.238Z" fill="white" stroke="#39515E" stroke-linecap="round" stroke-linejoin="round"/>
<path d="M78.9352 291.48L87.5234 254.97L76.5227 261.851L69.5205 291.48H78.9352Z" fill="#CCCCCC" stroke="#39515E" stroke-linecap="round" stroke-linejoin="round"/>
<path d="M264.589 282.67C263.912 282.543 263.212 282.68 262.634 283.053L265.644 284.861C265.725 284.648 265.761 284.421 265.751 284.194C265.741 283.967 265.684 283.744 265.586 283.54C265.487 283.335 265.348 283.152 265.177 283.003C265.005 282.853 264.806 282.74 264.589 282.67V282.67Z" fill="#263238"/>
<path d="M265.436 258.881C265.436 258.881 265.839 257.188 265.852 257.08C265.987 255.81 265.496 253.27 264.186 252.685C263.965 252.595 263.728 252.552 263.49 252.56C263.252 252.567 263.018 252.625 262.804 252.729C262.589 252.833 262.399 252.981 262.246 253.163C262.093 253.346 261.98 253.558 261.915 253.788C261.599 254.749 262.076 255.898 262.62 256.684C263.265 257.611 265.436 258.875 265.436 258.881Z" fill="#263238"/>
<path d="M285.36 269.217C286.18 268.229 287.168 265.857 286.395 264.634C286.262 264.436 286.089 264.269 285.886 264.143C285.684 264.017 285.457 263.936 285.221 263.904C284.985 263.872 284.744 263.891 284.516 263.959C284.287 264.027 284.076 264.142 283.895 264.298C283.532 264.664 283.253 265.105 283.079 265.59C282.905 266.075 282.839 266.593 282.887 267.107C282.887 268.229 284.023 270.467 284.03 270.467C284.036 270.467 285.32 269.304 285.36 269.217Z" fill="#263238"/>
<path d="M257.674 278.557C258.623 279.164 259.662 279.617 260.752 279.901C260.664 280.399 260.577 280.896 260.469 281.373C260.469 281.494 260.409 281.615 260.382 281.743L261.014 282.119C261.054 281.924 261.094 281.723 261.141 281.528C261.296 280.741 261.424 279.942 261.525 279.135C262.603 279.533 263.736 279.76 264.885 279.807C265.404 279.794 265.913 279.666 266.378 279.434C266.842 279.202 267.25 278.87 267.573 278.463C267.701 278.262 267.787 278.036 267.823 277.799C267.859 277.563 267.844 277.321 267.781 277.091C267.718 276.86 267.606 276.645 267.455 276.46C267.303 276.275 267.114 276.124 266.901 276.017C265.604 275.406 263.359 276.689 262.479 277.623C262.425 277.684 261.874 278.423 261.578 278.84C261.639 278.349 261.699 277.865 261.746 277.368C261.874 275.943 261.961 274.492 262.049 273.047C262.049 272.61 262.109 272.167 262.143 271.703C262.331 271.77 264.535 272.509 265.61 272.375C266.558 272.274 267.747 271.884 268.298 271.031C268.427 270.83 268.512 270.604 268.548 270.368C268.584 270.132 268.57 269.892 268.506 269.661C268.443 269.431 268.332 269.217 268.18 269.033C268.029 268.848 267.84 268.698 267.626 268.592C266.329 267.98 264.085 269.264 263.205 270.198C263.144 270.272 262.344 271.34 262.156 271.616C262.223 270.648 262.304 269.68 262.418 268.726C262.563 267.443 262.787 266.171 263.09 264.916C263.178 264.916 265.483 265.729 266.578 265.588C267.532 265.487 268.715 265.097 269.266 264.244C269.395 264.043 269.48 263.817 269.516 263.581C269.552 263.345 269.537 263.104 269.474 262.874C269.411 262.644 269.3 262.43 269.148 262.246C268.996 262.061 268.808 261.911 268.594 261.804C267.297 261.186 265.053 262.476 264.179 263.41C264.105 263.484 263.252 264.634 263.11 264.849C263.11 264.775 263.144 264.701 263.164 264.627C263.516 263.379 263.977 262.165 264.542 260.998C264.844 260.326 265.173 259.741 265.503 259.163C265.919 259.352 267.821 260.198 268.816 260.205C269.81 260.212 270.993 259.956 271.611 259.15C271.762 258.966 271.873 258.751 271.936 258.521C271.999 258.291 272.013 258.05 271.977 257.815C271.941 257.579 271.855 257.353 271.726 257.153C271.597 256.952 271.428 256.781 271.228 256.65C270.012 255.898 267.64 256.932 266.665 257.766C266.612 257.813 266.121 258.33 265.772 258.713C265.926 258.451 266.081 258.182 266.235 257.934C266.806 257.013 267.384 256.207 267.902 255.488C268.197 255.084 268.473 254.728 268.735 254.392C269.895 254.37 271.044 254.168 272.142 253.794C272.989 253.357 273.957 252.564 274.158 251.57C274.203 251.339 274.2 251.101 274.148 250.871C274.097 250.642 273.998 250.425 273.858 250.236C273.719 250.046 273.541 249.888 273.337 249.77C273.133 249.653 272.907 249.579 272.673 249.554C271.242 249.453 269.615 251.462 269.132 252.645C269.091 252.753 268.621 254.426 268.648 254.426H268.681C268.419 254.742 268.144 255.098 267.855 255.461C267.317 256.166 266.719 256.966 266.128 257.88C265.483 258.859 264.893 259.873 264.36 260.917C263.76 262.087 263.265 263.308 262.882 264.566C262.882 264.566 262.882 264.6 262.882 264.613C262.882 264.19 262.821 263.021 262.808 262.927C262.6 261.663 261.464 259.345 260.039 259.13C259.803 259.102 259.563 259.123 259.335 259.193C259.108 259.263 258.897 259.38 258.717 259.537C258.538 259.693 258.393 259.885 258.292 260.101C258.191 260.317 258.136 260.551 258.131 260.79C258.084 261.804 258.85 262.806 259.582 263.404C260.416 264.076 262.667 264.748 262.848 264.748C262.492 266.037 262.22 267.348 262.035 268.672C261.921 269.445 261.834 270.225 261.76 271.011C261.76 270.648 261.719 270.339 261.713 270.278C261.504 269.015 260.369 266.69 258.944 266.482C258.708 266.452 258.468 266.473 258.24 266.543C258.012 266.613 257.802 266.73 257.622 266.886C257.443 267.043 257.298 267.236 257.198 267.452C257.098 267.668 257.045 267.903 257.042 268.141C256.995 269.149 257.761 270.157 258.494 270.749C259.474 271.356 260.541 271.809 261.659 272.093C261.659 272.388 261.598 272.691 261.578 272.993C261.451 274.438 261.336 275.876 261.175 277.287C261.121 277.785 261.047 278.275 260.973 278.759C260.973 278.436 260.973 278.168 260.973 278.127C260.765 276.864 259.629 274.546 258.205 274.331C257.968 274.301 257.728 274.322 257.501 274.392C257.273 274.462 257.062 274.579 256.883 274.735C256.703 274.892 256.559 275.085 256.459 275.301C256.359 275.517 256.306 275.752 256.303 275.99C256.175 276.958 256.941 277.946 257.674 278.557Z" fill="#263238"/>
<path d="M295.205 266.65C294.069 265.769 291.603 266.549 290.548 267.275C290.454 267.335 289.137 268.478 289.164 268.491C288.774 268.605 288.357 268.74 287.9 268.894C287.067 269.19 286.126 269.526 285.132 269.963C284.05 270.417 282.997 270.937 281.98 271.522C280.834 272.166 279.748 272.91 278.734 273.746L278.701 273.78C278.922 273.423 279.527 272.436 279.561 272.335C280.085 271.166 280.414 268.599 279.346 267.631C279.165 267.476 278.953 267.362 278.725 267.294C278.496 267.227 278.257 267.209 278.021 267.241C277.785 267.272 277.558 267.353 277.356 267.478C277.153 267.604 276.98 267.77 276.846 267.967C276.248 268.78 276.342 270.023 276.611 270.944C276.926 271.979 278.459 273.739 278.586 273.88C277.573 274.753 276.623 275.696 275.744 276.703C275.22 277.287 274.716 277.886 274.218 278.497C274.406 278.188 274.568 277.906 274.588 277.865C275.112 276.696 275.441 274.129 274.373 273.161C274.192 273.007 273.98 272.892 273.752 272.825C273.524 272.758 273.284 272.739 273.048 272.771C272.812 272.803 272.585 272.884 272.383 273.009C272.181 273.134 272.007 273.301 271.873 273.497C271.275 274.311 271.369 275.56 271.645 276.474C272.128 277.518 272.769 278.482 273.546 279.33L272.982 280.002C272.081 281.145 271.188 282.28 270.294 283.362C269.978 283.745 269.622 284.115 269.319 284.478L269.635 283.927C270.159 282.764 270.489 280.197 269.42 279.223C269.239 279.068 269.028 278.954 268.799 278.886C268.571 278.819 268.331 278.801 268.095 278.833C267.859 278.864 267.633 278.945 267.43 279.07C267.228 279.196 267.054 279.362 266.92 279.559C266.322 280.372 266.416 281.615 266.692 282.536C267.141 283.594 267.758 284.572 268.52 285.432L267.848 286.158L268.439 286.514C268.849 286.091 269.245 285.647 269.642 285.17C270.325 286.088 271.146 286.895 272.075 287.562C272.515 287.832 273.009 288.001 273.523 288.059C274.036 288.117 274.555 288.062 275.045 287.898C275.263 287.804 275.459 287.665 275.62 287.489C275.781 287.314 275.904 287.107 275.979 286.881C276.054 286.655 276.081 286.416 276.058 286.179C276.035 285.942 275.962 285.713 275.845 285.506C275.099 284.276 272.485 284.115 271.275 284.411C271.194 284.411 270.327 284.74 269.85 284.921C270.166 284.545 270.489 284.175 270.798 283.786C271.692 282.67 272.565 281.508 273.439 280.352L274.245 279.303C274.366 279.458 275.804 281.319 276.758 281.79C277.198 282.058 277.691 282.226 278.203 282.284C278.715 282.342 279.233 282.288 279.722 282.126C279.94 282.031 280.137 281.892 280.297 281.717C280.458 281.541 280.581 281.334 280.656 281.108C280.732 280.883 280.759 280.643 280.735 280.407C280.712 280.17 280.639 279.94 280.522 279.734C279.782 278.504 277.202 278.336 275.952 278.631C275.858 278.631 274.608 279.109 274.299 279.236C274.89 278.463 275.488 277.704 276.113 276.972C276.945 275.98 277.843 275.046 278.801 274.176C278.855 274.25 280.34 276.192 281.321 276.683C282.168 277.126 283.371 277.455 284.285 277.019C284.504 276.925 284.701 276.786 284.862 276.611C285.024 276.436 285.147 276.229 285.223 276.003C285.299 275.777 285.327 275.538 285.304 275.301C285.281 275.063 285.209 274.834 285.091 274.626C284.345 273.397 281.765 273.235 280.522 273.524C280.421 273.524 279.077 274.035 278.835 274.143L279.003 273.981C279.984 273.135 281.039 272.377 282.155 271.717C282.766 271.34 283.371 271.045 283.969 270.722C284.211 271.105 285.313 272.859 286.16 273.41C287.006 273.961 288.115 274.398 289.069 274.082C289.297 274.012 289.507 273.894 289.686 273.738C289.866 273.581 290.01 273.388 290.11 273.172C290.21 272.956 290.264 272.722 290.267 272.484C290.271 272.246 290.225 272.01 290.131 271.791C289.526 270.487 286.98 270.043 285.709 270.198C285.636 270.198 284.943 270.373 284.439 270.5C284.715 270.366 284.99 270.225 285.252 270.104C286.24 269.647 287.168 269.291 287.994 268.982L289.298 268.531C290.277 269.148 291.344 269.613 292.463 269.909C292.971 270.001 293.493 269.981 293.992 269.85C294.491 269.718 294.956 269.479 295.353 269.15C295.518 268.981 295.647 268.78 295.73 268.559C295.813 268.338 295.848 268.102 295.834 267.867C295.82 267.631 295.757 267.401 295.649 267.191C295.54 266.982 295.389 266.797 295.205 266.65Z" fill="#263238"/>
<path d="M260.94 291.588L261.713 292.065L262.19 291.715L262.372 291.581L260.94 291.588Z" fill="#263238"/>
<path d="M38.2999 247.128C38.1004 247.258 37.9303 247.428 37.8007 247.627C37.6711 247.827 37.5848 248.051 37.5475 248.286C37.5101 248.521 37.5225 248.762 37.5838 248.992C37.6451 249.221 37.754 249.436 37.9034 249.621C38.3838 250.177 39.0553 250.532 39.785 250.616L41.2298 247.316C40.2151 246.859 39.0458 246.644 38.2999 247.128Z" fill="#263238"/>
<path d="M44.9861 242.794C44.5317 243.134 44.2088 243.62 44.0722 244.171L46.6056 242.753C46.3561 242.617 46.0749 242.548 45.7905 242.555C45.506 242.563 45.2285 242.645 44.9861 242.794V242.794Z" fill="#263238"/>
<path d="M45.4163 218.776C46.2764 219.502 48.7024 220.161 48.7024 220.161C48.7024 220.161 48.6553 218.427 48.6352 218.319C48.4336 217.056 47.2912 214.731 45.8867 214.509C45.6501 214.478 45.4096 214.497 45.181 214.565C44.9523 214.634 44.7409 214.75 44.5605 214.906C44.3801 215.063 44.2349 215.255 44.1345 215.472C44.0342 215.688 43.9809 215.924 43.9782 216.162C43.9513 217.17 44.7443 218.158 45.4163 218.776Z" fill="#263238"/>
<path d="M27.7225 226.397C27.7225 226.397 26.7212 224.979 26.6473 224.898C25.7871 223.957 23.5561 222.64 22.2524 223.238C22.039 223.344 21.8504 223.494 21.6988 223.678C21.5472 223.861 21.4361 224.075 21.3727 224.305C21.3092 224.534 21.295 224.775 21.3308 225.01C21.3666 225.245 21.4516 225.471 21.5804 225.671C22.0911 226.545 23.2671 226.948 24.2214 227.062C25.3302 227.19 27.7225 226.404 27.7225 226.397Z" fill="#263238"/>
<path d="M26.4593 221.034C26.5265 221.437 26.6005 221.868 26.6878 222.338C26.8625 223.205 27.0641 224.179 27.3598 225.228C27.6592 226.369 28.0272 227.491 28.4619 228.588C28.9417 229.811 29.5286 230.989 30.2158 232.109V232.149C29.9 231.88 28.9793 231.141 28.8718 231.094C27.7899 230.422 25.2901 229.75 24.1678 230.651C23.9898 230.809 23.8474 231.004 23.75 231.222C23.6525 231.44 23.6021 231.675 23.6021 231.914C23.6021 232.152 23.6525 232.388 23.75 232.606C23.8474 232.824 23.9898 233.018 24.1678 233.177C24.8936 233.883 26.1368 233.964 27.0843 233.849C28.1528 233.688 30.1083 232.404 30.2629 232.304C30.9956 233.425 31.7992 234.497 32.6686 235.516C33.1726 236.107 33.6968 236.692 34.2344 237.27L33.6565 236.813C32.5745 236.141 30.0747 235.469 28.9525 236.376C28.7754 236.535 28.6339 236.73 28.537 236.948C28.4401 237.166 28.39 237.401 28.39 237.639C28.39 237.878 28.4401 238.113 28.537 238.331C28.6339 238.548 28.7754 238.743 28.9525 238.903C29.3628 239.215 29.8364 239.434 30.3401 239.544C30.8439 239.655 31.3656 239.653 31.8689 239.541C32.9708 239.206 34.0153 238.705 34.9669 238.056C35.1752 238.271 35.3768 238.493 35.5851 238.728C36.5864 239.776 37.6011 240.818 38.5419 241.873C38.8779 242.243 39.2139 242.619 39.5163 242.995L39.0123 242.605C37.9304 241.933 35.4305 241.261 34.3083 242.162C34.1313 242.321 33.9897 242.516 33.8928 242.734C33.7959 242.951 33.7459 243.187 33.7459 243.425C33.7459 243.664 33.7959 243.899 33.8928 244.117C33.9897 244.334 34.1313 244.529 34.3083 244.689C35.0341 245.394 36.284 245.475 37.2248 245.361C38.2987 245.04 39.3165 244.555 40.2421 243.923C40.5579 244.312 40.8737 244.709 41.1627 245.112C41.3509 245.388 41.5525 245.636 41.7272 245.925V245.965L41.9825 245.388L42.1304 245.3L41.6936 244.709C41.2097 244.07 40.6923 243.445 40.1547 242.834C41.1508 242.282 42.0572 241.582 42.8427 240.757C43.17 240.358 43.4062 239.892 43.5351 239.392C43.6639 238.891 43.6822 238.369 43.5886 237.861C43.5252 237.632 43.4142 237.419 43.2629 237.235C43.1115 237.051 42.9232 236.902 42.7101 236.796C42.4971 236.69 42.2642 236.63 42.0265 236.62C41.7888 236.611 41.5517 236.651 41.3307 236.739C39.9867 237.303 39.4894 239.837 39.6104 241.107C39.6104 241.188 39.8053 242.095 39.9195 242.592C39.5902 242.222 39.2475 241.853 38.9317 241.49C37.9438 240.448 36.9157 239.427 35.8942 238.399L34.9669 237.458C35.1349 237.357 37.1509 236.195 37.7758 235.314C38.1451 234.922 38.42 234.45 38.5796 233.936C38.7391 233.421 38.7791 232.877 38.6965 232.344C38.6329 232.115 38.5219 231.901 38.3706 231.718C38.2194 231.534 38.0313 231.384 37.8184 231.278C37.6056 231.171 37.3728 231.111 37.1351 231.1C36.8974 231.089 36.6601 231.128 36.4385 231.215C35.0945 231.78 34.5973 234.313 34.7182 235.59C34.7182 235.684 34.9937 236.988 35.0811 237.317C34.4091 236.645 33.7371 235.919 33.0651 235.207C32.2014 234.244 31.4022 233.224 30.6728 232.156C30.7534 232.109 32.8635 230.899 33.5019 230.005C33.829 229.607 34.0653 229.142 34.1941 228.643C34.3229 228.144 34.3413 227.623 34.2478 227.116C34.1875 226.883 34.0784 226.665 33.9275 226.477C33.7766 226.289 33.5875 226.135 33.3728 226.026C33.158 225.916 32.9224 225.854 32.6817 225.843C32.4409 225.831 32.2006 225.871 31.9765 225.96C30.6325 226.524 30.1352 229.058 30.2561 230.335C30.2561 230.436 30.5585 231.833 30.6257 232.082L30.4913 231.9C29.7897 230.808 29.1848 229.657 28.6837 228.46C28.4014 227.788 28.1662 227.156 27.9512 226.524C29.0303 226.084 30.0345 225.479 30.9281 224.73C31.2953 224.37 31.5794 223.933 31.7605 223.452C31.9415 222.97 32.0153 222.455 31.9765 221.941C31.9353 221.709 31.846 221.487 31.7143 221.29C31.5826 221.094 31.4113 220.927 31.2115 220.801C31.0116 220.674 30.7875 220.591 30.5536 220.556C30.3197 220.521 30.081 220.535 29.8529 220.597C28.5089 221.014 27.6891 223.474 27.6622 224.757C27.6622 224.824 27.7294 225.537 27.7832 226.054C27.6958 225.765 27.595 225.469 27.5077 225.194C27.1918 224.159 26.9701 223.178 26.7819 222.324C26.6744 221.834 26.587 221.39 26.5131 220.98C27.2621 220.096 27.8697 219.101 28.3141 218.03C28.4773 217.541 28.5313 217.023 28.472 216.511C28.4128 215.998 28.2419 215.506 27.9713 215.067C27.8297 214.875 27.6493 214.716 27.4418 214.599C27.2343 214.482 27.0045 214.41 26.7673 214.387C26.5301 214.365 26.2909 214.393 26.0653 214.47C25.8397 214.546 25.6327 214.67 25.4581 214.832C24.4299 215.833 24.8533 218.38 25.4581 219.536C25.4984 219.576 26.4459 221.054 26.4593 221.034Z" fill="#263238"/>
<path d="M44.2001 226.014C45.1812 226.464 47.5198 226.477 47.708 226.484C47.6934 227.832 47.7698 229.179 47.9364 230.516C48.0305 231.289 48.1515 232.068 48.2792 232.841C48.1649 232.499 48.0641 232.169 48.044 232.169C47.5198 231 45.8129 229.058 44.3883 229.219C44.1523 229.253 43.926 229.335 43.724 229.462C43.522 229.588 43.3489 229.756 43.2158 229.953C43.0828 230.151 42.9928 230.374 42.9516 230.609C42.9105 230.844 42.9192 231.085 42.9771 231.316C43.1921 232.304 44.1867 233.056 45.0603 233.46C46.1627 233.791 47.3097 233.95 48.4606 233.93C48.5144 234.226 48.5614 234.521 48.6152 234.817C48.8705 236.248 49.1326 237.666 49.3476 239.071C49.4216 239.568 49.4753 240.059 49.5358 240.549L49.3342 239.944C48.8033 238.775 47.0964 236.833 45.6718 236.994C45.4389 237.028 45.2155 237.11 45.016 237.235C44.8165 237.36 44.6452 237.525 44.5131 237.719C44.3809 237.914 44.2908 238.134 44.2485 238.366C44.2062 238.597 44.2126 238.835 44.2673 239.064C44.4824 240.052 45.4769 240.804 46.3438 241.208C47.0832 241.468 47.8586 241.61 48.642 241.631L50.2078 240.751L51.4443 240.079L54.8244 236.376C54.7479 236.347 54.6693 236.325 54.5892 236.309C53.178 236.053 51.3435 237.875 50.7387 238.997C50.7387 239.071 50.3624 239.931 50.1809 240.401C50.1137 239.917 50.0465 239.434 49.9592 238.943C49.7172 237.532 49.4216 236.114 49.1393 234.689C49.0452 234.259 48.9646 233.822 48.884 233.386C49.0788 233.386 51.404 233.54 52.4052 233.157C53.299 232.814 54.3473 232.129 54.6228 231.141C54.6922 230.915 54.7133 230.676 54.6847 230.441C54.6561 230.206 54.5786 229.979 54.457 229.776C54.3354 229.573 54.1725 229.397 53.9788 229.261C53.7851 229.124 53.565 229.03 53.3326 228.984C51.9214 228.729 50.0936 230.55 49.4888 231.672C49.4417 231.759 48.9512 233.016 48.8168 233.318C48.6353 232.357 48.4606 231.403 48.3262 230.456C48.1362 229.176 48.0307 227.885 48.0104 226.592C48.1044 226.592 50.5304 226.753 51.5585 226.363C52.0527 226.209 52.5071 225.949 52.8902 225.6C53.2732 225.252 53.5756 224.824 53.7761 224.347C53.8501 224.121 53.8756 223.882 53.8508 223.645C53.826 223.408 53.7516 223.179 53.6324 222.973C53.5132 222.767 53.3519 222.588 53.1589 222.449C52.966 222.309 52.7458 222.212 52.5128 222.163C51.1016 221.901 49.267 223.729 48.6622 224.851C48.6152 224.939 48.091 226.269 47.9902 226.518C47.9902 226.444 47.9902 226.363 47.9902 226.289C48.0102 224.993 48.1406 223.7 48.38 222.425C48.5076 221.72 48.6689 221.081 48.8369 220.409C49.2872 220.483 51.3435 220.806 52.3044 220.55C53.2654 220.295 54.3204 219.744 54.7304 218.81C54.8281 218.593 54.8791 218.358 54.8803 218.12C54.8814 217.882 54.8325 217.646 54.7369 217.429C54.6413 217.211 54.5009 217.015 54.325 216.855C54.1491 216.695 53.9415 216.573 53.7156 216.498C52.3716 216.088 50.3556 217.701 49.5963 218.756C49.556 218.81 49.22 219.428 48.978 219.899C49.0587 219.61 49.1393 219.307 49.22 219.032C49.5358 217.997 49.892 217.063 50.1944 216.236C50.3825 215.773 50.5572 215.356 50.7185 214.966C51.2024 214.805 53.1243 214.16 53.85 213.501C54.5758 212.843 55.2881 211.841 55.194 210.813C55.1811 210.575 55.1182 210.342 55.0094 210.13C54.9007 209.918 54.7486 209.731 54.5629 209.582C54.3772 209.432 54.1621 209.323 53.9317 209.262C53.7012 209.201 53.4605 209.189 53.2251 209.227C51.8139 209.496 50.7656 211.861 50.6043 213.132C50.6043 213.246 50.6043 214.986 50.6043 214.98C50.4363 215.356 50.2616 215.752 50.0734 216.196C49.7441 217.016 49.4014 217.943 49.0385 218.978C48.6674 220.091 48.36 221.224 48.1179 222.372C47.8642 223.665 47.7248 224.978 47.7012 226.296V226.343C47.587 225.94 47.2241 224.818 47.1905 224.737C46.6596 223.568 44.9528 221.626 43.5281 221.787C43.2923 221.82 43.0661 221.903 42.8644 222.029C42.6626 222.156 42.4898 222.323 42.3573 222.521C42.2248 222.719 42.1354 222.943 42.0952 223.178C42.0549 223.412 42.0646 223.653 42.1236 223.884C42.3387 224.858 43.3332 225.624 44.2001 226.014Z" fill="#263238"/>
<path d="M141.66 240.919C141.425 240.952 141.198 241.035 140.997 241.161C140.795 241.288 140.622 241.455 140.49 241.653C140.357 241.851 140.268 242.075 140.227 242.309C140.187 242.544 140.197 242.785 140.256 243.015C140.424 243.503 140.697 243.948 141.056 244.318C141.415 244.688 141.85 244.976 142.332 245.159C142.993 245.397 143.687 245.533 144.389 245.562L144.987 244.85L145.323 243.876C144.792 242.7 143.085 240.757 141.66 240.919Z" fill="#263238"/>
<path d="M134.288 251.073C134.089 251.202 133.919 251.372 133.789 251.572C133.659 251.772 133.573 251.996 133.536 252.231C133.498 252.466 133.511 252.706 133.572 252.936C133.633 253.166 133.742 253.381 133.892 253.566C134.496 254.379 135.72 254.641 136.674 254.641C137.298 254.595 137.912 254.455 138.495 254.224L138.885 252.262L138.844 252.222C137.877 251.382 135.511 250.333 134.288 251.073Z" fill="#263238"/>
<path d="M140.975 246.772C139.879 247.444 139.664 249.608 139.859 250.938L143.078 247.115C142.824 246.819 142.474 246.622 142.089 246.559C141.704 246.496 141.309 246.572 140.975 246.772V246.772Z" fill="#263238"/>
<path d="M131.05 241.967C131.258 242.182 131.46 242.404 131.668 242.639C132.669 243.688 133.684 244.729 134.625 245.784C134.961 246.154 135.297 246.53 135.599 246.906L135.095 246.517C134.013 245.845 131.513 245.173 130.391 246.073C130.214 246.233 130.073 246.427 129.976 246.645C129.879 246.863 129.829 247.098 129.829 247.337C129.829 247.575 129.879 247.81 129.976 248.028C130.073 248.246 130.214 248.44 130.391 248.6C131.117 249.305 132.367 249.386 133.308 249.272C134.382 248.951 135.399 248.466 136.325 247.834C136.641 248.23 136.957 248.62 137.246 249.023C137.434 249.299 137.635 249.547 137.81 249.836L138.341 250.67C138.583 251.086 138.832 251.503 139.067 251.913L139.584 251.301C139.383 250.965 139.174 250.629 138.953 250.273L138.401 249.447C138.227 249.171 138.005 248.896 137.803 248.62C137.32 247.948 136.802 247.357 136.265 246.745C137.261 246.193 138.167 245.493 138.953 244.669C139.28 244.269 139.516 243.803 139.645 243.303C139.774 242.803 139.792 242.28 139.698 241.772C139.639 241.544 139.532 241.331 139.385 241.147C139.239 240.962 139.055 240.811 138.846 240.701C138.638 240.592 138.408 240.527 138.173 240.511C137.938 240.496 137.702 240.529 137.481 240.61C136.137 241.174 135.64 243.708 135.761 244.978C135.761 245.058 135.955 245.966 136.07 246.463C135.74 246.093 135.398 245.724 135.082 245.368C134.094 244.326 133.066 243.298 132.044 242.27L131.117 241.329C131.285 241.228 133.301 240.065 133.926 239.185C134.253 238.787 134.49 238.322 134.619 237.823C134.748 237.324 134.766 236.802 134.672 236.296C134.608 236.066 134.497 235.853 134.346 235.669C134.195 235.485 134.007 235.336 133.794 235.229C133.581 235.123 133.348 235.062 133.111 235.051C132.873 235.041 132.636 235.08 132.414 235.167C131.07 235.731 130.573 238.264 130.694 239.541C130.694 239.635 130.969 240.939 131.057 241.268C130.385 240.596 129.713 239.871 129.041 239.158C128.177 238.195 127.378 237.176 126.648 236.107C126.729 236.06 128.839 234.851 129.477 233.957C129.804 233.559 130.041 233.094 130.17 232.595C130.298 232.095 130.317 231.574 130.223 231.067C130.16 230.838 130.049 230.625 129.897 230.441C129.746 230.257 129.558 230.107 129.345 230.001C129.132 229.895 128.9 229.834 128.662 229.823C128.424 229.812 128.187 229.852 127.965 229.938C126.621 230.503 126.124 233.036 126.245 234.313C126.245 234.414 126.547 235.812 126.615 236.06L126.48 235.879C125.779 234.787 125.174 233.636 124.673 232.438C124.39 231.766 124.155 231.135 123.94 230.503C125.018 230.062 126.022 229.459 126.917 228.715C127.555 227.996 128.167 226.914 127.972 225.92C127.931 225.687 127.842 225.465 127.71 225.269C127.578 225.072 127.407 224.905 127.207 224.779C127.007 224.653 126.783 224.569 126.549 224.534C126.315 224.499 126.077 224.513 125.849 224.576C124.505 224.993 123.685 227.459 123.658 228.736C123.658 228.803 123.725 229.515 123.779 230.033C123.691 229.744 123.591 229.448 123.503 229.172C123.187 228.137 122.966 227.156 122.777 226.303C122.67 225.812 122.583 225.369 122.509 224.959C123.258 224.074 123.865 223.079 124.31 222.009C124.473 221.52 124.527 221.001 124.468 220.489C124.408 219.977 124.237 219.484 123.967 219.045C123.825 218.854 123.645 218.694 123.437 218.577C123.23 218.46 123 218.388 122.763 218.366C122.526 218.344 122.286 218.372 122.061 218.448C121.835 218.525 121.628 218.648 121.454 218.81C120.425 219.811 120.849 222.365 121.454 223.514C121.507 223.615 122.455 225.073 122.468 225.053C122.536 225.456 122.609 225.886 122.697 226.357C122.872 227.224 123.073 228.198 123.369 229.246C123.668 230.387 124.036 231.509 124.471 232.606C124.952 233.831 125.539 235.011 126.225 236.134C126.228 236.145 126.228 236.157 126.225 236.168C125.909 235.899 124.988 235.16 124.914 235.113C123.833 234.441 121.333 233.769 120.21 234.676C120.034 234.835 119.892 235.029 119.795 235.246C119.698 235.463 119.648 235.698 119.648 235.936C119.648 236.174 119.698 236.409 119.795 236.626C119.892 236.843 120.034 237.037 120.21 237.196C120.936 237.908 122.179 237.982 123.127 237.868C124.195 237.707 126.151 236.423 126.305 236.322C127.038 237.443 127.842 238.516 128.711 239.535C129.215 240.126 129.739 240.711 130.277 241.289L129.699 240.832C128.617 240.16 126.117 239.488 124.995 240.395C124.817 240.554 124.675 240.748 124.577 240.966C124.48 241.184 124.429 241.42 124.429 241.658C124.429 241.897 124.48 242.133 124.577 242.35C124.675 242.568 124.817 242.763 124.995 242.921C125.714 243.627 126.964 243.708 127.905 243.56C129.029 243.196 130.091 242.658 131.05 241.967V241.967Z" fill="#263238"/>
<path d="M141.432 222.755C142.292 223.48 144.718 224.139 144.718 224.139C144.718 224.139 144.671 222.405 144.651 222.298C144.449 221.034 143.307 218.709 141.902 218.487C141.666 218.457 141.426 218.477 141.198 218.546C140.97 218.615 140.759 218.731 140.578 218.887C140.398 219.043 140.253 219.235 140.152 219.451C140.052 219.667 139.998 219.902 139.994 220.14C139.94 221.148 140.7 222.136 141.432 222.755Z" fill="#263238"/>
<path d="M123.711 230.382C123.711 230.382 122.71 228.957 122.636 228.877C121.776 227.936 119.544 226.619 118.241 227.217C118.027 227.323 117.839 227.472 117.687 227.656C117.536 227.84 117.424 228.053 117.361 228.283C117.298 228.512 117.283 228.753 117.319 228.988C117.355 229.224 117.44 229.449 117.569 229.649C118.08 230.523 119.256 230.926 120.21 231.04C121.352 231.168 123.711 230.382 123.711 230.382Z" fill="#263238"/>
<path d="M140.168 229.992C141.15 230.442 143.488 230.462 143.676 230.462C143.663 231.799 143.74 233.135 143.905 234.461C143.999 235.234 144.12 236.013 144.247 236.793C144.133 236.443 144.032 236.121 144.012 236.121C143.488 234.951 141.781 233.009 140.357 233.171C140.121 233.204 139.894 233.286 139.692 233.413C139.49 233.539 139.317 233.707 139.184 233.905C139.051 234.102 138.961 234.326 138.92 234.561C138.879 234.795 138.887 235.036 138.945 235.267C139.16 236.255 140.155 237.008 141.029 237.411C142.131 237.742 143.278 237.901 144.429 237.881C144.483 238.177 144.53 238.473 144.583 238.768C144.839 240.2 145.101 241.624 145.316 243.022C145.316 243.23 145.363 243.439 145.39 243.647L145.813 242.437C145.585 241.187 145.329 239.931 145.081 238.674C144.993 238.244 144.906 237.807 144.825 237.377C145.742 237.432 146.661 237.412 147.574 237.317L148.757 233.896L149.691 233.083C149.567 233.023 149.436 232.98 149.301 232.955C147.89 232.7 146.062 234.521 145.457 235.643C145.41 235.731 144.919 236.987 144.785 237.29C144.604 236.329 144.429 235.375 144.295 234.427C144.104 233.148 143.999 231.857 143.979 230.563C144.073 230.563 146.499 230.724 147.527 230.335C148.021 230.18 148.475 229.92 148.858 229.572C149.241 229.224 149.544 228.796 149.744 228.319C149.818 228.092 149.844 227.853 149.819 227.616C149.794 227.379 149.72 227.151 149.601 226.944C149.481 226.738 149.32 226.56 149.127 226.42C148.934 226.281 148.714 226.183 148.481 226.135C147.07 225.873 145.235 227.7 144.631 228.823C144.583 228.91 144.059 230.241 143.959 230.489C143.959 230.415 143.959 230.341 143.959 230.261C143.979 228.964 144.109 227.671 144.348 226.397C144.476 225.725 144.637 225.053 144.805 224.381C145.255 224.455 147.312 224.777 148.273 224.522C149.234 224.267 150.289 223.715 150.699 222.781C150.796 222.564 150.847 222.329 150.849 222.091C150.85 221.853 150.801 221.618 150.705 221.4C150.61 221.182 150.469 220.987 150.293 220.826C150.117 220.666 149.91 220.545 149.684 220.47C148.34 220.06 146.324 221.673 145.565 222.728C145.524 222.781 145.188 223.4 144.946 223.87C145.027 223.581 145.108 223.279 145.188 223.003C145.504 221.968 145.86 221.034 146.163 220.208C146.351 219.744 146.526 219.327 146.687 218.938C147.171 218.776 149.093 218.131 149.818 217.473C150.544 216.814 151.256 215.813 151.162 214.785C151.149 214.547 151.086 214.314 150.978 214.102C150.869 213.889 150.717 213.703 150.531 213.553C150.345 213.403 150.13 213.295 149.9 213.234C149.669 213.172 149.429 213.161 149.193 213.199C147.782 213.467 146.734 215.833 146.579 217.103C146.579 217.217 146.546 218.958 146.579 218.951C146.411 219.327 146.237 219.724 146.055 220.167C145.719 220.987 145.35 221.915 145.014 222.949C144.642 224.062 144.335 225.195 144.093 226.343C143.82 227.63 143.66 228.939 143.616 230.254V230.328C143.502 229.925 143.139 228.803 143.105 228.722C142.574 227.553 140.867 225.611 139.443 225.772C139.207 225.805 138.981 225.888 138.779 226.014C138.577 226.141 138.404 226.308 138.272 226.506C138.139 226.704 138.05 226.928 138.01 227.162C137.969 227.397 137.979 227.638 138.038 227.868C138.327 228.836 139.322 229.589 140.168 229.992Z" fill="#263238"/>
<path d="M242.07 171.299L239.389 167.973L241.801 166.071L243.421 168.094L242.87 169.378L243.327 170.399L242.379 171.078" fill="white"/>
<path d="M242.07 171.299L239.389 167.973L241.801 166.071L243.421 168.094L242.87 169.378L243.327 170.399L242.379 171.078" stroke="#263238" stroke-linecap="round" stroke-linejoin="round"/>
<path d="M263.815 177.072C263.815 177.072 261.981 175.432 261.295 175.54C260.61 175.647 251.619 177.153 251.619 177.153L243.346 170.399L242.083 171.3L249.999 181.232L258.601 180.694L256.753 190.102L248.924 196.056L261.692 203.683L264.266 195.565L274.433 185.553L270.482 180.6L263.815 177.072Z" fill="black" stroke="#263238" stroke-linecap="round" stroke-linejoin="round"/>
<path d="M266.437 174.901L264.992 177.939L264.461 177.455L263.446 184.84L270.489 180.573L269.783 179.458L269.945 177.153L266.437 174.901Z" fill="white" stroke="#263238" stroke-linecap="round" stroke-linejoin="round"/>
<path d="M263.446 184.84L267.566 182.34L264.125 179.921L263.446 184.84Z" fill="white" stroke="#263238" stroke-linecap="round" stroke-linejoin="round"/>
<path d="M274.567 167.664C274.567 167.664 277.679 164.022 280.844 166.32C284.009 168.618 283.135 170.863 285.393 169.633C287.651 168.403 291.891 165.278 294.445 169.257C296.999 173.235 295.03 177.401 293.424 178.356C291.817 179.31 292.241 177.489 292.274 176.608C292.308 175.728 289.674 174.592 289.089 176.407C288.505 178.221 285.433 181.017 281.536 180.755C277.638 180.493 276.886 175.701 276.973 172.885C276.967 172.04 276.742 171.211 276.319 170.48C275.896 169.748 275.29 169.139 274.561 168.712L274.567 167.664Z" fill="#263238" stroke="#263238" stroke-linecap="round" stroke-linejoin="round"/>
<path d="M267.108 166.911C267.108 166.911 265.16 171.252 265.563 173.813C265.966 176.373 265.751 178.342 267.055 178.839C268.358 179.337 272.679 176.722 273.633 174.995C274.588 173.268 275.952 170.775 275.576 168.383C275.199 165.991 270.616 162.51 267.108 166.911Z" fill="white" stroke="#263238" stroke-linecap="round" stroke-linejoin="round"/>
<path d="M267.848 171.467C267.747 171.803 267.532 172.032 267.364 171.978C267.196 171.924 267.142 171.615 267.243 171.306C267.344 170.997 267.559 170.742 267.727 170.795C267.895 170.849 267.922 171.131 267.848 171.467Z" fill="#263238"/>
<path d="M270.952 172.758C270.852 173.094 270.63 173.329 270.462 173.275C270.294 173.221 270.24 172.912 270.341 172.603C270.442 172.294 270.663 172.039 270.831 172.086C270.999 172.133 271.053 172.422 270.952 172.758Z" fill="#263238"/>
<path d="M268.633 172.025C268.633 172.025 268.835 172.173 268.553 172.697C268.271 173.221 267.592 173.033 267.666 173.484C267.74 173.934 268.593 174.156 268.593 174.156" stroke="#263238" stroke-linecap="round" stroke-linejoin="round"/>
<path d="M267.068 174.935C267.068 174.935 268.15 175.956 269.118 175.708" stroke="#263238" stroke-linecap="round" stroke-linejoin="round"/>
<path d="M271.974 171.683L269.965 171.172" stroke="#263238" stroke-linecap="round" stroke-linejoin="round"/>
<path d="M268.379 170.413L267.418 169.552" stroke="#263238" stroke-linecap="round" stroke-linejoin="round"/>
<path d="M267.108 166.911C267.108 166.911 266.819 167.583 266.483 168.504C267.619 167.913 269.575 167.247 271.362 168.349C273.15 169.451 274.05 171.985 274.413 173.537C275.172 171.998 275.851 170.177 275.576 168.383C275.199 165.991 270.616 162.51 267.108 166.911Z" fill="#263238" stroke="#263238" stroke-linecap="round" stroke-linejoin="round"/>
<path d="M273.949 173.47C273.949 173.47 275.347 172.186 275.293 173.356C275.239 174.525 273.633 175.217 273.277 175.271C272.921 175.325 272.948 174.874 272.948 174.874" fill="white"/>
<path d="M273.949 173.47C273.949 173.47 275.347 172.186 275.293 173.356C275.239 174.525 273.633 175.217 273.277 175.271C272.921 175.325 272.948 174.874 272.948 174.874" stroke="#263238" stroke-linecap="round" stroke-linejoin="round"/>
<path d="M274.426 185.559L272.276 200.888C272.229 201.214 272.068 201.513 271.823 201.733C271.577 201.953 271.262 202.08 270.932 202.091H270.468C270.111 202.104 269.762 201.98 269.493 201.744C269.224 201.507 269.056 201.177 269.024 200.82L268.184 191.601L274.426 185.559Z" fill="black" stroke="#263238" stroke-linecap="round" stroke-linejoin="round"/>
<path d="M270.536 198.784L263.634 192.696L262.089 193.993L268.715 201.66C268.86 201.817 269.039 201.939 269.238 202.016C269.437 202.092 269.651 202.123 269.864 202.104H270.408C270.617 202.095 270.821 202.04 271.006 201.943C271.19 201.845 271.351 201.708 271.476 201.541C271.601 201.373 271.687 201.18 271.728 200.975C271.768 200.771 271.763 200.559 271.712 200.357V200.357" fill="black"/>
<path d="M270.536 198.784L263.634 192.696L262.089 193.993L268.715 201.66C268.86 201.817 269.039 201.939 269.238 202.016C269.437 202.092 269.651 202.123 269.864 202.104H270.408C270.617 202.095 270.821 202.04 271.006 201.943C271.19 201.845 271.351 201.708 271.476 201.541C271.601 201.373 271.687 201.18 271.728 200.975C271.768 200.771 271.763 200.559 271.712 200.357V200.357" stroke="#263238" stroke-linecap="round" stroke-linejoin="round"/>
<path d="M263.635 192.689L262.015 190.102L258.373 189.699L258.393 191.87L260.14 193.328L261.249 193.482L262.089 193.986L263.635 192.689Z" fill="white" stroke="#263238" stroke-linecap="round" stroke-linejoin="round"/>
<path d="M244.133 200.76C244.133 200.76 236.526 210.659 236.942 212.298C237.359 213.938 248.474 231.296 248.474 231.296L250.019 230.274L243.911 211.203L256.188 206.317L244.133 200.76Z" fill="white" stroke="#263238" stroke-linecap="round" stroke-linejoin="round"/>
<path d="M250.262 204.429L251.162 208.387L255.228 206.828L250.262 204.429Z" fill="#263238" stroke="#263238" stroke-miterlimit="10"/>
<path d="M248.474 231.262L246.458 234.622C246.458 234.622 244.852 237.028 245.323 237.176C246.351 237.505 249.012 235.758 249.771 235.22C250.531 234.683 251.344 234.326 251.848 233.97C252.352 233.614 253.36 233.406 251.982 232.129C251.518 231.706 250.047 230.241 250.047 230.241L248.474 231.262Z" fill="white" stroke="#263238" stroke-linecap="round" stroke-linejoin="round"/>
<path d="M261.033 197.602C257.609 196.236 254.106 195.076 250.543 194.127C244.381 192.454 239.825 191.157 239.912 192.696C240 194.235 251.209 219.025 251.209 219.025L253.131 218.413L250.201 204.745C250.201 204.745 254.905 208.038 258.379 206.405C261.853 204.772 263.177 200.357 262.935 198.852" fill="#263238"/>
<path d="M261.033 197.602C257.609 196.236 254.106 195.076 250.543 194.127C244.381 192.454 239.825 191.157 239.912 192.696C240 194.235 251.209 219.025 251.209 219.025L253.131 218.413L250.201 204.745C250.201 204.745 254.905 208.038 258.379 206.405C261.853 204.772 263.177 200.357 262.935 198.852" stroke="#263238" stroke-linecap="round" stroke-linejoin="round"/>
<path d="M249.233 193.771C243.75 192.286 239.825 191.265 239.913 192.696C240 194.235 251.209 219.025 251.209 219.025L253.131 218.413L250.201 204.745C251.202 202.306 250.14 197.178 249.233 193.771Z" fill="white" stroke="#263238" stroke-linecap="round" stroke-linejoin="round"/>
<path d="M250.201 204.745L245.369 197.736" stroke="#263238" stroke-linecap="round" stroke-linejoin="round"/>
<path d="M251.209 219.025L249.408 222.419C249.408 222.419 245.772 225.94 246.579 226.121C247.385 226.303 254.219 223.366 254.73 222.667C255.241 221.968 253.131 218.413 253.131 218.413L251.209 219.025Z" fill="white" stroke="#263238" stroke-linecap="round" stroke-linejoin="round"/>
<path d="M242.85 169.66L259.797 189.84" stroke="#263238" stroke-miterlimit="10"/>
<path d="M190.702 107.164L240.437 166.676" stroke="#263238" stroke-miterlimit="10"/>
<path d="M261.249 193.475V291.587" stroke="#263238" stroke-miterlimit="10"/>
<path d="M99.3982 166.213C99.3982 166.213 102.973 187.132 99.0891 193.765C95.2049 200.397 85.4609 195.626 85.4609 195.626V290.916" stroke="#263238" stroke-miterlimit="10"/>
<path d="M77.9337 174.041C77.9337 174.041 81.0988 173.678 81.3408 174.411C81.4735 175.011 81.4735 175.632 81.3408 176.232C81.3408 176.232 83.1619 178.181 83.1619 179.518C83.1619 180.855 81.2198 181.467 81.2198 181.467L80.8569 184.625L75.9916 184.867L75.3801 181.097C75.3801 181.097 73.5523 173.92 77.9337 174.041Z" fill="white" stroke="#263238" stroke-linecap="round" stroke-linejoin="round"/>
<path d="M78.9088 179.256L77.5648 177.307C78.016 176.574 78.2663 175.735 78.2905 174.875C78.2905 173.531 78.1696 171.105 75.3741 171.105C72.5786 171.105 70.7507 173.295 70.1459 178.04C69.5411 182.784 72.3299 185.096 76.3485 184.242C80.367 183.389 78.9088 179.256 78.9088 179.256Z" fill="#263238" stroke="#263238" stroke-linecap="round" stroke-linejoin="round"/>
<path d="M78.7879 178.423C78.7879 178.423 76.7181 178.181 76.8391 179.767C76.8711 180.108 77.0056 180.431 77.225 180.694C77.4444 180.957 77.7383 181.147 78.068 181.239C78.3977 181.332 78.7476 181.322 79.0717 181.211C79.3958 181.101 79.6787 180.895 79.8832 180.62" fill="white"/>
<path d="M78.7879 178.423C78.7879 178.423 76.7181 178.181 76.8391 179.767C76.8711 180.108 77.0056 180.431 77.225 180.694C77.4444 180.957 77.7383 181.147 78.068 181.239C78.3977 181.332 78.7476 181.322 79.0717 181.211C79.3958 181.101 79.6787 180.895 79.8832 180.62" stroke="#263238" stroke-linecap="round" stroke-linejoin="round"/>
<path d="M75.9047 186.057L71.4224 187.32C71.4224 187.32 71.073 188.194 70.5488 189.336C69.8432 190.888 67.9012 194.04 67.9012 194.04L58.93 196.6L56.0471 205.894L55.4087 209.738L60.5293 207.171L60.8519 198.207L68.9159 196.963L72.3767 188.227L75.9047 186.057Z" fill="#263238" stroke="#263238" stroke-linecap="round" stroke-linejoin="round"/>
<path d="M83.0481 184.746C83.0481 184.746 79.5201 183.167 76.8455 183.53C74.171 183.893 74.4129 185.237 74.4129 185.237L74.5339 187.058C74.5339 187.058 79.0161 185.721 83.0481 184.746Z" fill="black" stroke="#263238" stroke-linecap="round" stroke-linejoin="round"/>
<path d="M70.999 193.63L73.519 205.283C73.5382 205.422 73.5905 205.556 73.6715 205.671C73.7525 205.787 73.8598 205.881 73.9847 205.947C74.1095 206.013 74.2482 206.047 74.3893 206.049C74.5304 206.05 74.6697 206.018 74.7958 205.955L80.4877 203.112L70.999 193.63Z" fill="black" stroke="#263238" stroke-linecap="round" stroke-linejoin="round"/>
<path d="M77.3295 199.833L75.9922 202.507" stroke="#263238" stroke-linecap="round" stroke-linejoin="round"/>
<path d="M89.123 211.633L96.468 223.783L95.4936 240.213L99.0216 240.092L102.55 220.497L97.3954 206.768L89.123 211.633Z" fill="#263238" stroke="#263238" stroke-linecap="round" stroke-linejoin="round"/>
<path d="M74.527 187.058C74.527 187.058 70.999 193.14 70.999 193.63C70.999 194.121 84.7481 207.373 84.7481 207.373L95.2112 200.438L88.639 189.014L98.1008 179.727L98.8265 167.194L97.1264 167.073L94.0822 176.199L84.0022 184.142L74.527 187.058Z" fill="black" stroke="#263238" stroke-linecap="round" stroke-linejoin="round"/>
<path d="M97.126 167.073L97.2469 164.277L100.284 161.965L100.533 162.57V164.398L100.654 165.856L98.8261 167.194L97.126 167.073Z" fill="white" stroke="#263238" stroke-linecap="round" stroke-linejoin="round"/>
<path d="M84.748 207.373C84.748 207.373 87.0597 211.263 88.78 212.48C90.5004 213.696 95.8159 209.926 97.1599 208.824C98.5039 207.722 103.611 201.163 103.611 201.163L108.355 221.377L111.279 220.161C111.279 220.161 109.565 193.281 108.718 192.528C107.872 191.775 94.7272 200.31 94.7272 200.31L84.748 207.373Z" fill="#263238" stroke="#263238" stroke-linecap="round" stroke-linejoin="round"/>
<path d="M111.272 220.167H115.405C116.137 220.167 117.958 219.072 118.093 219.925C118.227 220.779 114.565 223.084 113.1 223.816C111.693 224.362 110.223 224.73 108.725 224.912L108.356 221.384L111.272 220.167Z" fill="white" stroke="#263238" stroke-linecap="round" stroke-linejoin="round"/>
<path d="M99.0212 240.092L101.091 243.862C101.091 243.862 103.645 244.957 103.645 245.448C103.645 245.939 99.5118 245.69 99.1422 245.69C98.7726 245.69 94.6465 241.658 94.6465 241.658L95.4932 240.193L99.0212 240.092Z" fill="white" stroke="#263238" stroke-linecap="round" stroke-linejoin="round"/>
<path d="M100.285 161.965L139.994 107.52" stroke="#263238" stroke-miterlimit="10"/>
<path d="M1.06403 291.614H319.592" stroke="#263238" stroke-linecap="round" stroke-linejoin="round"/>
</g>
<defs>
<clipPath id="clip0_8_2">
<rect width="321" height="293" fill="white"/>
</clipPath>
</defs>
</svg>
