<svg width="447" height="397" viewBox="0 0 447 397" fill="none" xmlns="http://www.w3.org/2000/svg">
<path d="M207.913 206.471C198.077 207.126 188.516 202.92 184.964 200.735H183.325L181.685 209.748V219.58L185.783 230.231C185.783 230.231 189.062 234.328 189.881 234.328C190.701 234.328 178.407 259.727 178.407 259.727V305.609L175.948 327.731L179.227 336.744C176.222 335.924 174.801 335.761 193.16 341.66C211.519 347.559 219.933 329.37 221.846 319.538C222.665 308.614 224.304 287.42 224.304 290.042C224.304 292.664 235.779 297.689 241.516 299.874C255.175 304.244 283.806 312.983 289.052 312.983C294.297 312.983 300.526 310.798 302.985 309.706C311.181 302.332 306.263 281.849 305.443 279.391C304.788 277.424 300.799 274.202 298.887 272.836C296.241 271.32 294.269 270.43 289.051 268.74L266.923 263.004L265.284 267.101C265.2 266.349 264.688 265.807 262.825 264.643L259.546 258.908L256.268 263.004L252.99 264.643V262.185L254.629 257.269L252.99 254.811C252.443 254.538 251.187 253.828 250.531 253.172C249.875 252.517 249.165 251.261 248.892 250.714L248.072 243.34C250.063 239.556 254.204 230.1 257.088 223.677C259.992 217.208 260.366 204.286 259.547 198.277L252.99 189.265C225.943 208.109 220.206 205.651 207.913 206.471Z" fill="#263238"/>
<path d="M188.586 235.836C188.436 235.834 188.288 235.798 188.155 235.73C188.021 235.662 187.905 235.563 187.816 235.442C185.242 231.837 180.538 221.317 180.046 216.467C179.554 211.616 182.325 200.08 182.439 199.556C182.502 199.316 182.655 199.111 182.867 198.982C183.078 198.854 183.332 198.813 183.573 198.869C183.814 198.924 184.024 199.072 184.158 199.279C184.292 199.487 184.34 199.739 184.292 199.982C184.292 200.113 181.489 211.747 181.931 216.368C182.374 220.989 186.964 231.116 189.357 234.393C189.43 234.495 189.483 234.609 189.511 234.731C189.54 234.852 189.545 234.978 189.525 235.101C189.505 235.225 189.462 235.343 189.396 235.449C189.331 235.555 189.245 235.648 189.144 235.721C188.973 235.813 188.779 235.853 188.586 235.836Z" fill="#263238"/>
<path d="M202.077 342.954L195.832 342.512C202.601 340.693 206.798 329.796 209.42 322.307C209.912 320.898 210.387 319.554 210.863 318.325C213.19 312.246 213.404 293.319 213.272 286.043C212.305 282.619 209.699 274.278 207.863 271.574C207.481 271.027 207.214 270.408 207.078 269.754C206.943 269.101 206.942 268.426 207.076 267.772C207.65 265.02 210.469 263.233 212.945 261.677C213.781 261.182 214.586 260.634 215.354 260.038C215.911 256.531 219.993 255.433 223.025 254.63C223.976 254.368 224.878 254.122 225.583 253.86C228.517 251.173 241.368 226.626 244.187 213.435C246.58 202.308 242.548 198.375 242.548 198.343L246.253 194.017C246.941 194.59 252.924 200.08 249.81 214.631C247.384 225.938 233.336 256.908 227.992 259.055C226.866 259.476 225.717 259.831 224.55 260.12C223.325 260.391 222.133 260.792 220.993 261.316C220.632 263.61 218.403 265.02 216.075 266.511C214.924 267.147 213.837 267.894 212.83 268.739C215.518 273.098 218.518 283.618 218.862 284.847L218.96 285.552C218.96 288.239 219.386 312 216.174 320.357C215.731 321.537 215.272 322.815 214.797 324.159C211.863 332.647 211.764 340.365 202.077 342.954Z" fill="white"/>
<path d="M307.722 286.125C303.247 283.93 291.592 281.636 284.609 280.161C281.626 279.538 279.053 278.981 277.118 278.522C273.908 277.76 270.532 278.166 267.595 279.669C266.723 280.051 265.824 280.368 264.907 280.62C261.366 281.504 258.956 278.031 257.219 275.491C257.022 275.212 256.809 274.884 256.58 274.589C254.367 275.884 251.318 277.654 248.384 276.818C247.703 276.613 247.073 276.27 246.531 275.811C245.99 275.351 245.549 274.785 245.236 274.147C244.489 272.536 243.939 270.842 243.597 269.1C243.056 266.822 242.679 265.38 241.548 264.479C237.68 261.398 237.696 259.94 237.614 259.563L240.516 254.827C241.828 256.763 243.369 258.535 245.105 260.104C247.336 262.127 248.766 264.883 249.138 267.871C249.385 269.077 249.747 270.257 250.22 271.394C251.429 270.988 252.584 270.438 253.662 269.755C254.465 269.225 255.336 268.807 256.252 268.51C258.825 267.871 260.399 270.149 261.907 272.328C262.525 273.285 263.227 274.184 264.005 275.015C264.415 274.884 264.907 274.688 265.447 274.458C269.522 272.477 274.163 271.99 278.561 273.082C280.38 273.541 282.905 274.065 285.822 274.72C292.772 276.043 299.547 278.154 306.017 281.013L307.722 286.125Z" fill="white"/>
<path d="M340.014 316.965C339.829 316.965 339.647 316.914 339.489 316.818C328.9 309.919 305.066 307.969 304.804 307.953C304.671 307.956 304.538 307.932 304.415 307.881C304.292 307.83 304.181 307.754 304.089 307.658C303.997 307.561 303.926 307.446 303.882 307.321C303.837 307.195 303.82 307.061 303.83 306.929C303.84 306.796 303.879 306.666 303.942 306.549C304.006 306.432 304.093 306.33 304.199 306.249C304.305 306.167 304.427 306.109 304.556 306.078C304.686 306.047 304.821 306.044 304.952 306.068C305.952 306.068 329.539 308.067 340.522 315.228C340.628 315.295 340.719 315.382 340.791 315.484C340.862 315.587 340.912 315.703 340.938 315.825C340.964 315.947 340.966 316.073 340.942 316.196C340.918 316.319 340.87 316.435 340.8 316.539C340.714 316.669 340.598 316.776 340.46 316.851C340.323 316.925 340.17 316.964 340.014 316.965Z" fill="#263238"/>
<path d="M331.49 298.317C330.75 298.301 330.015 298.179 329.31 297.957C325.916 296.99 308 287.371 307.279 286.961C307.058 286.843 306.893 286.642 306.819 286.403C306.746 286.164 306.77 285.905 306.886 285.683C307.007 285.461 307.211 285.296 307.453 285.222C307.695 285.149 307.956 285.173 308.181 285.29C314.557 288.731 327.277 295.4 329.818 296.138C330.498 296.415 331.244 296.489 331.965 296.351C332.024 296.131 332.16 295.939 332.348 295.811C332.537 295.682 332.765 295.626 332.991 295.652C333.218 295.678 333.427 295.784 333.582 295.951C333.737 296.119 333.826 296.336 333.834 296.564C333.825 296.815 333.758 297.062 333.639 297.283C333.519 297.505 333.35 297.696 333.145 297.842C332.66 298.178 332.079 298.345 331.49 298.317Z" fill="#263238"/>
<path d="M341.505 285.65C341.505 285.65 332.49 294.434 332.49 295.384C332.49 296.334 338.899 302.021 339.374 303.921C339.85 305.822 344.128 303.446 345.308 303.921C346.488 304.397 346.259 307.723 342.931 308.428C339.604 309.132 339.85 317.686 341.03 318.866C342.21 320.046 352.504 325.273 358.126 331.205C363.749 337.137 366.912 343.069 369.273 344.019C371.633 344.97 374.026 345.658 374.731 340.939C375.436 336.219 376.157 325.994 369.994 318.636C363.831 311.279 361.208 310.558 359.307 310.558C357.405 310.558 354.389 310.804 355.52 308.198C356.651 305.593 359.307 303.282 358.356 301.07C357.405 298.858 349.98 284.946 341.505 285.65Z" fill="#263238"/>
<path d="M374.42 347.493C373.727 347.528 373.039 347.372 372.429 347.043C371.819 346.714 371.311 346.223 370.961 345.625C370.905 345.514 370.872 345.394 370.863 345.27C370.854 345.147 370.87 345.022 370.91 344.905C370.949 344.788 371.012 344.679 371.094 344.586C371.176 344.493 371.276 344.417 371.387 344.363C371.609 344.254 371.866 344.235 372.102 344.312C372.337 344.388 372.534 344.554 372.649 344.773C372.731 344.904 373.371 345.969 375.37 345.478C378.108 344.789 380.288 344.003 380.845 340.758C381.613 333.677 380.164 326.531 376.698 320.308C374.592 317.132 372.067 314.255 369.191 311.754C366.617 309.345 364.601 307.444 364.453 305.412C364.453 304.675 364.453 303.938 364.372 303.168C364.51 300.227 363.948 297.295 362.732 294.614C360.585 290.337 355.487 284.782 350.652 282.733C346.209 280.915 344.193 281.718 342.456 286.011C342.358 286.243 342.172 286.427 341.938 286.523C341.704 286.618 341.443 286.617 341.21 286.519C340.977 286.421 340.793 286.235 340.698 286.001C340.603 285.768 340.604 285.506 340.702 285.273C342.915 279.997 346.029 278.719 351.438 280.964C356.848 283.209 362.224 289.157 364.552 293.762C365.922 296.679 366.574 299.881 366.453 303.102C366.453 303.845 366.486 304.566 366.552 305.265C366.634 306.543 368.519 308.313 370.682 310.345C373.69 312.962 376.327 315.978 378.518 319.308C382.239 325.924 383.776 333.545 382.911 341.086C382.091 345.428 379.059 346.543 376.026 347.297C375.503 347.439 374.962 347.505 374.42 347.493Z" fill="#263238"/>
<path d="M205.454 198.834C200.782 198.834 192.34 198.228 187.931 194.131C186.167 192.504 184.624 190.653 183.341 188.625C182.492 187.224 181.461 185.94 180.276 184.807C179.221 183.898 178.461 182.696 178.09 181.355C177.719 180.013 177.756 178.591 178.194 177.27C178.289 177.038 178.471 176.853 178.701 176.755C178.931 176.657 179.191 176.653 179.424 176.745C179.541 176.789 179.649 176.855 179.74 176.941C179.831 177.027 179.904 177.13 179.955 177.245C180.005 177.36 180.032 177.483 180.034 177.609C180.036 177.734 180.012 177.858 179.965 177.974C179.671 178.942 179.67 179.974 179.962 180.942C180.253 181.91 180.825 182.77 181.604 183.415C182.87 184.657 183.971 186.055 184.882 187.577C186.079 189.48 187.523 191.216 189.177 192.739C193.734 196.966 203.929 197.015 206.847 196.917C207.099 196.917 207.341 197.017 207.519 197.195C207.698 197.374 207.798 197.615 207.798 197.868C207.798 198.12 207.698 198.361 207.519 198.54C207.341 198.718 207.099 198.818 206.847 198.818L205.454 198.834Z" fill="#263238"/>
<path d="M212.437 207.29C204.54 207.377 196.685 206.148 189.193 203.652C179.145 199.719 179.358 195.459 179.768 194.295C179.893 193.867 180.04 193.446 180.21 193.034C180.604 192.05 180.751 191.69 180.21 190.805C178.866 188.773 179.965 184.365 180.096 183.873C180.158 183.631 180.313 183.422 180.528 183.293C180.743 183.165 181 183.126 181.243 183.185C181.487 183.251 181.696 183.409 181.825 183.627C181.953 183.844 181.992 184.103 181.932 184.349C181.489 185.987 181.161 188.806 181.8 189.756C182.221 190.326 182.468 191.004 182.512 191.711C182.555 192.417 182.394 193.121 182.046 193.738C181.891 194.082 181.765 194.438 181.669 194.803C181.227 196.442 183.128 199.211 189.865 201.882C198.061 205.16 218.977 207.88 231.353 201.882C251.433 192.214 252.859 188.642 252.81 187.773C252.76 186.905 252.678 186.135 252.58 185.152C252.082 182.53 252.182 179.83 252.875 177.253C253.99 174.369 255.104 171.502 253.957 167.913C253.196 164.63 252.805 161.271 252.793 157.901C252.678 155.672 252.58 153.558 252.351 151.952C252.071 149.059 251.159 146.262 249.679 143.759C249.582 143.681 249.502 143.585 249.442 143.476C249.383 143.367 249.347 143.247 249.334 143.123C249.322 142.999 249.335 142.875 249.371 142.756C249.408 142.637 249.468 142.527 249.548 142.432C249.71 142.239 249.942 142.117 250.193 142.093C250.444 142.068 250.695 142.143 250.892 142.301C252.269 143.464 253.678 148.02 254.17 151.756C254.432 153.394 254.531 155.607 254.645 157.884C254.649 161.094 255.012 164.293 255.727 167.421C257.071 171.649 255.727 174.976 254.645 177.909C254.046 180.239 253.968 182.673 254.416 185.037C254.514 185.987 254.613 186.905 254.662 187.757C254.76 189.887 252.547 193.853 232.123 203.668C226.648 206.29 219.485 207.29 212.437 207.29Z" fill="#263238"/>
<path d="M297.854 208.929C293.596 208.818 289.361 208.269 285.216 207.29C281.397 206.405 280.643 201.407 280.085 197.753C279.988 196.483 279.684 195.238 279.184 194.066C276.922 192.559 276.561 191.231 276.561 187.757C276.372 185.968 275.586 184.295 274.332 183.005C273.532 181.98 272.83 180.883 272.234 179.728C270.906 177.073 266.3 164.095 267.415 160.359C268.201 157.753 265.021 151.854 259.776 149.822C254.072 147.594 242.679 140.548 242.204 140.253C242.097 140.187 242.004 140.101 241.931 140C241.857 139.899 241.805 139.784 241.776 139.662C241.747 139.54 241.742 139.414 241.762 139.29C241.782 139.167 241.827 139.048 241.893 138.942C242.028 138.729 242.24 138.578 242.485 138.52C242.73 138.462 242.988 138.502 243.204 138.63C243.319 138.63 254.924 145.89 260.464 148.053C266.447 150.38 270.299 157.18 269.234 160.9C268.431 163.62 272.266 175.549 273.922 178.925C274.504 179.972 275.179 180.965 275.938 181.891C277.446 183.508 278.364 185.587 278.545 187.79C278.545 191.067 278.856 191.543 280.331 192.526C281.38 193.23 281.659 195.017 281.97 197.442C282.479 200.719 283.101 204.816 285.642 205.406C294.428 207.421 304.362 207.946 305.411 204.373C306.296 201.374 305.919 196.622 305.575 192.427C305.258 189.823 305.192 187.195 305.378 184.578C305.788 181.678 300.46 161.506 297.182 149.462C295.625 143.595 294.395 138.974 294.002 137.139C292.855 131.732 259.71 107.742 251.219 104.366C243.909 101.4 232.992 97.5001 222.501 97.8115C222.362 97.8239 222.222 97.802 222.093 97.7478C221.965 97.6935 221.852 97.6084 221.764 97.5001C220.197 95.6645 218.451 93.9902 216.551 92.5022L215.977 93.1249C213.715 95.5665 208.421 101.318 200.831 100.335C196.659 99.8888 192.573 98.8401 188.701 97.2215C188.729 98.0929 188.424 98.9421 187.849 99.5976L187.701 99.7123C187.538 99.827 183.653 102.252 172.949 101.351C162.622 100.417 156.951 99.9089 147.05 90.0115C144.28 87.2421 141.067 83.8665 137.641 80.2778C129.74 71.806 120.725 62.3509 117.282 60.6304C113.348 58.664 106.267 57.8774 103.71 57.648C103.431 60.6467 101.973 69.3972 94.5635 72.3959C94.5635 73.5757 95.0881 77.0497 99.6286 82.998L102.137 86.2753C109.791 96.4022 127.74 120.114 133.428 122.555C135.264 123.342 138.346 124.44 141.854 125.701C151.443 129.143 163.392 133.419 166.95 136.992C169.966 139.99 172.555 151.445 174.85 161.572C176.194 167.471 177.588 173.583 178.407 174.566C180.09 176.161 182.044 177.443 184.177 178.351C185.605 178.89 186.897 179.735 187.964 180.826C188.1 181.037 188.147 181.293 188.095 181.539C188.043 181.784 187.895 181.999 187.685 182.137C187.475 182.27 187.221 182.318 186.977 182.269C186.732 182.22 186.516 182.079 186.374 181.874C185.443 181.131 184.418 180.514 183.325 180.039C180.954 179.026 178.791 177.582 176.948 175.779C175.883 174.517 174.818 169.945 172.998 161.998C171.031 153.051 168.228 140.924 165.605 138.286C162.327 135.009 150.132 130.634 141.214 127.438C137.657 126.16 134.658 125.062 132.674 124.161C126.527 121.523 109.021 98.4014 100.628 87.2913L98.1205 84.014C91.8589 75.8207 92.6293 71.7732 92.744 71.3472C92.7769 71.1917 92.8503 71.0476 92.9568 70.9296C93.0633 70.8116 93.1992 70.7239 93.3505 70.6753C101.546 67.9224 101.874 56.632 101.891 56.5173C101.895 56.3911 101.924 56.2669 101.977 56.1521C102.03 56.0373 102.105 55.9341 102.198 55.8487C102.291 55.7632 102.4 55.6972 102.519 55.6545C102.638 55.6117 102.764 55.5931 102.891 55.5997C103.3 55.5997 112.955 56.2715 118.135 58.877C121.856 60.8106 130.609 69.9707 139.067 78.8358C142.477 82.4081 145.624 85.7837 148.443 88.5367C157.852 97.9425 162.966 98.3686 173.162 99.3354C182.145 100.155 185.915 98.4505 186.554 98.1064C186.749 97.6578 186.834 97.1688 186.8 96.6808C186.8 96.14 186.8 94.8946 187.964 94.8946C188.372 94.9462 188.767 95.074 189.128 95.2715C192.92 96.905 196.938 97.9548 201.044 98.385C207.601 99.2207 212.519 93.9934 214.568 91.8304C214.932 91.3704 215.363 90.9673 215.846 90.6341C216.403 90.372 217.485 89.864 222.862 95.9106C233.549 95.714 244.548 99.6304 251.924 102.629C260.464 106.119 294.428 130.159 295.838 136.844C296.215 138.63 297.477 143.235 299.001 149.069C303.771 166.897 307.673 181.842 307.197 184.939C307.036 187.42 307.108 189.91 307.41 192.378C307.755 196.737 308.148 201.669 307.165 204.996C306.312 208.011 302.296 208.929 297.854 208.929Z" fill="#263238"/>
<path d="M200.684 108.266C197.758 108.281 194.85 107.81 192.078 106.873C182.603 103.596 182.702 100.4 182.817 99.7941C182.856 99.5442 182.993 99.3201 183.197 99.1711C183.401 99.022 183.657 98.9603 183.907 98.9994C184.157 99.0385 184.381 99.1753 184.53 99.3796C184.679 99.584 184.741 99.8392 184.702 100.089C184.702 100.253 185.079 102.449 192.701 105.005C197.864 106.659 203.41 106.696 208.595 105.112C213.781 103.528 218.358 100.397 221.714 96.1399C221.791 96.0419 221.886 95.9602 221.995 95.8996C222.104 95.839 222.223 95.8007 222.347 95.787C222.471 95.7732 222.596 95.7843 222.715 95.8196C222.835 95.8549 222.946 95.9137 223.042 95.9924C223.237 96.1527 223.362 96.3831 223.39 96.6342C223.417 96.8854 223.345 97.1373 223.189 97.3361C220.5 100.731 217.081 103.476 213.184 105.369C209.288 107.261 205.015 108.251 200.684 108.266Z" fill="#263238"/>
<path d="M117.709 33.2155L0.310791 12.6504L108.841 16.4521L117.709 33.2155Z" fill="#E8E8E8"/>
<path d="M98.3827 16.0752V10.7496L0.310791 12.6504L98.3827 16.0752Z" fill="#D9D9D9"/>
<path d="M104.743 10.6349L84.4825 0L0.310791 12.6504L104.743 10.6349Z" fill="#E8E8E8"/>
<path d="M93.6617 72.5924C93.5243 72.5976 93.3876 72.5706 93.2624 72.5138C93.1372 72.4569 93.027 72.3716 92.9405 72.2647C92.793 72.1009 78.3846 55.3702 74.09 51.9945C73.2048 51.3063 72.2869 50.5525 71.3362 49.7824C67.5112 46.3479 63.2377 43.4483 58.6325 41.163C52.7315 38.6723 45.1913 26.5462 44.8799 26.0219C44.8153 25.9143 44.7725 25.795 44.7541 25.6709C44.7356 25.5468 44.7417 25.4203 44.7722 25.2985C44.8026 25.1768 44.8568 25.0622 44.9315 24.9614C45.0062 24.8606 45.1001 24.7755 45.2077 24.7109C45.3153 24.6464 45.4346 24.6036 45.5588 24.5852C45.6829 24.5667 45.8095 24.5729 45.9313 24.6033C46.053 24.6337 46.1676 24.6878 46.2685 24.7625C46.3693 24.8372 46.4545 24.9311 46.519 25.0387C46.519 25.1534 54.0592 37.1483 59.4193 39.4261C64.1074 41.4088 68.5987 45.0794 72.5328 48.3076L75.2538 50.5034C79.7123 53.9937 93.7765 70.3311 94.383 71.0357C94.4646 71.1289 94.5268 71.2374 94.5661 71.3549C94.6054 71.4723 94.6209 71.5964 94.6117 71.72C94.6026 71.8435 94.5689 71.964 94.5128 72.0744C94.4566 72.1848 94.3791 72.2829 94.2846 72.363C94.1129 72.5145 93.8907 72.5963 93.6617 72.5924Z" fill="#263238"/>
<path d="M64.8944 23.826L2.83521 12.6504L67.1564 31.9865L64.8944 23.826Z" fill="#9E9E9E"/>
<path d="M76.6143 34.8214L99.6775 41.7529L101.317 30.3643L73.9097 25.4483C73.9097 25.4483 74.5162 29.0042 74.8604 30.3643C75.339 31.8895 75.9251 33.379 76.6143 34.8214Z" fill="#9E9E9E"/>
<path d="M192.34 98.4667H192.078C191.957 98.4327 191.844 98.3752 191.746 98.2974C191.647 98.2196 191.565 98.123 191.504 98.0133C191.443 97.9036 191.405 97.783 191.391 97.6583C191.376 97.5336 191.387 97.4074 191.422 97.2869C191.422 97.2869 193.209 90.978 191.422 86.6356C191.359 86.5178 191.322 86.3882 191.312 86.255C191.303 86.1218 191.322 85.9882 191.367 85.8627C191.413 85.7373 191.485 85.6228 191.577 85.5269C191.67 85.4309 191.782 85.3556 191.906 85.3058C192.03 85.2561 192.163 85.2329 192.297 85.238C192.43 85.243 192.561 85.2761 192.681 85.3351C192.801 85.394 192.907 85.4776 192.992 85.5803C193.077 85.6829 193.14 85.8024 193.176 85.931C195.192 90.8469 193.291 97.5327 193.176 97.8112C193.118 97.9913 193.007 98.1498 192.858 98.2666C192.709 98.3834 192.529 98.453 192.34 98.4667Z" fill="#263238"/>
<path d="M213.518 95.1568C213.368 95.1569 213.219 95.1212 213.086 95.0529C212.952 94.9845 212.836 94.8854 212.748 94.7636C210.158 91.1913 205.83 84.9316 205.994 83.1783C206.023 82.9305 206.147 82.7035 206.339 82.5447C206.532 82.3859 206.778 82.3076 207.027 82.3262C207.276 82.355 207.505 82.478 207.666 82.6699C207.828 82.8618 207.91 83.1081 207.896 83.3585C207.896 84.3581 211.174 89.4871 214.289 93.6493C214.362 93.7504 214.414 93.865 214.443 93.9864C214.472 94.1079 214.477 94.2338 214.457 94.3571C214.437 94.4803 214.393 94.5985 214.328 94.7048C214.262 94.8111 214.177 94.9034 214.075 94.9766C213.912 95.0919 213.718 95.1547 213.518 95.1568Z" fill="#263238"/>
<path d="M319.589 242.767C319.363 242.763 319.138 242.735 318.917 242.685C316.294 242.112 306.033 231.608 304.164 229.051C302.72 227.226 300.875 225.757 298.772 224.758C297.727 226.207 297.072 227.9 296.87 229.674C296.673 232.099 296.296 234.475 294.887 235.442C294.549 235.665 294.165 235.805 293.764 235.854C293.363 235.902 292.956 235.857 292.575 235.721C289.658 234.836 290.1 232.132 290.723 228.396L290.936 227.069C291.586 224.144 292.692 221.341 294.215 218.761C294.477 218.269 294.756 217.728 294.903 217.401C294.149 216.139 291.067 211.059 288.953 207.569C288.824 207.353 288.784 207.095 288.843 206.85C288.901 206.605 289.052 206.393 289.264 206.258C289.371 206.192 289.489 206.148 289.613 206.127C289.737 206.107 289.863 206.112 289.985 206.141C290.107 206.17 290.222 206.223 290.323 206.296C290.424 206.37 290.51 206.462 290.576 206.569C291.576 208.208 296.526 216.286 296.755 216.762C296.985 217.237 296.755 217.892 295.887 219.58C294.469 221.983 293.435 224.593 292.821 227.314L292.592 228.642C291.953 232.542 291.92 233.476 293.116 233.836C293.575 233.984 293.739 233.836 293.821 233.836C294.674 233.263 294.903 230.428 294.985 229.494C295.159 227.038 296.185 224.72 297.886 222.939C298.057 222.822 298.251 222.744 298.455 222.71C298.659 222.676 298.868 222.687 299.067 222.743C301.64 223.866 303.893 225.612 305.623 227.822C308.148 231.1 317.72 240.407 319.31 240.751C319.491 240.751 319.802 240.833 319.884 240.669C319.966 240.506 319.884 239.195 318.474 237.867C316.589 236.229 310.377 228.035 310.918 226.151C310.975 225.946 311.088 225.76 311.244 225.616C311.4 225.471 311.594 225.373 311.803 225.332C312.688 225.151 313.573 225.79 318.638 230.248C321.245 232.558 325.195 236.032 326.179 236.229C326.558 236.304 326.941 236.358 327.326 236.393C327.12 236.028 326.89 235.678 326.638 235.344C325.851 234.246 324.294 232.542 322.785 230.887C320.943 229.029 319.27 227.011 317.786 224.856C317.67 224.635 317.646 224.376 317.72 224.137C317.793 223.897 317.959 223.697 318.179 223.578C318.402 223.46 318.662 223.433 318.903 223.504C319.145 223.574 319.35 223.736 319.474 223.955C320.886 225.964 322.459 227.855 324.179 229.609C325.818 231.378 327.326 233.05 328.178 234.23C329.031 235.409 329.818 236.638 329.146 237.507C328.473 238.375 327.146 238.293 325.867 238.015C324.589 237.736 321.753 235.409 317.442 231.608C316.294 230.592 314.917 229.363 313.803 228.445C315.499 231.31 317.512 233.976 319.802 236.393C321.622 238.031 322.359 240.063 321.638 241.456C321.467 241.855 321.181 242.193 320.815 242.427C320.45 242.66 320.023 242.779 319.589 242.767Z" fill="#263238"/>
<path d="M329.195 234.836C327.852 234.763 326.542 234.394 325.359 233.754C325.174 233.615 325.045 233.414 324.998 233.187C324.951 232.96 324.988 232.724 325.103 232.523C325.218 232.321 325.402 232.169 325.621 232.094C325.841 232.019 326.08 232.027 326.294 232.116C327.288 232.689 328.425 232.967 329.572 232.919L329.654 232.82C329.654 232.82 329.654 232.263 327.834 230.608C324.887 227.516 322.149 224.232 319.639 220.776C319.504 220.587 319.431 220.361 319.431 220.129C319.431 219.897 319.504 219.67 319.639 219.482C320.77 218.105 330.441 222.628 330.539 222.759C330.604 222.772 330.671 222.772 330.736 222.759C330.736 222.759 330.736 221.989 329.523 220.973C328.015 219.744 319.573 216.647 306.919 212.681L306.689 212.599C304.001 211.764 302.87 207.945 302.755 207.519C302.718 207.289 302.768 207.053 302.893 206.857C303.019 206.66 303.213 206.517 303.438 206.454C303.663 206.391 303.903 206.413 304.113 206.516C304.322 206.619 304.487 206.795 304.575 207.011C304.837 207.896 305.804 210.289 307.246 210.797H307.476C316.852 213.746 328.506 217.63 330.719 219.432C332.932 221.235 332.883 222.841 332.359 223.758C332.081 224.166 331.66 224.453 331.18 224.562C330.699 224.672 330.195 224.595 329.769 224.348C328.785 223.857 325.146 222.415 322.72 221.579C324.74 224.257 326.93 226.803 329.277 229.199C330.998 230.837 331.719 231.935 331.686 232.919C331.664 233.219 331.577 233.512 331.429 233.775C331.282 234.038 331.079 234.266 330.834 234.443C330.355 234.772 329.771 234.912 329.195 234.836Z" fill="#263238"/>
<path d="M178.801 16.0915C178.801 16.0915 167.064 19.1066 165.491 25.5301C163.917 31.9537 165.491 38.6394 170.556 37.9675C175.621 37.2957 182.259 32.9041 186.685 33.2154C191.111 33.5268 190.177 35.1982 188.587 38.0003C186.997 40.8024 189.849 45.5545 197.766 43.3423C205.683 41.1301 205.962 37.0171 211.683 38.5902C217.403 40.1633 212.191 53.1415 213.518 54.9768C214.846 56.8121 215.158 59.4012 218.141 54.9768C221.124 50.5524 225.616 44.5385 230.353 46.128C235.09 47.7175 225.927 56.8776 221.19 58.7785L216.436 60.6793C216.436 60.6793 214.535 73.9524 211.683 75.8533C211.683 75.8533 230.681 73.3297 237.909 66.6768C245.138 60.0238 238.86 60.1222 240.122 56.5663C241.384 53.0104 248.662 52.8301 248.662 48.5205C248.662 44.2108 247.712 44.8499 241.073 41.6873C234.434 38.5247 236.319 36.9516 237.27 35.3621C238.221 33.7726 239.172 30.9377 233.795 29.3482C228.419 27.7587 215.764 23.9734 218.092 20.4995C220.419 17.0255 221.632 10.0612 213.469 10.6675C205.306 11.2738 197.504 16.5831 192.865 16.0096C188.226 15.436 183.948 14.207 178.801 16.0915Z" fill="#263238"/>
<path d="M194.291 87.619H194.061L191.93 87.1438C186.406 85.9312 174.916 83.424 168.785 79.0816C161.294 73.7724 162.655 60.5648 163.999 56.3535C165.343 52.1421 168.376 37.9022 168.408 37.6892C168.433 37.5641 168.484 37.4455 168.557 37.3411C168.631 37.2367 168.725 37.1488 168.834 37.0829C168.939 37.0126 169.058 36.9659 169.182 36.9461C169.307 36.9263 169.434 36.9338 169.556 36.9682C169.747 36.9857 169.939 36.9857 170.129 36.9682C170.227 36.9183 170.332 36.8851 170.441 36.8699C172.93 36.389 175.352 35.6077 177.653 34.543C180.932 33.1993 184.112 31.9211 186.751 32.1178C188.21 32.2325 190.029 32.4946 190.619 33.7564C191.209 35.0182 190.472 36.493 189.423 38.3446C189.186 38.8002 189.09 39.3153 189.145 39.8255C189.2 40.3356 189.405 40.8181 189.734 41.2123C191.045 42.8509 193.963 43.3262 197.504 42.3266C199.906 41.657 202.178 40.5878 204.224 39.164C206.486 37.7056 208.257 36.5585 211.945 37.5253C216.502 38.8035 215.453 45.3089 214.699 50.0774C214.367 51.4831 214.235 52.9283 214.305 54.3707C214.551 54.7148 214.764 55.0917 214.977 55.4522C215.144 55.807 215.365 56.1333 215.633 56.419C216.274 55.8111 216.825 55.116 217.272 54.3543C219.944 50.4707 224.911 43.2442 230.582 45.1451C231.137 45.2882 231.63 45.6093 231.985 46.0592C232.341 46.509 232.539 47.0628 232.549 47.6358C232.664 51.3883 225.615 57.9102 221.452 59.5652L217.157 61.2858C216.584 63.5799 214.125 73.1825 212.437 76.2304L212.109 76.853C211.06 78.9178 208.83 83.2438 204.618 85.4724C204.396 85.5884 204.137 85.6122 203.897 85.5386C203.658 85.4649 203.457 85.2998 203.339 85.0791C203.222 84.8548 203.198 84.5936 203.272 84.3516C203.345 84.1096 203.511 83.906 203.733 83.7846C207.437 81.8346 209.453 77.8854 210.42 75.9846L210.781 75.3127C212.518 72.1337 215.403 60.5648 215.436 60.3682C215.47 60.2223 215.538 60.0866 215.635 59.9725C215.732 59.8584 215.855 59.7693 215.994 59.7127L220.747 57.8119C224.403 56.3535 230.73 50.2577 230.582 47.685C230.582 47.4392 230.582 47.1442 229.91 46.9312C226.124 45.6694 222.321 50.2085 218.78 55.4358C217.321 57.5497 216.305 58.3362 215.321 58.3035C214.338 58.2707 213.682 57.2711 213.174 56.3862C212.994 56.0749 212.814 55.7472 212.6 55.4358C211.945 54.5182 212.174 52.8631 212.6 49.7661C213.256 45.7186 214.141 40.1799 211.224 39.3606C208.306 38.5413 207.191 39.3606 205.044 40.7043C202.917 42.2643 200.547 43.4605 198.028 44.2438C191.816 45.9808 189.111 43.5883 188.193 42.4741C187.636 41.7937 187.293 40.9634 187.209 40.0882C187.124 39.2131 187.301 38.3325 187.718 37.5581C188.291 36.5257 189.078 35.1329 188.882 34.7724C188.882 34.7724 188.587 34.3299 186.57 34.1825C184.554 34.035 181.292 35.264 178.374 36.4766C175.969 37.5583 173.451 38.3716 170.867 38.9018C170.615 38.9946 170.348 39.0391 170.08 39.0329C169.375 42.3102 166.949 53.3547 165.802 56.927C164.655 60.4993 163.343 72.8875 169.884 77.5413C175.686 81.6543 186.931 84.0959 192.324 85.2921L194.504 85.7673C194.626 85.7962 194.74 85.8488 194.842 85.9221C194.943 85.9954 195.029 86.088 195.095 86.1946C195.16 86.3012 195.204 86.4196 195.223 86.5431C195.243 86.6666 195.238 86.7928 195.209 86.9144C195.157 87.1179 195.039 87.298 194.872 87.4259C194.706 87.5537 194.501 87.6217 194.291 87.619Z" fill="#263238"/>
<path d="M166.392 51.9289C166.237 51.9317 166.084 51.892 165.95 51.8142C163.784 50.5562 161.894 48.8747 160.393 46.87C158.892 44.8654 157.81 42.5789 157.213 40.147C156.721 38.7301 156.721 37.1887 157.213 35.7718C157.465 35.4039 157.815 35.1138 158.224 34.9343C158.632 34.7548 159.082 34.693 159.524 34.7558C161.163 34.9033 163.294 36.3945 164.802 39.9176C165.655 42.1265 166.755 44.2319 168.081 46.1936C168.235 46.3935 168.303 46.6466 168.271 46.897C168.239 47.1475 168.108 47.3748 167.908 47.5291C167.708 47.6834 167.455 47.752 167.205 47.7197C166.954 47.6874 166.727 47.557 166.573 47.3571C165.114 45.2791 163.909 43.0347 162.983 40.6714C161.704 37.6398 160.049 36.7058 159.262 36.6403C158.885 36.6403 158.754 36.7714 158.721 36.8205C158.18 38.0167 160.098 46.6525 166.786 50.1428C166.971 50.2431 167.118 50.402 167.203 50.5946C167.288 50.7872 167.306 51.0027 167.256 51.2071C167.205 51.4115 167.088 51.5933 166.923 51.7239C166.758 51.8546 166.554 51.9267 166.343 51.9289H166.392Z" fill="#263238"/>
<path d="M205.093 49.3071H204.601C204.193 49.2358 203.816 49.0401 203.523 48.7469C203.229 48.4536 203.034 48.077 202.962 47.6685C202.7 46.5542 200.34 44.9647 198.733 44.1945C198.62 44.1403 198.518 44.064 198.434 43.9702C198.35 43.8764 198.286 43.7668 198.245 43.6479C198.204 43.529 198.186 43.4031 198.194 43.2776C198.202 43.152 198.235 43.0292 198.291 42.9164C198.343 42.8034 198.418 42.7022 198.51 42.6185C198.603 42.5349 198.711 42.4705 198.828 42.4293C198.946 42.3881 199.071 42.3708 199.195 42.3784C199.319 42.3861 199.441 42.4186 199.553 42.474C200.34 42.8508 204.257 44.8664 204.814 47.2424C204.814 47.3899 204.814 47.3899 204.946 47.4063C205.153 47.413 205.358 47.3687 205.544 47.2772C205.73 47.1858 205.89 47.05 206.011 46.8819C206.116 46.7272 206.172 46.5445 206.172 46.3576C206.172 46.1706 206.116 45.9879 206.011 45.8332C204.765 43.5227 203.913 42.2282 202.864 41.9496C202.735 41.9261 202.613 41.8764 202.505 41.8036C202.396 41.7307 202.304 41.6363 202.233 41.5262C202.163 41.4161 202.116 41.2927 202.096 41.1637C202.075 41.0347 202.082 40.9029 202.114 40.7764C202.147 40.6499 202.206 40.5316 202.286 40.4287C202.367 40.3259 202.468 40.2407 202.582 40.1786C202.697 40.1165 202.824 40.0787 202.954 40.0676C203.084 40.0566 203.215 40.0724 203.339 40.1143C205.241 40.6059 206.388 42.5067 207.683 44.9483C207.958 45.4249 208.084 45.9725 208.046 46.5211C208.008 47.0698 207.807 47.5947 207.47 48.029C207.193 48.4049 206.837 48.7146 206.426 48.9357C206.014 49.1568 205.559 49.2836 205.093 49.3071Z" fill="#263238"/>
<path d="M171.031 42.7035C170.928 42.7192 170.823 42.7192 170.719 42.7035C170.229 42.5958 169.774 42.3625 169.401 42.0264C169.027 41.6903 168.747 41.263 168.588 40.7863C168.513 40.308 168.544 39.819 168.68 39.3543C168.816 38.8897 169.054 38.4609 169.375 38.0989C169.556 37.9247 169.797 37.8273 170.047 37.8273C170.298 37.8273 170.539 37.9247 170.719 38.0989C170.893 38.2764 170.99 38.5145 170.99 38.7625C170.99 39.0105 170.893 39.2487 170.719 39.4262C170.555 39.6228 170.277 40.098 170.359 40.3602C170.441 40.6224 170.605 40.6879 170.916 40.8354C172.662 40.0385 174.541 39.5718 176.457 39.4589C176.737 39.4483 177.007 39.3512 177.23 39.1811C177.453 39.0109 177.618 38.776 177.702 38.5085C177.949 37.9456 177.995 37.3152 177.833 36.7224C177.618 36.755 177.398 36.7126 177.21 36.6022C177.022 36.4918 176.877 36.3202 176.801 36.1161C176.714 35.8898 176.718 35.6384 176.813 35.4151C176.907 35.1919 177.085 35.0143 177.309 34.9199C177.607 34.7944 177.936 34.7601 178.254 34.8213C178.572 34.8826 178.865 35.0366 179.096 35.264C179.501 35.811 179.753 36.4565 179.825 37.1336C179.897 37.8107 179.787 38.4947 179.505 39.1148C179.297 39.7455 178.901 40.298 178.371 40.6989C177.842 41.0998 177.202 41.3303 176.538 41.3598C174.757 41.466 173.013 41.9226 171.408 42.7035C171.284 42.7316 171.155 42.7316 171.031 42.7035Z" fill="#263238"/>
<path d="M173.408 48.3566C172.45 47.9609 171.463 47.6377 170.457 47.3898C170.02 47.273 169.577 47.18 169.129 47.1112C168.621 47.0129 168.08 46.9638 167.375 46.7671C167.748 46.1831 168.296 45.7322 168.941 45.479C169.586 45.2258 170.295 45.1834 170.965 45.3579C171.654 45.5038 172.271 45.8809 172.716 46.4264C173.16 46.972 173.404 47.6531 173.408 48.3566Z" fill="#263238"/>
<path d="M190.701 50.9785C191.293 50.1799 192.136 49.6029 193.094 49.3398C194.06 49.0612 195.079 49.0274 196.061 49.2415C197.03 49.4647 197.93 49.9203 198.684 50.5688C199.441 51.1925 200.009 52.0155 200.323 52.9448C199.389 52.6171 198.684 52.2402 197.864 51.9616C197.142 51.6728 196.396 51.448 195.635 51.2898C194.883 51.1039 194.114 50.9941 193.34 50.9621C192.455 50.9621 191.619 50.9621 190.701 50.9785Z" fill="#263238"/>
<path d="M178.948 62.2689H178.768C177.086 61.9313 175.44 61.4376 173.85 60.7941C173.557 60.6678 173.295 60.477 173.085 60.2359C172.875 59.9948 172.722 59.7095 172.637 59.4013C172.485 58.2445 172.778 57.0731 173.457 56.124L178.145 46.8983L178.309 46.6689C178.619 46.3045 179.011 46.0181 179.452 45.8331C179.893 45.648 180.372 45.5695 180.85 45.6038C181.357 45.7082 181.837 45.9182 182.258 46.2203C182.679 46.5224 183.031 46.9098 183.292 47.3571C183.395 47.5476 183.435 47.7654 183.407 47.9798C183.407 47.9798 182.341 54.9605 182.227 57.8118C182.274 58.7787 182.008 59.7351 181.467 60.5383C180.926 61.3415 180.141 61.9486 179.227 62.2689H178.948ZM179.719 47.8487L175.047 57.0416C174.644 57.5688 174.425 58.2135 174.424 58.8769C174.424 58.8769 174.424 58.9916 174.604 59.0572C175.98 59.6202 177.408 60.0483 178.866 60.3353C179.327 60.0778 179.704 59.6943 179.953 59.2298C180.203 58.7654 180.315 58.2393 180.276 57.7135C180.391 55.0916 181.194 49.5202 181.423 48.029C181.211 47.7453 180.911 47.5384 180.571 47.4391C180.407 47.447 180.247 47.4889 180.1 47.5623C179.953 47.6356 179.823 47.7388 179.719 47.8651V47.8487Z" fill="#263238"/>
<path d="M167.376 50.9294C167.745 50.8089 168.136 50.7671 168.523 50.8066C168.909 50.8461 169.284 50.9661 169.621 51.1588C170.664 51.7319 171.496 52.6226 171.997 53.7012C172.498 54.7799 172.642 55.9903 172.408 57.1563C171.883 58.5 170.179 56.976 167.72 56.0092C166.917 55.6979 166.835 56.0092 166.081 55.747L167.376 50.9294Z" fill="#263238"/>
<path d="M186.8 60.0895C186.521 61.7281 189.553 61.3349 193.11 61.9084C196.667 62.4819 199.372 63.8748 199.667 62.1706C199.962 60.4664 197.667 56.2714 194.127 55.6979C190.586 55.1244 187.078 58.3853 186.8 60.0895Z" fill="#263238"/>
<path d="M177.932 69.4298C180.079 68.7744 181.898 68.4466 183.636 67.9059C184.508 67.6563 185.362 67.3498 186.193 66.9882C187.062 66.6441 187.832 66.1525 188.914 65.6445C188.696 66.7727 188.122 67.801 187.275 68.5777C186.431 69.3441 185.421 69.9049 184.324 70.2164C183.261 70.5241 182.147 70.6188 181.046 70.495C179.934 70.4104 178.862 70.0438 177.932 69.4298Z" fill="#263238"/>
<path d="M219.6 148.708C219.6 157.786 215.797 165.094 202.175 165.094C192.569 165.094 186.783 157.753 186.783 148.708C186.783 139.662 190.652 132.321 202.175 132.321C213.698 132.321 219.6 139.646 219.6 148.708Z" fill="#E8E8E8"/>
<path d="M200.536 150.757H200.225C199.7 150.757 198.7 150.757 198.405 149.855C198.11 148.954 198.782 148.528 199.241 148.217C199.474 148.03 199.688 147.822 199.88 147.594L199.733 147.496C198.503 146.644 190.275 146.906 183.03 147.659C182.906 147.675 182.78 147.666 182.659 147.633C182.539 147.599 182.426 147.541 182.328 147.464C182.23 147.386 182.149 147.289 182.089 147.179C182.03 147.069 181.993 146.948 181.981 146.824C181.958 146.572 182.034 146.322 182.193 146.126C182.352 145.93 182.582 145.804 182.833 145.775C185.406 145.513 198.389 144.251 200.864 145.939C201.15 146.109 201.388 146.348 201.557 146.635C201.726 146.921 201.82 147.245 201.831 147.578C201.838 147.836 201.794 148.094 201.701 148.336C201.608 148.578 201.469 148.799 201.29 148.987C202.077 148.987 203.159 148.807 204.405 148.659C209.896 148.004 219.157 146.906 227.189 149.052C227.426 149.123 227.626 149.284 227.746 149.5C227.866 149.716 227.898 149.97 227.834 150.209C227.77 150.447 227.616 150.652 227.403 150.779C227.191 150.905 226.938 150.944 226.697 150.888C218.944 148.839 209.994 149.904 204.634 150.544C202.765 150.576 201.405 150.757 200.536 150.757Z" fill="#263238"/>
<path d="M68.0252 39.8521C67.8398 39.8534 67.6582 39.7996 67.5035 39.6975C67.3488 39.5954 67.228 39.4495 67.1564 39.2786C66.4605 36.9573 66.1396 34.54 66.2057 32.1176L63.9601 24.2193C63.9203 24.0646 63.9196 23.9024 63.9578 23.7473C63.9961 23.5922 64.0723 23.4491 64.1794 23.3306C64.2866 23.2121 64.4214 23.122 64.572 23.0683C64.7225 23.0147 64.8839 22.9991 65.0419 23.0231L72.9755 24.4159C73.3689 24.4159 75.2704 25.0386 75.6146 29.3319C75.7722 31.1513 76.3929 32.9 77.4177 34.4117C77.4849 34.5172 77.5298 34.6353 77.5496 34.7588C77.5695 34.8823 77.5639 35.0085 77.5332 35.1297C77.5025 35.251 77.4473 35.3646 77.3711 35.4638C77.2949 35.5629 77.1991 35.6455 77.0899 35.7063C76.9837 35.7711 76.8656 35.8141 76.7426 35.8328C76.6196 35.8514 76.494 35.8452 76.3734 35.8147C76.2528 35.7842 76.1395 35.7299 76.0401 35.655C75.9408 35.5801 75.8574 35.4861 75.7949 35.3786C74.616 33.6257 73.9051 31.6007 73.7295 29.4958C73.5001 26.6609 72.5821 26.2185 72.5657 26.2185L66.2057 25.1042L68.0744 31.6588C68.0823 31.7515 68.0823 31.8447 68.0744 31.9374C68.0012 34.1496 68.2665 36.3599 68.8612 38.492C68.9602 38.7225 68.964 38.9827 68.8719 39.216C68.7798 39.4492 68.5992 39.6367 68.3694 39.7374C68.2625 39.7959 68.1459 39.8348 68.0252 39.8521Z" fill="#263238"/>
<path d="M102.841 57.566C102.668 57.5734 102.496 57.5277 102.349 57.4349C100.186 56.1568 81.1383 44.719 78.5812 39.9996C78.4963 39.8527 78.4517 39.6859 78.4517 39.5162C78.4517 39.3465 78.4963 39.1798 78.5812 39.0328C79.1121 38.0739 79.4307 37.0121 79.5156 35.9194C79.5263 35.7946 79.5616 35.6731 79.6193 35.5619C79.677 35.4507 79.7561 35.352 79.852 35.2713C79.9479 35.1907 80.0587 35.1297 80.1782 35.0919C80.2976 35.0541 80.4234 35.0401 80.5482 35.0509C80.6731 35.0616 80.7946 35.0969 80.9058 35.1546C81.0171 35.2123 81.1158 35.2913 81.1965 35.3872C81.2772 35.4831 81.3382 35.5939 81.376 35.7133C81.4138 35.8327 81.4278 35.9584 81.417 36.0832C81.3044 37.27 80.9884 38.4285 80.4827 39.508C83.2693 43.3916 97.7432 52.5026 103.284 55.8946C103.393 55.9554 103.489 56.0379 103.565 56.1371C103.641 56.2362 103.696 56.3499 103.727 56.4711C103.758 56.5924 103.763 56.7186 103.743 56.8421C103.724 56.9655 103.679 57.0836 103.611 57.1891C103.522 57.3079 103.405 57.4039 103.271 57.4694C103.137 57.5348 102.99 57.5679 102.841 57.566Z" fill="#263238"/>
<path d="M199.257 382.429C199.257 382.429 198.356 368.566 197.618 367.895C196.881 367.223 187.455 368.501 185.521 367.534C183.587 366.567 182.521 371.86 181.276 372.45C180.03 373.04 177.407 370.516 179.194 367.223C180.981 363.929 173.637 358.013 171.801 358.161C169.965 358.308 158.262 363.077 149.213 363.634C140.165 364.191 132.969 362.487 130.478 363.798C127.986 365.109 125.675 366.584 129.15 370.582C132.625 374.58 140.624 382.495 151.246 382.593C161.868 382.692 164.359 380.955 165.671 379.414C166.982 377.874 168.949 375.072 170.375 377.939C171.801 380.807 171.834 384.691 174.309 385.428C176.784 386.166 193.733 390.098 199.257 382.429Z" fill="#263238"/>
<path d="M183.423 396.555C180.941 396.574 178.466 396.305 176.047 395.752C172.635 394.803 169.495 393.063 166.884 390.672C166.261 390.164 165.638 389.656 165.015 389.197C163.835 388.329 160.983 388.64 157.704 389C153.36 389.645 148.947 389.689 144.591 389.132C136.412 387.518 128.953 383.36 123.282 377.251C120.249 373.499 121.495 370.205 123.019 367.141C123.373 366.193 124.041 365.396 124.913 364.883C125.784 364.37 126.806 364.172 127.806 364.322C128.024 364.403 128.206 364.561 128.315 364.766C128.425 364.972 128.456 365.21 128.401 365.437C128.346 365.663 128.211 365.862 128.019 365.994C127.828 366.127 127.594 366.185 127.363 366.158C127.199 366.158 125.724 365.895 124.708 367.993C123.314 370.795 122.429 373.171 124.708 376.055C130.106 381.796 137.158 385.714 144.886 387.263C149.07 387.779 153.304 387.73 157.475 387.116C161.294 386.69 164.327 386.362 166.097 387.673C166.753 388.148 167.392 388.673 168.048 389.197C170.442 391.415 173.33 393.033 176.473 393.916C181.62 395.195 190.029 394.932 195.176 392.278C199.946 389.82 200.716 387.526 198.454 382.855C198.409 382.65 198.433 382.435 198.523 382.245C198.613 382.055 198.763 381.9 198.951 381.804C199.138 381.709 199.352 381.678 199.559 381.717C199.766 381.756 199.954 381.862 200.093 382.02C202.88 387.591 201.733 391.049 196.061 393.949C192.101 395.766 187.779 396.657 183.423 396.555Z" fill="#263238"/>
<path d="M175.211 364.699C175.036 364.7 174.864 364.651 174.716 364.559C174.568 364.466 174.45 364.332 174.375 364.175C174.318 364.067 174.283 363.949 174.272 363.828C174.261 363.707 174.275 363.586 174.311 363.47C174.348 363.354 174.407 363.246 174.485 363.154C174.564 363.061 174.66 362.985 174.768 362.929C174.899 362.831 179.178 359.914 183.849 340.709C183.865 340.576 183.909 340.448 183.978 340.333C184.048 340.218 184.14 340.119 184.251 340.042C184.361 339.965 184.486 339.913 184.618 339.888C184.75 339.864 184.885 339.867 185.016 339.899C185.146 339.93 185.269 339.989 185.375 340.071C185.481 340.153 185.569 340.257 185.632 340.375C185.695 340.493 185.732 340.624 185.742 340.757C185.751 340.891 185.732 341.026 185.685 341.151C180.768 361.536 176.145 364.355 175.637 364.601C175.504 364.666 175.359 364.7 175.211 364.699Z" fill="#263238"/>
<path d="M194.471 371.319C194.232 371.32 194.001 371.228 193.827 371.063C193.653 370.899 193.549 370.674 193.537 370.435C193.078 363.29 202.519 343.495 202.929 342.659C203.068 342.505 203.254 342.4 203.459 342.362C203.663 342.323 203.875 342.353 204.061 342.446C204.247 342.539 204.397 342.69 204.489 342.877C204.58 343.063 204.608 343.275 204.568 343.479C204.47 343.675 194.946 363.667 195.356 370.304C195.365 370.428 195.349 370.554 195.31 370.673C195.27 370.791 195.207 370.901 195.125 370.995C195.043 371.09 194.942 371.167 194.83 371.223C194.718 371.278 194.596 371.311 194.471 371.319Z" fill="#263238"/>
<path d="M201.88 344.117C195.651 344.117 184.456 340.84 179.096 337.678C173.49 334.4 175.195 322.307 176.686 311.623C176.866 310.312 177.047 309.017 177.211 307.788C177.866 302.709 177.702 292.942 177.522 283.487C177.325 272.328 177.145 261.775 178.178 257.4C180.079 249.207 196.553 219.055 197.258 217.777C197.314 217.666 197.393 217.568 197.489 217.488C197.585 217.408 197.696 217.349 197.816 217.314C197.936 217.278 198.061 217.268 198.185 217.283C198.309 217.298 198.428 217.338 198.536 217.4C198.646 217.459 198.743 217.538 198.821 217.634C198.899 217.73 198.958 217.841 198.993 217.96C199.028 218.079 199.039 218.204 199.025 218.327C199.012 218.451 198.974 218.57 198.913 218.678C198.749 218.99 181.866 249.977 180.014 257.826C179.047 261.972 179.243 272.901 179.424 283.454C179.588 292.975 179.768 302.823 179.096 308.034C178.932 309.28 178.752 310.574 178.555 311.885C177.227 321.471 175.555 333.417 180.046 336.039C185.636 339.316 198.766 342.97 203.601 342.086C205.978 341.66 214.043 339.333 218.551 327.502C222.222 317.883 223.239 286.06 223.239 282.75C222.6 280.822 221.69 278.996 220.534 277.326C218.256 273.491 217.256 271.607 218.174 270.542C219.092 269.477 220.288 270.28 220.78 270.542C222.84 271.576 224.762 272.864 226.501 274.376L227.615 275.245C227.615 275.245 227.615 275.065 227.615 274.966C227.206 273.475 226.747 272.148 226.37 271.083C225.583 268.772 225.14 267.494 225.878 266.642C226.123 266.405 226.427 266.238 226.759 266.16C227.091 266.082 227.438 266.096 227.763 266.199C230.254 266.691 231.615 266.511 232.68 265.511C233.959 264.135 256.465 227.822 258.055 219.957C259.858 211.239 259.694 201.538 257.711 198.359C255.383 194.639 252.564 190.87 252.531 190.838C252.381 190.635 252.318 190.382 252.355 190.133C252.392 189.885 252.526 189.661 252.728 189.51C252.826 189.433 252.939 189.377 253.059 189.344C253.18 189.311 253.306 189.303 253.429 189.32C253.553 189.337 253.672 189.378 253.78 189.442C253.887 189.506 253.981 189.59 254.055 189.691C254.055 189.691 256.957 193.558 259.317 197.343C261.923 201.522 261.579 212.304 259.923 220.284C258.268 228.265 235.287 265.462 233.877 266.871C232.041 268.707 229.664 268.51 227.32 268.084C227.514 268.896 227.76 269.696 228.058 270.476C228.435 271.574 228.91 272.934 229.336 274.491C229.664 275.72 229.91 276.965 229.041 277.523C228.173 278.08 227.091 277.342 225.271 275.884C223.65 274.473 221.861 273.268 219.944 272.295H219.846C220.514 273.736 221.275 275.132 222.124 276.474C223.96 279.587 225.091 281.57 225.091 282.865C225.091 283.192 224.353 317.604 220.288 328.288C215.371 341.053 206.519 343.593 203.896 344.068C203.227 344.146 202.552 344.162 201.88 344.117Z" fill="#263238"/>
<path d="M288.101 314.212C287.265 314.212 286.462 314.212 285.822 314.114C281.888 313.819 268.217 309.329 256.153 305.38C248.908 303.004 242.073 300.759 238.663 299.857C232.742 298.134 227.454 294.716 223.452 290.026C223.357 289.931 223.283 289.818 223.235 289.693C223.187 289.568 223.166 289.434 223.173 289.3C223.18 289.167 223.215 289.036 223.277 288.917C223.338 288.798 223.424 288.693 223.528 288.61C223.633 288.526 223.754 288.465 223.883 288.432C224.013 288.398 224.148 288.392 224.28 288.415C224.412 288.437 224.538 288.487 224.65 288.561C224.761 288.635 224.856 288.732 224.927 288.846C228.7 293.184 233.629 296.36 239.139 298.006C242.614 298.923 249.482 301.168 256.743 303.561C268.119 307.281 282.265 311.934 285.97 312.213C291.51 312.639 300.903 311.459 304.001 306.478C307.099 301.496 307.59 289.354 306.738 286.371L306.623 285.962C305.607 282.373 303.23 273.934 295.477 271.361C285.773 268.084 268.84 263.479 267.037 263.791C266.66 263.791 266.251 264.807 266.005 265.347C265.628 266.199 265.234 267.068 264.365 267.084C263.497 267.101 262.923 266.085 262.726 265.659C262.382 264.97 262.038 264.168 261.694 263.332C261.169 262.07 260.054 259.448 259.448 259.301C258.666 260.021 257.958 260.817 257.333 261.677C255.825 263.61 254.809 264.954 253.662 264.479C252.514 264.004 252.645 262.84 252.645 262.381C252.679 261.234 252.821 260.093 253.072 258.973C253.596 256.318 253.612 255.401 251.842 254.729C247.646 253.09 246.712 246.192 246.712 243.652C246.712 243.4 246.812 243.158 246.99 242.98C247.168 242.801 247.41 242.701 247.662 242.701C247.914 242.701 248.156 242.801 248.335 242.98C248.513 243.158 248.613 243.4 248.613 243.652C248.613 245.29 249.285 251.747 252.514 252.959C255.743 254.172 255.399 256.941 254.94 259.334C254.765 260.275 254.661 261.228 254.629 262.185C255.039 261.726 255.53 261.087 255.907 260.546C256.604 259.56 257.413 258.659 258.317 257.859C258.545 257.679 258.812 257.554 259.095 257.491C259.379 257.429 259.673 257.431 259.956 257.498C261.464 257.908 262.382 260.104 263.448 262.627C263.743 263.332 264.038 264.036 264.316 264.643C264.759 263.66 265.365 262.332 266.644 262.005C269.07 261.415 289.74 267.494 296.149 269.624C304.837 272.525 307.509 281.963 308.508 285.519L308.623 285.913C309.607 289.321 309.246 301.939 305.673 307.559C302.28 312.852 293.674 314.212 288.101 314.212Z" fill="#263238"/>
<path d="M414.793 376.219C414.46 376.243 414.126 376.243 413.793 376.219C413.543 376.182 413.318 376.047 413.167 375.844C413.017 375.642 412.953 375.387 412.99 375.137C413.027 374.888 413.161 374.663 413.364 374.512C413.567 374.361 413.822 374.298 414.071 374.334C414.203 374.334 425.546 375.711 435.528 356.604C444.134 340.218 444.544 335.302 444.413 334.056C444.101 334.286 443.691 334.663 443.314 335.007C442.342 336.001 441.198 336.811 439.938 337.399C438.053 338.153 417.71 355.424 413.547 373.613C413.52 373.735 413.469 373.849 413.397 373.95C413.326 374.051 413.234 374.137 413.129 374.203C413.024 374.268 412.907 374.312 412.784 374.332C412.662 374.352 412.537 374.347 412.416 374.318C412.293 374.293 412.177 374.243 412.074 374.173C411.971 374.102 411.883 374.011 411.816 373.905C411.749 373.8 411.703 373.682 411.682 373.559C411.662 373.435 411.666 373.309 411.695 373.187C416.055 354.146 437.004 336.531 439.233 335.629C440.278 335.134 441.222 334.451 442.019 333.614C442.656 332.856 443.49 332.289 444.429 331.975C444.699 331.917 444.981 331.94 445.238 332.043C445.494 332.145 445.715 332.321 445.872 332.549C448.134 335.564 441.413 349.443 437.2 357.44C428.103 374.744 417.973 376.219 414.793 376.219Z" fill="#263238"/>
<path d="M416.235 373.99C416.097 373.989 415.961 373.957 415.837 373.898C415.712 373.838 415.602 373.752 415.514 373.646C415.433 373.551 415.371 373.44 415.333 373.32C415.295 373.201 415.281 373.075 415.292 372.95C415.302 372.826 415.337 372.704 415.395 372.593C415.453 372.482 415.532 372.383 415.629 372.302C415.76 372.204 428.594 361.307 434.151 349.509C434.265 349.293 434.458 349.128 434.689 349.05C434.921 348.972 435.173 348.986 435.395 349.09C435.616 349.193 435.79 349.378 435.878 349.605C435.967 349.833 435.965 350.086 435.872 350.312C430.135 362.503 417.399 373.253 416.858 373.761C416.684 373.908 416.463 373.99 416.235 373.99Z" fill="#263238"/>
<path d="M413.99 351.098H413.908C413.783 351.09 413.662 351.057 413.551 351.001C413.439 350.945 413.34 350.868 413.259 350.773C413.178 350.678 413.117 350.569 413.079 350.45C413.041 350.331 413.028 350.206 413.039 350.082C414.334 334.499 421.94 318.423 435.643 302.332C436.217 301.644 436.61 301.185 436.774 300.955C437.104 300.426 437.405 299.879 437.676 299.317C438.79 297.219 439.692 295.581 440.954 295.941C442.216 296.302 442.593 297.58 442.249 304.134C441.561 317.244 432.627 342.61 432.25 343.675C432.219 343.804 432.161 343.925 432.08 344.03C432 344.136 431.898 344.223 431.781 344.287C431.665 344.35 431.536 344.389 431.404 344.4C431.271 344.41 431.138 344.393 431.013 344.35C430.888 344.306 430.773 344.237 430.676 344.146C430.579 344.055 430.502 343.945 430.45 343.823C430.399 343.701 430.373 343.569 430.375 343.436C430.378 343.304 430.407 343.173 430.463 343.052C430.562 342.79 439.692 316.916 440.298 304.036C440.448 302.155 440.448 300.264 440.298 298.383C439.954 298.923 439.544 299.694 439.282 300.185C439.02 300.677 438.561 301.545 438.266 301.971C437.971 302.397 437.643 302.741 437.004 303.495C423.562 319.292 416.121 334.99 414.858 350.164C414.855 350.4 414.765 350.626 414.604 350.798C414.444 350.971 414.225 351.078 413.99 351.098Z" fill="#263238"/>
<path d="M414.465 360.504H414.203C413.962 360.432 413.759 360.267 413.639 360.046C413.519 359.825 413.492 359.565 413.563 359.324C419.087 340.414 431.971 316.719 432.102 316.424C432.161 316.315 432.24 316.218 432.337 316.14C432.433 316.061 432.544 316.003 432.663 315.968C432.782 315.933 432.907 315.922 433.03 315.935C433.153 315.949 433.273 315.987 433.381 316.047C433.49 316.106 433.587 316.185 433.666 316.282C433.744 316.378 433.803 316.488 433.838 316.607C433.873 316.726 433.884 316.851 433.87 316.975C433.856 317.098 433.818 317.217 433.758 317.326C433.627 317.571 420.858 341.152 415.383 359.931C415.308 360.11 415.18 360.261 415.015 360.364C414.851 360.467 414.659 360.516 414.465 360.504Z" fill="#263238"/>
<path d="M408.711 374.302C408.467 374.303 408.231 374.209 408.056 374.04C407.4 373.417 392.057 358.39 393.844 339.628C395.401 323.241 399.384 307.822 402.532 305.806C402.742 305.654 402.985 305.554 403.242 305.514C403.498 305.474 403.76 305.495 404.007 305.577C405.892 306.232 406.285 309.001 406.777 312.524C407.046 315.324 407.674 318.078 408.646 320.718C411.285 326.928 417.661 355.375 414.235 370.779C414.167 371.01 414.014 371.206 413.807 371.329C413.599 371.452 413.353 371.491 413.118 371.439C412.882 371.387 412.676 371.247 412.539 371.049C412.403 370.85 412.347 370.607 412.383 370.369C415.661 355.343 409.482 327.535 406.892 321.455C405.862 318.678 405.19 315.782 404.892 312.836C404.58 310.656 404.203 307.92 403.499 307.477C401.728 308.592 397.466 321.635 395.729 339.857C394.09 357.653 409.219 372.516 409.367 372.63C409.514 372.757 409.617 372.927 409.663 373.116C409.709 373.304 409.694 373.503 409.622 373.683C409.55 373.863 409.424 374.016 409.26 374.121C409.097 374.226 408.905 374.278 408.711 374.269V374.302Z" fill="#263238"/>
<path d="M410.023 372.057C409.84 372.055 409.662 372.002 409.508 371.904C409.354 371.805 409.231 371.665 409.154 371.5C400.958 353.376 399.63 327.928 399.63 327.682C399.621 327.558 399.637 327.433 399.677 327.316C399.717 327.198 399.78 327.089 399.863 326.996C399.945 326.903 400.045 326.827 400.157 326.773C400.27 326.719 400.391 326.689 400.515 326.682C400.761 326.678 400.997 326.77 401.175 326.938C401.353 327.107 401.458 327.339 401.466 327.584C401.466 327.829 402.859 352.934 410.842 370.729C410.942 370.958 410.949 371.216 410.86 371.449C410.771 371.682 410.594 371.871 410.367 371.975C410.259 372.026 410.142 372.054 410.023 372.057Z" fill="#263238"/>
<path d="M408.908 325.158C408.667 325.159 408.434 325.068 408.258 324.904C408.081 324.739 407.974 324.514 407.957 324.273C406.498 299.268 416.874 277.686 421.857 267.33C422.771 265.541 423.586 263.703 424.3 261.824C425.398 258.137 426.808 257.515 427.775 257.646C429.201 257.826 431.135 259.563 431.479 272.263C431.922 288.289 427.25 316.31 427.217 316.506C427.197 316.63 427.152 316.748 427.086 316.855C427.02 316.961 426.933 317.054 426.831 317.127C426.729 317.2 426.614 317.252 426.492 317.281C426.369 317.309 426.243 317.313 426.119 317.293C425.995 317.272 425.877 317.228 425.77 317.162C425.664 317.095 425.571 317.009 425.498 316.907C425.425 316.805 425.373 316.689 425.344 316.567C425.316 316.445 425.312 316.319 425.332 316.195C425.332 315.916 430.004 288.059 429.578 272.23C429.266 260.415 427.512 259.448 427.496 259.432C426.811 260.256 426.338 261.234 426.119 262.283C425.384 264.261 424.53 266.192 423.562 268.068C418.644 278.293 408.432 299.563 409.859 324.077C409.865 324.202 409.847 324.327 409.805 324.444C409.764 324.562 409.699 324.671 409.615 324.764C409.531 324.856 409.43 324.932 409.317 324.986C409.204 325.039 409.082 325.07 408.957 325.076L408.908 325.158Z" fill="#263238"/>
<path d="M413.629 347.051C413.394 347.049 413.168 346.961 412.993 346.804C412.818 346.647 412.706 346.432 412.678 346.199C412.367 343.364 413.383 339.038 415.252 331.172C416.186 327.207 417.333 322.275 418.645 316.179C421.384 302.089 423.403 287.869 424.693 273.574C424.722 273.325 424.845 273.096 425.037 272.934C425.229 272.773 425.475 272.691 425.726 272.705C425.85 272.715 425.971 272.75 426.082 272.808C426.193 272.866 426.291 272.945 426.37 273.042C426.45 273.138 426.509 273.249 426.545 273.368C426.58 273.488 426.592 273.614 426.578 273.738C425.285 288.109 423.261 302.406 420.513 316.572C419.186 322.684 418.022 327.617 417.087 331.582C415.284 339.251 414.285 343.462 414.563 345.986C414.591 346.236 414.518 346.486 414.362 346.683C414.205 346.879 413.977 347.006 413.727 347.035L413.629 347.051Z" fill="#263238"/>
<path d="M428.25 380.971C428.046 380.97 427.847 380.905 427.682 380.784C427.517 380.664 427.394 380.494 427.332 380.299C427.261 380.058 427.288 379.798 427.408 379.577C427.528 379.356 427.73 379.192 427.971 379.119L429.906 378.513C429.812 378.463 429.724 378.402 429.643 378.333C429.458 378.162 429.323 377.943 429.254 377.7C429.184 377.457 429.183 377.2 429.25 376.956C429.574 375.978 430.056 375.06 430.676 374.236L430.889 373.925C427.332 375.269 422.398 376.727 419.005 375.252C418.89 375.204 418.785 375.133 418.697 375.044C418.609 374.956 418.54 374.85 418.493 374.735C418.446 374.619 418.422 374.495 418.422 374.37C418.423 374.245 418.448 374.122 418.497 374.007C418.601 373.776 418.792 373.595 419.028 373.503C419.264 373.411 419.526 373.416 419.759 373.515C423.037 374.924 428.709 372.729 430.594 372.008C431.266 371.745 432.496 371.27 433.151 372.106C433.807 372.942 433.151 373.925 432.266 375.285C431.955 375.744 431.61 376.268 431.364 376.727C431.905 376.596 432.643 376.366 433.233 376.186C434.814 375.606 436.47 375.253 438.151 375.137C439.2 375.137 439.511 375.645 439.56 376.072C439.691 376.956 439.79 377.53 428.545 380.987L428.25 380.971Z" fill="#263238"/>
<path d="M405.597 373.744C405.442 373.747 405.288 373.708 405.154 373.63C402.565 372.213 400.209 370.406 398.171 368.271C396.614 366.633 395.467 366.19 394.893 366.338C394.787 366.381 394.696 366.453 394.629 366.546C394.562 366.638 394.523 366.748 394.516 366.862C394.489 367.108 394.395 367.341 394.245 367.538C394.094 367.734 393.894 367.886 393.664 367.976C392.762 368.321 391.877 367.6 390.844 366.764L390.582 366.567C390.582 366.682 390.582 366.797 390.582 366.895C390.746 368.812 391.008 371.696 388.943 372.647C388.829 372.698 388.706 372.727 388.58 372.731C388.455 372.735 388.33 372.714 388.213 372.67C388.096 372.626 387.989 372.559 387.897 372.474C387.806 372.388 387.732 372.285 387.681 372.171C387.629 372.057 387.6 371.934 387.596 371.809C387.592 371.684 387.613 371.559 387.657 371.442C387.701 371.325 387.768 371.218 387.853 371.126C387.939 371.035 388.042 370.961 388.156 370.91C388.992 370.533 388.795 368.353 388.681 367.059C388.566 365.764 388.484 364.716 389.271 364.273C390.057 363.831 390.992 364.486 392.008 365.289L392.795 365.912C392.931 365.579 393.141 365.282 393.407 365.041C393.674 364.8 393.991 364.621 394.336 364.519C395.172 364.273 396.942 364.273 399.466 366.977C401.362 368.928 403.539 370.585 405.925 371.893C406.037 371.95 406.138 372.029 406.22 372.125C406.302 372.222 406.363 372.333 406.402 372.454C406.44 372.575 406.453 372.702 406.442 372.827C406.43 372.953 406.394 373.076 406.334 373.187C406.268 373.334 406.165 373.462 406.036 373.56C405.908 373.657 405.756 373.721 405.597 373.744Z" fill="#263238"/>
<path d="M76.811 372.581C75.1168 372.58 73.4246 372.465 71.7459 372.237C64.3041 371.237 53.4527 367.321 44.0767 354.802C28.5209 333.942 27.9144 316.965 27.6849 309.706C27.6849 308.608 27.6849 307.756 27.5374 307.133C27.1276 303.856 27.5374 299.989 29.4552 299.186C29.947 298.956 30.9469 298.792 32.0123 300.087C32.7025 301.049 33.1111 302.183 33.1925 303.364C33.5368 305.462 33.9302 307.854 38.569 310.558C48.273 316.178 80.5975 336.924 89.5474 367.731C89.5954 367.854 89.6172 367.985 89.6114 368.117C89.6056 368.249 89.5723 368.379 89.5138 368.497C89.4552 368.615 89.3726 368.72 89.2712 368.805C89.1698 368.89 89.0519 368.952 88.9249 368.989C88.798 369.026 88.6648 369.035 88.5338 369.018C88.4029 369 88.2771 368.955 88.1645 368.886C88.0518 368.817 87.9549 368.725 87.8797 368.616C87.8045 368.508 87.7528 368.385 87.7279 368.255C78.9747 338.136 47.1583 317.735 37.6183 312.197C32.1926 309.05 31.6845 305.937 31.3239 303.676C31.2743 302.846 31.0087 302.044 30.5535 301.349C30.4438 301.191 30.2976 301.061 30.1273 300.972C29.8158 301.168 28.9635 303.299 29.4224 306.953C29.4224 307.608 29.5372 308.592 29.5864 309.689C29.8322 316.768 30.4223 333.335 45.6175 353.72C54.5674 365.748 64.8614 369.418 71.9263 370.402C76.3916 371.06 80.9446 370.792 85.3019 369.615C85.541 369.537 85.8012 369.558 86.0254 369.671C86.2497 369.785 86.4198 369.983 86.4985 370.221C86.5393 370.34 86.5558 370.465 86.5472 370.59C86.5387 370.714 86.5051 370.836 86.4485 370.948C86.3919 371.059 86.3135 371.158 86.2179 371.239C86.1224 371.32 86.0115 371.38 85.892 371.418C82.9398 372.255 79.879 372.647 76.811 372.581Z" fill="#263238"/>
<path d="M85.7938 369.238H85.6299C85.0234 369.124 70.5331 366.534 54.9117 352.606C45.2316 343.649 38.1907 332.213 34.5532 319.538C34.5241 319.416 34.5193 319.29 34.539 319.167C34.5587 319.043 34.6025 318.925 34.668 318.818C34.7334 318.712 34.8192 318.619 34.9204 318.546C35.0217 318.473 35.1364 318.42 35.258 318.391C35.3796 318.362 35.5058 318.357 35.6293 318.377C35.7528 318.396 35.8712 318.44 35.9777 318.506C36.0843 318.571 36.1769 318.657 36.2503 318.758C36.3236 318.859 36.3764 318.974 36.4054 319.095C39.9328 331.407 46.7703 342.516 56.1739 351.213C71.3526 364.765 85.8102 367.37 85.9577 367.387C86.2032 367.434 86.4206 367.576 86.5643 367.78C86.7079 367.985 86.7667 368.237 86.7281 368.484C86.6858 368.7 86.5689 368.893 86.3981 369.031C86.2272 369.169 86.0133 369.242 85.7938 369.238Z" fill="#263238"/>
<path d="M95.0716 368.91C94.8238 368.932 94.5775 368.855 94.387 368.695C94.1964 368.535 94.0771 368.306 94.0553 368.058C94.0336 367.811 94.1112 367.564 94.271 367.374C94.4309 367.183 94.6599 367.064 94.9077 367.042C95.088 367.042 112.939 363.29 113.611 330.205C114.43 293.713 107.054 276.228 102.481 271.656C101.53 270.689 100.694 270.231 100.284 270.395C98.5303 271.083 98.3828 279.129 98.3008 283.93C98.1697 290.353 95.0224 296.531 90.7934 305.101C89.3345 308.018 87.6953 311.328 85.9742 314.933C79.565 328.714 83.0073 352.491 83.0401 352.721C83.0746 352.85 83.0815 352.985 83.0601 353.117C83.0388 353.249 82.9898 353.375 82.9163 353.487C82.8429 353.599 82.7466 353.694 82.6338 353.766C82.521 353.839 82.3942 353.886 82.2618 353.906C82.1293 353.926 81.9942 353.917 81.8653 353.881C81.7364 353.845 81.6165 353.782 81.5136 353.696C81.4106 353.611 81.3269 353.505 81.268 353.384C81.209 353.264 81.1761 353.133 81.1714 352.999C81.0239 352.016 77.598 328.419 84.2531 314.13C85.8922 310.443 87.6462 307.133 89.1706 304.2C93.3341 295.859 96.3502 289.845 96.4649 283.848C96.6124 275.327 96.9239 269.657 99.6449 268.576C101.497 267.838 103.3 269.673 103.89 270.214C110.234 276.621 116.299 297.645 115.578 330.14C114.791 364.879 96.1043 368.648 95.3175 368.796L95.0716 368.91Z" fill="#263238"/>
<path d="M72.9262 377.366C67.3366 377.17 67.1399 376.186 67.0415 375.728C66.9432 375.269 67.3366 374.482 68.3037 374.089C69.6604 373.483 71.1545 373.251 72.6311 373.417C73.7337 373.536 74.849 373.43 75.9095 373.106C78.4174 372.336 78.8108 371.385 78.8108 371.385C78.8396 371.266 78.8918 371.153 78.9643 371.053C79.0368 370.954 79.1282 370.87 79.2333 370.806C79.3384 370.742 79.4551 370.7 79.5767 370.681C79.6983 370.662 79.8224 370.668 79.9418 370.697C80.1867 370.763 80.3967 370.92 80.528 371.137C80.6593 371.354 80.7018 371.613 80.6467 371.86C80.6467 372.172 80.0402 373.827 76.4668 374.925C75.1773 375.313 73.8243 375.447 72.4836 375.318C71.7816 375.228 71.071 375.228 70.3691 375.318C71.1395 375.416 72.0082 375.482 72.9426 375.514C73.1947 375.514 73.4365 375.615 73.6148 375.793C73.7931 375.971 73.8933 376.213 73.8933 376.465C73.8933 376.717 73.7931 376.959 73.6148 377.137C73.4365 377.315 73.1947 377.415 72.9426 377.415L72.9262 377.366Z" fill="#263238"/>
<path d="M101.661 371.975C101.532 371.975 101.405 371.949 101.287 371.898C101.168 371.847 101.061 371.773 100.973 371.68C100.794 371.502 100.694 371.26 100.694 371.008C100.694 370.756 100.794 370.515 100.973 370.336C101.573 369.787 102.122 369.183 102.612 368.534L102.513 368.632C101.841 369.435 100.874 370.631 99.5137 369.959C98.9807 369.639 98.5165 369.217 98.1479 368.716C97.7794 368.215 97.5137 367.647 97.3664 367.043C97.3077 366.797 97.349 366.538 97.4812 366.323C97.6134 366.108 97.8256 365.954 98.0713 365.896C98.3169 365.837 98.5758 365.878 98.7909 366.01C99.0061 366.142 99.16 366.355 99.2187 366.6C99.3961 367.273 99.8165 367.857 100.399 368.239C100.596 367.929 100.821 367.639 101.071 367.37C101.759 366.567 102.923 365.207 104.349 366.158C104.551 366.297 104.719 366.479 104.841 366.692C104.963 366.905 105.036 367.142 105.054 367.387C105.153 368.911 103.185 370.91 102.333 371.696C102.151 371.869 101.912 371.968 101.661 371.975Z" fill="#263238"/>
<path d="M94.957 364.765C94.8326 364.789 94.7045 364.789 94.58 364.765C94.4642 364.715 94.3596 364.643 94.2724 364.552C94.1853 364.461 94.1175 364.353 94.0731 364.235C94.0287 364.117 94.0086 363.992 94.014 363.866C94.0195 363.74 94.0503 363.616 94.1046 363.503C103.306 340.476 106.76 315.555 104.169 290.894C104.141 290.642 104.213 290.39 104.37 290.191C104.526 289.992 104.754 289.862 105.005 289.829C105.129 289.813 105.255 289.822 105.376 289.856C105.496 289.889 105.609 289.947 105.707 290.025C105.804 290.103 105.886 290.2 105.945 290.309C106.005 290.419 106.042 290.54 106.054 290.665C110.775 330.615 95.9733 363.945 95.8258 364.289C95.7386 364.441 95.6114 364.565 95.4582 364.649C95.3049 364.733 95.1315 364.773 94.957 364.765Z" fill="#263238"/>
<path d="M81.5156 349.132C81.3405 349.134 81.1683 349.088 81.0179 348.998C80.8675 348.908 80.7448 348.779 80.6633 348.624C80.5485 348.378 68.14 323.733 72.1396 286.814C73.7477 270.764 77.4623 254.996 83.1876 239.916C85.089 234.655 86.3348 231.181 85.9906 229.018C85.8103 227.904 84.3514 218.072 87.056 216.86C87.597 216.614 88.4821 216.581 89.4984 217.826C92.3506 221.333 100.973 247.879 100.464 269.788C100.464 269.913 100.44 270.037 100.392 270.152C100.344 270.267 100.274 270.372 100.186 270.46C100.098 270.549 99.9929 270.619 99.8776 270.666C99.7623 270.714 99.6386 270.739 99.5138 270.739C99.3889 270.739 99.2653 270.714 99.1499 270.666C99.0346 270.619 98.9298 270.549 98.8415 270.46C98.7532 270.372 98.6832 270.267 98.6354 270.152C98.5876 270.037 98.5631 269.913 98.5631 269.788C99.0712 247.699 90.2197 221.759 88.0232 218.99L87.7609 218.711C87.2691 219.76 87.0888 223.758 87.8756 228.691C88.2854 231.329 86.9741 234.983 84.9743 240.522C79.3104 255.463 75.6291 271.081 74.0246 286.978C70.0906 323.307 82.2205 347.477 82.3516 347.723C82.4107 347.833 82.447 347.954 82.4584 348.079C82.4697 348.204 82.4558 348.329 82.4176 348.449C82.3794 348.568 82.3176 348.678 82.2358 348.773C82.1541 348.868 82.0541 348.945 81.9418 349.001C81.8122 349.078 81.6661 349.123 81.5156 349.132Z" fill="#263238"/>
<path d="M81.8269 327.829C81.5803 327.829 81.3433 327.734 81.166 327.562C80.9886 327.391 80.8847 327.158 80.8762 326.912C80.8762 326.567 80.6631 318.587 83.7611 301.316C86.8592 284.044 90.3178 243.16 90.3178 242.734C90.3467 242.485 90.4697 242.256 90.6617 242.095C90.8536 241.933 91.1 241.851 91.3505 241.865C91.4749 241.876 91.596 241.911 91.7066 241.968C91.8173 242.026 91.9152 242.105 91.9947 242.202C92.0741 242.298 92.1335 242.409 92.1692 242.529C92.205 242.648 92.2164 242.774 92.2029 242.898C92.2029 243.307 88.6786 284.454 85.6462 301.66C82.6137 318.866 82.7776 326.764 82.794 326.846C82.7943 327.098 82.6975 327.341 82.5235 327.524C82.3496 327.707 82.1119 327.817 81.8597 327.829H81.8269Z" fill="#263238"/>
<path d="M58.3868 326.567C58.2504 326.566 58.1158 326.536 57.9917 326.479C57.8675 326.423 57.7564 326.341 57.6655 326.24C57.5344 326.076 43.9292 310.296 40.6017 289.108C37.2742 267.92 35.8645 260.857 33.7172 257.809C32.4714 256.023 32.4222 254.106 33.6024 253.008C34.2417 252.402 36.8808 250.796 42.6999 255.581C50.4204 261.89 68.6152 285.077 73.2049 300.201C73.2603 300.438 73.2234 300.686 73.1017 300.895C72.98 301.105 72.7827 301.26 72.5502 301.33C72.3178 301.399 72.0677 301.376 71.8512 301.267C71.6346 301.158 71.468 300.97 71.3854 300.742C66.976 286.207 48.8795 263.053 41.4869 257.056C37.7987 254.041 35.5203 253.778 34.9302 254.401C34.5695 254.745 34.5695 255.646 35.3236 256.712C37.7168 260.104 39.0773 266.97 42.5195 288.813C45.7979 309.46 59.026 324.863 59.1572 324.994C59.2393 325.089 59.3018 325.199 59.3413 325.317C59.3808 325.436 59.3965 325.562 59.3873 325.687C59.3782 325.811 59.3444 325.933 59.2881 326.045C59.2317 326.157 59.1538 326.256 59.0588 326.338C58.872 326.497 58.6318 326.579 58.3868 326.567Z" fill="#263238"/>
<path d="M79.237 343.905C79.0963 343.905 78.9571 343.875 78.8295 343.815C78.702 343.756 78.5892 343.669 78.4994 343.561C78.4994 343.462 70.5002 333.892 59.9767 318.604C49.4532 303.315 43.7325 275.556 43.4866 274.36C43.4628 274.237 43.4635 274.111 43.4885 273.989C43.5135 273.866 43.5625 273.75 43.6325 273.647C43.7025 273.543 43.7923 273.454 43.8966 273.386C44.001 273.317 44.1179 273.269 44.2406 273.246C44.4857 273.202 44.7383 273.254 44.9459 273.391C45.1535 273.528 45.3002 273.74 45.3553 273.983C45.3553 274.278 51.1744 302.43 61.5503 317.522C71.9263 332.614 79.8927 342.233 79.9747 342.332C80.1325 342.528 80.2071 342.779 80.1826 343.03C80.1581 343.281 80.0364 343.513 79.8435 343.675C79.6745 343.82 79.4598 343.902 79.237 343.905Z" fill="#263238"/>
<path d="M51.5678 267.346C51.3642 267.341 51.1674 267.272 51.0055 267.148C50.8436 267.025 50.7249 266.853 50.6663 266.658C50.6663 266.462 44.6341 246.372 42.7655 233.295C42.3229 230.133 41.8967 227.544 41.5525 225.413C40.6345 219.858 40.2903 217.761 41.3885 216.712C41.6826 216.468 42.0323 216.299 42.4068 216.222C42.7814 216.145 43.1691 216.161 43.5359 216.27C46.6175 216.876 72.5657 236.671 78.8273 259.53C78.8639 259.652 78.8756 259.78 78.8618 259.906C78.848 260.033 78.809 260.155 78.747 260.266C78.685 260.377 78.6014 260.475 78.501 260.553C78.4006 260.631 78.2856 260.688 78.1627 260.721C78.0398 260.754 77.9115 260.762 77.7855 260.745C77.6595 260.727 77.5383 260.684 77.429 260.619C77.3198 260.554 77.2248 260.467 77.1496 260.365C77.0745 260.262 77.0207 260.145 76.9914 260.022C71.0412 238.359 46.011 218.678 43.1752 218.121C43.0072 218.091 42.8351 218.091 42.6671 218.121C42.3393 218.596 42.8474 221.628 43.4211 225.151C43.7653 227.265 44.1915 229.887 44.6505 233.066C46.4864 246.011 52.4202 265.954 52.4858 266.15C52.557 266.391 52.5298 266.651 52.41 266.872C52.2901 267.093 52.0875 267.258 51.8465 267.33C51.7554 267.352 51.6609 267.358 51.5678 267.346Z" fill="#263238"/>
<path d="M72.4672 295.679C72.2453 295.683 72.0295 295.607 71.8583 295.466C71.6871 295.325 71.5717 295.127 71.5328 294.909C69.7853 287.604 66.6646 280.697 62.3371 274.557C54.7313 263.48 50.1088 238.769 49.9285 237.72C49.9047 237.597 49.9054 237.471 49.9304 237.349C49.9554 237.226 50.0044 237.11 50.0744 237.006C50.1444 236.903 50.2342 236.814 50.3385 236.745C50.4429 236.677 50.5598 236.629 50.6825 236.606C50.9317 236.567 51.1863 236.625 51.3937 236.768C51.6011 236.911 51.7456 237.129 51.7972 237.376C51.7972 237.622 56.518 262.742 63.8943 273.426C68.4005 279.774 71.6294 286.936 73.4015 294.516C73.425 294.639 73.4236 294.765 73.3974 294.887C73.3711 295.009 73.3206 295.125 73.2487 295.228C73.1769 295.33 73.0852 295.417 72.9791 295.483C72.873 295.55 72.7547 295.594 72.6311 295.614L72.4672 295.679Z" fill="#263238"/>
<path d="M83.6627 242.324C83.5379 242.32 83.415 242.291 83.3013 242.24C83.1876 242.188 83.0852 242.114 82.9999 242.023C82.9146 241.932 82.8482 241.825 82.8045 241.708C82.7607 241.591 82.7404 241.466 82.7448 241.341C83.089 232.279 81.9744 226.298 78.7616 220.039L78.3846 219.334C72.0574 206.897 64.6319 191.952 63.5501 186.774C62.8452 183.497 61.747 182.169 61.2224 182.153C61.1077 182.153 59.7472 182.268 58.0916 187.757C55.2722 197.032 61.8945 231.591 61.9764 232.001C62.0243 232.249 61.9717 232.505 61.8303 232.714C61.6889 232.923 61.4702 233.067 61.2224 233.115C60.9746 233.163 60.718 233.11 60.5089 232.969C60.2999 232.828 60.1556 232.609 60.1078 232.361C59.8291 230.919 53.3216 196.983 56.2721 187.266C57.6818 182.579 59.3046 180.301 61.1896 180.301H61.206C63.6648 180.4 64.8286 184.185 65.304 186.43C66.4842 192.018 76.2864 211.272 80.0565 218.515L80.4172 219.236C83.7939 225.79 84.9741 232.099 84.6135 241.505C84.5816 241.734 84.4675 241.943 84.2926 242.094C84.1176 242.245 83.8937 242.327 83.6627 242.324Z" fill="#263238"/>
<path d="M76.8767 257.498C76.6392 257.495 76.4111 257.405 76.2357 257.245C76.0604 257.085 75.9502 256.866 75.926 256.63C75.926 256.515 75.0081 244.487 74.1065 236.818C73.205 229.15 64.2715 215.024 64.1404 214.893C64.0056 214.676 63.9627 214.414 64.0211 214.165C64.0795 213.916 64.2344 213.701 64.4518 213.566C64.6692 213.431 64.9312 213.388 65.1802 213.447C65.4292 213.505 65.6448 213.66 65.7795 213.877C66.1565 214.467 75.09 228.625 76.0244 236.589C76.9587 244.553 77.8439 256.368 77.8602 256.482C77.8784 256.732 77.7973 256.979 77.6347 257.169C77.472 257.359 77.2409 257.477 76.9915 257.498H76.8767Z" fill="#263238"/>
</svg>
