<svg width="189" height="172" viewBox="0 0 189 172" fill="none" xmlns="http://www.w3.org/2000/svg">
<g clip-path="url(#clip0_106_297)">
<path d="M174.729 48.291H136.679V134.607H174.729V48.291Z" stroke="#263238" stroke-width="0.75" stroke-linecap="round" stroke-linejoin="round"/>
<path d="M171.388 51.6309H140.018V131.267H171.388V51.6309Z" stroke="#263238" stroke-width="0.75" stroke-linecap="round" stroke-linejoin="round"/>
<path d="M143.584 86.793L142.728 88.2797" stroke="#263238" stroke-width="0.75" stroke-linecap="round" stroke-linejoin="round"/>
<path d="M152.59 71.2012L144.572 85.0888" stroke="#263238" stroke-width="0.75" stroke-linecap="round" stroke-linejoin="round"/>
<path d="M159.947 58.4553L153.872 68.9775" stroke="#263238" stroke-width="0.75" stroke-linecap="round" stroke-linejoin="round"/>
<path d="M161.233 56.2317L160.586 57.3478" stroke="#263238" stroke-width="0.75" stroke-linecap="round" stroke-linejoin="round"/>
<path d="M146.136 124.643L145.407 125.904" stroke="#263238" stroke-width="0.75" stroke-linecap="round" stroke-linejoin="round"/>
<path d="M147.823 121.721L147.052 123.063" stroke="#263238" stroke-width="0.75" stroke-linecap="round" stroke-linejoin="round"/>
<path d="M158.111 103.901L149.476 118.862" stroke="#263238" stroke-width="0.75" stroke-linecap="round" stroke-linejoin="round"/>
<path d="M165.757 90.6567L158.996 102.372" stroke="#263238" stroke-width="0.75" stroke-linecap="round" stroke-linejoin="round"/>
<path d="M167.432 87.7598L166.763 88.9185" stroke="#263238" stroke-width="0.75" stroke-linecap="round" stroke-linejoin="round"/>
<path d="M155.704 115.113L149.476 125.904" stroke="#263238" stroke-width="0.75" stroke-linecap="round" stroke-linejoin="round"/>
<path d="M163.67 101.315L156.611 113.541" stroke="#263238" stroke-width="0.75" stroke-linecap="round" stroke-linejoin="round"/>
<path d="M165.327 98.4482L164.492 99.8924" stroke="#263238" stroke-width="0.75" stroke-linecap="round" stroke-linejoin="round"/>
<path d="M142.728 97.9626L141.782 99.6027" stroke="#263238" stroke-width="0.75" stroke-linecap="round" stroke-linejoin="round"/>
<path d="M151.005 83.6277L143.486 96.6505" stroke="#263238" stroke-width="0.75" stroke-linecap="round" stroke-linejoin="round"/>
<path d="M161.335 65.7358L151.891 82.09" stroke="#263238" stroke-width="0.75" stroke-linecap="round" stroke-linejoin="round"/>
<path d="M167.542 54.9834L162.063 64.4747" stroke="#263238" stroke-width="0.75" stroke-linecap="round" stroke-linejoin="round"/>
<path d="M52.3218 48.291H14.2715V134.607H52.3218V48.291Z" stroke="#263238" stroke-width="0.75" stroke-linecap="round" stroke-linejoin="round"/>
<path d="M48.982 51.6309H17.6113V131.267H48.982V51.6309Z" stroke="#263238" stroke-width="0.75" stroke-linecap="round" stroke-linejoin="round"/>
<path d="M21.1776 86.793L20.3213 88.2797" stroke="#263238" stroke-width="0.75" stroke-linecap="round" stroke-linejoin="round"/>
<path d="M30.1785 71.2012L22.1611 85.0888" stroke="#263238" stroke-width="0.75" stroke-linecap="round" stroke-linejoin="round"/>
<path d="M37.5396 58.4553L31.4648 68.9775" stroke="#263238" stroke-width="0.75" stroke-linecap="round" stroke-linejoin="round"/>
<path d="M38.822 56.2317L38.1787 57.3478" stroke="#263238" stroke-width="0.75" stroke-linecap="round" stroke-linejoin="round"/>
<path d="M23.7285 124.643L23 125.904" stroke="#263238" stroke-width="0.75" stroke-linecap="round" stroke-linejoin="round"/>
<path d="M25.415 121.721L24.6396 123.063" stroke="#263238" stroke-width="0.75" stroke-linecap="round" stroke-linejoin="round"/>
<path d="M35.7028 103.901L27.0635 118.862" stroke="#263238" stroke-width="0.75" stroke-linecap="round" stroke-linejoin="round"/>
<path d="M43.3508 90.6567L36.5859 102.372" stroke="#263238" stroke-width="0.75" stroke-linecap="round" stroke-linejoin="round"/>
<path d="M45.0237 87.7598L44.3506 88.9185" stroke="#263238" stroke-width="0.75" stroke-linecap="round" stroke-linejoin="round"/>
<path d="M33.2959 115.114L27.0635 125.904" stroke="#263238" stroke-width="0.75" stroke-linecap="round" stroke-linejoin="round"/>
<path d="M41.2629 101.315L34.2041 113.541" stroke="#263238" stroke-width="0.75" stroke-linecap="round" stroke-linejoin="round"/>
<path d="M42.9157 98.4482L42.085 99.8924" stroke="#263238" stroke-width="0.75" stroke-linecap="round" stroke-linejoin="round"/>
<path d="M20.3201 97.9626L19.3701 99.6027" stroke="#263238" stroke-width="0.75" stroke-linecap="round" stroke-linejoin="round"/>
<path d="M28.5931 83.6277L21.0742 96.6505" stroke="#263238" stroke-width="0.75" stroke-linecap="round" stroke-linejoin="round"/>
<path d="M38.9245 65.7358L29.4844 82.09" stroke="#263238" stroke-width="0.75" stroke-linecap="round" stroke-linejoin="round"/>
<path d="M45.1307 54.9834L39.6523 64.4747" stroke="#263238" stroke-width="0.75" stroke-linecap="round" stroke-linejoin="round"/>
<path d="M0.567383 170.587H188.433" stroke="#263238" stroke-linecap="round" stroke-linejoin="round"/>
<path d="M65.8263 136.84H62.5674V147.92H65.8263V136.84Z" fill="white"/>
<path opacity="0.2" d="M65.8263 136.84H62.5674V147.92H65.8263V136.84Z" fill="black"/>
<path d="M69.089 138.058H65.8301V147.92H69.089V138.058Z" fill="white"/>
<path d="M73.1578 138.058H70.8574V147.92H73.1578V138.058Z" fill="white"/>
<path opacity="0.9" d="M73.1578 138.058H70.8574V147.92H73.1578V138.058Z" fill="white"/>
<path d="M70.8608 137.019H68.7734V147.924H70.8608V137.019Z" fill="white"/>
<path opacity="0.1" d="M70.8608 137.019H68.7734V147.924H70.8608V137.019Z" fill="black"/>
<path d="M76.421 136.84H73.1621V147.92H76.421V136.84Z" fill="white"/>
<path d="M79.6788 138.058H76.4199V147.92H79.6788V138.058Z" fill="white"/>
<path opacity="0.2" d="M79.6788 138.058H76.4199V147.92H79.6788V138.058Z" fill="#263238"/>
<path d="M83.7526 138.058H81.4521V147.92H83.7526V138.058Z" fill="white"/>
<path opacity="0.8" d="M83.7526 138.058H81.4521V147.92H83.7526V138.058Z" fill="white"/>
<path d="M81.4517 137.019H79.3643V147.924H81.4517V137.019Z" fill="white"/>
<path opacity="0.1" d="M81.4517 137.019H79.3643V147.924H81.4517V137.019Z" fill="black"/>
<path d="M99.3007 147.924H102.56V136.844H99.3007V147.924Z" fill="white"/>
<path opacity="0.2" d="M99.3007 147.924H102.56V136.844H99.3007V147.924Z" fill="black"/>
<path d="M96.038 147.924H99.2969V138.062H96.038V147.924Z" fill="white"/>
<path d="M91.9691 147.924H94.2695V138.062H91.9691V147.924Z" fill="white"/>
<path opacity="0.9" d="M91.9691 147.924H94.2695V138.062H91.9691V147.924Z" fill="white"/>
<path d="M94.2652 147.92H96.3525V137.014H94.2652V147.92Z" fill="white"/>
<path opacity="0.1" d="M94.2652 147.92H96.3525V137.014H94.2652V147.92Z" fill="black"/>
<path d="M88.7059 147.924H91.9648V136.844H88.7059V147.924Z" fill="white"/>
<path d="M85.4472 147.924H88.7061V138.062H85.4472V147.924Z" fill="white"/>
<path opacity="0.2" d="M85.4472 147.924H88.7061V138.062H85.4472V147.924Z" fill="#263238"/>
<path d="M83.6753 147.92H85.7627V137.014H83.6753V147.92Z" fill="white"/>
<path opacity="0.1" d="M83.6753 147.92H85.7627V137.014H83.6753V147.92Z" fill="black"/>
<path d="M118.088 147.924H121.347V136.844H118.088V147.924Z" fill="white"/>
<path opacity="0.2" d="M118.088 147.924H121.347V136.844H118.088V147.924Z" fill="black"/>
<path d="M114.825 147.924H118.084V138.062H114.825V147.924Z" fill="white"/>
<path d="M110.756 147.924H113.057V138.062H110.756V147.924Z" fill="white"/>
<path opacity="0.9" d="M110.756 147.924H113.057V138.062H110.756V147.924Z" fill="white"/>
<path d="M113.052 147.92H115.14V137.014H113.052V147.92Z" fill="white"/>
<path opacity="0.1" d="M113.052 147.92H115.14V137.014H113.052V147.92Z" fill="black"/>
<path d="M107.493 147.924H110.752V136.844H107.493V147.924Z" fill="white"/>
<path d="M123.468 147.533L125.608 146.959L122.728 136.211L120.587 136.785L123.468 147.533Z" fill="white"/>
<path d="M104.234 147.924H107.493V138.062H104.234V147.924Z" fill="white"/>
<path opacity="0.2" d="M104.234 147.924H107.493V138.062H104.234V147.924Z" fill="#263238"/>
<path d="M102.462 147.92H104.55V137.014H102.462V147.92Z" fill="white"/>
<path opacity="0.1" d="M102.462 147.92H104.55V137.014H102.462V147.92Z" fill="black"/>
<path d="M124.559 162.317L126.748 161.731L123.88 151.028L121.691 151.615L124.559 162.317Z" fill="white"/>
<path opacity="0.2" d="M124.559 162.317L126.748 161.731L123.88 151.028L121.691 151.615L124.559 162.317Z" fill="black"/>
<path d="M118.935 162.208H122.194V152.346H118.935V162.208Z" fill="white"/>
<path d="M114.858 162.208H117.158V152.346H114.858V162.208Z" fill="white"/>
<path opacity="0.9" d="M114.858 162.208H117.158V152.346H114.858V162.208Z" fill="white"/>
<path d="M117.159 162.212H119.246V151.307H117.159V162.212Z" fill="white"/>
<path opacity="0.1" d="M117.159 162.212H119.246V151.307H117.159V162.212Z" fill="black"/>
<path d="M111.603 162.212H114.862V151.132H111.603V162.212Z" fill="white"/>
<path d="M108.341 162.208H111.6V152.346H108.341V162.208Z" fill="white"/>
<path opacity="0.2" d="M108.341 162.208H111.6V152.346H108.341V162.208Z" fill="#263238"/>
<path d="M104.272 162.208H106.572V152.346H104.272V162.208Z" fill="white"/>
<path opacity="0.8" d="M104.272 162.208H106.572V152.346H104.272V162.208Z" fill="white"/>
<path d="M106.568 162.212H108.655V151.307H106.568V162.212Z" fill="white"/>
<path opacity="0.1" d="M106.568 162.212H108.655V151.307H106.568V162.212Z" fill="black"/>
<path d="M88.7237 151.132H85.4648V162.212H88.7237V151.132Z" fill="white"/>
<path opacity="0.2" d="M88.7237 151.132H85.4648V162.212H88.7237V151.132Z" fill="black"/>
<path d="M91.9825 152.35H88.7236V162.212H91.9825V152.35Z" fill="white"/>
<path d="M96.0553 152.35H93.7549V162.212H96.0553V152.35Z" fill="white"/>
<path opacity="0.9" d="M96.0553 152.35H93.7549V162.212H96.0553V152.35Z" fill="white"/>
<path d="M93.7544 151.307H91.667V162.212H93.7544V151.307Z" fill="white"/>
<path opacity="0.1" d="M93.7544 151.307H91.667V162.212H93.7544V151.307Z" fill="black"/>
<path d="M99.3136 151.132H96.0547V162.212H99.3136V151.132Z" fill="white"/>
<path d="M102.572 152.35H99.3135V162.212H102.572V152.35Z" fill="white"/>
<path opacity="0.2" d="M102.572 152.35H99.3135V162.212H102.572V152.35Z" fill="#263238"/>
<path d="M104.344 151.307H102.257V162.212H104.344V151.307Z" fill="white"/>
<path opacity="0.1" d="M104.344 151.307H102.257V162.212H104.344V151.307Z" fill="black"/>
<path d="M69.9366 151.132H66.6777V162.212H69.9366V151.132Z" fill="white"/>
<path opacity="0.2" d="M69.9366 151.132H66.6777V162.212H69.9366V151.132Z" fill="black"/>
<path d="M73.1954 152.35H69.9365V162.212H73.1954V152.35Z" fill="white"/>
<path d="M77.2682 152.35H74.9678V162.212H77.2682V152.35Z" fill="white"/>
<path opacity="0.9" d="M77.2682 152.35H74.9678V162.212H77.2682V152.35Z" fill="white"/>
<path d="M74.9682 151.307H72.8809V162.212H74.9682V151.307Z" fill="white"/>
<path opacity="0.1" d="M74.9682 151.307H72.8809V162.212H74.9682V151.307Z" fill="black"/>
<path d="M80.5274 151.132H77.2686V162.212H80.5274V151.132Z" fill="white"/>
<path d="M66.6715 151.605L64.54 151.034L61.6723 161.737L63.8037 162.308L66.6715 151.605Z" fill="white"/>
<path d="M83.7862 152.35H80.5273V162.212H83.7862V152.35Z" fill="white"/>
<path opacity="0.2" d="M83.7862 152.35H80.5273V162.212H83.7862V152.35Z" fill="#263238"/>
<path d="M85.5581 151.307H83.4707V162.212H85.5581V151.307Z" fill="white"/>
<path opacity="0.1" d="M85.5581 151.307H83.4707V162.212H85.5581V151.307Z" fill="black"/>
<path d="M65.0714 170.587H61.8125L61.3652 164.282H65.5187L65.0714 170.587Z" fill="#263238"/>
<path d="M127.187 170.587H123.928L123.48 164.283H127.634L127.187 170.587Z" fill="#263238"/>
<path d="M130.778 132.656H58.2216C57.807 132.656 57.4093 132.821 57.1161 133.114C56.8229 133.407 56.6582 133.805 56.6582 134.22V163.861C56.6582 164.275 56.8229 164.673 57.1161 164.966C57.4093 165.259 57.807 165.424 58.2216 165.424H130.778C131.193 165.424 131.59 165.259 131.883 164.966C132.177 164.673 132.341 164.275 132.341 163.861V134.22C132.341 133.805 132.177 133.407 131.883 133.114C131.59 132.821 131.193 132.656 130.778 132.656V132.656ZM129.21 135.787V147.924H59.7723V135.787H129.21ZM59.7893 162.31V150.161H129.227V162.31H59.7893Z" fill="white" stroke="#263238" stroke-width="0.75" stroke-linecap="round" stroke-linejoin="round"/>
<path d="M120.051 70.3962H69.8472C68.2332 70.3962 66.9248 71.7046 66.9248 73.3186V84.0964C66.9248 85.7104 68.2332 87.0188 69.8472 87.0188H120.051C121.665 87.0188 122.974 85.7104 122.974 84.0964V73.3186C122.974 71.7046 121.665 70.3962 120.051 70.3962Z" fill="#263238" stroke="#263238" stroke-linecap="round" stroke-linejoin="round"/>
<path d="M119.157 69.5015H68.9526C67.3387 69.5015 66.0303 70.8099 66.0303 72.4238V83.2016C66.0303 84.8156 67.3387 86.124 68.9526 86.124H119.157C120.771 86.124 122.079 84.8156 122.079 83.2016V72.4238C122.079 70.8099 120.771 69.5015 119.157 69.5015Z" fill="white" stroke="#263238" stroke-linecap="round" stroke-linejoin="round"/>
<path d="M119.157 69.5015H68.9526C67.3387 69.5015 66.0303 70.8099 66.0303 72.4238V83.2016C66.0303 84.8156 67.3387 86.124 68.9526 86.124H119.157C120.771 86.124 122.079 84.8156 122.079 83.2016V72.4238C122.079 70.8099 120.771 69.5015 119.157 69.5015Z" stroke="#263238" stroke-linecap="round" stroke-linejoin="round"/>
<path d="M78.4402 82.7203H71.0576V73.3823H75.9779L78.4402 75.8446V82.7203Z" fill="white"/>
<path opacity="0.5" d="M78.4402 82.7203H71.0576V73.3823H75.9779L78.4402 75.8446V82.7203Z" fill="white"/>
<path d="M78.4402 82.7203H71.0576V73.3823H75.9779L78.4402 75.8446V82.7203Z" stroke="#263238" stroke-linecap="round" stroke-linejoin="round"/>
<path d="M75.9775 75.8446H78.4398L75.9775 73.3823V75.8446Z" fill="white" stroke="#263238" stroke-linecap="round" stroke-linejoin="round"/>
<path d="M72.6974 78.3368C72.5814 78.3257 72.4737 78.2717 72.3953 78.1855C72.3169 78.0992 72.2734 77.9868 72.2734 77.8703C72.2734 77.7537 72.3169 77.6414 72.3953 77.5551C72.4737 77.4689 72.5814 77.4149 72.6974 77.4038H76.7998C76.9158 77.4149 77.0235 77.4689 77.1019 77.5551C77.1803 77.6414 77.2238 77.7537 77.2238 77.8703C77.2238 77.9868 77.1803 78.0992 77.1019 78.1855C77.0235 78.2717 76.9158 78.3257 76.7998 78.3368H72.6974Z" fill="#858585" stroke="#263238" stroke-width="0.75" stroke-linecap="round" stroke-linejoin="round"/>
<path d="M72.6974 80.3006C72.5814 80.2895 72.4737 80.2356 72.3953 80.1493C72.3169 80.0631 72.2734 79.9507 72.2734 79.8342C72.2734 79.7176 72.3169 79.6052 72.3953 79.519C72.4737 79.4327 72.5814 79.3788 72.6974 79.3677H75.9052C76.0212 79.3788 76.1289 79.4327 76.2073 79.519C76.2857 79.6052 76.3292 79.7176 76.3292 79.8342C76.3292 79.9507 76.2857 80.0631 76.2073 80.1493C76.1289 80.2356 76.0212 80.2895 75.9052 80.3006H72.6974Z" fill="#858585" stroke="#263238" stroke-width="0.75" stroke-linecap="round" stroke-linejoin="round"/>
<path d="M97.1023 78.8735H83.3638C83.119 78.8898 82.8895 78.9985 82.7219 79.1777C82.5542 79.3569 82.4609 79.5931 82.4609 79.8384C82.4609 80.0838 82.5542 80.32 82.7219 80.4991C82.8895 80.6783 83.119 80.787 83.3638 80.8033H97.1023V78.8735Z" fill="white"/>
<path d="M83.3638 80.8032C83.119 80.787 82.8895 80.6782 82.7219 80.4991C82.5542 80.3199 82.4609 80.0837 82.4609 79.8384C82.4609 79.593 82.5542 79.3568 82.7219 79.1776C82.8895 78.9985 83.119 78.8897 83.3638 78.8735H116.081C116.213 78.8647 116.345 78.8831 116.47 78.9276C116.595 78.9722 116.709 79.0418 116.805 79.1323C116.902 79.2227 116.979 79.3321 117.032 79.4535C117.085 79.575 117.112 79.706 117.112 79.8384C117.112 79.9708 117.085 80.1017 117.032 80.2232C116.979 80.3447 116.902 80.454 116.805 80.5445C116.709 80.6349 116.595 80.7046 116.47 80.7491C116.345 80.7936 116.213 80.812 116.081 80.8032H83.3638Z" stroke="#263238" stroke-linecap="round" stroke-linejoin="round"/>
<path d="M97.4131 76.2579H96.3779V75.768L97.362 73.4377H97.9541V75.768H98.2097V76.2579H97.9541V76.8841H97.4131V76.2579ZM97.4131 75.768V74.4261L96.8806 75.7722L97.4131 75.768Z" fill="#263238"/>
<path d="M98.4619 76.0706V75.8022H98.9731V76.1089C98.9731 76.356 99.0796 76.4454 99.2543 76.4454C99.4289 76.4454 99.5354 76.356 99.5354 76.1089V75.3378C99.5354 75.0908 99.4247 74.997 99.2543 74.997C99.0839 74.997 98.9731 75.0908 98.9731 75.3378V75.3677H98.4619L98.5599 73.4421H99.987V73.9363H99.0413L98.9987 74.7585C99.0462 74.6776 99.1151 74.6114 99.1977 74.5671C99.2804 74.5228 99.3736 74.502 99.4673 74.5071C99.8634 74.5071 100.068 74.7883 100.068 75.2952V76.0706C100.068 76.6244 99.791 76.9226 99.2585 76.9226C98.726 76.9226 98.4619 76.6244 98.4619 76.0706Z" fill="#263238"/>
<path d="M100.413 74.8053V73.9533C100.407 73.8808 100.415 73.8077 100.439 73.7387C100.462 73.6697 100.499 73.6064 100.548 73.5526C100.597 73.4989 100.657 73.456 100.724 73.4266C100.79 73.3972 100.862 73.3821 100.935 73.3821C101.008 73.3821 101.08 73.3972 101.146 73.4266C101.213 73.456 101.273 73.4989 101.322 73.5526C101.371 73.6064 101.408 73.6697 101.432 73.7387C101.455 73.8077 101.464 73.8808 101.457 73.9533V74.8053C101.464 74.8778 101.455 74.9508 101.432 75.0198C101.408 75.0888 101.371 75.1522 101.322 75.2059C101.273 75.2596 101.213 75.3025 101.146 75.3319C101.08 75.3613 101.008 75.3764 100.935 75.3764C100.862 75.3764 100.79 75.3613 100.724 75.3319C100.657 75.3025 100.597 75.2596 100.548 75.2059C100.499 75.1522 100.462 75.0888 100.439 75.0198C100.415 74.9508 100.407 74.8778 100.413 74.8053V74.8053ZM101.112 74.8308V73.9192C101.112 73.7701 101.044 73.7062 100.937 73.7062C100.831 73.7062 100.758 73.7701 100.758 73.9192V74.8308C100.758 74.9842 100.822 75.0481 100.937 75.0481C101.052 75.0481 101.112 74.9799 101.112 74.8308ZM102.185 73.4421H102.53L101.197 76.8884H100.852L102.185 73.4421ZM101.926 76.3857V75.5337C101.919 75.4612 101.928 75.3882 101.951 75.3192C101.974 75.2502 102.011 75.1868 102.061 75.1331C102.11 75.0794 102.169 75.0364 102.236 75.0071C102.303 74.9777 102.375 74.9625 102.447 74.9625C102.52 74.9625 102.592 74.9777 102.659 75.0071C102.725 75.0364 102.785 75.0794 102.834 75.1331C102.883 75.1868 102.921 75.2502 102.944 75.3192C102.967 75.3882 102.976 75.4612 102.969 75.5337V76.3857C102.976 76.4582 102.967 76.5313 102.944 76.6003C102.921 76.6692 102.883 76.7326 102.834 76.7864C102.785 76.8401 102.725 76.883 102.659 76.9124C102.592 76.9417 102.52 76.9569 102.447 76.9569C102.375 76.9569 102.303 76.9417 102.236 76.9124C102.169 76.883 102.11 76.8401 102.061 76.7864C102.011 76.7326 101.974 76.6692 101.951 76.6003C101.928 76.5313 101.919 76.4582 101.926 76.3857ZM102.624 76.4113V75.4996C102.624 75.3463 102.556 75.2824 102.445 75.2824C102.335 75.2824 102.271 75.3463 102.271 75.4996V76.4113C102.271 76.5647 102.335 76.6285 102.445 76.6285C102.556 76.6285 102.624 76.5647 102.624 76.4113V76.4113Z" fill="#263238"/>
<path d="M120.051 89.6855H69.8472C68.2332 89.6855 66.9248 90.9939 66.9248 92.6079V103.386C66.9248 105 68.2332 106.308 69.8472 106.308H120.051C121.665 106.308 122.974 105 122.974 103.386V92.6079C122.974 90.9939 121.665 89.6855 120.051 89.6855Z" fill="#263238" stroke="#263238" stroke-linecap="round" stroke-linejoin="round"/>
<path d="M119.157 88.7908H68.9526C67.3387 88.7908 66.0303 90.0992 66.0303 91.7131V102.491C66.0303 104.105 67.3387 105.413 68.9526 105.413H119.157C120.771 105.413 122.079 104.105 122.079 102.491V91.7131C122.079 90.0992 120.771 88.7908 119.157 88.7908Z" fill="white" stroke="#263238" stroke-linecap="round" stroke-linejoin="round"/>
<path d="M107.94 98.0437H83.3638C83.119 98.06 82.8895 98.1687 82.7219 98.3479C82.5542 98.527 82.4609 98.7632 82.4609 99.0086C82.4609 99.2539 82.5542 99.4901 82.7219 99.6693C82.8895 99.8485 83.119 99.9572 83.3638 99.9735H107.94V98.0437Z" fill="white"/>
<path d="M83.3638 99.9734C83.119 99.9571 82.8895 99.8484 82.7219 99.6692C82.5542 99.4901 82.4609 99.2539 82.4609 99.0085C82.4609 98.7631 82.5542 98.527 82.7219 98.3478C82.8895 98.1686 83.119 98.0599 83.3638 98.0436H116.081C116.213 98.0349 116.345 98.0533 116.47 98.0978C116.595 98.1423 116.709 98.212 116.805 98.3024C116.902 98.3929 116.979 98.5022 117.032 98.6237C117.085 98.7451 117.112 98.8761 117.112 99.0085C117.112 99.1409 117.085 99.2719 117.032 99.3933C116.979 99.5148 116.902 99.6241 116.805 99.7146C116.709 99.8051 116.595 99.8747 116.47 99.9192C116.345 99.9637 116.213 99.9822 116.081 99.9734H83.3638Z" stroke="#263238" stroke-linecap="round" stroke-linejoin="round"/>
<path d="M96.4421 95.2575V94.9508C96.4254 94.8118 96.45 94.671 96.5129 94.546C96.5758 94.421 96.6742 94.3173 96.7957 94.2479V94.2479C96.6798 94.1802 96.5864 94.0799 96.5273 93.9594C96.4682 93.8389 96.446 93.7036 96.4634 93.5705V93.43C96.4634 93.2108 96.5505 93.0006 96.7055 92.8456C96.8605 92.6906 97.0707 92.6035 97.2898 92.6035C97.509 92.6035 97.7192 92.6906 97.8742 92.8456C98.0292 93.0006 98.1163 93.2108 98.1163 93.43V93.5705C98.1317 93.7039 98.1081 93.8388 98.0483 93.9591C97.9886 94.0793 97.8953 94.1796 97.7798 94.2479C97.9021 94.3167 98.0013 94.4201 98.065 94.5452C98.1287 94.6703 98.1539 94.8114 98.1376 94.9508V95.2575C98.1376 95.4835 98.0478 95.7002 97.8881 95.86C97.7283 96.0197 97.5116 96.1095 97.2856 96.1095C97.0596 96.1095 96.8429 96.0197 96.6831 95.86C96.5234 95.7002 96.4336 95.4835 96.4336 95.2575H96.4421ZM97.5966 95.2277V94.8954C97.5966 94.6355 97.4901 94.5077 97.2898 94.5077C97.0896 94.5077 96.9831 94.6355 96.9831 94.8954V95.2277C96.9831 95.4875 97.0896 95.6153 97.2898 95.6153C97.4901 95.6153 97.5966 95.4875 97.5966 95.2277V95.2277ZM97.5966 93.6728V93.4001C97.5966 93.1744 97.4986 93.0551 97.3112 93.0551C97.1237 93.0551 97.0257 93.1744 97.0257 93.4001V93.6728C97.0257 93.8986 97.1237 94.0178 97.3112 94.0178C97.4986 94.0178 97.5753 93.8986 97.5753 93.6728H97.5966Z" fill="#263238"/>
<path d="M98.4618 95.2405V94.9721H98.973V95.2788C98.973 95.5259 99.0795 95.6153 99.2542 95.6153C99.4288 95.6153 99.5353 95.5259 99.5353 95.2788V94.5077C99.5353 94.2607 99.4246 94.167 99.2542 94.167C99.0838 94.167 98.973 94.2607 98.973 94.5077V94.5376H98.4618L98.5598 92.6121H99.9869V93.1062H99.0412L98.9986 93.9284C99.0461 93.8475 99.115 93.7813 99.1976 93.737C99.2803 93.6927 99.3735 93.6719 99.4672 93.6771C99.8634 93.6771 100.068 93.9582 100.068 94.4651V95.2405C100.076 95.3514 100.061 95.4628 100.024 95.5678C99.9872 95.6727 99.929 95.7689 99.8533 95.8503C99.7775 95.9318 99.6858 95.9968 99.5838 96.0412C99.4818 96.0856 99.3718 96.1085 99.2606 96.1085C99.1493 96.1085 99.0393 96.0856 98.9373 96.0412C98.8353 95.9968 98.7436 95.9318 98.6679 95.8503C98.5921 95.7689 98.534 95.6727 98.497 95.5678C98.4601 95.4628 98.4452 95.3514 98.4533 95.2405H98.4618Z" fill="#263238"/>
<path d="M100.413 93.9754V93.1234C100.407 93.0509 100.415 92.9779 100.439 92.9089C100.462 92.8399 100.499 92.7765 100.548 92.7228C100.597 92.6691 100.657 92.6261 100.724 92.5968C100.79 92.5674 100.862 92.5522 100.935 92.5522C101.008 92.5522 101.08 92.5674 101.146 92.5968C101.213 92.6261 101.273 92.6691 101.322 92.7228C101.371 92.7765 101.408 92.8399 101.432 92.9089C101.455 92.9779 101.464 93.0509 101.457 93.1234V93.9754C101.464 94.0479 101.455 94.121 101.432 94.1899C101.408 94.2589 101.371 94.3223 101.322 94.376C101.273 94.4298 101.213 94.4727 101.146 94.5021C101.08 94.5314 101.008 94.5466 100.935 94.5466C100.862 94.5466 100.79 94.5314 100.724 94.5021C100.657 94.4727 100.597 94.4298 100.548 94.376C100.499 94.3223 100.462 94.2589 100.439 94.1899C100.415 94.121 100.407 94.0479 100.413 93.9754V93.9754ZM101.112 94.001V93.0893C101.112 92.9402 101.044 92.8721 100.937 92.8721C100.831 92.8721 100.758 92.9402 100.758 93.0893V94.001C100.758 94.1543 100.822 94.2182 100.937 94.2182C101.052 94.2182 101.112 94.1501 101.112 94.001ZM102.185 92.6122H102.53L101.197 96.0586H100.852L102.185 92.6122ZM101.926 95.5559V94.7039C101.919 94.6314 101.928 94.5583 101.951 94.4893C101.974 94.4204 102.011 94.357 102.061 94.3032C102.11 94.2495 102.169 94.2066 102.236 94.1772C102.303 94.1479 102.375 94.1327 102.447 94.1327C102.52 94.1327 102.592 94.1479 102.659 94.1772C102.725 94.2066 102.785 94.2495 102.834 94.3032C102.883 94.357 102.921 94.4204 102.944 94.4893C102.967 94.5583 102.976 94.6314 102.969 94.7039V95.5559C102.976 95.6284 102.967 95.7014 102.944 95.7704C102.921 95.8394 102.883 95.9028 102.834 95.9565C102.785 96.0102 102.725 96.0531 102.659 96.0825C102.592 96.1119 102.52 96.127 102.447 96.127C102.375 96.127 102.303 96.1119 102.236 96.0825C102.169 96.0531 102.11 96.0102 102.061 95.9565C102.011 95.9028 101.974 95.8394 101.951 95.7704C101.928 95.7014 101.919 95.6284 101.926 95.5559ZM102.624 95.5814V94.6698C102.624 94.5164 102.556 94.4525 102.445 94.4525C102.335 94.4525 102.271 94.5164 102.271 94.6698V95.5814C102.271 95.7348 102.335 95.7987 102.445 95.7987C102.556 95.7987 102.624 95.7348 102.624 95.5814V95.5814Z" fill="#263238"/>
<path d="M78.4402 101.89H71.0576V92.5525H75.9779L78.4402 95.0148V101.89Z" fill="white"/>
<path opacity="0.5" d="M78.4402 101.89H71.0576V92.5525H75.9779L78.4402 95.0148V101.89Z" fill="white" stroke="#263238" stroke-linecap="round" stroke-linejoin="round"/>
<path d="M78.4402 101.89H71.0576V92.5525H75.9779L78.4402 95.0148V101.89Z" stroke="#263238" stroke-linecap="round" stroke-linejoin="round"/>
<path d="M72.6974 97.5069C72.5814 97.4958 72.4737 97.4419 72.3953 97.3556C72.3169 97.2694 72.2734 97.157 72.2734 97.0404C72.2734 96.9239 72.3169 96.8115 72.3953 96.7253C72.4737 96.639 72.5814 96.5851 72.6974 96.574H76.7998C76.9158 96.5851 77.0235 96.639 77.1019 96.7253C77.1803 96.8115 77.2238 96.9239 77.2238 97.0404C77.2238 97.157 77.1803 97.2694 77.1019 97.3556C77.0235 97.4419 76.9158 97.4958 76.7998 97.5069H72.6974Z" fill="#858585" stroke="#263238" stroke-width="0.75" stroke-linecap="round" stroke-linejoin="round"/>
<path d="M72.6974 99.4708C72.5814 99.4597 72.4737 99.4058 72.3953 99.3195C72.3169 99.2333 72.2734 99.1209 72.2734 99.0043C72.2734 98.8878 72.3169 98.7754 72.3953 98.6891C72.4737 98.6029 72.5814 98.5489 72.6974 98.5378H75.9052C76.0212 98.5489 76.1289 98.6029 76.2073 98.6891C76.2857 98.7754 76.3292 98.8878 76.3292 99.0043C76.3292 99.1209 76.2857 99.2333 76.2073 99.3195C76.1289 99.4058 76.0212 99.4597 75.9052 99.4708H72.6974Z" fill="#858585" stroke="#263238" stroke-width="0.75" stroke-linecap="round" stroke-linejoin="round"/>
<path d="M75.9775 95.0148H78.4398L75.9775 92.5525V95.0148Z" fill="white" stroke="#263238" stroke-linecap="round" stroke-linejoin="round"/>
<path d="M126.915 44.6401H62.981C61.367 44.6401 60.0586 45.9485 60.0586 47.5625V62.4171C60.0586 64.0311 61.367 65.3395 62.981 65.3395H126.915C128.529 65.3395 129.837 64.0311 129.837 62.4171V47.5625C129.837 45.9485 128.529 44.6401 126.915 44.6401Z" fill="#263238" stroke="#263238" stroke-linecap="round" stroke-linejoin="round"/>
<path d="M126.02 43.7456H62.0854C60.4715 43.7456 59.1631 45.054 59.1631 46.668V61.5226C59.1631 63.1366 60.4715 64.445 62.0854 64.445H126.02C127.634 64.445 128.942 63.1366 128.942 61.5226V46.668C128.942 45.054 127.634 43.7456 126.02 43.7456Z" fill="white" stroke="#263238" stroke-linecap="round" stroke-linejoin="round"/>
<path d="M83.518 62.741H69.8477V45.4497H78.9598L83.518 50.0036V62.741Z" fill="white"/>
<path opacity="0.7" d="M83.518 62.741H69.8477V45.4497H78.9598L83.518 50.0036V62.741Z" fill="white"/>
<path d="M83.518 62.741H69.8477V45.4497H78.9598L83.518 50.0036V62.741Z" stroke="#263238" stroke-linecap="round" stroke-linejoin="round"/>
<path d="M78.96 50.0036H83.5182L78.96 45.4497V50.0036Z" fill="white" stroke="#263238" stroke-linecap="round" stroke-linejoin="round"/>
<path d="M73.8811 52.1335H71.1973V54.8173H73.8811V52.1335Z" stroke="white" stroke-width="0.75" stroke-linecap="round" stroke-linejoin="round"/>
<path d="M76.6418 52.1335H73.958V54.8173H76.6418V52.1335Z" stroke="white" stroke-width="0.75" stroke-linecap="round" stroke-linejoin="round"/>
<path d="M79.4065 52.1335H76.7227V54.8173H79.4065V52.1335Z" stroke="white" stroke-width="0.75" stroke-linecap="round" stroke-linejoin="round"/>
<path d="M82.1672 52.1335H79.4834V54.8173H82.1672V52.1335Z" stroke="white" stroke-width="0.75" stroke-linecap="round" stroke-linejoin="round"/>
<path d="M73.8811 54.8174H71.1973V57.5012H73.8811V54.8174Z" stroke="white" stroke-width="0.75" stroke-linecap="round" stroke-linejoin="round"/>
<path d="M76.6418 54.8174H73.958V57.5012H76.6418V54.8174Z" stroke="white" stroke-width="0.75" stroke-linecap="round" stroke-linejoin="round"/>
<path d="M79.4065 54.8174H76.7227V57.5012H79.4065V54.8174Z" stroke="white" stroke-width="0.75" stroke-linecap="round" stroke-linejoin="round"/>
<path d="M82.1672 54.8174H79.4834V57.5012H82.1672V54.8174Z" stroke="white" stroke-width="0.75" stroke-linecap="round" stroke-linejoin="round"/>
<path d="M73.8811 57.5012H71.1973V60.185H73.8811V57.5012Z" stroke="white" stroke-width="0.75" stroke-linecap="round" stroke-linejoin="round"/>
<path d="M76.6418 57.5012H73.958V60.185H76.6418V57.5012Z" stroke="white" stroke-width="0.75" stroke-linecap="round" stroke-linejoin="round"/>
<path d="M79.4065 57.5012H76.7227V60.185H79.4065V57.5012Z" stroke="white" stroke-width="0.75" stroke-linecap="round" stroke-linejoin="round"/>
<path d="M82.1672 57.5012H79.4834V60.185H82.1672V57.5012Z" stroke="white" stroke-width="0.75" stroke-linecap="round" stroke-linejoin="round"/>
<path d="M71.249 59.9251L73.9584 57.4372L75.3003 57.5011L76.7657 54.8557L78.065 56.1592L79.5219 54.6299L80.8255 52.1335" stroke="white" stroke-width="2" stroke-linecap="round" stroke-linejoin="round"/>
<path d="M79.2871 52.9131L80.825 52.1335L81.1359 53.812" stroke="white" stroke-width="2" stroke-linecap="round" stroke-linejoin="round"/>
<path d="M88.8942 53.5435H88.1104V53.0238C88.7323 53.0238 88.9624 52.8875 89.1242 52.4316H89.6184V57.1176H88.8814L88.8942 53.5435Z" fill="#263238"/>
<path d="M90.4902 56.0145V53.5437C90.4902 53.2466 90.6083 52.9616 90.8184 52.7515C91.0285 52.5414 91.3135 52.4233 91.6106 52.4233C91.9078 52.4233 92.1927 52.5414 92.4028 52.7515C92.613 52.9616 92.731 53.2466 92.731 53.5437V56.0145C92.731 56.3117 92.613 56.5966 92.4028 56.8067C92.1927 57.0169 91.9078 57.1349 91.6106 57.1349C91.3135 57.1349 91.0285 57.0169 90.8184 56.8067C90.6083 56.5966 90.4902 56.3117 90.4902 56.0145V56.0145ZM91.994 56.0614V53.5054C91.994 53.1731 91.8449 53.0453 91.6106 53.0453C91.3763 53.0453 91.2272 53.1731 91.2272 53.5054V56.0614C91.2272 56.3979 91.3763 56.5257 91.6106 56.5257C91.8449 56.5257 91.994 56.3979 91.994 56.0614Z" fill="#263238"/>
<path d="M93.1748 56.0145V53.5437C93.1748 53.2466 93.2928 52.9616 93.503 52.7515C93.7131 52.5414 93.9981 52.4233 94.2952 52.4233C94.5923 52.4233 94.8773 52.5414 95.0874 52.7515C95.2975 52.9616 95.4156 53.2466 95.4156 53.5437V56.0145C95.4156 56.3117 95.2975 56.5966 95.0874 56.8067C94.8773 57.0169 94.5923 57.1349 94.2952 57.1349C93.9981 57.1349 93.7131 57.0169 93.503 56.8067C93.2928 56.5966 93.1748 56.3117 93.1748 56.0145V56.0145ZM94.6786 56.0614V53.5054C94.6786 53.1731 94.5295 53.0453 94.2952 53.0453C94.0609 53.0453 93.9118 53.1731 93.9118 53.5054V56.0614C93.9118 56.3979 94.0609 56.5257 94.2952 56.5257C94.5295 56.5257 94.6786 56.3979 94.6786 56.0614Z" fill="#263238"/>
<path d="M95.8721 54.2892V53.1177C95.8721 52.929 95.947 52.748 96.0804 52.6146C96.2139 52.4812 96.3948 52.4062 96.5835 52.4062C96.7722 52.4062 96.9531 52.4812 97.0865 52.6146C97.2199 52.748 97.2949 52.929 97.2949 53.1177V54.2892C97.2949 54.4778 97.2199 54.6588 97.0865 54.7922C96.9531 54.9256 96.7722 55.0006 96.5835 55.0006C96.3948 55.0006 96.2139 54.9256 96.0804 54.7922C95.947 54.6588 95.8721 54.4778 95.8721 54.2892V54.2892ZM96.8263 54.3232V53.0836C96.8263 52.8749 96.7326 52.7854 96.5835 52.7854C96.4344 52.7854 96.3407 52.8749 96.3407 53.0836V54.3232C96.3407 54.532 96.4301 54.6172 96.5835 54.6172C96.7368 54.6172 96.8263 54.532 96.8263 54.3232V54.3232ZM98.2875 52.4318H98.7603L96.9413 57.1178H96.4727L98.2875 52.4318ZM97.9296 56.4447V55.269C97.9296 55.1755 97.948 55.083 97.9838 54.9967C98.0195 54.9104 98.0719 54.832 98.138 54.7659C98.2041 54.6999 98.2825 54.6475 98.3688 54.6117C98.4551 54.576 98.5476 54.5575 98.641 54.5575C98.7345 54.5575 98.827 54.576 98.9133 54.6117C98.9996 54.6475 99.078 54.6999 99.1441 54.7659C99.2102 54.832 99.2626 54.9104 99.2983 54.9967C99.3341 55.083 99.3525 55.1755 99.3525 55.269V56.4447C99.3525 56.5382 99.3341 56.6307 99.2983 56.717C99.2626 56.8033 99.2102 56.8817 99.1441 56.9478C99.078 57.0138 98.9996 57.0662 98.9133 57.102C98.827 57.1377 98.7345 57.1562 98.641 57.1562C98.5476 57.1562 98.4551 57.1377 98.3688 57.102C98.2825 57.0662 98.2041 57.0138 98.138 56.9478C98.0719 56.8817 98.0195 56.8033 97.9838 56.717C97.948 56.6307 97.9296 56.5382 97.9296 56.4447ZM98.8839 56.4788V55.2349C98.8839 55.0261 98.7901 54.941 98.641 54.941C98.492 54.941 98.4025 55.0261 98.4025 55.2349V56.4788C98.4025 56.6833 98.4877 56.7727 98.641 56.7727C98.7944 56.7727 98.8839 56.6833 98.8839 56.4788V56.4788Z" fill="#263238"/>
<path d="M100.545 55.6607V53.8076C100.545 53.5963 100.629 53.3937 100.778 53.2443C100.928 53.0949 101.13 53.011 101.342 53.011C101.553 53.011 101.755 53.0949 101.905 53.2443C102.054 53.3937 102.138 53.5963 102.138 53.8076V54.174H101.627V53.7735C101.627 53.5477 101.516 53.454 101.354 53.454C101.192 53.454 101.086 53.5477 101.086 53.7735V55.699C101.086 55.9248 101.192 56.0143 101.354 56.0143C101.516 56.0143 101.627 55.9248 101.627 55.699V55.1708H102.138V55.6607C102.138 55.872 102.054 56.0746 101.905 56.224C101.755 56.3734 101.553 56.4573 101.342 56.4573C101.13 56.4573 100.928 56.3734 100.778 56.224C100.629 56.0746 100.545 55.872 100.545 55.6607Z" fill="#263238"/>
<path d="M102.432 55.6395V53.829C102.432 53.611 102.518 53.4018 102.672 53.2477C102.827 53.0935 103.036 53.0068 103.254 53.0068C103.472 53.0068 103.681 53.0935 103.835 53.2477C103.989 53.4018 104.076 53.611 104.076 53.829V55.6395C104.076 55.8576 103.989 56.0667 103.835 56.2209C103.681 56.3751 103.472 56.4617 103.254 56.4617C103.036 56.4617 102.827 56.3751 102.672 56.2209C102.518 56.0667 102.432 55.8576 102.432 55.6395V55.6395ZM103.535 55.6736V53.7949C103.535 53.5479 103.428 53.4541 103.254 53.4541C103.079 53.4541 102.973 53.5479 102.973 53.7949V55.6736C102.973 55.9207 103.083 56.0144 103.254 56.0144C103.424 56.0144 103.535 55.9207 103.535 55.6736Z" fill="#263238"/>
<path d="M104.438 53.0112H105.214L105.559 55.4778L105.904 53.0112H106.675V56.4576H106.164V53.8505L105.768 56.4576H105.316L104.924 53.8505V56.4576H104.451L104.438 53.0112Z" fill="#263238"/>
<path d="M107.089 53.0112H107.885C108.427 53.0112 108.691 53.3137 108.691 53.8632V54.204C108.691 54.7536 108.427 55.056 107.885 55.056H107.63V56.4576H107.089V53.0112ZM107.885 54.5619C108.056 54.5619 108.15 54.4852 108.15 54.2381V53.8121C108.15 53.565 108.056 53.4884 107.885 53.4884H107.63V54.5448L107.885 54.5619Z" fill="#263238"/>
<path d="M108.983 53.0112H109.524V55.9634H110.415V56.4576H108.983V53.0112Z" fill="#263238"/>
<path d="M110.688 53.0112H112.161V53.5054H111.229V54.4128H111.965V54.9069H111.224V55.9634H112.157V56.4576H110.688V53.0112Z" fill="#263238"/>
<path d="M112.886 53.5054H112.323V53.0112H113.993V53.5054H113.427V56.4576H112.886V53.5054Z" fill="#263238"/>
<path d="M114.258 53.0112H115.732V53.5054H114.799V54.4128H115.54V54.9069H114.799V55.9634H115.732V56.4576H114.258V53.0112Z" fill="#263238"/>
<path d="M116.043 53.0112H116.869C117.41 53.0112 117.675 53.3137 117.675 53.8632V55.6056C117.675 56.1551 117.41 56.4576 116.869 56.4576H116.043V53.0112ZM116.857 55.9634C117.031 55.9634 117.134 55.874 117.134 55.6311V53.8377C117.134 53.5949 117.031 53.5054 116.857 53.5054H116.584V55.9634H116.857Z" fill="#263238"/>
<path d="M120.051 108.979H69.8472C68.2332 108.979 66.9248 110.287 66.9248 111.901V122.679C66.9248 124.293 68.2332 125.602 69.8472 125.602H120.051C121.665 125.602 122.974 124.293 122.974 122.679V111.901C122.974 110.287 121.665 108.979 120.051 108.979Z" fill="#263238" stroke="#263238" stroke-linecap="round" stroke-linejoin="round"/>
<path d="M119.157 108.084H68.9526C67.3387 108.084 66.0303 109.393 66.0303 111.007V121.785C66.0303 123.399 67.3387 124.707 68.9526 124.707H119.157C120.771 124.707 122.079 123.399 122.079 121.785V111.007C122.079 109.393 120.771 108.084 119.157 108.084Z" fill="white" stroke="#263238" stroke-linecap="round" stroke-linejoin="round"/>
<path d="M106.206 117.218H83.3641C83.1088 117.218 82.8639 117.319 82.6833 117.5C82.5028 117.68 82.4014 117.925 82.4014 118.181C82.4014 118.436 82.5028 118.681 82.6833 118.861C82.8639 119.042 83.1088 119.143 83.3641 119.143H106.206V117.218Z" fill="white"/>
<path d="M83.3641 119.143C83.1088 119.143 82.8639 119.042 82.6833 118.861C82.5028 118.681 82.4014 118.436 82.4014 118.181C82.4014 117.925 82.5028 117.68 82.6833 117.5C82.8639 117.319 83.1088 117.218 83.3641 117.218H116.081C116.207 117.218 116.333 117.243 116.449 117.291C116.566 117.339 116.672 117.41 116.762 117.5C116.851 117.589 116.922 117.695 116.97 117.812C117.019 117.929 117.044 118.054 117.044 118.181C117.044 118.307 117.019 118.432 116.97 118.549C116.922 118.666 116.851 118.772 116.762 118.861C116.672 118.951 116.566 119.022 116.449 119.07C116.333 119.118 116.207 119.143 116.081 119.143H83.3641Z" stroke="#263238" stroke-linecap="round" stroke-linejoin="round"/>
<path d="M78.4402 121.064H71.0576V111.727H75.9779L78.4402 114.185V121.064Z" fill="white"/>
<path opacity="0.5" d="M78.4402 121.064H71.0576V111.727H75.9779L78.4402 114.185V121.064Z" fill="white"/>
<path d="M78.4402 121.064H71.0576V111.727H75.9779L78.4402 114.185V121.064Z" stroke="#263238" stroke-linecap="round" stroke-linejoin="round"/>
<path d="M72.6974 116.681C72.5814 116.67 72.4737 116.616 72.3953 116.53C72.3169 116.443 72.2734 116.331 72.2734 116.215C72.2734 116.098 72.3169 115.986 72.3953 115.899C72.4737 115.813 72.5814 115.759 72.6974 115.748H76.7998C76.9158 115.759 77.0235 115.813 77.1019 115.899C77.1803 115.986 77.2238 116.098 77.2238 116.215C77.2238 116.331 77.1803 116.443 77.1019 116.53C77.0235 116.616 76.9158 116.67 76.7998 116.681H72.6974Z" fill="#858585" stroke="#263238" stroke-width="0.75" stroke-linecap="round" stroke-linejoin="round"/>
<path d="M72.6968 118.641C72.5736 118.641 72.4555 118.592 72.3684 118.505C72.2813 118.418 72.2324 118.299 72.2324 118.176C72.2324 118.053 72.2813 117.935 72.3684 117.848C72.4555 117.761 72.5736 117.712 72.6968 117.712H75.9046C76.0277 117.712 76.1458 117.761 76.2329 117.848C76.32 117.935 76.3689 118.053 76.3689 118.176C76.3689 118.299 76.32 118.418 76.2329 118.505C76.1458 118.592 76.0277 118.641 75.9046 118.641H72.6968Z" fill="#858585" stroke="#263238" stroke-width="0.75" stroke-linecap="round" stroke-linejoin="round"/>
<path d="M75.9775 114.185H78.4398L75.9775 111.727V114.185Z" fill="white" stroke="#263238" stroke-linecap="round" stroke-linejoin="round"/>
<path d="M97.5675 112.276H96.4727V111.786H98.0957V112.259L97.2437 115.241H96.6899L97.5675 112.276Z" fill="#263238"/>
<path d="M98.4355 114.415V112.604C98.4355 112.386 98.5222 112.177 98.6764 112.023C98.8306 111.869 99.0397 111.782 99.2577 111.782C99.4758 111.782 99.6849 111.869 99.8391 112.023C99.9933 112.177 100.08 112.386 100.08 112.604V114.415C100.08 114.633 99.9933 114.842 99.8391 114.996C99.6849 115.15 99.4758 115.237 99.2577 115.237C99.0397 115.237 98.8306 115.15 98.6764 114.996C98.5222 114.842 98.4355 114.633 98.4355 114.415ZM99.5389 114.449V112.57C99.5389 112.323 99.4281 112.229 99.2577 112.229C99.0873 112.229 98.9766 112.323 98.9766 112.57V114.449C98.9766 114.696 99.0873 114.785 99.2577 114.785C99.4281 114.785 99.5389 114.696 99.5389 114.449Z" fill="#263238"/>
<path d="M100.413 113.15V112.297C100.407 112.225 100.415 112.152 100.439 112.083C100.462 112.014 100.499 111.951 100.548 111.897C100.597 111.843 100.657 111.8 100.724 111.771C100.79 111.741 100.862 111.726 100.935 111.726C101.008 111.726 101.08 111.741 101.146 111.771C101.213 111.8 101.273 111.843 101.322 111.897C101.371 111.951 101.408 112.014 101.432 112.083C101.455 112.152 101.464 112.225 101.457 112.297V113.15C101.464 113.222 101.455 113.295 101.432 113.364C101.408 113.433 101.371 113.496 101.322 113.55C101.273 113.604 101.213 113.647 101.146 113.676C101.08 113.706 101.008 113.721 100.935 113.721C100.862 113.721 100.79 113.706 100.724 113.676C100.657 113.647 100.597 113.604 100.548 113.55C100.499 113.496 100.462 113.433 100.439 113.364C100.415 113.295 100.407 113.222 100.413 113.15V113.15ZM101.112 113.175V112.263C101.112 112.11 101.044 112.046 100.937 112.046C100.831 112.046 100.758 112.11 100.758 112.263V113.175C100.758 113.324 100.822 113.388 100.937 113.388C101.052 113.388 101.112 113.32 101.112 113.175ZM102.168 111.786H102.513L101.18 115.228H100.835L102.168 111.786ZM101.909 114.73V113.878C101.902 113.805 101.911 113.732 101.934 113.663C101.957 113.594 101.994 113.531 102.044 113.477C102.093 113.424 102.152 113.381 102.219 113.351C102.286 113.322 102.358 113.307 102.43 113.307C102.503 113.307 102.575 113.322 102.642 113.351C102.708 113.381 102.768 113.424 102.817 113.477C102.866 113.531 102.904 113.594 102.927 113.663C102.95 113.732 102.959 113.805 102.952 113.878V114.73C102.959 114.802 102.95 114.876 102.927 114.945C102.904 115.013 102.866 115.077 102.817 115.131C102.768 115.184 102.708 115.227 102.642 115.257C102.575 115.286 102.503 115.301 102.43 115.301C102.358 115.301 102.286 115.286 102.219 115.257C102.152 115.227 102.093 115.184 102.044 115.131C101.994 115.077 101.957 115.013 101.934 114.945C101.911 114.876 101.902 114.802 101.909 114.73V114.73ZM102.607 114.751V113.844C102.607 113.691 102.539 113.627 102.428 113.627C102.317 113.627 102.254 113.691 102.254 113.844V114.751C102.254 114.905 102.317 114.969 102.428 114.969C102.539 114.969 102.624 114.905 102.624 114.751H102.607Z" fill="#263238"/>
<path d="M38.4551 23.9453L49.6972 15.2549L60.9394 23.9453H38.4551Z" fill="#263238" stroke="#263238" stroke-linecap="round" stroke-linejoin="round"/>
<path d="M52.6366 14.5732H46.7578V19.6H52.6366V14.5732Z" fill="#263238" stroke="#263238" stroke-linecap="round" stroke-linejoin="round"/>
<path d="M49.6973 2.08301V19.6001" stroke="#263238" stroke-width="0.75" stroke-linecap="round" stroke-linejoin="round"/>
<path d="M128.056 23.9453L139.302 15.2549L150.544 23.9453H128.056Z" fill="#263238" stroke="#263238" stroke-linecap="round" stroke-linejoin="round"/>
<path d="M142.241 14.5732H136.362V19.6H142.241V14.5732Z" fill="#263238" stroke="#263238" stroke-linecap="round" stroke-linejoin="round"/>
<path d="M139.302 1.23096V19.6001" stroke="#263238" stroke-width="0.75" stroke-linecap="round" stroke-linejoin="round"/>
<path d="M143.691 159.579L143.452 166.608L147.09 166.783L148.415 159.579H143.691Z" fill="white" stroke="#263238" stroke-linecap="round" stroke-linejoin="round"/>
<path d="M136.572 168.764C137.799 168.338 139.921 167.614 140.717 167.115C141.356 166.715 142.247 165.411 142.907 165.045C143.045 164.985 143.195 164.954 143.346 164.954C143.497 164.954 143.646 164.985 143.784 165.045C143.892 165.164 143.961 165.312 143.985 165.471C144.003 165.54 144.041 165.602 144.094 165.649C144.147 165.696 144.213 165.727 144.284 165.737C144.354 165.747 144.426 165.736 144.49 165.705C144.554 165.674 144.608 165.626 144.645 165.565C144.747 165.365 144.892 165.19 145.071 165.053C145.633 164.738 147.154 164.649 147.652 165.053C148.479 165.731 148.777 168.065 148.93 169.118C148.969 169.348 148.93 170.626 148.93 170.626H135.656V170.042C135.654 169.759 135.742 169.484 135.907 169.254C136.071 169.025 136.304 168.853 136.572 168.764V168.764Z" fill="white" stroke="#263238" stroke-linecap="round" stroke-linejoin="round"/>
<path d="M148.939 170.617H135.656V170.033C135.656 169.888 135.681 169.744 135.729 169.607H148.956C148.956 170.055 148.939 170.617 148.939 170.617Z" fill="#858585" stroke="#263238" stroke-linecap="round" stroke-linejoin="round"/>
<path d="M145.986 105.085L143.195 162.255L148.307 163.107C148.307 163.107 151.528 146.561 151.92 141.142C152.014 139.864 151.92 136.009 151.92 136.009L155.537 118.206C155.537 118.206 157.918 116.008 158.195 105.541L145.986 105.085Z" fill="#263238" stroke="#263238" stroke-linecap="round" stroke-linejoin="round"/>
<path opacity="0.7" d="M153.553 127.212C153.749 126.385 153.979 125.572 154.256 124.762C154.298 124.647 154.349 124.541 154.4 124.434C154.527 123.224 154.722 122.023 154.984 120.835C155.074 120.391 155.313 119.991 155.661 119.701C155.761 119.477 155.909 119.277 156.096 119.117C156.282 118.957 156.502 118.841 156.739 118.777C156.583 117.677 156.343 116.591 156.023 115.527C155.7 114.411 155.171 113.341 155.014 112.187C154.971 111.889 154.801 111.578 154.856 111.544C154.49 111.401 154.132 111.239 153.783 111.058L153.719 111.007C153.392 116.402 153.337 121.811 153.553 127.212V127.212Z" fill="black"/>
<path d="M145.743 137.785C146.648 137.576 147.479 137.123 148.146 136.477" stroke="#7F7F7F" stroke-width="0.75" stroke-linecap="round" stroke-linejoin="round"/>
<path d="M142.523 163.341L148.705 163.848L149.165 161.846L142.523 161.326V163.341Z" fill="white" stroke="#263238" stroke-linecap="round" stroke-linejoin="round"/>
<path d="M160.373 158.715L161.689 166.932L165.055 166.668L164.944 158.255L160.373 158.715Z" fill="white" stroke="#263238" stroke-linecap="round" stroke-linejoin="round"/>
<path d="M154.736 168.764C155.967 168.338 158.088 167.614 158.881 167.115C159.52 166.715 160.414 165.411 161.07 165.045C161.21 164.985 161.36 164.954 161.511 164.954C161.663 164.954 161.813 164.985 161.952 165.045C162.029 165.124 162.084 165.223 162.11 165.33C162.133 165.412 162.179 165.485 162.244 165.54C162.308 165.594 162.388 165.629 162.472 165.639C162.556 165.648 162.641 165.632 162.716 165.593C162.791 165.555 162.853 165.494 162.894 165.42C162.981 165.273 163.097 165.145 163.235 165.045C163.797 164.73 165.318 164.64 165.816 165.045C166.643 165.722 166.941 168.057 167.094 169.109C167.128 169.339 167.094 170.617 167.094 170.617H153.824V170.033C153.824 169.753 153.912 169.479 154.075 169.252C154.239 169.024 154.47 168.853 154.736 168.764V168.764Z" fill="white" stroke="#263238" stroke-linecap="round" stroke-linejoin="round"/>
<path d="M167.107 170.617H153.824V170.033C153.823 169.889 153.846 169.745 153.892 169.607H167.12C167.12 170.055 167.107 170.617 167.107 170.617Z" fill="#858585" stroke="#263238" stroke-linecap="round" stroke-linejoin="round"/>
<path d="M153.101 106.811C153.101 106.811 154.379 114.21 155.554 120.417C156.355 124.626 156.406 137.061 156.406 137.061L160.487 162.736L165.518 162.059C165.518 162.059 165.578 146.254 165.012 141.185C164.884 140.056 164.675 136.703 164.675 136.703C164.675 136.703 164.867 123.293 165.902 118.811C166.643 115.616 168.117 112.259 166.328 105.712L153.101 106.811Z" fill="#263238" stroke="#263238" stroke-linecap="round" stroke-linejoin="round"/>
<path d="M157.511 137.785C158.023 138.493 158.784 138.982 159.641 139.153" stroke="#7F7F7F" stroke-width="0.75" stroke-linecap="round" stroke-linejoin="round"/>
<path d="M159.644 161.582L159.933 163.465L166.17 162.796L166.127 160.768L159.644 161.582Z" fill="white" stroke="#263238" stroke-linecap="round" stroke-linejoin="round"/>
<path d="M129.36 72.5816L127.984 70.2684C127.984 70.2684 127.651 66.4898 126.885 65.7528C126.118 65.0158 124.414 62.8475 124.171 63.2735C123.788 63.9551 125.206 65.1692 125.206 65.1692L125.466 66.575C125.466 66.575 123.17 64.9221 122.522 64.9221C122.522 64.9221 120.691 62.7538 120.043 62.7495C119.396 62.7453 120.307 64.249 120.307 64.249C120.307 64.249 119.69 63.7762 119.57 64.0701C119.451 64.3641 120.367 65.3694 120.367 65.3694C120.367 65.3694 120.013 65.7528 120.546 66.575C120.472 66.8406 120.473 67.1214 120.548 67.3866C120.623 67.6518 120.77 67.8912 120.972 68.0788C121.679 68.6411 125.479 70.7924 125.479 70.7924L126.757 73.8L129.36 72.5816Z" fill="#858585" stroke="#263238" stroke-linecap="round" stroke-linejoin="round"/>
<path d="M120.87 65.4292C120.87 65.4292 121.373 65.6337 121.164 66.3707C121.365 66.6557 121.477 66.9935 121.488 67.3419C121.539 67.9895 124.819 67.67 125.705 69.0459" stroke="#263238" stroke-width="0.75" stroke-linecap="round" stroke-linejoin="round"/>
<path d="M120.87 64.6326L122.208 66.0469" stroke="#263238" stroke-width="0.75" stroke-linecap="round" stroke-linejoin="round"/>
<path d="M143.563 71.998L134.783 78.8395L128.768 70.6433L125.705 72.1769C125.705 72.1769 130.519 85.4766 134.161 85.4766C138.034 85.4766 145.395 79.257 145.395 79.257C145.395 79.257 145.859 78.0685 143.563 71.998Z" fill="white" stroke="#263238" stroke-linecap="round" stroke-linejoin="round"/>
<path d="M135.114 79.4915C135.32 79.9277 135.473 80.3867 135.57 80.8589" stroke="#263238" stroke-width="0.75" stroke-linecap="round" stroke-linejoin="round"/>
<path d="M143.562 71.9981L145.433 96.753V107.037C145.433 107.037 156.206 108.315 166.835 106.764L166.469 96.1779L167.546 72.5817C167.546 72.5817 162.613 69.0161 155.039 69.0161C147.465 69.0161 143.562 71.9981 143.562 71.9981Z" fill="white" stroke="#263238" stroke-linecap="round" stroke-linejoin="round"/>
<path opacity="0.2" d="M166.836 106.764L166.495 97.2769C166.312 101.848 161.268 100.131 160.126 99.9181C158.904 99.688 157.498 103.718 157.498 103.718C157.498 103.718 152.812 104.523 149.144 104.238C145.476 103.952 145.421 100.604 145.421 100.604V107.037C145.421 107.037 156.207 108.332 166.836 106.764Z" fill="black"/>
<path d="M150.48 96.5144C154.998 96.0286 159.334 94.467 163.124 91.9604Z" fill="white"/>
<path d="M150.48 96.5144C154.998 96.0286 159.334 94.467 163.124 91.9604" stroke="#263238" stroke-width="0.75" stroke-linecap="round" stroke-linejoin="round"/>
<path d="M148.602 96.6421C148.602 96.6421 148.964 96.6421 149.603 96.5952Z" fill="white"/>
<path d="M148.602 96.6421C148.602 96.6421 148.964 96.6421 149.603 96.5952" stroke="#263238" stroke-width="0.75" stroke-linecap="round" stroke-linejoin="round"/>
<path d="M152.248 73.1908L150.382 72.5134L148.602 74.2345L149.905 68.9095L151.477 67.6741L152.278 68.181L155.856 68.0447L158.638 68.2705L159.963 67.8615L161.377 69.2758L158.229 75.2952L156.909 73.0161L153.995 73.3782L152.248 73.1908Z" fill="white"/>
<path opacity="0.5" d="M152.248 73.1908L150.382 72.5134L148.602 74.2345L149.905 68.9095L151.477 67.6741L152.278 68.181L155.856 68.0447L158.638 68.2705L159.963 67.8615L161.377 69.2758L158.229 75.2952L156.909 73.0161L153.995 73.3782L152.248 73.1908Z" fill="white"/>
<path d="M152.248 73.1908L150.382 72.5134L148.602 74.2345L149.905 68.9095L151.477 67.6741L152.278 68.181L155.856 68.0447L158.638 68.2705L159.963 67.8615L161.377 69.2758L158.229 75.2952L156.909 73.0161L153.995 73.3782L152.248 73.1908Z" stroke="#263238" stroke-linecap="round" stroke-linejoin="round"/>
<path d="M158.447 69.2588L158.021 62.7495L153.906 63.478L153.054 66.5367L152.202 69.1864L151.797 69.229L152.917 75.3123L158.856 69.3483L158.447 69.2588Z" fill="#858585"/>
<path d="M148.33 63.2012C148.33 64.8541 148.586 68.5517 150.856 68.982C153.208 69.4293 155.904 66.754 156.871 65.6847C157.114 65.4191 157.303 65.1097 157.429 64.7731L157.945 63.4057C158.282 63.4314 158.619 63.3605 158.916 63.2012H148.33Z" fill="#263238" stroke="#263238" stroke-width="0.5" stroke-linecap="round" stroke-linejoin="round"/>
<path d="M158.447 69.2588L158.021 62.7495L153.906 63.478L153.054 66.5367L152.202 69.1864L151.797 69.229L152.917 75.3123L158.856 69.3483L158.447 69.2588Z" stroke="#263238" stroke-linecap="round" stroke-linejoin="round"/>
<path d="M151.073 54.843C151.073 54.843 149.126 53.3606 150.081 52.1933C150.579 51.5884 151.227 52.385 151.227 52.385C151.227 52.385 150.882 50.5277 152.266 50.255C153.544 50.0165 153.493 51.4819 153.493 51.4819C153.493 51.4819 154.153 50.2252 155.308 50.5064C156.228 50.7279 155.874 52.0314 155.874 52.0314C155.874 52.0314 157.101 50.5064 158.371 51.1794C159.465 51.7545 158.562 53.1348 158.562 53.1348C158.562 53.1348 159.866 52.6747 160.594 53.4074C161.323 54.1401 160.594 55.1114 160.594 55.1114C160.594 55.1114 162.03 55.1114 162.094 56.1849C162.158 57.2585 160.982 57.4629 160.982 57.4629C160.982 57.4629 162.643 57.9997 162.656 59.3033C162.669 60.6068 161.557 60.1893 161.557 60.1893C161.557 60.1893 162.247 61.4162 161.672 62.068C161.608 62.1552 161.523 62.2261 161.426 62.2749C161.33 62.3237 161.223 62.3492 161.114 62.3492C161.006 62.3492 160.899 62.3237 160.802 62.2749C160.705 62.2261 160.621 62.1552 160.556 62.068C160.556 62.068 161.276 63.6144 160.364 64.0659C159.712 64.3854 159.329 63.6016 159.329 63.6016C159.329 63.6016 158.78 64.9392 158.115 64.1213C157.45 63.3034 154.153 57.0029 154.153 57.0029L151.073 54.843Z" fill="#263238" stroke="#263238" stroke-width="0.75" stroke-linecap="round" stroke-linejoin="round"/>
<path d="M150.511 54.9028L149.284 57.4588C149.158 57.7252 149.093 58.0161 149.093 58.3108V59.1117L148.415 60.8157C148.38 60.9044 148.352 60.9955 148.33 61.0883C148.113 61.9957 147.078 66.8691 149.608 67.8617C151.84 68.7393 154.984 66.6221 156.139 65.753C156.426 65.5363 156.67 65.2658 156.854 64.9564L157.621 63.7125C157.947 63.8098 158.295 63.8016 158.615 63.6891C158.936 63.5766 159.213 63.3656 159.406 63.0863C160.092 62.1022 160.884 61.5697 159.943 60.6836C159.001 59.7975 158.132 61.2161 158.132 61.2161L158.26 58.7155L157.169 56.7985L157.114 55.5929C157.114 55.5929 153.544 55.1967 151.15 53.8889L150.511 54.9028Z" fill="white" stroke="#263238" stroke-width="0.75" stroke-linecap="round" stroke-linejoin="round"/>
<path d="M150.511 54.9028L149.284 57.4588C149.158 57.7252 149.093 58.0161 149.093 58.3108V59.1117L148.415 60.8157C148.38 60.9044 148.352 60.9955 148.33 61.0883C148.113 61.9957 147.078 66.8691 149.608 67.8617C151.84 68.7393 154.984 66.6221 156.139 65.753C156.426 65.5363 156.67 65.2658 156.854 64.9564L157.621 63.7125C157.947 63.8098 158.295 63.8016 158.615 63.6891C158.936 63.5766 159.213 63.3656 159.406 63.0863C160.092 62.1022 160.884 61.5697 159.943 60.6836C159.001 59.7975 158.132 61.2161 158.132 61.2161L158.26 58.7155L157.169 56.7985L157.114 55.5929C157.114 55.5929 153.544 55.1967 151.15 53.8889L150.511 54.9028Z" fill="#858585" stroke="#263238" stroke-linecap="round" stroke-linejoin="round"/>
<path d="M152.683 63.6313C151.993 64.9647 151.056 64.7432 150.468 64.4109" stroke="#263238" stroke-width="0.75" stroke-linecap="round" stroke-linejoin="round"/>
<path d="M152.695 60.6025C152.602 60.905 152.41 61.1137 152.269 61.0711C152.129 61.0285 152.082 60.7431 152.176 60.4406C152.269 60.1382 152.461 59.9252 152.602 59.972C152.742 60.0189 152.789 60.3001 152.695 60.6025Z" fill="#263238"/>
<path d="M149.851 59.7207C149.757 60.0274 149.565 60.2361 149.425 60.1893C149.284 60.1424 149.237 59.8613 149.331 59.5588C149.425 59.2563 149.621 59.0476 149.757 59.0945C149.893 59.1413 149.944 59.4182 149.851 59.7207Z" fill="#263238"/>
<path d="M149.646 57.7528C149.758 57.7212 149.876 57.7132 149.993 57.7293C150.109 57.7454 150.22 57.7853 150.32 57.8465C150.42 57.9077 150.506 57.9888 150.573 58.0848C150.641 58.1808 150.687 58.2897 150.711 58.4046" stroke="#263238" stroke-width="0.75" stroke-linecap="round" stroke-linejoin="round"/>
<path d="M152.096 58.9157C152.096 58.9157 153.088 57.872 153.757 58.9796" stroke="#263238" stroke-width="0.75" stroke-linecap="round" stroke-linejoin="round"/>
<path d="M150.732 59.9893C150.643 60.3963 150.452 60.7738 150.176 61.0862C149.9 61.3985 149.549 61.6353 149.156 61.7742L149.932 63.0053" stroke="#263238" stroke-width="0.75" stroke-linecap="round" stroke-linejoin="round"/>
<path d="M155.678 108.83L155.461 110.146C155.43 110.364 155.483 110.585 155.611 110.763C155.739 110.942 155.931 111.064 156.147 111.105L169.808 113.346C170.026 113.377 170.247 113.323 170.425 113.195C170.604 113.067 170.726 112.876 170.767 112.66L170.98 111.343L155.678 108.83Z" fill="white" stroke="#263238" stroke-width="0.75" stroke-linecap="round" stroke-linejoin="round"/>
<path d="M171.592 103.049L157.774 100.781C157.363 100.714 156.976 100.992 156.908 101.403L155.539 109.747C155.471 110.158 155.75 110.546 156.161 110.614L169.978 112.881C170.389 112.949 170.777 112.67 170.845 112.259L172.214 103.915C172.282 103.504 172.003 103.116 171.592 103.049Z" fill="white"/>
<path opacity="0.5" d="M171.591 103.049L157.773 100.781C157.362 100.714 156.975 100.992 156.907 101.403L155.538 109.747C155.47 110.158 155.749 110.546 156.16 110.614L169.977 112.881C170.388 112.949 170.776 112.67 170.844 112.259L172.213 103.915C172.281 103.504 172.002 103.116 171.591 103.049Z" fill="white"/>
<path d="M171.592 103.049L157.774 100.781C157.363 100.714 156.976 100.992 156.908 101.403L155.539 109.747C155.471 110.158 155.75 110.546 156.161 110.614L169.978 112.881C170.389 112.949 170.777 112.67 170.845 112.259L172.214 103.915C172.282 103.504 172.003 103.116 171.592 103.049Z" stroke="#263238" stroke-linecap="round" stroke-linejoin="round"/>
<path d="M166.26 104.604L165.506 107.16L162.95 108.988C162.588 110.106 162.162 111.203 161.672 112.272C161.64 112.332 161.623 112.398 161.623 112.466C161.623 112.534 161.641 112.601 161.674 112.66C161.707 112.719 161.755 112.769 161.813 112.805C161.871 112.84 161.937 112.861 162.004 112.864C162.358 112.864 162.771 112.698 162.997 112.012C162.997 112.012 163.095 113.358 163.926 112.536C163.926 112.536 164.433 113.84 165.225 112.813C165.225 112.813 167.061 113.086 167.355 111.761C167.649 110.436 168.083 108.101 168.083 108.101L169.251 105.362L166.26 104.604Z" fill="#858585" stroke="#263238" stroke-linecap="round" stroke-linejoin="round"/>
<path d="M162.979 111.488L163.269 109.516" stroke="#263238" stroke-width="0.75" stroke-linecap="round" stroke-linejoin="round"/>
<path d="M163.436 111.616C163.436 111.616 163.636 112.268 164.087 112.161C164.539 112.055 165.182 112.557 166.588 111.965" stroke="#263238" stroke-width="0.75" stroke-linecap="round" stroke-linejoin="round"/>
<path d="M167.547 72.5815C167.547 72.5815 173.937 90.3372 173.818 92.9316C173.698 95.5259 169.153 106.811 169.153 106.811L165.643 105.695L167.986 92.4587L165.885 83.2614C165.885 83.2614 165.408 76.5178 167.547 72.5815Z" fill="white" stroke="#263238" stroke-linecap="round" stroke-linejoin="round"/>
<path d="M168.772 92.1648C169.008 91.9844 169.281 91.859 169.572 91.7978C169.862 91.7367 170.162 91.7413 170.451 91.8113" stroke="#263238" stroke-width="0.75" stroke-linecap="round" stroke-linejoin="round"/>
<path d="M164.62 105.976C164.493 105.807 164.397 105.617 164.339 105.414C164.093 105.409 163.855 105.497 163.672 105.661C163.489 105.825 163.375 106.052 163.353 106.297C163.33 106.542 163.402 106.786 163.552 106.98C163.703 107.174 163.921 107.304 164.164 107.343C164.419 107.385 164.68 107.324 164.89 107.174C165.1 107.024 165.242 106.797 165.284 106.542C165.01 106.426 164.778 106.228 164.62 105.976V105.976Z" fill="white"/>
<path d="M39.9458 68.5005L40.7211 72.3218L32.1074 72.6839L33.6027 62.0935L39.4048 62.7666L39.9458 68.5005Z" fill="white"/>
<path d="M43.8062 62.7026L36.6025 64.8326C36.6924 65.6583 36.8637 66.4731 37.1137 67.2651C37.5397 68.492 40.1341 70.6731 41.7997 70.6475C43.4654 70.622 43.6528 65.314 43.6528 65.314L44.6582 64.756C44.7158 64.7232 44.7657 64.6786 44.8048 64.6251C44.8438 64.5716 44.8711 64.5104 44.8848 64.4456C44.8985 64.3808 44.8983 64.3138 44.8842 64.2491C44.8701 64.1844 44.8424 64.1234 44.803 64.0701L43.8062 62.7026Z" fill="#263238" stroke="#263238" stroke-width="0.75" stroke-linecap="round" stroke-linejoin="round"/>
<path d="M39.9458 68.5005L40.7211 72.3218L32.1074 72.6839L33.6027 62.0935L39.4048 62.7666L39.9458 68.5005Z" stroke="#263238" stroke-linecap="round" stroke-linejoin="round"/>
<path d="M40.3421 55.0389C40.3421 55.0389 42.4337 55.4649 42.2207 53.1944C42.0077 50.9238 38.1098 52.3125 36.0778 52.5681C34.0458 52.8237 27.4854 55.2732 29.8071 59.1413C29.8071 59.1413 28.4396 61.3224 33.3642 64.9818C33.3642 64.9818 35.7029 63.8827 36.9852 65.4887L37.9863 63.5376L40.5423 59.0476L40.3421 55.0389Z" fill="#263238" stroke="#263238" stroke-linecap="round" stroke-linejoin="round"/>
<path d="M40.1885 54.6982C40.1885 54.6982 42.1907 55.8143 43.3409 54.417C43.3409 54.417 43.4687 57.399 40.1885 54.6982Z" fill="#263238" stroke="#263238" stroke-linecap="round" stroke-linejoin="round"/>
<path d="M40.3978 54.3872C40.3978 54.3872 43.3798 57.5268 43.2776 59.6781V61.642L44.8538 63.4142C44.8979 63.4595 44.9313 63.5141 44.9516 63.574C44.9719 63.6339 44.9786 63.6976 44.9713 63.7604C44.964 63.8232 44.9427 63.8836 44.9091 63.9372C44.8756 63.9908 44.8305 64.0362 44.7771 64.0702L43.8612 64.7049C43.8612 64.7049 44.1296 69.7317 42.5534 69.9107C40.9772 70.0896 38.353 68.2067 37.8291 67.0991C37.4344 66.0828 37.1488 65.0275 36.9771 63.9509C36.5183 63.8267 36.1072 63.5679 35.7967 63.2081C35.4862 62.8482 35.2905 62.4037 35.2347 61.9317C35.0515 60.2788 36.7172 60.3256 37.1475 61.4077L37.4968 62.2895L38.5788 62.2512C38.5788 62.2512 37.9611 60.692 38.3275 60.2319C38.6938 59.7719 40.1337 58.6515 39.4734 57.5822C38.8131 56.5129 39.0346 54.6939 40.3978 54.3872Z" fill="white" stroke="#263238" stroke-linecap="round" stroke-linejoin="round"/>
<path d="M42.1016 65.689C42.2256 65.9092 42.4158 66.0848 42.6451 66.1911C42.8744 66.2973 43.1314 66.3288 43.3796 66.2811" stroke="#263238" stroke-width="0.75" stroke-linecap="round" stroke-linejoin="round"/>
<path d="M41.3184 59.6908C41.3184 59.6908 41.9957 58.7493 42.639 59.6099" stroke="#263238" stroke-linecap="round" stroke-linejoin="round"/>
<path d="M42.387 61.6547C42.387 61.9486 42.272 62.1914 42.1144 62.1957C41.9568 62.1999 41.8205 61.9656 41.8119 61.6717C41.8034 61.3778 41.927 61.1349 42.0846 61.1307C42.2422 61.1264 42.3785 61.3479 42.387 61.6547Z" fill="#263238"/>
<path d="M28.7254 156.022L27.4814 166.728L31.1834 167.298L33.2239 156.717L28.7254 156.022Z" fill="white" stroke="#263238" stroke-linecap="round" stroke-linejoin="round"/>
<path d="M26.9834 108.719C26.9834 108.719 27.1325 114.922 29.3221 119.284L29.8206 135.745L27.2944 162.267L32.9133 162.804L38.0253 135.063L39.7293 109.929L26.9834 108.719Z" fill="white" stroke="#263238" stroke-linecap="round" stroke-linejoin="round"/>
<path opacity="0.2" d="M38.9365 122.015L38.4679 119.063L36.3379 109.771L35.946 109.571L27 108.719C27 108.719 27 109.737 27.2002 111.241L31.6178 113.746C31.722 115.319 32.0773 116.865 32.6701 118.326C32.7231 118.453 32.7425 118.592 32.7264 118.729C32.7102 118.866 32.659 118.997 32.5777 119.109C32.4964 119.221 32.3877 119.309 32.2622 119.367C32.1366 119.424 31.9983 119.449 31.8607 119.437C31.4048 119.403 31.0087 119.437 31.0087 119.736C31.0087 120.426 34.34 122.654 34.34 122.654C34.34 122.654 37.7011 133.517 37.5818 137.53L38.0377 135.059L38.9365 122.015Z" fill="black"/>
<path d="M40.0234 156.725L40.4281 167.494H44.1727L44.5731 156.725H40.0234Z" fill="white" stroke="#263238" stroke-linecap="round" stroke-linejoin="round"/>
<path d="M50.136 169.011C48.8999 168.634 47.6973 168.156 46.5406 167.58C45.9868 167.234 45.2114 166.106 44.6406 165.786C44.5209 165.735 44.3918 165.708 44.2615 165.708C44.1311 165.708 44.0021 165.735 43.8823 165.786C43.6097 166.008 43.5969 167.162 43.5969 167.162C43.5969 167.162 43.1155 165.986 42.7662 165.786C42.2806 165.513 40.96 165.433 40.5297 165.786C39.814 166.37 39.5542 168.397 39.4136 169.309C39.3795 169.509 39.4136 170.617 39.4136 170.617H50.9156V170.11C50.9164 169.868 50.8417 169.633 50.702 169.435C50.5622 169.238 50.3643 169.09 50.136 169.011V169.011Z" fill="#263238" stroke="#263238" stroke-linecap="round" stroke-linejoin="round"/>
<path d="M47.8573 109.23L46.9371 134.113L45.3993 162.523H39.546C39.546 162.523 38.3192 140.716 38.6259 134.407L35.5544 119.817C35.5544 119.817 32.3296 115.514 33.0964 110.295L47.8573 109.23Z" fill="white" stroke="#263238" stroke-linecap="round" stroke-linejoin="round"/>
<path d="M39.0264 160.41L39.2181 163.827H45.6294L46.1278 160.41H39.0264Z" fill="white" stroke="#263238" stroke-linecap="round" stroke-linejoin="round"/>
<path d="M26.8254 160.116L26.6934 163.533L33.0748 164.142L33.897 160.789L26.8254 160.116Z" fill="white" stroke="#263238" stroke-linecap="round" stroke-linejoin="round"/>
<path d="M57.5616 92.8506L48.7051 87.2189L58.0387 77.8853L66.8995 83.517L57.5616 92.8506Z" fill="white" stroke="#263238" stroke-linecap="round" stroke-linejoin="round"/>
<path d="M58.068 90.9251L50.9453 86.3967L58.4514 78.8906L65.5742 83.419L58.068 90.9251Z" fill="white" stroke="#263238" stroke-width="0.75" stroke-linecap="round" stroke-linejoin="round"/>
<path d="M58.5877 83.1506L59.8317 81.9067L58.2342 80.8928L56.9902 82.1325L58.5877 83.1506Z" stroke="#263238" stroke-width="0.75" stroke-linecap="round" stroke-linejoin="round"/>
<path d="M56.659 85.0848L57.9029 83.8409L56.3012 82.8228L55.0615 84.0667L56.659 85.0848Z" stroke="#263238" stroke-width="0.75" stroke-linecap="round" stroke-linejoin="round"/>
<path d="M54.6604 87.0826L55.9 85.8387L54.3025 84.8206L53.0586 86.0645L54.6604 87.0826Z" stroke="#263238" stroke-width="0.75" stroke-linecap="round" stroke-linejoin="round"/>
<path d="M61.6335 79.3379L60.4577 80.5179C60.4021 80.5734 60.3596 80.6407 60.3335 80.7149C60.3074 80.789 60.2983 80.8681 60.3068 80.9463C60.3154 81.0244 60.3415 81.0996 60.3831 81.1663C60.4247 81.233 60.4808 81.2895 60.5472 81.3316L62.2512 82.4264C62.439 82.5462 62.6621 82.5984 62.8836 82.5744C63.1051 82.5503 63.3117 82.4516 63.4696 82.2943L64.5559 81.2038L61.6335 79.3379Z" fill="#858585" stroke="#263238" stroke-linecap="round" stroke-linejoin="round"/>
<path d="M30.1182 72.0662L31.656 68.688C31.656 68.688 40.5637 67.6912 42.9408 75.1377L30.1182 72.0662Z" fill="#858585" stroke="#263238" stroke-linecap="round" stroke-linejoin="round"/>
<path d="M25.0618 74.9458C25.0618 74.9458 22.8636 91.7856 23.4472 97.7538C23.9073 102.474 27.0171 106.47 27.0171 106.47L31.6264 104.664L29.2834 97.7538C29.2834 97.7538 30.0119 85.3146 30.702 82.4178L25.0618 74.9458Z" fill="#858585" stroke="#263238" stroke-linecap="round" stroke-linejoin="round"/>
<path d="M25.6836 105.643L26.9829 107.198L32.3079 105.124L31.6178 103.049L25.6836 105.643Z" fill="#858585" stroke="#263238" stroke-linecap="round" stroke-linejoin="round"/>
<path d="M25.0609 74.9458C25.0609 74.9458 24.3665 84.6202 26.3389 91.4192C28.3113 98.2182 26.3389 109.384 26.3389 109.384C26.3389 109.384 35.417 115.258 49.3429 110.764C49.3429 110.764 47.6176 77.7063 45.313 75.8659C43.0083 74.0256 30.0025 67.0009 25.0609 74.9458Z" fill="#858585" stroke="#263238" stroke-linecap="round" stroke-linejoin="round"/>
<path opacity="0.2" d="M49.3435 110.764C49.3435 110.764 48.7513 99.4324 47.8014 89.6685C45.7864 84.778 42.4934 78.2645 42.3187 87.4107C42.0631 100.638 50.204 99.8584 43.7544 102.163C42.3122 102.709 40.7673 102.931 39.2298 102.811C37.6923 102.692 36.2001 102.235 34.8595 101.473C34.7523 101.418 34.6295 101.401 34.5116 101.426C34.3936 101.45 34.2876 101.514 34.211 101.607C34.1344 101.7 34.0919 101.817 34.0905 101.937C34.0892 102.058 34.129 102.175 34.2034 102.27C35.8222 104.327 38.2803 105.609 40.1674 106.346C40.3378 106.412 40.4819 106.531 40.5772 106.687C40.6725 106.842 40.7136 107.025 40.6941 107.206C40.6747 107.388 40.5958 107.558 40.4697 107.69C40.3436 107.821 40.1774 107.908 39.997 107.935C33.9223 108.834 29.1596 105.605 26.9742 103.726C26.7186 106.981 26.2969 109.384 26.2969 109.384C26.2969 109.384 35.4175 115.258 49.3435 110.764Z" fill="black"/>
<path d="M45.3228 75.8704C46.1532 76.2515 46.8738 76.8365 47.4175 77.5708C47.9612 78.3052 48.3104 79.1652 48.4326 80.0707C48.8926 83.2402 51.8406 92.9742 51.8406 92.9742L52.8204 92.3395C53.6384 92.7069 54.3122 93.334 54.7374 94.1235C55.1626 94.9131 55.3153 95.8208 55.1719 96.706C55.1719 96.706 52.7778 101.392 50.1621 100.51C47.4741 99.5985 45.9703 97.4004 44.6241 93.805C43.9127 91.888 41.8594 86.1114 41.8594 86.1114" fill="#858585"/>
<path d="M45.3228 75.8704C46.1532 76.2515 46.8738 76.8365 47.4175 77.5708C47.9612 78.3052 48.3104 79.1652 48.4326 80.0707C48.8926 83.2402 51.8406 92.9742 51.8406 92.9742L52.8204 92.3395C53.6384 92.7069 54.3122 93.334 54.7374 94.1235C55.1626 94.9131 55.3153 95.8208 55.1719 96.706C55.1719 96.706 52.7778 101.392 50.1621 100.51C47.4741 99.5985 45.9703 97.4004 44.6241 93.805C43.9127 91.888 41.8594 86.1114 41.8594 86.1114" stroke="#263238" stroke-linecap="round" stroke-linejoin="round"/>
<path d="M53.0165 95.7944C53.0319 96.0449 53.0205 96.2962 52.9824 96.5442" stroke="#263238" stroke-width="0.75" stroke-linecap="round" stroke-linejoin="round"/>
<path d="M51.2568 97.754C51.2568 97.754 52.062 96.476 51.947 93.7197C52.334 94.013 52.6296 94.4105 52.7989 94.8657" stroke="#263238" stroke-width="0.75" stroke-linecap="round" stroke-linejoin="round"/>
<path d="M53.4629 92.071L56.5344 89.8814C56.6879 89.2006 57.0221 88.5738 57.502 88.067C57.9818 87.5602 58.5894 87.1921 59.2608 87.0016C59.2608 87.0016 60.6793 84.6586 61.4845 84.9313C62.2896 85.2039 60.526 86.1581 60.3726 87.385L61.0244 88.2583C61.0244 88.2583 63.1544 87.8834 63.6741 87.1933C63.6741 87.1933 63.5591 88.6545 62.7156 88.8973C62.7156 88.8973 62.7156 90.0092 62.1405 89.9708L57.9146 91.1636L55.4566 95.7517L53.4629 92.071Z" fill="white" stroke="#263238" stroke-linecap="round" stroke-linejoin="round"/>
<path d="M40.8877 102.721C41.3734 102.676 41.8548 102.594 42.3276 102.474" stroke="#263238" stroke-width="0.75" stroke-linecap="round" stroke-linejoin="round"/>
<path d="M28.8154 95.739C28.8154 95.739 33.3438 102.666 39.8914 102.76" stroke="#263238" stroke-width="0.75" stroke-linecap="round" stroke-linejoin="round"/>
<path d="M52.1387 92.1478C52.1387 92.1478 55.3422 94.5675 55.0355 97.4856L56.1899 95.2747C56.1899 95.2747 56.1516 93.4131 53.5019 91.4407L52.1387 92.1478Z" fill="#858585" stroke="#263238" stroke-linecap="round" stroke-linejoin="round"/>
<path d="M39.4145 170.617H50.9165V170.11C50.9164 169.985 50.8963 169.862 50.8569 169.744H39.3975C39.3975 170.131 39.4145 170.617 39.4145 170.617Z" fill="white" stroke="#263238" stroke-width="0.75" stroke-linecap="round" stroke-linejoin="round"/>
<path d="M36.9895 169.011C35.7534 168.634 34.5508 168.156 33.3941 167.58C32.8403 167.234 32.065 166.106 31.4984 165.786C31.3779 165.734 31.2482 165.708 31.1171 165.708C30.986 165.708 30.8563 165.734 30.7358 165.786C30.4632 166.008 30.4504 167.162 30.4504 167.162C30.4504 167.162 29.9733 165.986 29.6197 165.786C29.1341 165.513 27.8135 165.433 27.3832 165.786C26.6675 166.37 26.4077 168.397 26.2671 169.309C26.233 169.509 26.2671 170.617 26.2671 170.617H37.7691V170.11C37.77 169.868 37.6953 169.633 37.5555 169.435C37.4157 169.238 37.2178 169.09 36.9895 169.011V169.011Z" fill="#263238" stroke="#263238" stroke-linecap="round" stroke-linejoin="round"/>
<path d="M26.2592 170.617H37.7612V170.11C37.7612 169.985 37.741 169.862 37.7016 169.744H26.2422C26.2422 170.131 26.2592 170.617 26.2592 170.617Z" fill="white" stroke="#263238" stroke-width="0.75" stroke-linecap="round" stroke-linejoin="round"/>
<path d="M43.227 134.573C43.227 134.573 42.0043 136.682 40.0234 135.877" stroke="#263238" stroke-width="0.75" stroke-linecap="round" stroke-linejoin="round"/>
<path d="M34.702 135.314C34.702 135.314 32.5081 137.189 30.6934 135.877" stroke="#263238" stroke-width="0.75" stroke-linecap="round" stroke-linejoin="round"/>
<path d="M57.5947 80.7437L57.9014 82.2688H60.6193L58.4084 81.7533L58.5149 80.7139L57.5947 80.7437Z" fill="white"/>
</g>
<defs>
<clipPath id="clip0_106_297">
<rect width="189" height="172" fill="white"/>
</clipPath>
</defs>
</svg>
