<svg width="186" height="164" viewBox="0 0 186 164" fill="none" xmlns="http://www.w3.org/2000/svg">
<g clip-path="url(#clip0_107_844)">
<path d="M169.403 103.544C169.403 103.544 165.407 101.084 165.111 106.655C164.815 112.226 164.074 148.464 164.074 148.464" stroke="#263238" stroke-width="2" stroke-linecap="round" stroke-linejoin="round"/>
<path d="M163.024 107.148C163.024 107.148 166.276 115.183 164.803 147.971" stroke="#263238" stroke-width="2" stroke-linecap="round" stroke-linejoin="round"/>
<path d="M166.24 104.664C166.24 104.664 164.708 105.744 163.84 104.509C162.972 103.274 164.429 100.991 163.144 100.018C161.86 99.046 159.639 100.53 159.639 100.53C159.639 100.53 161.346 101.084 161.291 102.118C161.236 103.151 160.413 103.558 160.315 103.09C160.218 102.622 159.389 100.364 158 101.311C157.601 101.573 157.254 101.922 156.979 102.337C156.705 102.751 156.509 103.223 156.404 103.724C156.404 103.724 159.633 103.342 159.828 104.689C160.023 106.036 158.504 104.455 157.171 104.368C155.838 104.282 154.622 104.498 154.71 105.391C154.739 106.181 154.697 106.973 154.583 107.754C155.312 107.08 156.235 106.72 157.184 106.738C158.651 106.832 158.595 107.865 157.262 107.779C155.929 107.692 154.785 109.097 154.785 109.097C154.785 109.097 156.001 111.398 157.545 112.536C159.09 113.674 159.646 113.256 159.821 112.388C159.997 111.52 159.587 109.262 160.52 109.324C161.454 109.385 158.976 113.224 160.166 113.45C161.356 113.677 162.315 113.292 162.627 112.424L162.953 111.556C162.953 111.556 162.536 109.309 162.718 108.431C162.9 107.552 163.118 108.456 163.33 109.511C163.541 110.566 163.674 113.09 164.081 112.968C164.487 112.846 165.791 111.005 166.097 110.285C166.402 109.565 164.38 107.357 164.403 106.914C164.425 106.472 165.986 107.314 166.23 107.775C166.407 108.126 166.566 108.486 166.708 108.855C166.708 108.855 167.684 108.178 167.658 106.104C167.631 104.03 166.24 104.664 166.24 104.664Z" fill="white"/>
<path opacity="0.3" d="M166.24 104.664C166.24 104.664 164.708 105.744 163.84 104.509C162.972 103.274 164.429 100.991 163.144 100.018C161.86 99.046 159.639 100.53 159.639 100.53C159.639 100.53 161.346 101.084 161.291 102.118C161.236 103.151 160.413 103.558 160.315 103.09C160.218 102.622 159.389 100.364 158 101.311C157.601 101.573 157.254 101.922 156.979 102.337C156.705 102.751 156.509 103.223 156.404 103.724C156.404 103.724 159.633 103.342 159.828 104.689C160.023 106.036 158.504 104.455 157.171 104.368C155.838 104.282 154.622 104.498 154.71 105.391C154.739 106.181 154.697 106.973 154.583 107.754C155.312 107.08 156.235 106.72 157.184 106.738C158.651 106.832 158.595 107.865 157.262 107.779C155.929 107.692 154.785 109.097 154.785 109.097C154.785 109.097 156.001 111.398 157.545 112.536C159.09 113.674 159.646 113.256 159.821 112.388C159.997 111.52 159.587 109.262 160.52 109.324C161.454 109.385 158.976 113.224 160.166 113.45C161.356 113.677 162.315 113.292 162.627 112.424L162.953 111.556C162.953 111.556 162.536 109.309 162.718 108.431C162.9 107.552 163.118 108.456 163.33 109.511C163.541 110.566 163.674 113.09 164.081 112.968C164.487 112.846 165.791 111.005 166.097 110.285C166.402 109.565 164.38 107.357 164.403 106.914C164.425 106.472 165.986 107.314 166.23 107.775C166.407 108.126 166.566 108.486 166.708 108.855C166.708 108.855 167.684 108.178 167.658 106.104C167.631 104.03 166.24 104.664 166.24 104.664Z" fill="#263238"/>
<path d="M158.488 109.529C159.487 108.164 160.953 106.317 162.185 105.435" stroke="#263238" stroke-linecap="round" stroke-linejoin="round"/>
<path d="M157.331 111.193C157.331 111.193 157.588 110.797 158.004 110.206" stroke="#263238" stroke-linecap="round" stroke-linejoin="round"/>
<path d="M162.836 105.772C162.836 105.772 164.318 108.092 164.592 110.479" stroke="#263238" stroke-linecap="round" stroke-linejoin="round"/>
<path d="M161.157 107.145C161.157 107.145 161.574 106.878 161.418 109.828" stroke="#263238" stroke-linecap="round" stroke-linejoin="round"/>
<path d="M162.24 104.393C162.24 104.393 163.086 103.558 162.64 101.901" stroke="#263238" stroke-linecap="round" stroke-linejoin="round"/>
<path d="M161.096 105.809L160.491 104.584" stroke="#263238" stroke-linecap="round" stroke-linejoin="round"/>
<path d="M159.825 107.058C159.825 107.058 157.906 105.452 156.706 105.373" stroke="#263238" stroke-linecap="round" stroke-linejoin="round"/>
<path d="M171.688 100.288C171.688 100.288 171.627 102.723 169.91 102.841C168.193 102.96 167.133 99.7949 165.377 100.555C163.621 101.315 163.452 104.79 163.452 104.79C163.452 104.79 165.117 103.274 166.014 104.041C166.912 104.808 166.704 105.985 166.219 105.798C165.735 105.611 163.124 104.966 163.036 107.148C163 107.77 163.077 108.393 163.265 108.981C163.452 109.568 163.745 110.107 164.125 110.566C164.125 110.566 165.982 106.727 167.335 107.426C168.687 108.124 166.219 108.733 165.231 110.152C164.242 111.571 163.605 113.065 164.48 113.58C165.214 114.086 165.9 114.672 166.528 115.33C166.528 115.33 166.294 113.321 167.38 111.761C168.466 110.202 169.36 110.966 168.375 112.384C167.39 113.803 167.878 116.029 167.878 116.029C167.878 116.029 170.785 116.252 172.866 115.309C174.947 114.365 174.96 113.476 174.29 112.676C173.62 111.877 171.305 110.807 171.994 109.813C172.683 108.819 174.465 114.185 175.483 113.018C176.501 111.851 176.803 110.53 176.234 109.59L175.662 108.65C175.662 108.65 173.347 107.57 172.677 106.781C172.007 105.992 172.973 106.353 174.069 106.835C175.164 107.318 177.535 108.891 177.704 108.358C177.873 107.825 177.096 105.117 176.654 104.296C176.211 103.475 172.836 104.203 172.453 103.875C172.069 103.547 173.893 102.391 174.475 102.435C175.057 102.478 175.776 102.633 175.776 102.633C175.776 102.633 175.828 101.095 173.935 99.7049C172.043 98.3149 171.688 100.288 171.688 100.288Z" fill="white"/>
<path opacity="0.2" d="M171.688 100.288C171.688 100.288 171.627 102.723 169.91 102.841C168.193 102.96 167.133 99.7949 165.377 100.555C163.621 101.315 163.452 104.79 163.452 104.79C163.452 104.79 165.117 103.274 166.014 104.041C166.912 104.808 166.704 105.985 166.219 105.798C165.735 105.611 163.124 104.966 163.036 107.148C163 107.77 163.077 108.393 163.265 108.981C163.452 109.568 163.745 110.107 164.125 110.566C164.125 110.566 165.982 106.727 167.335 107.426C168.687 108.124 166.219 108.733 165.231 110.152C164.242 111.571 163.605 113.065 164.48 113.58C165.214 114.086 165.9 114.672 166.528 115.33C166.528 115.33 166.294 113.321 167.38 111.761C168.466 110.202 169.36 110.966 168.375 112.384C167.39 113.803 167.878 116.029 167.878 116.029C167.878 116.029 170.785 116.252 172.866 115.309C174.947 114.365 174.96 113.476 174.29 112.676C173.62 111.877 171.305 110.807 171.994 109.813C172.683 108.819 174.465 114.185 175.483 113.018C176.501 111.851 176.803 110.53 176.234 109.59L175.662 108.65C175.662 108.65 173.347 107.57 172.677 106.781C172.007 105.992 172.973 106.353 174.069 106.835C175.164 107.318 177.535 108.891 177.704 108.358C177.873 107.825 177.096 105.117 176.654 104.296C176.211 103.475 172.836 104.203 172.453 103.875C172.069 103.547 173.893 102.391 174.475 102.435C175.057 102.478 175.776 102.633 175.776 102.633C175.776 102.633 175.828 101.095 173.935 99.7049C172.043 98.3149 171.688 100.288 171.688 100.288Z" fill="#263238"/>
<path d="M170.802 112.201C170.25 110.163 169.58 107.275 169.625 105.309" stroke="#263238" stroke-linecap="round" stroke-linejoin="round"/>
<path d="M171.517 114.613C171.517 114.613 171.335 114.063 171.084 113.198" stroke="#263238" stroke-linecap="round" stroke-linejoin="round"/>
<path d="M170.372 104.818C170.372 104.818 173.477 104.757 175.821 106.079" stroke="#263238" stroke-linecap="round" stroke-linejoin="round"/>
<path d="M170.471 107.613C170.471 107.613 170.51 106.972 173.072 109.158" stroke="#263238" stroke-linecap="round" stroke-linejoin="round"/>
<path d="M168.727 104.545C168.727 104.545 168.552 103.036 166.747 102.402" stroke="#263238" stroke-linecap="round" stroke-linejoin="round"/>
<path d="M169.218 106.774L167.7 106.608" stroke="#263238" stroke-linecap="round" stroke-linejoin="round"/>
<path d="M169.481 109.032C169.481 109.032 166.72 110.069 165.833 111.344" stroke="#263238" stroke-linecap="round" stroke-linejoin="round"/>
<path d="M153.269 116.493C153.269 116.493 162.003 122.889 161.853 147.643" stroke="#263238" stroke-width="2" stroke-linecap="round" stroke-linejoin="round"/>
<path d="M164.038 114.804C164.038 114.804 163.758 117.606 161.762 117.566C159.765 117.527 158.816 113.756 156.729 114.451C154.641 115.147 154.144 119.133 154.144 119.133C154.144 119.133 156.195 117.559 157.167 118.535C158.14 119.511 157.795 120.851 157.252 120.584C156.709 120.318 153.753 119.302 153.464 121.812C153.37 122.527 153.408 123.255 153.576 123.952C153.743 124.65 154.037 125.303 154.439 125.871C154.439 125.871 156.911 121.632 158.41 122.579C159.909 123.526 157.011 123.973 155.75 125.507C154.488 127.041 153.633 128.701 154.589 129.385C155.395 130.044 156.138 130.792 156.807 131.618C156.807 131.618 156.706 129.274 158.107 127.588C159.509 125.903 160.461 126.868 159.203 128.409C157.945 129.951 158.319 132.565 158.319 132.565C158.319 132.565 161.658 133.127 164.139 132.263C166.62 131.398 166.708 130.368 166.002 129.382C165.296 128.395 162.718 126.911 163.599 125.838C164.48 124.765 166.077 131.139 167.351 129.9C168.626 128.661 169.088 127.167 168.509 126.022L167.901 124.877C167.901 124.877 165.322 123.397 164.617 122.406C163.911 121.416 164.994 121.945 166.217 122.615C167.439 123.285 170.044 125.352 170.281 124.751C170.518 124.149 169.852 120.959 169.426 119.954C169 118.949 165.03 119.45 164.614 119.032C164.197 118.614 166.405 117.469 167.072 117.592C167.568 117.683 168.06 117.803 168.545 117.952C168.545 117.952 168.733 116.18 166.669 114.379C164.604 112.579 164.038 114.804 164.038 114.804Z" fill="white"/>
<path opacity="0.3" d="M164.038 114.804C164.038 114.804 163.758 117.606 161.762 117.566C159.765 117.527 158.816 113.756 156.729 114.451C154.641 115.147 154.144 119.133 154.144 119.133C154.144 119.133 156.195 117.559 157.167 118.535C158.14 119.511 157.795 120.851 157.252 120.584C156.709 120.318 153.753 119.302 153.464 121.812C153.37 122.527 153.408 123.255 153.576 123.952C153.743 124.65 154.037 125.303 154.439 125.871C154.439 125.871 156.911 121.632 158.41 122.579C159.909 123.526 157.011 123.973 155.75 125.507C154.488 127.041 153.633 128.701 154.589 129.385C155.395 130.044 156.138 130.792 156.807 131.618C156.807 131.618 156.706 129.274 158.107 127.588C159.509 125.903 160.461 126.868 159.203 128.409C157.945 129.951 158.319 132.565 158.319 132.565C158.319 132.565 161.658 133.127 164.139 132.263C166.62 131.398 166.708 130.368 166.002 129.382C165.296 128.395 162.718 126.911 163.599 125.838C164.48 124.765 166.077 131.139 167.351 129.9C168.626 128.661 169.088 127.167 168.509 126.022L167.901 124.877C167.901 124.877 165.322 123.397 164.617 122.406C163.911 121.416 164.994 121.945 166.217 122.615C167.439 123.285 170.044 125.352 170.281 124.751C170.518 124.149 169.852 120.959 169.426 119.954C169 118.949 165.03 119.45 164.614 119.032C164.197 118.614 166.405 117.469 167.072 117.592C167.568 117.683 168.06 117.803 168.545 117.952C168.545 117.952 168.733 116.18 166.669 114.379C164.604 112.579 164.038 114.804 164.038 114.804Z" fill="#263238"/>
<path d="M162.003 128.456C161.535 126.05 161.012 122.647 161.226 120.382" stroke="#263238" stroke-linecap="round" stroke-linejoin="round"/>
<path d="M162.621 131.316C162.621 131.316 162.458 130.66 162.24 129.638" stroke="#263238" stroke-linecap="round" stroke-linejoin="round"/>
<path d="M162.133 119.878C162.133 119.878 165.71 120.134 168.311 121.906" stroke="#263238" stroke-linecap="round" stroke-linejoin="round"/>
<path d="M162.005 123.119C162.005 123.119 162.106 122.399 164.876 125.172" stroke="#263238" stroke-linecap="round" stroke-linejoin="round"/>
<path d="M160.256 119.407C160.256 119.407 160.181 117.649 158.155 116.728" stroke="#263238" stroke-linecap="round" stroke-linejoin="round"/>
<path d="M160.633 122.029L158.897 121.679" stroke="#263238" stroke-linecap="round" stroke-linejoin="round"/>
<path d="M160.748 124.665C160.748 124.665 157.474 125.568 156.339 126.948" stroke="#263238" stroke-linecap="round" stroke-linejoin="round"/>
<path d="M156.673 136.004C156.673 136.004 162.298 140.758 162.89 147.809L161.723 124.2" stroke="#263238" stroke-width="2" stroke-linecap="round" stroke-linejoin="round"/>
<path d="M170.292 132.562C162.891 131.085 162.891 147.809 162.891 147.809" stroke="#263238" stroke-width="2" stroke-linecap="round" stroke-linejoin="round"/>
<path d="M163.779 147.643C163.779 147.643 159.487 113.05 171.907 113.05" stroke="#263238" stroke-width="2" stroke-linecap="round" stroke-linejoin="round"/>
<path d="M167.473 131.564C166.462 130.307 164.313 130.307 163.051 133.527C161.789 136.746 162.924 136.184 162.924 136.184C162.924 136.184 165.324 135.345 166.826 134.783C168.328 134.222 170.364 132.824 170.49 133.667C170.617 134.51 169.479 135.345 168.088 135.626C166.696 135.907 163.035 137.023 163.412 137.866C163.789 138.709 164.677 141.222 164.677 141.222C165.757 140.208 166.896 139.273 168.088 138.424C169.733 137.304 170.744 137.726 169.86 138.982C168.975 140.239 166.446 141.644 166.953 143.322C167.46 145 170.503 147.103 170.503 147.103C170.503 147.103 170.881 143.603 171.768 142.483C172.656 141.363 172.653 142.623 172.399 144.582C172.272 145.417 172.188 146.258 172.145 147.103L175.683 148.5C176.262 147.525 176.895 146.59 177.579 145.702L178.229 145.003C178.229 145.003 175.449 142.342 175.322 140.682C175.195 139.022 177.218 140.682 177.849 140.963C178.48 141.244 179.491 143.199 179.491 143.199C179.491 143.199 180.125 139.984 180.252 138.878L180.378 137.758C180.378 137.758 177.722 136.638 176.711 136.638C175.699 136.638 175.195 137.477 175.195 136.357C175.195 135.237 176.207 134.539 177.345 134.679C178.375 134.868 179.389 135.148 180.378 135.518C180.378 135.518 181.136 134.816 180.882 132.716C180.629 130.617 179.998 130.617 178.483 131.179C176.968 131.741 175.953 132.979 174.815 132.979C173.677 132.979 174.311 131.442 175.069 131.02C175.826 130.599 177.722 129.76 178.102 129.619C178.483 129.479 176.08 127.52 174.815 127.243C173.55 126.965 171.915 127.963 172.035 129.342C172.276 132.266 168.484 132.842 167.473 131.564Z" fill="white"/>
<path d="M175.608 145.976C175.647 146.397 175.673 146.822 175.686 147.243" stroke="#263238" stroke-linecap="round" stroke-linejoin="round"/>
<path d="M173.067 135.928C174.178 138.701 174.977 141.615 175.447 144.603" stroke="#263238" stroke-linecap="round" stroke-linejoin="round"/>
<path d="M172.613 134.805C171.989 133.314 171.517 132.407 171.517 132.407C172.201 132.042 172.768 131.455 173.143 130.725C173.439 130.063 173.872 129.488 174.408 129.047" stroke="#263238" stroke-linecap="round" stroke-linejoin="round"/>
<path d="M167.091 137.164C167.091 137.164 171.643 135.064 171.643 135.486" stroke="#263238" stroke-linecap="round" stroke-linejoin="round"/>
<path d="M174.17 134.506C174.17 134.506 176.192 133.386 177.961 133.386" stroke="#263238" stroke-linecap="round" stroke-linejoin="round"/>
<path d="M173.428 137.884C172.552 138.681 171.747 139.572 171.025 140.541C170.288 141.506 169.691 142.592 169.257 143.761" stroke="#263238" stroke-linecap="round" stroke-linejoin="round"/>
<path d="M174.801 138.424C174.801 138.424 177.457 137.585 178.845 138.982" stroke="#263238" stroke-linecap="round" stroke-linejoin="round"/>
<path d="M179.605 119.518C178.23 118.618 176.708 118.597 175.96 117.646C175.213 116.695 176.679 116.205 177.463 116.566C178.246 116.926 180.064 117.959 180.405 118.186C180.747 118.413 180.513 115.118 179.875 113.865C179.238 112.612 177.492 111.902 176.624 112.914C174.787 115.053 171.919 112.248 172.114 110.577C172.309 108.906 170.901 107.109 167.887 108.164C164.873 109.219 165.991 109.799 165.991 109.799C165.991 109.799 168.137 111.258 169.516 112.161C170.894 113.065 173.171 113.836 172.68 114.491C172.189 115.147 170.872 114.747 169.769 113.771C168.667 112.795 165.503 110.462 165.178 111.33C164.853 112.197 163.715 114.571 163.715 114.571C165.116 114.808 166.501 115.149 167.861 115.59C169.701 116.227 170.078 117.347 168.641 117.433C167.204 117.52 164.59 116.324 163.764 117.848C162.938 119.371 163.507 123.285 163.507 123.285C163.507 123.285 166.141 121.308 167.484 121.315C168.826 121.323 167.968 122.147 166.466 123.22C165.815 123.662 165.187 124.143 164.583 124.661L165.949 128.539C166.993 128.382 168.046 128.299 169.1 128.291L169.991 128.359C169.991 128.359 169.991 124.29 171.044 123.084C172.098 121.877 172.286 124.668 172.51 125.381C172.735 126.094 172.062 128.222 172.062 128.222C172.062 128.222 174.663 126.641 175.515 126.015L176.364 125.385C176.364 125.385 175.388 122.432 174.738 121.586C174.088 120.739 173.174 120.865 173.935 120.145C174.696 119.425 175.84 119.785 176.49 120.84C177.035 121.826 177.508 122.858 177.905 123.926C177.905 123.926 178.88 124.103 180.145 122.515C181.41 120.927 180.984 120.415 179.605 119.518ZM167.646 123.998C166.635 123.44 169.035 122.32 169.035 122.32C169.922 122.172 168.657 124.56 167.649 123.991L167.646 123.998ZM169.347 118.773C168.918 118.535 170.208 118.053 170.208 118.053C172.081 118.438 169.782 119.007 169.35 118.766L169.347 118.773Z" fill="white"/>
<path d="M167.621 126.843C167.359 127.152 167.089 127.451 166.812 127.739" stroke="#263238" stroke-linecap="round" stroke-linejoin="round"/>
<path d="M172.808 118.132C171.647 120.879 170.185 123.458 168.454 125.809" stroke="#263238" stroke-linecap="round" stroke-linejoin="round"/>
<path d="M173.277 117.015C173.885 115.514 174.194 114.523 174.194 114.523C174.892 114.865 175.669 114.96 176.418 114.797C177.063 114.61 177.74 114.596 178.392 114.754" stroke="#263238" stroke-linecap="round" stroke-linejoin="round"/>
<path d="M172.177 116.638C172.463 116.364 168.051 113.933 168.051 113.933" stroke="#263238" stroke-linecap="round" stroke-linejoin="round"/>
<path d="M174.502 118.121C174.502 118.121 176.593 119.079 177.754 120.559" stroke="#263238" stroke-linecap="round" stroke-linejoin="round"/>
<path d="M171.716 119.688C170.596 119.48 169.462 119.392 168.327 119.425C167.187 119.439 166.056 119.651 164.975 120.055" stroke="#263238" stroke-linecap="round" stroke-linejoin="round"/>
<path d="M172.246 121.218C172.246 121.218 174.557 122.889 174.522 124.967" stroke="#263238" stroke-linecap="round" stroke-linejoin="round"/>
<path d="M159.97 138.907C158.865 138.187 157.639 138.165 157.044 137.398C156.449 136.631 157.619 136.246 158.25 136.537C158.881 136.829 160.341 137.657 160.621 137.837C160.9 138.018 160.705 135.371 160.191 134.373C159.678 133.376 158.273 132.792 157.59 133.61C156.111 135.327 153.802 133.073 153.961 131.726C154.121 130.38 152.986 128.935 150.55 129.785C148.115 130.635 149.025 131.103 149.025 131.103C149.025 131.103 150.752 132.277 151.861 133.001C152.97 133.725 154.787 134.348 154.407 134.877C154.026 135.407 152.953 135.083 152.066 134.294C151.178 133.505 148.632 131.629 148.369 132.328C148.105 133.026 147.195 134.953 147.195 134.953C148.322 135.143 149.436 135.417 150.531 135.77C152.01 136.285 152.313 137.189 151.155 137.258C149.998 137.326 147.904 136.365 147.253 137.589C146.603 138.813 147.049 141.964 147.049 141.964C147.049 141.964 149.169 140.376 150.248 140.38C151.328 140.383 150.638 141.05 149.432 141.914C148.907 142.268 148.4 142.654 147.913 143.07L149.012 146.192C149.853 146.065 150.7 145.998 151.549 145.99L152.267 146.048C152.267 146.048 152.267 142.771 153.116 141.802C153.965 140.834 154.114 143.077 154.293 143.65C154.472 144.222 153.932 145.936 153.932 145.936C153.932 145.936 156.033 144.665 156.712 144.157L157.395 143.653C157.395 143.653 156.608 141.277 156.075 140.596C155.542 139.915 154.813 140.016 155.425 139.426C156.036 138.835 156.956 139.148 157.48 139.987C157.919 140.781 158.3 141.612 158.621 142.472C158.621 142.472 159.404 142.613 160.422 141.334C161.44 140.056 161.073 139.631 159.97 138.907ZM150.346 142.508C149.533 142.058 151.464 141.158 151.464 141.158C152.176 141.046 151.158 142.962 150.342 142.512L150.346 142.508ZM151.718 138.302C151.37 138.111 152.41 137.726 152.41 137.726C153.919 138.05 152.062 138.5 151.718 138.306V138.302Z" fill="white"/>
<path d="M150.343 144.805C150.132 145.054 149.914 145.295 149.693 145.525" stroke="#263238" stroke-linecap="round" stroke-linejoin="round"/>
<path d="M154.498 137.798C153.562 140.007 152.384 142.081 150.993 143.974" stroke="#263238" stroke-linecap="round" stroke-linejoin="round"/>
<path d="M154.876 136.897C155.363 135.691 155.614 134.891 155.614 134.891C156.176 135.166 156.8 135.242 157.402 135.111C157.921 134.961 158.465 134.949 158.989 135.075" stroke="#263238" stroke-linecap="round" stroke-linejoin="round"/>
<path d="M150.667 134.427C150.667 134.427 154.221 136.382 153.99 136.587" stroke="#263238" stroke-linecap="round" stroke-linejoin="round"/>
<path d="M155.87 137.787C155.87 137.787 157.551 138.557 158.471 139.746" stroke="#263238" stroke-linecap="round" stroke-linejoin="round"/>
<path d="M153.617 139.047C152.717 138.879 151.804 138.807 150.892 138.835C149.974 138.847 149.063 139.018 148.193 139.343" stroke="#263238" stroke-linecap="round" stroke-linejoin="round"/>
<path d="M154.043 140.279C154.043 140.279 155.906 141.622 155.871 143.297" stroke="#263238" stroke-linecap="round" stroke-linejoin="round"/>
<path d="M155.458 115.795C155.458 115.795 154.066 116.915 153.181 115.795C152.297 114.675 153.562 112.435 152.294 111.596C151.026 110.757 149.01 112.294 149.01 112.294C149.01 112.294 150.652 112.716 150.652 113.695C150.652 114.675 149.894 115.092 149.767 114.675C149.641 114.257 148.756 112.154 147.491 113.133C147.127 113.406 146.815 113.757 146.577 114.166C146.338 114.575 146.177 115.034 146.103 115.514C146.103 115.514 149.133 114.952 149.387 116.212C149.641 117.473 148.122 116.072 146.86 116.072C145.599 116.072 144.458 116.353 144.584 117.192C144.653 117.937 144.653 118.687 144.584 119.432C145.239 118.753 146.091 118.356 146.987 118.312C148.376 118.312 148.376 119.291 147.114 119.291C145.852 119.291 144.838 120.692 144.838 120.692C144.838 120.692 146.103 122.792 147.618 123.771C149.133 124.751 149.641 124.333 149.767 123.49C149.894 122.648 149.387 120.552 150.271 120.552C151.156 120.552 149.01 124.333 150.145 124.47C151.279 124.607 152.167 124.192 152.421 123.35L152.674 122.511C152.674 122.511 152.167 120.411 152.294 119.572C152.421 118.733 152.674 119.572 152.925 120.552C153.175 121.531 153.432 123.912 153.809 123.771C154.186 123.631 155.327 121.812 155.581 121.113C155.835 120.415 153.809 118.452 153.809 118.035C153.809 117.617 155.327 118.312 155.581 118.733C155.764 119.05 155.932 119.377 156.085 119.713C156.085 119.713 156.97 119.014 156.843 117.051C156.716 115.089 155.458 115.795 155.458 115.795Z" fill="white"/>
<path d="M148.391 120.869C149.266 119.518 150.56 117.682 151.682 116.774" stroke="#263238" stroke-linecap="round" stroke-linejoin="round"/>
<path d="M147.368 122.511C147.368 122.511 147.592 122.122 147.953 121.539" stroke="#263238" stroke-linecap="round" stroke-linejoin="round"/>
<path d="M152.294 117.052C152.294 117.052 153.81 119.151 154.19 121.391" stroke="#263238" stroke-linecap="round" stroke-linejoin="round"/>
<path d="M150.782 118.438C150.782 118.438 151.159 118.157 151.159 120.959" stroke="#263238" stroke-linecap="round" stroke-linejoin="round"/>
<path d="M151.667 115.795C151.667 115.795 152.424 114.952 151.917 113.415" stroke="#263238" stroke-linecap="round" stroke-linejoin="round"/>
<path d="M150.655 117.192L150.021 116.072" stroke="#263238" stroke-linecap="round" stroke-linejoin="round"/>
<path d="M149.518 118.438C149.518 118.438 147.622 117.037 146.484 117.037" stroke="#263238" stroke-linecap="round" stroke-linejoin="round"/>
<path d="M168.22 147.149H158.449V162.724H168.22V147.149Z" fill="#263238" stroke="#263238" stroke-width="2" stroke-linecap="round" stroke-linejoin="round"/>
<path d="M80.2129 27.4663C80.2129 27.4663 80.3303 22.8641 80.1836 18.9065C80.0368 14.9488 80.3336 6.4646 80.3336 6.4646" stroke="#263238" stroke-miterlimit="10"/>
<path d="M80.2658 11.4558L78.6433 10.0405" stroke="#263238" stroke-miterlimit="10"/>
<path d="M80.2449 12.4283L80.8236 11.3948" stroke="#263238" stroke-miterlimit="10"/>
<path d="M80.1167 16.5225L81.5571 15.2009" stroke="#263238" stroke-miterlimit="10"/>
<path d="M80.3326 8.20405L79.5718 7.43701" stroke="#263238" stroke-miterlimit="10"/>
<path d="M80.1026 17.2391L79.1499 16.1084" stroke="#263238" stroke-miterlimit="10"/>
<path d="M80.1845 21.6831L78.2043 19.6809" stroke="#263238" stroke-miterlimit="10"/>
<path d="M80.2358 24.1497C80.7405 23.933 81.2315 23.6792 81.7055 23.3899" stroke="#263238" stroke-miterlimit="10"/>
<path d="M79.1334 12.1652C78.3368 11.4846 75.664 11.6035 75.1503 13.0187C74.6365 14.434 76.272 16.7423 77.8328 16.5802C78.4473 16.5154 78.714 16.4686 78.9546 16.0869L76.7598 13.7101L79.1367 15.8276C79.2035 15.6898 79.2579 15.545 79.2992 15.3955C79.3253 15.291 79.3513 15.1758 79.3708 15.0569C79.5366 14.2107 79.8845 12.8026 79.1334 12.1652Z" fill="white"/>
<path d="M84.3074 10.5229V10.5734C84.0928 11.6285 83.0068 12.2263 82.0866 12.1362C81.959 12.1243 81.8327 12.0989 81.7094 12.0606C81.4943 12.4377 81.3613 12.8648 81.3206 13.3085C81.28 13.7522 81.333 14.2003 81.4753 14.6174C81.5137 14.7367 81.565 14.8503 81.6281 14.9559C81.898 14.711 84.7854 11.9814 84.7854 11.9814L81.7874 15.1792C82.6914 16.2595 84.8114 16.1047 85.5495 14.1205C86.2876 12.1362 85.3479 10.8074 84.3074 10.5229Z" fill="white"/>
<path d="M82.8375 6.83181C81.2832 6.4717 79.8916 7.23514 79.9111 9.03209C79.9197 9.42825 80.0014 9.81826 80.1513 10.1781C80.3012 10.5379 80.516 10.86 80.7825 11.1243L82.3855 8.70439L81.0394 11.344C81.341 11.5718 81.6902 11.7107 82.0539 11.7473C82.9708 11.8338 84.0601 11.236 84.2747 10.1809C84.499 9.00329 84.3917 7.20993 82.8375 6.83181Z" fill="white"/>
<path d="M81.0215 0.583984C81.0215 0.583984 80.8622 0.638002 79.8672 1.17457C79.2847 1.53029 78.853 2.12697 78.6666 2.83417C78.4801 3.54137 78.5541 4.30155 78.8722 4.94854C79.1478 5.55302 79.6246 6.01527 80.2021 6.23774L80.602 1.95601L80.433 6.29536C80.5086 6.30398 80.5849 6.30398 80.6606 6.29536C81.3109 6.22334 82.3286 5.36627 82.4262 3.61253C82.5237 1.85878 81.0215 0.583984 81.0215 0.583984Z" fill="white"/>
<path d="M76.4808 4.47663L79.482 7.13425C79.5116 7.01722 79.5215 6.89515 79.5113 6.77414C79.3714 5.25447 78.0025 4.3722 77.0986 4.0553C76.1946 3.7384 75.5671 4.30377 76.1491 5.75863C76.7312 7.21348 78.2562 7.9193 78.9357 7.69963C79.0972 7.65557 79.2425 7.55749 79.3519 7.41874L76.4808 4.47663Z" fill="white"/>
<path d="M78.5452 7.88341C78.0851 7.84666 77.6385 7.69467 77.2392 7.43891C76.8398 7.18315 76.4981 6.83029 76.2399 6.40695C75.9211 6.37346 75.6032 6.47941 75.354 6.70216C75.1049 6.92491 74.9444 7.24677 74.9067 7.59892C74.6011 9.18341 75.6351 10.8399 77.1275 10.6383C77.5963 10.6112 78.0411 10.4006 78.3826 10.0441L75.7164 7.34684L78.5712 9.75599C78.6272 9.6448 78.6625 9.52238 78.6753 9.39588C78.7675 8.88855 78.7222 8.36235 78.5452 7.88341V7.88341Z" fill="white"/>
<path d="M78.5287 16.6954C78.2863 16.8104 78.0279 16.8786 77.7646 16.8971C76.7892 16.9979 75.7942 16.1516 75.2999 15.1577C75.0097 15.1795 74.7344 15.3083 74.5181 15.5238C74.3017 15.7392 74.1569 16.0287 74.1066 16.3461C73.8107 18.2007 75.3617 20.6458 76.929 20.2569C77.3364 20.1691 77.7137 19.957 78.0182 19.6447L74.5976 16.0004L78.2166 19.407C78.4235 19.1131 78.5569 18.7642 78.6035 18.3951C78.775 17.8387 78.7482 17.2307 78.5287 16.6954Z" fill="white"/>
<path d="M85.4119 20.4875C84.2609 19.011 82.892 20.3326 82.892 20.3326C82.892 20.3326 82.0531 20.6387 81.7344 21.9567C81.6368 22.3566 81.6516 22.7799 81.7767 23.1703L85.2363 20.9376L81.8612 23.3792C82.1864 24.0418 82.8627 24.4595 83.8122 24.1534C85.3274 23.6925 86.5597 21.9747 85.4119 20.4875Z" fill="white"/>
<path d="M82.5439 26.0764H77.7544V33.9305H82.5439V26.0764Z" fill="#263238"/>
<path d="M135.409 33.8655H72.2375V163.228H135.409V33.8655Z" fill="white" stroke="#263238" stroke-miterlimit="10"/>
<path d="M126.5 35.5037H73.5515V161.258H126.5V35.5037Z" fill="#263238" stroke="#263238" stroke-linecap="round" stroke-linejoin="round"/>
<path d="M126.5 55.0073H73.5515V56.8619H126.5V55.0073Z" fill="white" stroke="#263238" stroke-miterlimit="10"/>
<path d="M126.5 76.4487H73.5515V78.3033H126.5V76.4487Z" fill="white" stroke="#263238" stroke-miterlimit="10"/>
<path d="M109.435 35.5254H108.31V55.0038H109.435V35.5254Z" fill="white" stroke="#263238" stroke-miterlimit="10"/>
<path d="M91.4348 35.5254H90.3098V55.0038H91.4348V35.5254Z" fill="white" stroke="#263238" stroke-miterlimit="10"/>
<path d="M109.435 78.3247H108.31V97.8031H109.435V78.3247Z" fill="white" stroke="#263238" stroke-miterlimit="10"/>
<path d="M91.4348 78.3247H90.3098V97.8031H91.4348V78.3247Z" fill="white" stroke="#263238" stroke-miterlimit="10"/>
<path d="M100.347 56.9663H99.2222V76.4448H100.347V56.9663Z" fill="white" stroke="#263238" stroke-miterlimit="10"/>
<path d="M126.5 97.8066H73.5515V99.6612H126.5V97.8066Z" fill="white" stroke="#263238" stroke-miterlimit="10"/>
<path d="M126.5 119.176H73.5515V161.914H126.5V119.176Z" fill="white" stroke="#263238" stroke-miterlimit="10"/>
<path d="M100.347 99.6938H99.2222V119.172H100.347V99.6938Z" fill="white" stroke="#263238" stroke-miterlimit="10"/>
<path d="M127.797 33.8545V163.199L135.412 163.228V33.8545H127.797Z" fill="#263238" stroke="#263238" stroke-linecap="round" stroke-linejoin="round"/>
<path d="M112.934 37.0378H110.216V54.9606H112.934V37.0378Z" fill="white" stroke="#263238" stroke-miterlimit="10"/>
<path d="M112.934 51.1108H110.216V52.5801H112.934V51.1108Z" fill="white" stroke="#263238" stroke-miterlimit="10"/>
<path d="M112.934 38.8567H110.216V40.3259H112.934V38.8567Z" fill="white" stroke="#263238" stroke-miterlimit="10"/>
<path d="M115.713 37.0378H112.995V54.9606H115.713V37.0378Z" fill="white" stroke="#263238" stroke-miterlimit="10"/>
<path d="M115.713 51.1108H112.995V52.5801H115.713V51.1108Z" fill="white" stroke="#263238" stroke-miterlimit="10"/>
<path d="M115.713 38.8567H112.995V40.3259H115.713V38.8567Z" fill="white" stroke="#263238" stroke-miterlimit="10"/>
<path d="M118.498 37.0378H115.78V54.9606H118.498V37.0378Z" fill="white" stroke="#263238" stroke-miterlimit="10"/>
<path d="M118.498 51.1108H115.78V52.5801H118.498V51.1108Z" fill="white" stroke="#263238" stroke-miterlimit="10"/>
<path d="M118.498 38.8562H115.78V40.3255H118.498V38.8562Z" fill="white" stroke="#263238" stroke-miterlimit="10"/>
<path d="M121.277 37.0378H118.559V54.9606H121.277V37.0378Z" fill="white" stroke="#263238" stroke-miterlimit="10"/>
<path d="M125.807 37.0378H121.254V54.9606H125.807V37.0378Z" fill="white" stroke="#263238" stroke-miterlimit="10"/>
<path d="M121.277 51.1108H118.559V52.5801H121.277V51.1108Z" fill="white" stroke="#263238" stroke-miterlimit="10"/>
<path d="M121.277 38.8562H118.559V40.3255H121.277V38.8562Z" fill="white" stroke="#263238" stroke-miterlimit="10"/>
<path d="M94.7476 37.0378H92.0293V54.9606H94.7476V37.0378Z" fill="white" stroke="#263238" stroke-miterlimit="10"/>
<path d="M94.7476 51.1108H92.0293V52.5801H94.7476V51.1108Z" fill="white" stroke="#263238" stroke-miterlimit="10"/>
<path d="M94.7476 38.8562H92.0293V40.3255H94.7476V38.8562Z" fill="white" stroke="#263238" stroke-miterlimit="10"/>
<path d="M97.5289 37.0378H94.8105V54.9606H97.5289V37.0378Z" fill="white" stroke="#263238" stroke-miterlimit="10"/>
<path d="M97.5289 51.1108H94.8105V52.5801H97.5289V51.1108Z" fill="white" stroke="#263238" stroke-miterlimit="10"/>
<path d="M97.5289 38.8562H94.8105V40.3255H97.5289V38.8562Z" fill="white" stroke="#263238" stroke-miterlimit="10"/>
<path d="M100.312 37.0378H97.5935V54.9606H100.312V37.0378Z" fill="white" stroke="#263238" stroke-miterlimit="10"/>
<path d="M100.312 51.1108H97.5935V52.5801H100.312V51.1108Z" fill="white" stroke="#263238" stroke-miterlimit="10"/>
<path d="M100.312 38.8567H97.5935V40.3259H100.312V38.8567Z" fill="white" stroke="#263238" stroke-miterlimit="10"/>
<path d="M103.091 37.0378H100.373V54.9606H103.091V37.0378Z" fill="white" stroke="#263238" stroke-miterlimit="10"/>
<path d="M107.622 37.0378H103.07V54.9606H107.622V37.0378Z" fill="white" stroke="#263238" stroke-miterlimit="10"/>
<path d="M103.091 51.1108H100.373V52.5801H103.091V51.1108Z" fill="white" stroke="#263238" stroke-miterlimit="10"/>
<path d="M103.091 38.8567H100.373V40.3259H103.091V38.8567Z" fill="white" stroke="#263238" stroke-miterlimit="10"/>
<path d="M94.7476 79.9019H92.0293V97.8246H94.7476V79.9019Z" fill="white" stroke="#263238" stroke-miterlimit="10"/>
<path d="M94.7476 93.9751H92.0293V95.4443H94.7476V93.9751Z" fill="white" stroke="#263238" stroke-miterlimit="10"/>
<path d="M94.7476 81.7241H92.0293V83.1934H94.7476V81.7241Z" fill="white" stroke="#263238" stroke-miterlimit="10"/>
<path d="M97.5289 79.9019H94.8105V97.8246H97.5289V79.9019Z" fill="white" stroke="#263238" stroke-miterlimit="10"/>
<path d="M97.5289 93.9751H94.8105V95.4443H97.5289V93.9751Z" fill="white" stroke="#263238" stroke-miterlimit="10"/>
<path d="M97.5289 81.7241H94.8105V83.1934H97.5289V81.7241Z" fill="white" stroke="#263238" stroke-miterlimit="10"/>
<path d="M100.312 79.9019H97.5935V97.8246H100.312V79.9019Z" fill="white" stroke="#263238" stroke-miterlimit="10"/>
<path d="M100.312 93.9751H97.5935V95.4444H100.312V93.9751Z" fill="white" stroke="#263238" stroke-miterlimit="10"/>
<path d="M100.312 81.7241H97.5935V83.1934H100.312V81.7241Z" fill="white" stroke="#263238" stroke-miterlimit="10"/>
<path d="M103.091 79.9019H100.373V97.8246H103.091V79.9019Z" fill="white" stroke="#263238" stroke-miterlimit="10"/>
<path d="M107.622 79.9019H103.07V97.8246H107.622V79.9019Z" fill="white" stroke="#263238" stroke-miterlimit="10"/>
<path d="M103.091 93.9751H100.373V95.4444H103.091V93.9751Z" fill="white" stroke="#263238" stroke-miterlimit="10"/>
<path d="M103.091 81.7241H100.373V83.1934H103.091V81.7241Z" fill="white" stroke="#263238" stroke-miterlimit="10"/>
<path d="M112.701 79.9019H109.982V97.8246H112.701V79.9019Z" fill="white" stroke="#263238" stroke-miterlimit="10"/>
<path d="M112.701 93.9751H109.982V95.4444H112.701V93.9751Z" fill="white" stroke="#263238" stroke-miterlimit="10"/>
<path d="M112.701 81.7241H109.982V83.1934H112.701V81.7241Z" fill="white" stroke="#263238" stroke-miterlimit="10"/>
<path d="M115.484 79.9019H112.766V97.8246H115.484V79.9019Z" fill="white" stroke="#263238" stroke-miterlimit="10"/>
<path d="M115.484 93.9751H112.766V95.4444H115.484V93.9751Z" fill="white" stroke="#263238" stroke-miterlimit="10"/>
<path d="M115.484 81.7241H112.766V83.1934H115.484V81.7241Z" fill="white" stroke="#263238" stroke-miterlimit="10"/>
<path d="M118.263 79.9019H115.545V97.8246H118.263V79.9019Z" fill="white" stroke="#263238" stroke-miterlimit="10"/>
<path d="M118.263 93.9751H115.545V95.4444H118.263V93.9751Z" fill="white" stroke="#263238" stroke-miterlimit="10"/>
<path d="M118.263 81.7241H115.545V83.1934H118.263V81.7241Z" fill="white" stroke="#263238" stroke-miterlimit="10"/>
<path d="M121.046 79.9019H118.328V97.8246H121.046V79.9019Z" fill="white" stroke="#263238" stroke-miterlimit="10"/>
<path d="M125.572 79.9019H121.02V97.8246H125.572V79.9019Z" fill="white" stroke="#263238" stroke-miterlimit="10"/>
<path d="M121.046 93.9751H118.328V95.4444H121.046V93.9751Z" fill="white" stroke="#263238" stroke-miterlimit="10"/>
<path d="M121.046 81.7241H118.328V83.1934H121.046V81.7241Z" fill="white" stroke="#263238" stroke-miterlimit="10"/>
<path d="M76.9095 79.9019H74.1912V97.8246H76.9095V79.9019Z" fill="white" stroke="#263238" stroke-miterlimit="10"/>
<path d="M76.9095 93.9751H74.1912V95.4444H76.9095V93.9751Z" fill="white" stroke="#263238" stroke-miterlimit="10"/>
<path d="M76.9095 81.7241H74.1912V83.1934H76.9095V81.7241Z" fill="white" stroke="#263238" stroke-miterlimit="10"/>
<path d="M79.6937 79.9019H76.9753V97.8246H79.6937V79.9019Z" fill="white" stroke="#263238" stroke-miterlimit="10"/>
<path d="M79.6937 93.9751H76.9753V95.4443H79.6937V93.9751Z" fill="white" stroke="#263238" stroke-miterlimit="10"/>
<path d="M79.6937 81.7241H76.9753V83.1934H79.6937V81.7241Z" fill="white" stroke="#263238" stroke-miterlimit="10"/>
<path d="M82.4746 79.9019H79.7563V97.8246H82.4746V79.9019Z" fill="white" stroke="#263238" stroke-miterlimit="10"/>
<path d="M82.4746 93.9751H79.7563V95.4444H82.4746V93.9751Z" fill="white" stroke="#263238" stroke-miterlimit="10"/>
<path d="M82.4746 81.7241H79.7563V83.1934H82.4746V81.7241Z" fill="white" stroke="#263238" stroke-miterlimit="10"/>
<path d="M85.2569 79.9019H82.5386V97.8246H85.2569V79.9019Z" fill="white" stroke="#263238" stroke-miterlimit="10"/>
<path d="M89.7831 79.9019H85.231V97.8246H89.7831V79.9019Z" fill="white" stroke="#263238" stroke-miterlimit="10"/>
<path d="M85.2569 93.9751H82.5386V95.4444H85.2569V93.9751Z" fill="white" stroke="#263238" stroke-miterlimit="10"/>
<path d="M85.2569 81.7241H82.5386V83.1934H85.2569V81.7241Z" fill="white" stroke="#263238" stroke-miterlimit="10"/>
<path d="M76.5623 37.0378H73.844V54.9606H76.5623V37.0378Z" fill="white" stroke="#263238" stroke-miterlimit="10"/>
<path d="M76.5623 51.1108H73.844V52.5801H76.5623V51.1108Z" fill="white" stroke="#263238" stroke-miterlimit="10"/>
<path d="M76.5623 38.8567H73.844V40.3259H76.5623V38.8567Z" fill="white" stroke="#263238" stroke-miterlimit="10"/>
<path d="M79.3426 37.0378H76.6243V54.9606H79.3426V37.0378Z" fill="white" stroke="#263238" stroke-miterlimit="10"/>
<path d="M79.3423 51.1108H76.624V52.5801H79.3423V51.1108Z" fill="white" stroke="#263238" stroke-miterlimit="10"/>
<path d="M79.3423 38.8564H76.624V40.3257H79.3423V38.8564Z" fill="white" stroke="#263238" stroke-miterlimit="10"/>
<path d="M82.1255 37.0378H79.4072V54.9606H82.1255V37.0378Z" fill="white" stroke="#263238" stroke-miterlimit="10"/>
<path d="M82.1255 51.1108H79.4072V52.5801H82.1255V51.1108Z" fill="white" stroke="#263238" stroke-miterlimit="10"/>
<path d="M82.1255 38.8562H79.4072V40.3255H82.1255V38.8562Z" fill="white" stroke="#263238" stroke-miterlimit="10"/>
<path d="M84.9058 37.0378H82.1875V54.9606H84.9058V37.0378Z" fill="white" stroke="#263238" stroke-miterlimit="10"/>
<path d="M89.435 37.0378H84.8828V54.9606H89.435V37.0378Z" fill="white" stroke="#263238" stroke-miterlimit="10"/>
<path d="M84.9058 51.1108H82.1875V52.5801H84.9058V51.1108Z" fill="white" stroke="#263238" stroke-miterlimit="10"/>
<path d="M84.9058 38.8567H82.1875V40.326H84.9058V38.8567Z" fill="white" stroke="#263238" stroke-miterlimit="10"/>
<path d="M84.606 58.396H81.8877V76.3187H84.606V58.396Z" fill="white" stroke="#263238" stroke-miterlimit="10"/>
<path d="M84.606 72.4692H81.8877V73.9385H84.606V72.4692Z" fill="white" stroke="#263238" stroke-miterlimit="10"/>
<path d="M84.606 60.2183H81.8877V61.6875H84.606V60.2183Z" fill="white" stroke="#263238" stroke-miterlimit="10"/>
<path d="M81.9238 58.396H79.2056V76.3187H81.9238V58.396Z" fill="white" stroke="#263238" stroke-miterlimit="10"/>
<path d="M81.9238 72.4692H79.2056V73.9385H81.9238V72.4692Z" fill="white" stroke="#263238" stroke-miterlimit="10"/>
<path d="M81.9238 60.2183H79.2056V61.6875H81.9238V60.2183Z" fill="white" stroke="#263238" stroke-miterlimit="10"/>
<path d="M79.2415 58.396H76.5232V76.3187H79.2415V58.396Z" fill="white" stroke="#263238" stroke-miterlimit="10"/>
<path d="M79.2415 72.4692H76.5232V73.9385H79.2415V72.4692Z" fill="white" stroke="#263238" stroke-miterlimit="10"/>
<path d="M79.2415 60.2183H76.5232V61.6875H79.2415V60.2183Z" fill="white" stroke="#263238" stroke-miterlimit="10"/>
<path d="M76.5623 58.396H73.844V76.3187H76.5623V58.396Z" fill="white" stroke="#263238" stroke-miterlimit="10"/>
<path d="M76.5623 72.4692H73.844V73.9385H76.5623V72.4692Z" fill="white" stroke="#263238" stroke-miterlimit="10"/>
<path d="M76.5623 60.2183H73.844V61.6875H76.5623V60.2183Z" fill="white" stroke="#263238" stroke-miterlimit="10"/>
<path d="M87.386 58.396H84.6677V76.3187H87.386V58.396Z" fill="white" stroke="#263238" stroke-miterlimit="10"/>
<path d="M87.386 72.4692H84.6677V73.9385H87.386V72.4692Z" fill="white" stroke="#263238" stroke-miterlimit="10"/>
<path d="M87.386 60.2183H84.6677V61.6875H87.386V60.2183Z" fill="white" stroke="#263238" stroke-miterlimit="10"/>
<path d="M90.1663 58.396H87.448V76.3187H90.1663V58.396Z" fill="white" stroke="#263238" stroke-miterlimit="10"/>
<path d="M90.1663 72.4692H87.448V73.9385H90.1663V72.4692Z" fill="white" stroke="#263238" stroke-miterlimit="10"/>
<path d="M90.1663 60.2183H87.448V61.6875H90.1663V60.2183Z" fill="white" stroke="#263238" stroke-miterlimit="10"/>
<path d="M92.9493 58.396H90.231V76.3187H92.9493V58.396Z" fill="white" stroke="#263238" stroke-miterlimit="10"/>
<path d="M97.4787 58.396H92.9265V76.3187H97.4787V58.396Z" fill="white" stroke="#263238" stroke-miterlimit="10"/>
<path d="M92.9493 72.4692H90.231V73.9385H92.9493V72.4692Z" fill="white" stroke="#263238" stroke-miterlimit="10"/>
<path d="M92.9493 60.2183H90.231V61.6875H92.9493V60.2183Z" fill="white" stroke="#263238" stroke-miterlimit="10"/>
<path d="M103.935 58.396H101.216V76.3187H103.935V58.396Z" fill="white" stroke="#263238" stroke-miterlimit="10"/>
<path d="M103.935 72.4692H101.216V73.9385H103.935V72.4692Z" fill="white" stroke="#263238" stroke-miterlimit="10"/>
<path d="M103.935 60.2183H101.216V61.6875H103.935V60.2183Z" fill="white" stroke="#263238" stroke-miterlimit="10"/>
<path d="M106.717 58.396H103.999V76.3187H106.717V58.396Z" fill="white" stroke="#263238" stroke-miterlimit="10"/>
<path d="M106.717 72.4692H103.999V73.9385H106.717V72.4692Z" fill="white" stroke="#263238" stroke-miterlimit="10"/>
<path d="M106.717 60.2183H103.999V61.6875H106.717V60.2183Z" fill="white" stroke="#263238" stroke-miterlimit="10"/>
<path d="M112.282 58.3917L109.748 59.5767L116.121 76.2937L118.655 75.1088L112.282 58.3917Z" fill="white" stroke="#263238" stroke-miterlimit="10"/>
<path d="M117.288 71.5167L114.753 72.7017L115.276 74.0718L117.81 72.8868L117.288 71.5167Z" fill="white" stroke="#263238" stroke-miterlimit="10"/>
<path d="M112.931 60.0909L110.397 61.2759L110.92 62.646L113.454 61.461L112.931 60.0909Z" fill="white" stroke="#263238" stroke-miterlimit="10"/>
<path d="M116.124 76.2863H121.798L124.35 75.1088L118.657 75.1016L116.124 76.2863Z" fill="white" stroke="#263238" stroke-miterlimit="10"/>
<path d="M112.284 58.3853H117.613L124.351 75.1088L118.657 75.1016L112.284 58.3853Z" fill="white" stroke="#263238" stroke-miterlimit="10"/>
<path d="M109.4 58.396H106.682V76.3187H109.4V58.396Z" fill="white" stroke="#263238" stroke-miterlimit="10"/>
<path d="M109.4 72.4692H106.682V73.9385H109.4V72.4692Z" fill="white" stroke="#263238" stroke-miterlimit="10"/>
<path d="M109.4 60.2183H106.682V61.6875H109.4V60.2183Z" fill="white" stroke="#263238" stroke-miterlimit="10"/>
<path d="M109.4 58.396H112.284L109.748 59.57L116.124 76.2863H109.4V58.396Z" fill="white" stroke="#263238" stroke-miterlimit="10"/>
<path d="M84.606 101.185H81.8877V119.107H84.606V101.185Z" fill="white" stroke="#263238" stroke-miterlimit="10"/>
<path d="M84.606 115.258H81.8877V116.727H84.606V115.258Z" fill="white" stroke="#263238" stroke-miterlimit="10"/>
<path d="M84.606 103.003H81.8877V104.472H84.606V103.003Z" fill="white" stroke="#263238" stroke-miterlimit="10"/>
<path d="M81.9238 101.185H79.2056V119.107H81.9238V101.185Z" fill="white" stroke="#263238" stroke-miterlimit="10"/>
<path d="M81.9238 115.258H79.2056V116.727H81.9238V115.258Z" fill="white" stroke="#263238" stroke-miterlimit="10"/>
<path d="M81.9238 103.003H79.2056V104.472H81.9238V103.003Z" fill="white" stroke="#263238" stroke-miterlimit="10"/>
<path d="M79.2415 101.185H76.5232V119.107H79.2415V101.185Z" fill="white" stroke="#263238" stroke-miterlimit="10"/>
<path d="M79.2415 115.258H76.5232V116.727H79.2415V115.258Z" fill="white" stroke="#263238" stroke-miterlimit="10"/>
<path d="M79.2415 103.003H76.5232V104.472H79.2415V103.003Z" fill="white" stroke="#263238" stroke-miterlimit="10"/>
<path d="M76.5623 101.185H73.844V119.107H76.5623V101.185Z" fill="white" stroke="#263238" stroke-miterlimit="10"/>
<path d="M76.5623 115.258H73.844V116.727H76.5623V115.258Z" fill="white" stroke="#263238" stroke-miterlimit="10"/>
<path d="M76.5623 103.003H73.844V104.472H76.5623V103.003Z" fill="white" stroke="#263238" stroke-miterlimit="10"/>
<path d="M87.386 101.185H84.6677V119.107H87.386V101.185Z" fill="white" stroke="#263238" stroke-miterlimit="10"/>
<path d="M87.386 115.258H84.6677V116.727H87.386V115.258Z" fill="white" stroke="#263238" stroke-miterlimit="10"/>
<path d="M87.386 103.003H84.6677V104.472H87.386V103.003Z" fill="white" stroke="#263238" stroke-miterlimit="10"/>
<path d="M90.1663 101.185H87.448V119.107H90.1663V101.185Z" fill="white" stroke="#263238" stroke-miterlimit="10"/>
<path d="M90.1663 115.258H87.448V116.727H90.1663V115.258Z" fill="white" stroke="#263238" stroke-miterlimit="10"/>
<path d="M90.1663 103.003H87.448V104.472H90.1663V103.003Z" fill="white" stroke="#263238" stroke-miterlimit="10"/>
<path d="M92.9493 101.185H90.231V119.107H92.9493V101.185Z" fill="white" stroke="#263238" stroke-miterlimit="10"/>
<path d="M97.4787 101.185H92.9265V119.107H97.4787V101.185Z" fill="white" stroke="#263238" stroke-miterlimit="10"/>
<path d="M92.9493 115.258H90.231V116.727H92.9493V115.258Z" fill="white" stroke="#263238" stroke-miterlimit="10"/>
<path d="M92.9493 103.003H90.231V104.472H92.9493V103.003Z" fill="white" stroke="#263238" stroke-miterlimit="10"/>
<path d="M103.935 101.185H101.216V119.107H103.935V101.185Z" fill="white" stroke="#263238" stroke-miterlimit="10"/>
<path d="M103.935 115.258H101.216V116.727H103.935V115.258Z" fill="white" stroke="#263238" stroke-miterlimit="10"/>
<path d="M103.935 103.003H101.216V104.472H103.935V103.003Z" fill="white" stroke="#263238" stroke-miterlimit="10"/>
<path d="M106.717 101.185H103.999V119.107H106.717V101.185Z" fill="white" stroke="#263238" stroke-miterlimit="10"/>
<path d="M106.717 115.258H103.999V116.727H106.717V115.258Z" fill="white" stroke="#263238" stroke-miterlimit="10"/>
<path d="M106.717 103.003H103.999V104.472H106.717V103.003Z" fill="white" stroke="#263238" stroke-miterlimit="10"/>
<path d="M112.281 101.178L109.746 102.363L116.119 119.08L118.654 117.895L112.281 101.178Z" fill="white" stroke="#263238" stroke-miterlimit="10"/>
<path d="M117.221 113.985L114.69 115.173L115.214 116.541L117.744 115.353L117.221 113.985Z" fill="white" stroke="#263238" stroke-width="0.99925" stroke-miterlimit="10"/>
<path d="M112.928 102.877L110.394 104.062L110.917 105.432L113.451 104.247L112.928 102.877Z" fill="white" stroke="#263238" stroke-miterlimit="10"/>
<path d="M116.124 119.075H121.798L124.35 117.898L118.657 117.887L116.124 119.075Z" fill="white" stroke="#263238" stroke-miterlimit="10"/>
<path d="M112.284 101.17H117.613L124.351 117.897L118.657 117.886L112.284 101.17Z" fill="white" stroke="#263238" stroke-miterlimit="10"/>
<path d="M109.4 101.185H106.682V119.107H109.4V101.185Z" fill="white" stroke="#263238" stroke-miterlimit="10"/>
<path d="M109.4 115.258H106.682V116.727H109.4V115.258Z" fill="white" stroke="#263238" stroke-miterlimit="10"/>
<path d="M109.4 103.003H106.682V104.472H109.4V103.003Z" fill="white" stroke="#263238" stroke-miterlimit="10"/>
<path d="M109.4 101.185H112.284L109.748 102.355L116.124 119.075H109.4V101.185Z" fill="white" stroke="#263238" stroke-miterlimit="10"/>
<path d="M99.2222 119.172V161.197" stroke="#263238" stroke-miterlimit="10"/>
<path d="M73.9792 124.376H126.485" stroke="#263238" stroke-miterlimit="10"/>
<path d="M84.7556 127.93V135.55" stroke="#263238" stroke-width="2" stroke-miterlimit="10"/>
<path d="M87.0483 127.93V135.55" stroke="#263238" stroke-width="2" stroke-miterlimit="10"/>
<path d="M111.126 127.93V135.55" stroke="#263238" stroke-width="2" stroke-miterlimit="10"/>
<path d="M113.418 127.93V135.55" stroke="#263238" stroke-width="2" stroke-miterlimit="10"/>
<path d="M141.123 34.5356V21.6147H158.089" stroke="#263238" stroke-miterlimit="10"/>
<path d="M159.338 21.6147H166.485V53.6647H141.123V36.4946" stroke="#263238" stroke-miterlimit="10"/>
<path d="M157.257 49.3436H144.541V25.9363H163.065V49.3436H158.714" stroke="#263238" stroke-miterlimit="10"/>
<path d="M157.364 33.1384H150.24V42.1412H157.364V33.1384Z" stroke="#263238" stroke-miterlimit="10"/>
<path d="M168.738 49.4729V41.4136H179.322" stroke="#263238" stroke-miterlimit="10"/>
<path d="M180.099 41.4136H184.557V61.4034H168.738V50.6937" stroke="#263238" stroke-miterlimit="10"/>
<path d="M178.802 58.71H170.871V44.1074H182.424V58.71H179.709" stroke="#263238" stroke-miterlimit="10"/>
<path d="M178.87 48.6016H174.425V54.2157H178.87V48.6016Z" stroke="#263238" stroke-miterlimit="10"/>
<path d="M1.03223 163.229H184.42" stroke="#263238" stroke-linecap="round" stroke-linejoin="round"/>
<path d="M14.0389 112.813C14.0389 112.813 12.0879 84.004 13.0634 80.7629C14.0389 77.5219 20.0543 77.702 21.1923 77.702C22.3303 77.702 46.0667 77.702 49.4808 79.5026C52.895 81.3031 53.3827 125.597 53.3827 125.597H15.6647L14.0389 112.813Z" fill="#263238" stroke="#263238" stroke-miterlimit="10"/>
<path d="M54.6792 110.472C54.6792 110.472 50.7774 110.472 49.997 114.794C49.2166 119.115 52.2893 136.94 52.5169 141.982C52.7445 147.024 53.5444 154.046 53.5444 154.046H67.3635L70.4525 110.472H54.6792Z" fill="#263238" stroke="#263238" stroke-miterlimit="10"/>
<path d="M70.4534 110.472C70.4534 110.472 66.5515 110.472 65.576 114.794C64.6006 119.115 66.8767 136.94 66.8767 141.982C66.8767 147.024 67.3644 154.046 67.3644 154.046H72.2417C72.2417 154.046 72.7294 141.082 72.7294 139.281C72.7294 137.481 74.6804 118.755 73.7049 114.974C72.7294 111.192 71.9166 110.832 70.4534 110.472Z" fill="#636363" stroke="#263238" stroke-miterlimit="10"/>
<path d="M29.2404 79.5928C29.2404 79.5928 16.3154 85.4446 16.3154 86.0748C16.3154 86.705 20.705 103.63 22.3308 106.241C23.9566 108.852 25.0946 111.733 25.5824 112.813C26.0701 113.893 28.1836 116.594 29.8907 116.594C31.5977 116.594 33.63 114.344 39.0763 113.443C44.5227 112.543 49.4 112.633 50.3755 111.823C51.3509 111.013 50.1316 108.852 49.969 108.402C49.8064 107.952 49.1561 106.331 49.1561 106.331C49.1561 106.331 54.4399 111.193 56.5534 111.373C58.6669 111.553 60.2114 110.382 60.5366 108.852C60.8617 107.321 59.6424 103.63 58.8295 101.65C58.0166 99.669 54.196 96.518 52.489 94.0873C50.7819 91.6565 48.5871 88.7756 47.0426 86.795C45.6967 85.0515 44.035 83.6406 42.1653 82.6537C40.7021 81.9335 36.9628 80.1329 34.6054 79.8629C32.2481 79.5928 29.2404 79.5928 29.2404 79.5928Z" fill="white" stroke="#263238" stroke-miterlimit="10"/>
<path d="M54.5731 100.688C54.5731 100.688 52.7327 106.331 53.383 107.771C54.0333 109.212 55.7664 109.691 55.7664 109.691" stroke="#263238" stroke-miterlimit="10"/>
<path d="M27.2883 81.4834L38.0185 93.007L39.6443 84.3643" stroke="#263238" stroke-miterlimit="10"/>
<path d="M55.09 101.379C55.09 101.379 57.6913 103.45 58.5854 102.73C59.4796 102.009 59.2358 100.659 58.6667 99.2185C58.0977 97.7781 56.2281 96.9678 55.4965 97.598C54.7649 98.2282 54.521 100.749 55.09 101.379Z" fill="white" stroke="#263238" stroke-miterlimit="10"/>
<path d="M28.4268 75.8115L28.8332 81.2132L37.4498 90.5761L38.7504 83.9141L39.3195 81.1232C39.3195 81.1232 33.7105 80.0428 31.9222 78.6924C30.1338 77.342 28.4268 75.8115 28.4268 75.8115Z" fill="white" stroke="#263238" stroke-miterlimit="10"/>
<path d="M39.3195 81.1232C39.3195 81.1232 33.7105 80.0428 31.9222 78.6924C30.1338 77.342 28.4268 75.8115 28.4268 75.8115L28.8332 81.2132L31.0117 83.5791C32.7058 84.1085 34.3934 84.3642 35.5412 83.8744C36.8148 83.3615 38.0321 82.6911 39.1699 81.8758L39.3195 81.1232Z" fill="#263238" stroke="#263238" stroke-miterlimit="10"/>
<path d="M25.8522 71.6414C25.8522 71.6414 24.3337 63.9566 24.3337 62.6386C24.3337 61.3206 28.4535 54.5937 34.0884 55.6741C39.7234 56.7544 42.8676 60.3555 43.0855 61.4358C43.3033 62.5162 42.4352 64.6769 42.4352 64.6769C42.6067 65.3028 42.7157 65.9476 42.7603 66.5998C42.7603 67.3201 41.7848 70.4386 41.7848 70.4386L41.4597 67.1976C41.4597 67.1976 38.7511 68.0403 37.2327 68.0403C35.7142 68.0403 33.1129 66.96 33.1129 66.96C33.1129 66.96 33.656 68.8794 33.1129 69.8409C32.5699 70.8023 30.9474 71.6414 30.9474 71.6414C30.9474 71.6414 30.7296 73.5608 30.0792 73.5608C29.277 73.5158 28.4797 73.3953 27.6958 73.2007C27.2601 73.0819 25.8522 71.6414 25.8522 71.6414Z" fill="#263238" stroke="#263238" stroke-miterlimit="10"/>
<path d="M28.3457 72.4806C28.3457 72.4806 28.1279 69.5997 25.9591 70.3199C23.7903 71.0402 25.2015 73.6798 26.3948 75.0014C27.5881 76.323 27.91 75.3615 27.91 75.3615C27.91 75.3615 28.2352 78.1236 29.8609 79.6829C31.4867 81.2421 33.9807 84.123 36.5819 83.7629C39.1832 83.4028 41.0268 79.8017 41.3519 77.1621C41.6771 74.5225 41.8917 68.2781 41.8917 67.5579C41.8134 66.7456 41.6686 65.9429 41.4592 65.1595C41.4592 65.1595 39.1832 66.9601 37.1249 66.4776C35.0667 65.995 32.8979 65.0371 31.9224 65.0371C30.947 65.0371 31.1616 66.6 31.4867 67.0789C31.8119 67.5579 32.68 68.5194 31.7046 69.1208C30.7291 69.7222 29.4285 70.3199 29.4285 70.3199V72.8407L28.3457 72.4806Z" fill="white" stroke="#263238" stroke-miterlimit="10"/>
<path d="M38.7145 71.1699L38.1812 77.6771L35.5117 76.8201" stroke="#263238" stroke-miterlimit="10"/>
<path d="M36.4603 77.3457C36.4603 77.3457 35.1597 77.3457 34.4443 77.4141C34.0147 77.4928 33.578 77.5146 33.1437 77.4789C32.8478 77.4141 32.4934 77.1512 33.0852 77.8066C33.677 78.4621 35.4588 79.2471 36.4083 79.3839C37.3577 79.5208 38.0113 79.1859 38.7201 78.6637C39.429 78.1416 40.0208 77.6122 39.6696 77.4825C39.1803 77.3861 38.6838 77.3415 38.1869 77.3493V77.6806L36.4603 77.3457Z" fill="#263238" stroke="#263238" stroke-miterlimit="10"/>
<path d="M34.5927 73.4026C34.8064 73.4026 34.9797 73.006 34.9797 72.5167C34.9797 72.0275 34.8064 71.6309 34.5927 71.6309C34.379 71.6309 34.2058 72.0275 34.2058 72.5167C34.2058 73.006 34.379 73.4026 34.5927 73.4026Z" fill="#263238"/>
<path d="M40.3753 72.387C40.3753 72.8768 40.203 73.2729 39.9917 73.2729C39.7803 73.2729 39.6047 72.8768 39.6047 72.387C39.6047 71.8973 39.7771 71.4976 39.9917 71.4976C40.2063 71.4976 40.3753 71.8973 40.3753 72.387Z" fill="#263238"/>
<path d="M33.1382 71.1698C33.1382 71.1698 34.7412 69.9202 36.0451 70.4496" stroke="#263238" stroke-miterlimit="10"/>
<path d="M39.0134 70.5143C39.0134 70.5143 40.675 69.6573 41.3871 70.4459" stroke="#263238" stroke-miterlimit="10"/>
<path d="M35.6324 74.144C35.6324 74.144 35.2747 74.605 34.0879 74.9975" stroke="#263238" stroke-miterlimit="10"/>
<path d="M38.8943 73.8633C39.2454 74.1318 39.6242 74.353 40.0226 74.5223" stroke="#263238" stroke-miterlimit="10"/>
<path d="M43.9529 90.9362L44.5219 89.3157C44.5219 89.3157 45.2535 90.1259 47.2044 90.1259C49.1554 90.1259 52.3256 91.6564 52.3256 91.6564L52.5695 92.1066C52.5695 92.1066 53.1385 90.216 54.1953 89.8559C55.252 89.4958 56.9591 88.2354 57.203 87.8752L57.4468 87.5151L58.5849 88.5955L53.545 95.9778L44.1155 91.9265L43.9529 90.9362Z" fill="white" stroke="#263238" stroke-miterlimit="10"/>
<path d="M44.0344 90.3062L41.5957 104.621L50.0497 106.781L53.1387 92.917L44.0344 90.3062Z" fill="white" stroke="#263238" stroke-miterlimit="10"/>
<path d="M53.139 92.917L58.5854 88.5957L55.3338 102.46L50.05 106.781L53.139 92.917Z" fill="white" stroke="#263238" stroke-miterlimit="10"/>
<path d="M33.5479 102.01L37.2319 100.328C37.2319 100.328 40.4834 96.489 40.8086 96.1289C41.1337 95.7688 44.3853 95.4087 44.3853 95.4087L47.962 98.0483C47.962 98.0483 48.6123 98.6497 47.962 98.8874C47.3117 99.125 45.9038 98.4084 45.9038 98.4084L44.4926 97.4469L43.6277 97.9295L45.468 99.6076C45.468 99.6076 46.0111 101.17 46.0111 102.01C46.0011 102.549 45.8903 103.08 45.6859 103.569L44.6031 105.251L41.3516 103.45C41.3516 103.45 39.4006 105.009 38.9649 105.251C38.5292 105.492 34.4128 105.132 34.4128 105.132L33.5479 102.01Z" fill="white" stroke="#263238" stroke-miterlimit="10"/>
<path d="M41.3232 97.8038L42.4743 97.5625L43.4628 97.865" stroke="#263238" stroke-miterlimit="10"/>
<path d="M40.2273 100.173C40.2273 100.173 42.8025 99.3809 42.9684 99.3809C43.1342 99.3809 45.0526 101.567 45.0526 101.567L45.2705 103.936" stroke="#263238" stroke-miterlimit="10"/>
<path d="M40.3374 101.689L42.4184 101.75L44.3368 103.147C44.5314 103.827 44.6216 104.538 44.6034 105.25" stroke="#263238" stroke-miterlimit="10"/>
<path d="M18.591 84.3643C18.591 84.3643 16.2044 84.7244 15.8792 87.0039C15.554 89.2834 13.3885 108.492 14.0388 110.652C14.6891 112.813 26.7199 109.093 27.1523 108.852C27.5848 108.611 34.4131 106.331 34.5236 105.852C34.6342 105.373 34.8488 101.408 33.8733 101.171C32.8978 100.933 23.5756 101.29 23.5756 101.29L22.275 88.8044" fill="white"/>
<path d="M18.591 84.3643C18.591 84.3643 16.2044 84.7244 15.8792 87.0039C15.554 89.2834 13.3885 108.492 14.0388 110.652C14.6891 112.813 26.7199 109.093 27.1523 108.852C27.5848 108.611 34.4131 106.331 34.5236 105.852C34.6342 105.373 34.8488 101.408 33.8733 101.171C32.8978 100.933 23.5756 101.29 23.5756 101.29L22.275 88.8044" stroke="#263238" stroke-miterlimit="10"/>
<path d="M23.5756 101.29L17.8301 102.37" stroke="#263238" stroke-miterlimit="10"/>
<path d="M16.7473 100.929L21.7319 101.649" stroke="#263238" stroke-miterlimit="10"/>
<path d="M57.1216 94.5375C57.1216 94.5375 54.9268 97.0583 55.0081 97.6885C55.0894 98.3187 56.2274 97.3283 56.4713 97.0583C56.7151 96.7882 57.8532 96.068 57.8532 95.3477C57.8532 94.6275 57.6093 93.8173 57.1216 94.5375Z" fill="white" stroke="#263238" stroke-miterlimit="10"/>
<path d="M57.3663 96.0679C57.3663 96.0679 58.0166 96.7881 58.0166 97.4183C58.0166 98.0485 56.6347 100.119 55.9844 100.119C55.3341 100.119 55.8218 98.6787 56.1469 98.0485C56.4721 97.4183 57.3663 96.0679 57.3663 96.0679Z" fill="white" stroke="#263238" stroke-miterlimit="10"/>
<path d="M58.0165 97.418C58.0165 97.418 58.8294 97.6881 58.8294 98.4983C58.8294 99.3086 57.2849 100.659 56.8785 100.749C56.472 100.839 56.5533 100.029 56.8785 99.3986C57.2036 98.7684 58.0165 97.418 58.0165 97.418Z" fill="white" stroke="#263238" stroke-miterlimit="10"/>
<path d="M58.8296 98.4985C58.9961 98.9548 59.0521 99.4514 58.9922 99.939C58.9109 100.839 57.6916 101.379 57.2851 101.379C56.8787 101.379 56.8787 100.749 56.8787 100.749C57.5666 100.04 58.218 99.2887 58.8296 98.4985V98.4985Z" fill="white" stroke="#263238" stroke-miterlimit="10"/>
<path d="M33.2626 163.229H31.7181L30.9475 151.885H34.0365L33.2626 163.229Z" fill="white" stroke="#263238" stroke-miterlimit="10"/>
<path d="M19.1178 163.229H17.5733L16.8027 151.885H19.8917L19.1178 163.229Z" fill="white" stroke="#263238" stroke-miterlimit="10"/>
<path d="M70.1679 163.228H68.6234L67.8528 151.885H70.9418L70.1679 163.228Z" fill="white" stroke="#263238" stroke-miterlimit="10"/>
<path d="M56.0231 163.228H54.4786L53.708 151.885H56.797L56.0231 163.228Z" fill="white" stroke="#263238" stroke-miterlimit="10"/>
<path d="M68.015 130.181H31.1099V153.949H68.015V130.181Z" fill="#263238" stroke="#263238" stroke-miterlimit="10"/>
<path d="M94.7838 126.378C94.7838 126.378 98.6857 124.578 99.5538 123.858C100.422 123.137 101.612 124.697 101.069 126.378C100.526 128.06 99.1181 131.06 96.9526 132.5C94.7871 133.941 93.0507 135.14 92.615 135.619C92.1793 136.098 92.2899 137.902 90.4495 138.622C88.6091 139.342 86.3298 137.902 85.0291 135.619C83.7285 133.336 82.8604 131.78 82.8604 131.78C82.8604 131.78 82.9709 130.098 85.1364 129.259C87.302 128.42 90.9892 128.056 90.9892 128.056L94.7838 126.378Z" fill="white" stroke="#263238" stroke-miterlimit="10"/>
<path d="M50.3745 111.823C50.3745 111.823 52.9465 111.132 53.5968 111.492C54.2472 111.852 56.4159 114.135 56.4159 114.135C56.4159 114.135 69.5295 114.373 70.5049 114.855C71.4804 115.338 81.5602 123.858 83.729 125.057C85.8978 126.256 87.7382 127.337 87.7382 127.337L86.1124 135.259V135.979L86.2229 137.182C86.2229 137.182 80.5847 135.259 79.1768 134.899C77.7689 134.539 71.9161 131.179 71.3731 131.179C70.8301 131.179 66.3885 129.739 66.3885 129.739C66.3885 129.739 65.7381 129.26 58.692 128.539C51.6459 127.819 43.7349 126.977 40.9158 126.858C38.0967 126.739 34.4127 126.498 33.0047 125.896C31.5968 125.295 29.1029 121.096 28.6704 118.575C28.238 116.054 32.7869 113.894 34.7378 112.932C36.6887 111.971 43.9527 110.771 45.2533 110.771C46.554 110.771 50.3745 111.823 50.3745 111.823Z" fill="white" stroke="#263238" stroke-miterlimit="10"/>
<path d="M52.8394 115.334L50.6707 118.816L53.5971 116.656" fill="white"/>
<path d="M52.8394 115.334L50.6707 118.816L53.5971 116.656" stroke="#263238" stroke-miterlimit="10"/>
<path d="M86.1116 125.777C86.1116 125.777 89.2559 123.015 89.9062 122.176C90.5565 121.337 92.7253 116.774 93.1577 115.334C93.5902 113.893 94.6762 113.173 95.4338 114.254C96.1915 115.334 96.7345 117.495 97.1669 118.456C97.5994 119.418 96.9523 124.095 95.6517 125.658C94.3511 127.221 92.553 131.006 92.1823 131.78C91.2068 133.818 89.6883 134.06 88.7129 134.179C87.7374 134.297 85.354 131.42 85.354 131.42L86.1116 125.777Z" fill="white" stroke="#263238" stroke-miterlimit="10"/>
<path d="M37.8824 117.736C37.8824 117.736 41.134 117.016 44.0604 117.376C46.9868 117.736 52.9469 119.774 55.4408 120.494C57.9347 121.215 62.3764 121.575 64.4379 122.417C66.4993 123.26 71.9164 124.337 76.0329 124.337C80.1494 124.337 86.4379 124.938 86.4379 124.938C86.4379 124.938 85.573 131.899 85.7876 133.221C86.0014 134.284 86.2917 135.327 86.6557 136.339C86.6557 136.339 78.309 137.059 75.9256 137.42C73.5422 137.78 63.8948 136.102 62.2691 135.619C60.6433 135.136 58.2599 134.42 56.7414 134.42C55.223 134.42 52.2966 135.14 48.0695 135.619C43.8425 136.098 37.8824 134.06 37.1248 133.941C36.3672 133.822 33.6554 132.738 33.0051 132.259C32.3548 131.78 28.5602 124.337 29.8608 121.215C31.1614 118.092 32.7872 117.613 32.7872 117.613" fill="white"/>
<path d="M37.8824 117.736C37.8824 117.736 41.134 117.016 44.0604 117.376C46.9868 117.736 52.9469 119.774 55.4408 120.494C57.9347 121.215 62.3764 121.575 64.4379 122.417C66.4993 123.26 71.9164 124.337 76.0329 124.337C80.1494 124.337 86.4379 124.938 86.4379 124.938C86.4379 124.938 85.573 131.899 85.7876 133.221C86.0014 134.284 86.2917 135.327 86.6557 136.339C86.6557 136.339 78.309 137.059 75.9256 137.42C73.5422 137.78 63.8948 136.102 62.2691 135.619C60.6433 135.136 58.2599 134.42 56.7414 134.42C55.223 134.42 52.2966 135.14 48.0695 135.619C43.8425 136.098 37.8824 134.06 37.1248 133.941C36.3672 133.822 33.6554 132.738 33.0051 132.259C32.3548 131.78 28.5602 124.337 29.8608 121.215C31.1614 118.092 32.7872 117.613 32.7872 117.613" stroke="#263238" stroke-miterlimit="10"/>
<path d="M57.8213 129.846C59.912 130.307 62.1263 131.712 65.121 133.012C69.1172 134.744 77.116 134.585 78.1468 134.744C79.1775 134.902 81.795 134.744 81.795 134.744" fill="white"/>
<path d="M57.8213 129.846C59.912 130.307 62.1263 131.712 65.121 133.012C69.1172 134.744 77.116 134.585 78.1468 134.744C79.1775 134.902 81.795 134.744 81.795 134.744" stroke="#263238" stroke-miterlimit="10"/>
<path d="M41.7007 131.474L42.894 131.665C46.3667 132.241 52.9738 130.128 55.7442 129.742" fill="white"/>
<path d="M41.7007 131.474L42.894 131.665C46.3667 132.241 52.9738 130.128 55.7442 129.742" stroke="#263238" stroke-miterlimit="10"/>
<path d="M38.2041 131.089C38.2041 131.089 38.8284 131.089 40.4574 131.301Z" fill="white"/>
<path d="M38.2041 131.089C38.2041 131.089 38.8284 131.089 40.4574 131.301" stroke="#263238" stroke-miterlimit="10"/>
<path d="M17.1246 110.472C17.1246 110.472 13.2227 110.472 12.4423 114.794C11.662 119.115 14.7184 136.94 14.9623 141.982C15.2062 147.024 15.9898 154.046 15.9898 154.046H29.8089L32.8979 110.472H17.1246Z" fill="#263238" stroke="#263238" stroke-miterlimit="10"/>
<path d="M32.8972 110.472C32.8972 110.472 28.9953 110.472 28.0199 114.794C27.0444 119.115 29.3205 136.94 29.3205 141.982C29.3205 147.024 29.8082 154.046 29.8082 154.046H34.6856C34.6856 154.046 35.1733 141.082 35.1733 139.281C35.1733 137.481 37.1242 118.755 36.1488 114.974C35.1733 111.192 34.3604 110.832 32.8972 110.472Z" fill="#636363" stroke="#263238" stroke-miterlimit="10"/>
<path d="M64.6401 163.228H63.0956L62.325 151.885H65.4139L64.6401 163.228Z" fill="white" stroke="#263238" stroke-miterlimit="10"/>
<path d="M77.808 163.229H76.2635L75.4929 151.885H78.5819L77.808 163.229Z" fill="white" stroke="#263238" stroke-miterlimit="10"/>
<path d="M83.9868 163.229H82.4423L81.6716 151.885H84.7606L83.9868 163.229Z" fill="white" stroke="#263238" stroke-miterlimit="10"/>
<path d="M96.9921 163.229H95.4476L94.677 151.885H97.766L96.9921 163.229Z" fill="white" stroke="#263238" stroke-miterlimit="10"/>
<path d="M62.7308 137.12H96.6933C97.3185 137.12 97.9181 137.395 98.3602 137.885C98.8023 138.374 99.0507 139.039 99.0507 139.731V158.187H60.3572V139.731C60.3572 139.387 60.4187 139.046 60.5382 138.728C60.6576 138.41 60.8327 138.121 61.0534 137.878C61.274 137.636 61.5358 137.444 61.8237 137.314C62.1116 137.184 62.4199 137.118 62.7308 137.12V137.12Z" fill="#263238" stroke="#263238" stroke-miterlimit="10"/>
<path d="M96.7089 137.121H84.353C83.7278 137.121 83.1282 137.396 82.6861 137.885C82.244 138.375 81.9956 139.039 81.9956 139.731V158.187H99.0663V139.731C99.0654 139.039 98.8168 138.376 98.3749 137.886C97.933 137.397 97.3338 137.122 96.7089 137.121V137.121Z" fill="#636363" stroke="#263238" stroke-miterlimit="10"/>
</g>
<defs>
<clipPath id="clip0_107_844">
<rect width="186" height="164" fill="white"/>
</clipPath>
</defs>
</svg>
