<svg width="241" height="164" viewBox="0 0 241 164" fill="none" xmlns="http://www.w3.org/2000/svg">
<g clip-path="url(#clip0_107_1168)">
<path d="M123.597 73.7393C120.478 71.3128 116.741 70.1877 112.999 70.5485C109.256 70.9092 105.731 72.7345 103.001 75.7248C100.271 78.7151 98.4982 82.6927 97.9741 87.005C97.45 91.3173 98.2055 95.7082 100.117 99.457" stroke="#263238" stroke-width="0.969642" stroke-linecap="round" stroke-linejoin="round"/>
<path d="M129.482 81.8843C129.16 81.0434 128.787 80.2298 128.366 79.4495" stroke="#263238" stroke-width="0.969642" stroke-linecap="round" stroke-linejoin="round"/>
<path d="M128.071 100.392C129.305 98.262 130.16 95.8677 130.585 93.3495C131.011 90.8313 130.998 88.24 130.548 85.7275" stroke="#263238" stroke-width="0.969642" stroke-linecap="round" stroke-linejoin="round"/>
<path d="M97.9071 70.5979C96.7812 71.908 95.7723 73.3464 94.8955 74.8914" stroke="#263238" stroke-width="0.969642" stroke-linecap="round" stroke-linejoin="round"/>
<path d="M132.722 106.158C136.054 101.163 137.768 94.9712 137.566 88.6613C137.364 82.3514 135.258 76.324 131.616 71.6304C127.973 66.9369 123.026 63.875 117.636 62.9788C112.246 62.0826 106.756 63.409 102.124 66.7266" stroke="#263238" stroke-width="0.969642" stroke-linecap="round" stroke-linejoin="round"/>
<path d="M95.9216 106.158C93.6233 102.708 92.0788 98.6645 91.4198 94.3725C90.7609 90.0805 91.0072 85.6673 92.1376 81.5095" stroke="#263238" stroke-width="0.969642" stroke-linecap="round" stroke-linejoin="round"/>
<path d="M88.6377 112.973C90.0839 115.115 91.7244 117.07 93.531 118.805" stroke="#263238" stroke-width="0.969642" stroke-linecap="round" stroke-linejoin="round"/>
<path d="M132.804 58.4472C126.979 53.8209 120.017 51.5096 112.962 51.8602C105.908 52.2107 99.1422 55.2041 93.6792 60.3914C88.2162 65.5787 84.3507 72.6802 82.6626 80.6308C80.9745 88.5813 81.5547 96.9523 84.3162 104.488" stroke="#263238" stroke-width="0.969642" stroke-linecap="round" stroke-linejoin="round"/>
<path d="M144.783 75.9884C143.906 73.3664 142.779 70.8662 141.424 68.5339" stroke="#263238" stroke-width="0.969642" stroke-linecap="round" stroke-linejoin="round"/>
<path d="M136.9 117.002C140.09 113.474 142.627 109.23 144.359 104.53C146.091 99.8296 146.982 94.77 146.976 89.6584" stroke="#263238" stroke-width="0.969642" stroke-linecap="round" stroke-linejoin="round"/>
<path d="M68.7407 89.6584C68.7408 102.216 72.5751 114.368 79.5639 123.96C86.5527 133.552 96.2446 139.965 106.921 142.061" stroke="#263238" stroke-width="0.969642" stroke-linecap="round" stroke-linejoin="round"/>
<path d="M151.159 121.28C156.741 112.52 159.868 101.983 160.117 91.0941C160.367 80.2055 157.725 69.491 152.551 60.4003C147.377 51.3095 139.92 44.2815 131.188 40.2669C122.457 36.2524 112.872 35.4452 103.732 37.9546" stroke="#263238" stroke-width="0.969642" stroke-linecap="round" stroke-linejoin="round"/>
<path d="M68.7407 89.6583C68.7411 77.7456 72.1921 66.1783 78.54 56.8124C84.888 47.4464 93.7648 40.8248 103.746 38.0098" stroke="#263238" stroke-width="0.969642" stroke-linecap="round" stroke-linejoin="round"/>
<path d="M141.424 132.507C142.588 131.515 143.708 130.463 144.783 129.35" stroke="#263238" stroke-width="0.969642" stroke-linecap="round" stroke-linejoin="round"/>
<path d="M121.964 142.061C127.176 141.049 132.195 138.993 136.798 135.984" stroke="#263238" stroke-width="0.969642" stroke-linecap="round" stroke-linejoin="round"/>
<path d="M114.343 137.302C109.703 137.295 105.253 135.155 101.972 131.349C98.6902 127.544 96.8443 122.384 96.8389 117.002V110.167C96.8389 109.874 96.9393 109.593 97.1179 109.386C97.2966 109.179 97.539 109.062 97.7917 109.062H100.174C100.426 109.062 100.669 109.179 100.847 109.386C101.026 109.593 101.127 109.874 101.127 110.167C101.127 110.46 101.026 110.741 100.847 110.949C100.669 111.156 100.426 111.272 100.174 111.272H98.7547V117.002C98.7547 121.8 100.398 126.401 103.324 129.793C106.249 133.186 110.217 135.092 114.354 135.092C118.491 135.092 122.458 133.186 125.384 129.793C128.309 126.401 129.953 121.8 129.953 117.002V111.272H128.523C128.271 111.272 128.028 111.156 127.85 110.949C127.671 110.741 127.57 110.46 127.57 110.167C127.57 109.874 127.671 109.593 127.85 109.386C128.028 109.179 128.271 109.062 128.523 109.062H130.905C131.158 109.062 131.4 109.179 131.579 109.386C131.758 109.593 131.858 109.874 131.858 110.167V117.002C131.853 122.386 130.005 127.547 126.722 131.353C123.438 135.159 118.986 137.298 114.343 137.302V137.302Z" fill="#263238"/>
<path d="M132.802 154.286V152.076C132.802 151.786 132.753 151.498 132.658 151.23C132.562 150.961 132.422 150.718 132.245 150.512C132.068 150.307 131.857 150.144 131.626 150.033C131.395 149.923 131.147 149.866 130.896 149.866H97.7928C97.5425 149.866 97.2945 149.923 97.0631 150.033C96.8316 150.144 96.6214 150.307 96.4444 150.512C96.2673 150.718 96.127 150.961 96.0314 151.23C95.9357 151.498 95.8868 151.786 95.8872 152.076V154.286H132.802Z" fill="#263238"/>
<path d="M116.2 152.557C116.232 152.4 116.248 152.238 116.248 152.076V136.196H112.437V152.076C112.437 152.238 112.453 152.4 112.484 152.557H116.2Z" fill="#263238"/>
<path d="M126.131 89.6582C126.158 87.8433 125.872 86.0404 125.292 84.3546C124.711 82.6689 123.847 81.134 122.75 79.8396C121.653 78.5452 120.344 77.5172 118.9 76.8154C117.457 76.1136 115.907 75.7522 114.342 75.7522C112.777 75.7522 111.227 76.1136 109.783 76.8154C108.34 77.5172 107.031 78.5452 105.934 79.8396C104.836 81.134 103.972 82.6689 103.392 84.3546C102.811 86.0404 102.526 87.8433 102.552 89.6582V117.002C102.605 120.588 103.87 124.006 106.075 126.52C108.281 129.034 111.249 130.443 114.342 130.443C117.434 130.443 120.403 129.034 122.608 126.52C124.813 124.006 126.079 120.588 126.131 117.002V89.6582Z" stroke="#263238" stroke-width="0.969642" stroke-linecap="round" stroke-linejoin="round"/>
<path d="M126.131 89.6582C126.158 87.8433 125.872 86.0404 125.292 84.3546C124.711 82.6689 123.847 81.134 122.75 79.8396C121.653 78.5452 120.344 77.5172 118.9 76.8154C117.457 76.1136 115.907 75.7522 114.342 75.7522C112.777 75.7522 111.227 76.1136 109.783 76.8154C108.34 77.5172 107.031 78.5452 105.934 79.8396C104.836 81.134 103.972 82.6689 103.392 84.3546C102.811 86.0404 102.526 87.8433 102.552 89.6582V117.002C102.605 120.588 103.87 124.006 106.075 126.52C108.281 129.034 111.249 130.443 114.342 130.443C117.434 130.443 120.403 129.034 122.608 126.52C124.813 124.006 126.079 120.588 126.131 117.002V89.6582Z" fill="#E8E8E8"/>
<path d="M109.461 91.0989H102.553V94.4137H109.461C109.84 94.4137 110.204 94.2391 110.472 93.9283C110.74 93.6174 110.89 93.1959 110.89 92.7563C110.89 92.3167 110.74 91.8951 110.472 91.5843C110.204 91.2735 109.84 91.0989 109.461 91.0989V91.0989Z" fill="white"/>
<path d="M126.132 91.0989H119.228C118.849 91.0989 118.485 91.2735 118.217 91.5843C117.949 91.8951 117.798 92.3167 117.798 92.7563C117.798 93.1959 117.949 93.6174 118.217 93.9283C118.485 94.2391 118.849 94.4137 119.228 94.4137H126.132V91.0989Z" fill="white"/>
<path d="M114.344 91.0989C114.061 91.0989 113.785 91.1961 113.55 91.3782C113.315 91.5603 113.132 91.8192 113.023 92.122C112.915 92.4249 112.887 92.7581 112.942 93.0796C112.997 93.4011 113.133 93.6965 113.333 93.9283C113.533 94.1601 113.788 94.3179 114.065 94.3819C114.342 94.4458 114.63 94.413 114.891 94.2875C115.152 94.1621 115.375 93.9497 115.532 93.6771C115.689 93.4045 115.773 93.0841 115.773 92.7563C115.773 92.3167 115.622 91.8951 115.354 91.5843C115.086 91.2735 114.723 91.0989 114.344 91.0989V91.0989Z" fill="white"/>
<path d="M114.344 97.7996C114.061 97.7996 113.785 97.8968 113.55 98.0789C113.315 98.261 113.132 98.5199 113.023 98.8227C112.915 99.1256 112.887 99.4588 112.942 99.7803C112.997 100.102 113.133 100.397 113.333 100.629C113.533 100.861 113.788 101.019 114.065 101.083C114.342 101.147 114.63 101.114 114.891 100.988C115.152 100.863 115.375 100.65 115.532 100.378C115.689 100.105 115.773 99.7848 115.773 99.457C115.773 99.0174 115.622 98.5958 115.354 98.285C115.086 97.9742 114.723 97.7996 114.344 97.7996V97.7996Z" fill="white"/>
<path d="M114.344 104.489C114.061 104.489 113.785 104.586 113.55 104.768C113.315 104.95 113.132 105.209 113.023 105.512C112.915 105.815 112.887 106.148 112.942 106.469C112.997 106.791 113.133 107.086 113.333 107.318C113.533 107.55 113.788 107.708 114.065 107.772C114.342 107.835 114.63 107.803 114.891 107.677C115.152 107.552 115.375 107.339 115.532 107.067C115.689 106.794 115.773 106.474 115.773 106.146C115.773 105.706 115.622 105.285 115.354 104.974C115.086 104.663 114.723 104.489 114.344 104.489V104.489Z" fill="white"/>
<path d="M109.461 97.7996H102.553V101.114H109.461C109.84 101.114 110.204 100.94 110.472 100.629C110.74 100.318 110.89 99.8966 110.89 99.457C110.89 99.0174 110.74 98.5958 110.472 98.285C110.204 97.9742 109.84 97.7996 109.461 97.7996V97.7996Z" fill="white"/>
<path d="M126.132 97.7998H119.228C118.849 97.7998 118.485 97.9744 118.217 98.2853C117.949 98.5961 117.798 99.0176 117.798 99.4572C117.798 99.8968 117.949 100.318 118.217 100.629C118.485 100.94 118.849 101.115 119.228 101.115H126.132V97.7998Z" fill="white"/>
<path d="M109.461 104.489H102.553V107.803H109.461C109.84 107.803 110.204 107.629 110.472 107.318C110.74 107.007 110.89 106.586 110.89 106.146C110.89 105.706 110.74 105.285 110.472 104.974C110.204 104.663 109.84 104.489 109.461 104.489V104.489Z" fill="white"/>
<path d="M126.132 104.489H119.228C118.849 104.489 118.485 104.663 118.217 104.974C117.949 105.285 117.798 105.706 117.798 106.146C117.798 106.586 117.949 107.007 118.217 107.318C118.485 107.629 118.849 107.803 119.228 107.803H126.132V104.489Z" fill="white"/>
<path d="M126.131 89.6582C126.158 87.8433 125.872 86.0404 125.292 84.3546C124.711 82.6689 123.847 81.134 122.75 79.8396C121.653 78.5452 120.344 77.5172 118.9 76.8154C117.457 76.1136 115.907 75.7522 114.342 75.7522C112.777 75.7522 111.227 76.1136 109.783 76.8154C108.34 77.5172 107.031 78.5452 105.934 79.8396C104.836 81.134 103.972 82.6689 103.392 84.3546C102.811 86.0404 102.526 87.8433 102.552 89.6582V117.002C102.605 120.588 103.87 124.006 106.075 126.52C108.281 129.034 111.249 130.443 114.342 130.443C117.434 130.443 120.403 129.034 122.608 126.52C124.813 124.006 126.079 120.588 126.131 117.002V89.6582Z" stroke="#263238" stroke-width="0.969642" stroke-miterlimit="10"/>
<path d="M102.553 117.002C102.606 120.588 103.871 124.006 106.076 126.52C108.281 129.035 111.25 130.443 114.343 130.443C117.435 130.443 120.404 129.035 122.609 126.52C124.814 124.006 126.079 120.588 126.132 117.002H102.553Z" fill="#263238" stroke="#263238" stroke-width="0.969642" stroke-miterlimit="10"/>
<path d="M214.344 110.115C229.066 93.0428 229.066 65.363 214.344 48.2906C199.622 31.2182 175.754 31.2182 161.032 48.2906C146.31 65.363 146.31 93.0428 161.032 110.115C175.754 127.188 199.622 127.188 214.344 110.115Z" fill="#E8E8E8"/>
<path d="M182.283 61.1152H155.948C154.622 61.1152 153.546 62.3626 153.546 63.9013V94.4413C153.546 95.98 154.622 97.2274 155.948 97.2274H182.283C183.61 97.2274 184.686 95.98 184.686 94.4413V63.9013C184.686 62.3626 183.61 61.1152 182.283 61.1152Z" fill="white"/>
<g opacity="0.1">
<path opacity="0.1" d="M156.482 97.2313H166.875L173.497 61.1152H162.682L156.07 97.1918C156.207 97.2169 156.344 97.2301 156.482 97.2313V97.2313Z" fill="black"/>
<path opacity="0.1" d="M177.9 61.1152H175.3L168.682 97.2313H171.281L177.9 61.1152Z" fill="black"/>
</g>
<path d="M181.748 98.1312H156.482C155.499 98.1291 154.556 97.6759 153.861 96.8706C153.165 96.0654 152.773 94.9735 152.769 93.8337V64.5209C152.771 63.3797 153.163 62.2859 153.858 61.4789C154.554 60.6719 155.498 60.2177 156.482 60.2156H181.748C182.733 60.2166 183.677 60.6704 184.374 61.4775C185.07 62.2846 185.462 63.379 185.464 64.5209V93.8337C185.461 94.9742 185.068 96.0667 184.371 96.872C183.675 97.6774 182.732 98.1301 181.748 98.1312V98.1312ZM156.482 62.019C155.909 62.019 155.36 62.2825 154.955 62.7516C154.55 63.2207 154.322 63.857 154.321 64.5209V93.8337C154.321 94.4987 154.548 95.1364 154.953 95.607C155.359 96.0776 155.908 96.3425 156.482 96.3435H181.748C182.032 96.3435 182.314 96.2786 182.576 96.1524C182.838 96.0262 183.077 95.8413 183.277 95.6082C183.478 95.3751 183.637 95.0983 183.746 94.7939C183.854 94.4894 183.91 94.1631 183.909 93.8337V64.5209C183.909 64.192 183.853 63.8664 183.745 63.5626C183.636 63.2588 183.477 62.9828 183.276 62.7504C183.075 62.518 182.837 62.3338 182.575 62.2083C182.313 62.0828 182.032 62.0185 181.748 62.019H156.482Z" fill="white" stroke="#263238" stroke-width="0.932567" stroke-miterlimit="10"/>
<path d="M218.907 61.1152H192.572C191.245 61.1152 190.169 62.3626 190.169 63.9013V94.4413C190.169 95.98 191.245 97.2274 192.572 97.2274H218.907C220.234 97.2274 221.309 95.98 221.309 94.4413V63.9013C221.309 62.3626 220.234 61.1152 218.907 61.1152Z" fill="white"/>
<g opacity="0.1">
<path opacity="0.1" d="M195.826 97.2313H206.218L212.837 61.1152H202.026L195.397 97.1918C195.539 97.2177 195.682 97.2309 195.826 97.2313V97.2313Z" fill="black"/>
<path opacity="0.1" d="M217.244 61.1152H214.644L208.022 97.2313H210.625L217.244 61.1152Z" fill="black"/>
</g>
<path d="M218.373 98.1312H193.106C192.123 98.1291 191.181 97.6759 190.485 96.8706C189.79 96.0654 189.397 94.9735 189.394 93.8337V64.5209C189.395 63.3797 189.787 62.2859 190.483 61.4789C191.179 60.6719 192.122 60.2177 193.106 60.2156H218.373C219.357 60.2166 220.301 60.6704 220.998 61.4775C221.695 62.2846 222.087 63.379 222.089 64.5209V93.8337C222.085 94.9742 221.692 96.0667 220.996 96.872C220.299 97.6774 219.356 98.1301 218.373 98.1312V98.1312ZM193.106 62.019C192.534 62.019 191.985 62.2825 191.579 62.7516C191.174 63.2207 190.946 63.857 190.945 64.5209V93.8337C190.945 94.4987 191.173 95.1364 191.578 95.607C191.983 96.0776 192.533 96.3425 193.106 96.3435H218.373C218.657 96.3435 218.938 96.2786 219.2 96.1524C219.463 96.0262 219.701 95.8413 219.902 95.6082C220.103 95.3751 220.262 95.0983 220.37 94.7939C220.478 94.4894 220.534 94.1631 220.533 93.8337V64.5209C220.533 64.192 220.478 63.8664 220.369 63.5626C220.26 63.2588 220.101 62.9828 219.9 62.7504C219.7 62.518 219.461 62.3338 219.199 62.2083C218.937 62.0828 218.656 62.0185 218.373 62.019H193.106Z" fill="white" stroke="#263238" stroke-width="0.932567" stroke-miterlimit="10"/>
<path d="M188.707 163.473C198.072 163.473 205.664 162.178 205.664 160.581C205.664 158.983 198.072 157.688 188.707 157.688C179.342 157.688 171.75 158.983 171.75 160.581C171.75 162.178 179.342 163.473 188.707 163.473Z" fill="#E8E8E8"/>
<path d="M196.201 143.73C196.201 143.73 196.157 151.832 195.418 153.166C194.537 154.744 193.911 156.95 196.245 157.55C198.579 158.15 199.968 161.137 202.748 161.334C205.528 161.532 205.811 160.151 204.599 159.042C203.388 157.933 200.312 154.859 199.907 153.363C199.502 151.867 200.288 143.73 200.288 143.73H196.201Z" fill="white"/>
<path opacity="0.1" d="M199.915 148.434C200.065 146.047 200.286 143.73 200.286 143.73H196.202C196.202 143.73 196.202 145.802 196.083 148.024C197.348 148.283 198.63 148.421 199.915 148.434V148.434Z" fill="black"/>
<path d="M196.201 143.73C196.201 143.73 196.157 151.832 195.418 153.166C194.537 154.744 193.911 156.95 196.245 157.55C198.579 158.15 199.968 161.137 202.748 161.334C205.528 161.532 205.811 160.151 204.599 159.042C203.388 157.933 200.312 154.859 199.907 153.363C199.502 151.867 200.288 143.73 200.288 143.73H196.201Z" stroke="#263238" stroke-width="0.932567" stroke-linecap="round" stroke-linejoin="round"/>
<path d="M204.586 159.042C203.451 157.999 202.374 156.875 201.36 155.675C200.39 156.528 197.549 155.723 196.712 154.957C195.691 154.026 195.905 153.548 195.422 153.13L195.405 153.166C194.524 154.744 193.898 156.95 196.232 157.55C198.566 158.15 199.955 161.137 202.735 161.334C205.515 161.532 205.804 160.131 204.586 159.042Z" fill="#BFBFBF" stroke="#263238" stroke-width="0.932567" stroke-miterlimit="10"/>
<path d="M180.503 140.794C180.503 140.794 177.441 148.205 176.284 149.109C174.885 150.19 173.497 151.93 175.413 153.481C177.329 155.032 177.499 158.371 179.973 159.748C182.446 161.125 183.219 159.961 182.521 158.442C181.824 156.923 180.139 152.763 180.326 151.216C180.514 149.669 184.281 142.373 184.281 142.373L180.503 140.794Z" fill="white"/>
<path opacity="0.1" d="M180.503 140.794C180.503 140.794 179.408 143.454 178.281 145.778C179.191 146.824 180.238 147.694 181.385 148.355C182.559 145.719 184.281 142.385 184.281 142.385L180.503 140.794Z" fill="black"/>
<path d="M180.503 140.794C180.503 140.794 177.441 148.205 176.284 149.109C174.885 150.19 173.497 151.93 175.413 153.481C177.329 155.032 177.499 158.371 179.973 159.748C182.446 161.125 183.219 159.961 182.521 158.442C181.824 156.923 180.139 152.763 180.326 151.216C180.514 149.669 184.281 142.373 184.281 142.373L180.503 140.794Z" stroke="#263238" stroke-width="0.932567" stroke-linecap="round" stroke-linejoin="round"/>
<path d="M182.522 158.422C181.87 156.976 181.301 155.481 180.82 153.947C179.612 154.314 177.101 152.439 176.825 151.295C176.291 149.089 176.608 149.657 176.318 149.065L176.291 149.089C174.893 150.17 173.504 151.911 175.42 153.462C177.336 155.012 177.506 158.351 179.98 159.728C182.454 161.105 183.219 159.941 182.522 158.422Z" fill="#BFBFBF" stroke="#263238" stroke-width="0.932567" stroke-miterlimit="10"/>
<path d="M196.693 88.3523C196.693 88.3523 201.379 114.398 201.692 122.894C202.005 131.39 200.787 146.544 200.787 146.544L195.584 146.149C195.584 146.149 195.55 141.67 195.029 135.435C194.72 131.729 193.746 127.404 193.855 123.032C193.855 123.032 188.911 106.028 189.091 98.5652C189.272 91.1028 189.091 88.9561 189.091 88.9561L196.693 88.3523Z" fill="#263238" stroke="#263238" stroke-width="0.932567" stroke-linecap="round" stroke-linejoin="round"/>
<path d="M184.168 88.3525C184.168 88.3525 179.309 93.0091 182.126 102.397C183.236 106.123 187.516 123.162 187.516 123.162C186.34 124.722 185.345 126.453 184.556 128.312C182.603 132.787 181.18 139.756 178.771 143.754L182.337 146.544C182.337 146.544 193.853 129.804 194.588 124.488C195.323 119.173 191.865 97.9183 191.865 97.9183L190.759 89.2799L184.168 88.3525Z" fill="#263238" stroke="#263238" stroke-width="0.932567" stroke-linecap="round" stroke-linejoin="round"/>
<path d="M205.718 70.7009C205.654 69.8188 205.398 68.9701 204.973 68.2345C205.33 67.69 205.638 67.1057 205.895 66.4902C206.154 65.7681 205.81 64.746 205.092 65.9693C204.374 67.1927 203.585 68.0845 203.87 69.6117C204.021 70.5977 203.866 71.6135 203.435 72.4806L205.092 73.9842L208.396 70.9456L205.718 70.7009Z" fill="white" stroke="#263238" stroke-width="0.932567" stroke-linecap="round" stroke-linejoin="round"/>
<path d="M207.275 62.8946L204.497 63.7705C204.241 63.8511 204.091 64.1569 204.16 64.4534L205.743 71.205C205.812 71.5016 206.076 71.6766 206.332 71.596L209.11 70.7201C209.366 70.6395 209.517 70.3337 209.447 70.0372L207.864 63.2856C207.795 62.989 207.531 62.814 207.275 62.8946Z" fill="#263238" stroke="#263238" stroke-width="0.932567" stroke-linecap="round" stroke-linejoin="round"/>
<path d="M207.883 63.3695L204.179 64.5374L205.724 71.1252L209.428 69.9574L207.883 63.3695Z" fill="#E8E8E8" stroke="#263238" stroke-width="0.932567" stroke-linecap="round" stroke-linejoin="round"/>
<path d="M207.14 65.6497C207.095 65.4466 206.982 65.2727 206.826 65.1661C206.671 65.0596 206.485 65.0291 206.31 65.0814C206.135 65.1337 205.985 65.2646 205.893 65.4452C205.801 65.6257 205.775 65.8413 205.82 66.0443C205.864 66.2416 206.085 67.169 206.16 67.4965L207.48 67.0822C207.405 66.7783 207.181 65.8154 207.14 65.6497Z" fill="#263238"/>
<path d="M207.019 68.1514C207.183 68.1002 207.324 67.98 207.415 67.8143C207.506 67.6486 207.541 67.4494 207.512 67.2556L206.202 67.6502C206.259 67.8376 206.375 67.9933 206.526 68.0862C206.677 68.1791 206.853 68.2024 207.019 68.1514V68.1514Z" fill="#263238"/>
<path d="M208.25 68.9724L207.392 69.2447L207.215 68.4949C207.459 68.3847 207.66 68.1739 207.778 67.9029C207.896 67.632 207.923 67.32 207.855 67.0269L207.76 66.6323C207.758 66.6238 207.755 66.6159 207.751 66.6089C207.747 66.6019 207.741 66.596 207.735 66.5915C207.728 66.5871 207.721 66.5842 207.714 66.5831C207.707 66.5819 207.699 66.5826 207.692 66.5849L207.549 66.6283C207.542 66.6305 207.535 66.6345 207.529 66.64C207.523 66.6455 207.518 66.6523 207.514 66.6601C207.511 66.6679 207.509 66.6765 207.508 66.6853C207.508 66.6941 207.509 66.7029 207.511 66.7112C207.513 66.7196 207.516 66.7276 207.52 66.7346C207.525 66.7416 207.53 66.7475 207.537 66.7519C207.543 66.7564 207.55 66.7593 207.558 66.7604C207.565 66.7615 207.572 66.7609 207.58 66.7585L207.665 66.7309L207.743 67.0664C207.776 67.2055 207.784 67.3507 207.768 67.4938C207.753 67.6368 207.713 67.7748 207.651 67.9C207.589 68.0251 207.507 68.1349 207.408 68.2231C207.31 68.3113 207.198 68.3762 207.078 68.414C206.958 68.4518 206.832 68.4619 206.709 68.4436C206.586 68.4253 206.467 68.379 206.359 68.3074C206.251 68.2357 206.156 68.1401 206.08 68.0261C206.004 67.912 205.948 67.7817 205.916 67.6425L205.834 67.3071L205.919 67.2834C205.933 67.2779 205.946 67.2664 205.953 67.2511C205.961 67.2358 205.963 67.2178 205.96 67.2005C205.958 67.1919 205.954 67.1839 205.95 67.1769C205.945 67.1698 205.939 67.1639 205.933 67.1595C205.926 67.1551 205.919 67.1523 205.911 67.1512C205.903 67.1501 205.896 67.1508 205.888 67.1532L205.749 67.1966C205.741 67.1989 205.734 67.2028 205.728 67.2082C205.722 67.2137 205.717 67.2204 205.713 67.2281C205.71 67.2358 205.707 67.2443 205.706 67.2532C205.705 67.262 205.706 67.2709 205.708 67.2795L205.803 67.6741C205.872 67.9668 206.032 68.2197 206.252 68.3843C206.471 68.5489 206.736 68.6136 206.994 68.5659L207.168 69.3157L206.31 69.5841C206.295 69.5886 206.282 69.5966 206.269 69.6074C206.257 69.6182 206.247 69.6317 206.24 69.6471C206.232 69.6626 206.227 69.6796 206.225 69.6972C206.223 69.7148 206.224 69.7327 206.229 69.7498L206.259 69.88L208.424 69.1973L208.393 69.0671C208.389 69.0499 208.382 69.0339 208.373 69.0198C208.363 69.0057 208.352 68.9939 208.338 68.9851C208.325 68.9763 208.311 68.9706 208.295 68.9685C208.28 68.9663 208.265 68.9676 208.25 68.9724Z" fill="#263238"/>
<path d="M208.601 64.9079C208.261 64.9513 207.979 65.5708 208.084 66.443C208.19 67.3151 208.88 66.368 208.921 66.0917C208.962 65.8155 209.251 64.8329 208.601 64.9079Z" fill="white" stroke="#263238" stroke-width="0.932567" stroke-linecap="round" stroke-linejoin="round"/>
<path d="M209.348 66.2099C209.257 66.2084 209.167 66.2304 209.085 66.2745C209.003 66.3186 208.93 66.3835 208.872 66.4646C208.814 66.5457 208.773 66.6408 208.751 66.7428C208.729 66.8449 208.727 66.9514 208.746 67.0544C208.81 67.9029 208.953 67.7056 208.953 67.7056C208.957 68.0552 209.018 68.4009 209.134 68.7237C209.304 69.0986 209.753 68.5304 209.753 68.191C209.753 67.8516 209.705 66.0679 209.348 66.2099Z" fill="white" stroke="#263238" stroke-width="0.932567" stroke-linecap="round" stroke-linejoin="round"/>
<path d="M208.958 67.6899C208.958 67.6899 209.546 67.4887 209.686 66.9915Z" fill="white"/>
<path d="M208.958 67.6899C208.958 67.6899 209.546 67.4887 209.686 66.9915" stroke="#263238" stroke-width="0.932567" stroke-linecap="round" stroke-linejoin="round"/>
<path d="M203.842 71.2772C203.956 70.7311 203.965 70.1626 203.869 69.6119C203.583 68.0847 204.369 67.1889 205.09 65.9695C205.812 64.7501 206.152 65.7683 205.894 66.4904C205.637 67.1059 205.328 67.6902 204.971 68.2347C205.431 68.9491 205.691 69.8099 205.717 70.7011C205.717 70.9892 205.717 71.8494 205.717 71.8494" fill="white"/>
<path d="M203.842 71.2772C203.956 70.7311 203.965 70.1626 203.869 69.6119C203.583 68.0847 204.369 67.1889 205.09 65.9695C205.812 64.7501 206.152 65.7683 205.894 66.4904C205.637 67.1059 205.328 67.6902 204.971 68.2347C205.431 68.9491 205.691 69.8099 205.717 70.7011C205.717 70.9892 205.717 71.8494 205.717 71.8494" stroke="#263238" stroke-width="0.932567" stroke-linecap="round" stroke-linejoin="round"/>
<path d="M194.717 61.7387C195.901 61.4506 196.265 61.0994 196.265 61.0994C195.377 56.9519 198.562 43.0019 188.523 42.3586C178.485 41.7154 184.099 61.4822 184.099 61.4822L185.192 61.644L184.63 57.6701L185.937 61.7426C189.803 62.228 192.28 62.1372 193.839 61.9084C193.627 60.116 193.605 58.3004 193.774 56.502C193.97 58.2733 194.285 60.0242 194.717 61.7387V61.7387Z" fill="#263238"/>
<path d="M188.519 42.6071C188.129 42.1582 187.62 41.875 187.074 41.8033C186.529 41.7317 185.978 41.8759 185.511 42.2125" stroke="#263238" stroke-width="0.932567" stroke-linecap="round" stroke-linejoin="round"/>
<path d="M196.165 64.268V64.1423C196.145 64.1973 196.124 64.2366 196.165 64.268Z" fill="white" stroke="#263238" stroke-width="0.932567" stroke-linecap="round" stroke-linejoin="round"/>
<path d="M203.435 72.4807L198.671 77.6108L198.759 69.9235C198.775 68.7625 198.538 67.6158 198.069 66.5898C197.6 65.5639 196.915 64.6921 196.078 64.0554L196.258 84.2878C200.937 84.6312 205.106 73.9842 205.106 73.9842C204.936 73.6098 204.699 73.2819 204.411 73.0226C204.123 72.7633 203.79 72.5785 203.435 72.4807V72.4807Z" fill="white"/>
<path opacity="0.1" d="M197.939 81.8054C197.231 81.8804 197.071 80.3098 197.081 78.7826C196.883 79.3572 196.752 79.9596 196.69 80.5742C196.629 82.3145 196.629 84.039 196.652 85.5149C201.981 82.713 202.046 80.2151 203.414 77.6658C202.543 78.9483 199.303 81.6594 197.939 81.8054Z" fill="black"/>
<path d="M203.435 72.4807L198.671 77.6108L198.759 69.9235C198.775 68.7625 198.538 67.6158 198.069 66.5898C197.6 65.5639 196.915 64.6921 196.078 64.0554L196.258 84.2878C200.937 84.6312 205.106 73.9842 205.106 73.9842C204.936 73.6098 204.699 73.2819 204.411 73.0226C204.123 72.7633 203.79 72.5785 203.435 72.4807V72.4807Z" stroke="#263238" stroke-width="0.932567" stroke-linecap="round" stroke-linejoin="round"/>
<path d="M202.425 73.1432L203.469 71.9949L205.76 73.818L205.093 75.1045L202.425 73.1432Z" fill="#E8E8E8" stroke="#263238" stroke-width="0.932567" stroke-linecap="round" stroke-linejoin="round"/>
<path d="M197.959 73.7078C196.04 83.5734 196.993 90.0571 196.993 90.0571C196.993 90.0571 192.361 93.8652 182.625 90.6372C182.625 90.6372 184.395 85.5347 183.919 81.6437C183.629 79.2483 181.69 70.6376 181.69 70.6376C181.69 70.6376 180.771 66.8729 181.193 63.8342C182.006 63.2226 183.748 62.4846 186.828 62.2242C186.879 62.0244 186.915 61.8197 186.934 61.6125C187.031 60.609 187.053 59.5975 186.998 58.5897C186.954 57.4058 186.869 56.4626 186.869 56.4626H190.585C190.585 56.4626 190.633 57.5518 190.752 58.8304C190.816 59.5841 190.908 60.4089 191.024 61.1192C191.081 61.4748 191.155 61.8265 191.245 62.1729C194.954 62.8201 196.349 63.9408 196.618 64.9155C197.881 69.3116 198.367 71.6005 197.959 73.7078Z" fill="white" stroke="#263238" stroke-width="0.932567" stroke-linecap="round" stroke-linejoin="round"/>
<path d="M190.762 59.5249C190.459 60.3141 190.081 60.9376 188.771 60.9298C187.798 60.9298 186.92 59.9313 186.821 59.5486C186.927 58.6843 186.821 58.3647 186.777 57.386C188.029 57.3451 189.281 57.4296 190.52 57.6386C190.573 58.2717 190.653 58.9013 190.762 59.5249V59.5249Z" fill="#263238"/>
<path d="M193.234 51.0761C193.234 50.492 193.234 50.1329 193.234 50.1329C192.958 48.6018 191.325 48.5229 190.572 48.5268C189.779 48.5565 188.989 48.3967 188.252 48.0572C188.493 48.7272 188.893 49.3045 189.405 49.7225C186.608 49.0004 186.39 47.2877 186.496 46.3643C185.502 50.3934 184.212 50.5631 184.212 50.5631C184.212 50.5631 184.212 50.9222 184.27 51.5023C183.936 51.5912 183.641 51.817 183.439 52.1382C183.237 52.4594 183.142 52.8544 183.171 53.2505C183.167 53.6771 183.308 54.0885 183.562 54.3967C183.816 54.705 184.165 54.8856 184.532 54.9C184.606 54.8962 184.679 54.8843 184.75 54.8645C185.342 57.5321 186.557 60.4326 189.045 60.3182C191.532 60.2038 192.546 57.1967 192.948 54.4817C193.021 54.4895 193.095 54.4895 193.169 54.4817C193.538 54.4388 193.877 54.2283 194.112 53.8963C194.347 53.5642 194.46 53.1377 194.425 52.7098C194.426 52.3178 194.307 51.9381 194.088 51.6387C193.87 51.3393 193.567 51.1398 193.234 51.0761V51.0761Z" fill="white" stroke="#263238" stroke-width="0.932567" stroke-linecap="round" stroke-linejoin="round"/>
<path d="M188.252 55.5947L188.681 55.9538C188.735 56.0006 188.8 56.0259 188.868 56.0259C188.935 56.0259 189.001 56.0006 189.055 55.9538L189.45 55.6026" stroke="#263238" stroke-width="0.932567" stroke-linecap="round" stroke-linejoin="round"/>
<path d="M189.886 53.3493C189.886 53.3493 190.417 52.5364 191.475 53.1086" stroke="#263238" stroke-width="0.932567" stroke-linecap="round" stroke-linejoin="round"/>
<path d="M187.57 53.3493C187.57 53.3493 187.043 52.5364 185.981 53.1086" stroke="#263238" stroke-width="0.932567" stroke-linecap="round" stroke-linejoin="round"/>
<path d="M189.904 57.0269C189.609 57.2978 189.248 57.4533 188.872 57.471C188.496 57.4887 188.125 57.3678 187.812 57.1255" stroke="#263238" stroke-width="0.932567" stroke-linecap="round" stroke-linejoin="round"/>
<path d="M194.402 125.352C194.281 125.785 194.14 126.211 193.98 126.627" stroke="white" stroke-width="0.932567" stroke-linecap="round" stroke-linejoin="round"/>
<path d="M189.431 96.5962L190.54 97.7485C191.531 98.7762 192.181 100.171 192.381 101.695C193.331 108.699 194.855 115.901 194.668 123.51" stroke="white" stroke-width="0.932567" stroke-linecap="round" stroke-linejoin="round"/>
<path d="M193.631 96.801L191.872 99.7173L192.093 99.3582" stroke="white" stroke-width="0.932567" stroke-linecap="round" stroke-linejoin="round"/>
<path d="M186.679 85.1006L187.183 85.7004" stroke="#263238" stroke-width="0.932567" stroke-linecap="round" stroke-linejoin="round"/>
<path d="M183.035 76.8335C183.565 79.3508 184.508 81.7263 185.812 83.8302" stroke="#263238" stroke-width="0.932567" stroke-linecap="round" stroke-linejoin="round"/>
<path d="M183.132 50.1475L182.754 50.165L182.808 51.7226L183.186 51.705L183.132 50.1475Z" fill="white" stroke="#263238" stroke-width="0.932567" stroke-linecap="round" stroke-linejoin="round"/>
<path d="M194.651 49.5851L194.273 49.6028L194.327 51.1603L194.705 51.1426L194.651 49.5851Z" fill="white" stroke="#263238" stroke-width="0.932567" stroke-linecap="round" stroke-linejoin="round"/>
<path d="M188.465 43.0769C186.863 43.1525 185.348 43.9454 184.238 45.2891C183.129 46.6328 182.512 48.4227 182.517 50.2828C182.518 50.3177 182.524 50.3521 182.536 50.384C182.548 50.416 182.566 50.4448 182.588 50.4687C182.61 50.4926 182.635 50.5112 182.664 50.5233C182.692 50.5355 182.722 50.5409 182.752 50.5393H183.15C183.208 50.5362 183.263 50.5069 183.303 50.4575C183.344 50.4082 183.365 50.3426 183.364 50.2749C183.374 48.6791 183.913 47.1488 184.87 46.0018C185.827 44.8548 187.127 44.1792 188.502 44.1152C189.877 44.0512 191.221 44.6038 192.254 45.6582C193.287 46.7126 193.93 48.1879 194.05 49.7777C194.053 49.845 194.079 49.9081 194.123 49.9531C194.166 49.9982 194.223 50.0216 194.281 50.0184H194.679C194.709 50.0174 194.739 50.0094 194.766 49.9948C194.793 49.9802 194.817 49.9594 194.837 49.9336C194.857 49.9077 194.873 49.8775 194.882 49.8445C194.892 49.8116 194.896 49.7768 194.893 49.7422C194.779 47.8803 194.044 46.1433 192.844 44.8991C191.644 43.655 190.074 43.0014 188.465 43.0769V43.0769Z" fill="#E8E8E8" stroke="#263238" stroke-width="0.932567" stroke-linecap="round" stroke-linejoin="round"/>
<path d="M183.828 51.0996H183.739C183.483 51.1118 183.231 51.1824 182.998 51.3075C182.765 51.4326 182.555 51.6097 182.381 51.8286C182.03 52.2708 181.845 52.8567 181.866 53.4575C181.887 54.0582 182.113 54.6246 182.495 55.032C182.876 55.4394 183.381 55.6545 183.899 55.6299H183.984L183.828 51.0996Z" fill="#E8E8E8" stroke="#263238" stroke-width="0.932567" stroke-linecap="round" stroke-linejoin="round"/>
<path d="M184.356 53.3372C184.414 55.0183 184.516 56.0995 184.016 56.135C183.515 56.1706 183.304 55.0735 183.246 53.3727C183.189 51.6718 183.321 50.6103 183.822 50.5708C184.322 50.5314 184.298 51.6561 184.356 53.3372Z" fill="white" stroke="#263238" stroke-width="0.932567" stroke-linecap="round" stroke-linejoin="round"/>
<path d="M193.663 50.642H193.752C194.008 50.63 194.264 50.6768 194.505 50.7796C194.746 50.8825 194.967 51.0393 195.156 51.2412C195.344 51.4431 195.497 51.6862 195.604 51.9564C195.712 52.2267 195.773 52.5189 195.783 52.8163C195.793 53.1138 195.753 53.4107 195.664 53.6901C195.576 53.9695 195.44 54.2259 195.266 54.4446C195.092 54.6634 194.883 54.8403 194.65 54.9651C194.417 55.09 194.165 55.1603 193.908 55.1723H193.82L193.663 50.642Z" fill="#E8E8E8" stroke="#263238" stroke-width="0.932567" stroke-linecap="round" stroke-linejoin="round"/>
<path d="M193.275 52.9228C193.333 54.6039 193.309 55.6852 193.809 55.6852C194.309 55.6852 194.442 54.5605 194.384 52.8794C194.326 51.1983 194.115 50.117 193.618 50.1367C193.122 50.1565 193.217 51.2417 193.275 52.9228Z" fill="white" stroke="#263238" stroke-width="0.932567" stroke-linecap="round" stroke-linejoin="round"/>
<path d="M185.246 51.8576C185.246 51.8576 186.543 50.6146 187.771 51.7392" stroke="#263238" stroke-width="0.932567" stroke-linecap="round" stroke-linejoin="round"/>
<path d="M192.362 51.609C192.362 51.609 191.001 50.4923 189.837 51.7274" stroke="#263238" stroke-width="0.932567" stroke-linecap="round" stroke-linejoin="round"/>
<path d="M186.339 61.6758C186.339 61.6758 187.115 63.933 189.994 64.4382C189.994 64.4382 188.843 67.2005 187.271 66.1153C185.39 64.8209 185.029 62.1335 185.029 62.1335L186.339 61.6758Z" fill="#E8E8E8" stroke="#263238" stroke-width="0.932567" stroke-linecap="round" stroke-linejoin="round"/>
<path d="M191.614 61.9558C191.624 62.5567 191.452 63.1428 191.127 63.6111C190.803 64.0795 190.346 64.4002 189.837 64.5169C189.837 64.5169 191.236 67.1767 192.383 65.7008C193.53 64.2249 192.638 62.2163 192.638 62.2163L191.614 61.9558Z" fill="#E8E8E8" stroke="#263238" stroke-width="0.932567" stroke-linecap="round" stroke-linejoin="round"/>
<path d="M190.974 69.7891C190.974 69.8672 190.954 69.9435 190.916 70.0084C190.879 70.0733 190.826 70.1239 190.763 70.1537C190.701 70.1836 190.633 70.1914 190.567 70.1762C190.501 70.161 190.44 70.1234 190.393 70.0682C190.345 70.013 190.313 69.9427 190.3 69.8661C190.286 69.7896 190.293 69.7102 190.319 69.6381C190.345 69.566 190.388 69.5044 190.444 69.461C190.5 69.4177 190.566 69.3945 190.633 69.3945C190.724 69.3945 190.81 69.4361 190.874 69.5101C190.938 69.5841 190.974 69.6845 190.974 69.7891Z" fill="#E8E8E8" stroke="#263238" stroke-width="0.932567" stroke-linecap="round" stroke-linejoin="round"/>
<path d="M191.436 77.5594C191.436 77.6375 191.416 77.7138 191.378 77.7787C191.341 77.8435 191.288 77.8941 191.225 77.924C191.163 77.9539 191.095 77.9617 191.029 77.9464C190.963 77.9312 190.902 77.8936 190.855 77.8384C190.807 77.7833 190.775 77.7129 190.761 77.6364C190.748 77.5599 190.755 77.4805 190.781 77.4084C190.807 77.3363 190.85 77.2747 190.906 77.2313C190.962 77.1879 191.028 77.1648 191.095 77.1648C191.185 77.1648 191.272 77.2064 191.336 77.2804C191.4 77.3544 191.436 77.4548 191.436 77.5594Z" fill="#E8E8E8" stroke="#263238" stroke-width="0.932567" stroke-linecap="round" stroke-linejoin="round"/>
<path d="M191.871 85.515C191.871 85.5931 191.852 85.6694 191.814 85.7342C191.777 85.7991 191.724 85.8497 191.661 85.8796C191.599 85.9095 191.531 85.9173 191.465 85.9021C191.399 85.8868 191.338 85.8492 191.291 85.7941C191.243 85.7389 191.211 85.6685 191.197 85.592C191.184 85.5154 191.191 85.4361 191.217 85.364C191.243 85.2919 191.286 85.2302 191.342 85.1869C191.398 85.1435 191.464 85.1204 191.531 85.1204C191.621 85.1204 191.708 85.1619 191.772 85.2359C191.836 85.31 191.871 85.4103 191.871 85.515Z" fill="#E8E8E8" stroke="#263238" stroke-width="0.932567" stroke-linecap="round" stroke-linejoin="round"/>
<path d="M221.858 32.6074H152.908C152.589 32.6074 152.33 32.9078 152.33 33.2783V34.7187C152.33 35.0892 152.589 35.3895 152.908 35.3895H221.858C222.177 35.3895 222.436 35.0892 222.436 34.7187V33.2783C222.436 32.9078 222.177 32.6074 221.858 32.6074Z" fill="white"/>
<path d="M221.742 35.3896H153.023" stroke="#263238" stroke-width="0.932567" stroke-linecap="round" stroke-linejoin="round"/>
<path d="M153.023 32.6074H221.742" stroke="#263238" stroke-width="0.932567" stroke-linecap="round" stroke-linejoin="round"/>
<path d="M174.415 51.3288C174.415 51.3288 171.573 50.8671 171.42 51.7511C171.267 52.6351 171.352 54.0518 171.842 54.5135C172.768 55.3895 172.598 57.0272 172.598 57.0272L174.98 56.7589L175.041 55.3777C175.163 54.9271 175.382 54.5198 175.677 54.1938C176.535 53.2586 176.194 52.2207 176.048 50.9697C175.902 49.7188 175.191 50.2752 175.133 50.9224C175.116 51.4995 175.157 52.0769 175.255 52.6429L174.415 51.3288Z" fill="white" stroke="#263238" stroke-width="0.932567" stroke-linecap="round" stroke-linejoin="round"/>
<path d="M175.081 52.5442C175.081 52.5442 174.4 52.706 173.863 53.8228Z" fill="white"/>
<path d="M175.081 52.5442C175.081 52.5442 174.4 52.706 173.863 53.8228" stroke="#263238" stroke-width="0.932567" stroke-linecap="round" stroke-linejoin="round"/>
<path d="M175.082 52.8363H171.638C171.399 52.8447 171.162 52.7867 170.947 52.6673C170.731 52.5478 170.543 52.3703 170.399 52.1496C170.276 51.9491 170.21 51.7091 170.21 51.463C170.21 51.2168 170.276 50.9768 170.399 50.7763V50.7763L172.121 47.8443C172.27 47.6265 172.459 47.4506 172.675 47.3297C172.891 47.2088 173.127 47.146 173.367 47.146C173.606 47.146 173.843 47.2088 174.058 47.3297C174.274 47.4506 174.463 47.6265 174.612 47.8443L176.337 50.7763C176.46 50.9768 176.527 51.2168 176.527 51.463C176.527 51.7091 176.46 51.9491 176.337 52.1496C176.192 52.3736 176.001 52.5532 175.783 52.6728C175.564 52.7925 175.323 52.8485 175.082 52.8363V52.8363ZM170.998 51.0999C170.933 51.2046 170.898 51.3302 170.898 51.459C170.898 51.5879 170.933 51.7135 170.998 51.8181C171.073 51.9323 171.171 52.0242 171.283 52.0859C171.395 52.1477 171.517 52.1776 171.641 52.1733H175.082C175.205 52.178 175.329 52.1482 175.44 52.0864C175.552 52.0246 175.65 51.9326 175.725 51.8181C175.79 51.7137 175.825 51.588 175.825 51.459C175.825 51.33 175.79 51.2043 175.725 51.0999L174.003 48.1718C173.928 48.0548 173.83 47.9606 173.717 47.8973C173.603 47.8341 173.479 47.8037 173.353 47.8087C173.228 47.8033 173.103 47.8336 172.991 47.8969C172.878 47.9602 172.78 48.0546 172.706 48.1718L170.981 51.1039L170.998 51.0999Z" fill="#263238"/>
<path d="M172.328 51.3679C172.505 52.4098 172.396 52.7807 171.988 52.7255C171.579 52.6702 171.167 51.3916 171.732 51.0996C172.297 50.8076 172.753 50.5826 172.753 50.5826C172.934 50.4692 173.135 50.4063 173.341 50.3987C173.546 50.3912 173.751 50.4393 173.937 50.5392C174.747 50.2117 174.89 50.8944 174.89 50.8944C174.89 50.8944 175.475 52.8675 174.989 52.9346C174.502 53.0017 174.101 51.289 174.101 51.289C174.101 51.289 174.71 53.1674 174.152 53.199C173.594 53.2306 173.27 51.3758 173.27 51.3758C173.27 51.3758 173.634 53.0056 173.107 53.0609C172.58 53.1161 172.328 51.3679 172.328 51.3679Z" fill="white" stroke="#263238" stroke-width="0.932567" stroke-linecap="round" stroke-linejoin="round"/>
<path d="M173.615 34.6438H173.057V47.5993H173.615V34.6438Z" fill="white" stroke="#263238" stroke-width="0.932567" stroke-linecap="round" stroke-linejoin="round"/>
<path d="M173.924 47.3979L173.56 48.0174C173.536 48.0527 173.506 48.0812 173.471 48.1009C173.436 48.1205 173.398 48.1307 173.359 48.1307C173.321 48.1307 173.283 48.1205 173.248 48.1009C173.213 48.0812 173.183 48.0527 173.159 48.0174L172.798 47.3979C172.71 47.2518 172.822 47.0703 172.995 47.0703H173.724C173.901 47.0703 174.009 47.2676 173.924 47.3979Z" fill="white" stroke="#263238" stroke-width="0.932567" stroke-linecap="round" stroke-linejoin="round"/>
<path d="M173.66 43.0493H173.064C172.901 43.0493 172.768 43.203 172.768 43.3926V46.2655C172.768 46.4551 172.901 46.6088 173.064 46.6088H173.66C173.823 46.6088 173.956 46.4551 173.956 46.2655V43.3926C173.956 43.203 173.823 43.0493 173.66 43.0493Z" fill="white" stroke="#263238" stroke-width="0.932567" stroke-linecap="round" stroke-linejoin="round"/>
<path d="M173.66 32.1619H173.064C172.901 32.1619 172.768 32.3156 172.768 32.5052V35.3781C172.768 35.5677 172.901 35.7214 173.064 35.7214H173.66C173.823 35.7214 173.956 35.5677 173.956 35.3781V32.5052C173.956 32.3156 173.823 32.1619 173.66 32.1619Z" fill="white" stroke="#263238" stroke-width="0.932567" stroke-linecap="round" stroke-linejoin="round"/>
<path d="M166.987 52.8361H163.543C163.304 52.8445 163.067 52.7866 162.852 52.6671C162.636 52.5477 162.449 52.3702 162.304 52.1494C162.181 51.9489 162.115 51.7089 162.115 51.4628C162.115 51.2167 162.181 50.9767 162.304 50.7762V50.7762L164.026 47.8441C164.175 47.6263 164.365 47.4504 164.581 47.3295C164.797 47.2086 165.034 47.1458 165.274 47.1458C165.513 47.1458 165.75 47.2086 165.966 47.3295C166.182 47.4504 166.372 47.6263 166.521 47.8441L168.243 50.7762C168.366 50.9767 168.432 51.2167 168.432 51.4628C168.432 51.7089 168.366 51.9489 168.243 52.1494C168.097 52.3735 167.907 52.553 167.688 52.6727C167.469 52.7923 167.229 52.8484 166.987 52.8361V52.8361ZM162.903 51.0998C162.839 51.2044 162.804 51.33 162.804 51.4589C162.804 51.5877 162.839 51.7133 162.903 51.818C162.979 51.9322 163.076 52.024 163.188 52.0858C163.3 52.1475 163.423 52.1775 163.547 52.1731H166.99C167.115 52.1775 167.238 52.1475 167.35 52.0858C167.463 52.024 167.561 51.9323 167.637 51.818C167.702 51.7133 167.737 51.5877 167.737 51.4589C167.737 51.33 167.702 51.2044 167.637 51.0998L165.915 48.1716C165.84 48.0546 165.742 47.9604 165.629 47.8972C165.515 47.8339 165.391 47.8035 165.265 47.8086C165.14 47.8032 165.015 47.8334 164.903 47.8967C164.79 47.96 164.692 48.0544 164.618 48.1716L162.893 51.1037L162.903 51.0998Z" fill="#263238"/>
<path d="M165.52 34.6438H164.962V47.5993H165.52V34.6438Z" fill="white" stroke="#263238" stroke-width="0.932567" stroke-linecap="round" stroke-linejoin="round"/>
<path d="M165.829 47.3981L165.451 48.0177C165.427 48.0529 165.397 48.0815 165.362 48.1011C165.327 48.1207 165.289 48.1309 165.251 48.1309C165.212 48.1309 165.174 48.1207 165.139 48.1011C165.104 48.0815 165.074 48.0529 165.05 48.0177L164.689 47.3981C164.601 47.2521 164.713 47.0706 164.886 47.0706H165.615C165.792 47.0706 165.914 47.2679 165.829 47.3981Z" fill="white" stroke="#263238" stroke-width="0.932567" stroke-linecap="round" stroke-linejoin="round"/>
<path d="M165.565 43.0493H164.969C164.806 43.0493 164.673 43.203 164.673 43.3926V46.2655C164.673 46.4551 164.806 46.6088 164.969 46.6088H165.565C165.728 46.6088 165.861 46.4551 165.861 46.2655V43.3926C165.861 43.203 165.728 43.0493 165.565 43.0493Z" fill="white" stroke="#263238" stroke-width="0.932567" stroke-linecap="round" stroke-linejoin="round"/>
<path d="M165.565 32.1619H164.969C164.806 32.1619 164.673 32.3156 164.673 32.5052V35.3781C164.673 35.5677 164.806 35.7214 164.969 35.7214H165.565C165.728 35.7214 165.861 35.5677 165.861 35.3781V32.5052C165.861 32.3156 165.728 32.1619 165.565 32.1619Z" fill="white" stroke="#263238" stroke-width="0.932567" stroke-linecap="round" stroke-linejoin="round"/>
<path d="M202.07 52.8363H198.626C198.388 52.8453 198.15 52.7877 197.935 52.6682C197.719 52.5487 197.532 52.3708 197.388 52.1496C197.265 51.9491 197.198 51.7091 197.198 51.463C197.198 51.2168 197.265 50.9768 197.388 50.7763V50.7763L199.11 47.8443C199.258 47.6265 199.448 47.4506 199.663 47.3297C199.879 47.2088 200.116 47.146 200.355 47.146C200.595 47.146 200.831 47.2088 201.047 47.3297C201.262 47.4506 201.452 47.6265 201.601 47.8443L203.322 50.7763C203.446 50.9768 203.512 51.2168 203.512 51.463C203.512 51.7091 203.446 51.9491 203.322 52.1496C203.177 52.3731 202.987 52.5523 202.769 52.6719C202.551 52.7915 202.311 52.8479 202.07 52.8363V52.8363ZM197.987 51.0999C197.921 51.2043 197.886 51.33 197.886 51.459C197.886 51.588 197.921 51.7137 197.987 51.8181C198.062 51.9326 198.159 52.0246 198.271 52.0864C198.383 52.1482 198.506 52.178 198.63 52.1733H202.074C202.197 52.178 202.32 52.1482 202.432 52.0864C202.544 52.0246 202.642 51.9326 202.717 51.8181C202.782 51.7137 202.817 51.588 202.817 51.459C202.817 51.33 202.782 51.2043 202.717 51.0999L200.995 48.1718C200.917 48.0584 200.818 47.9668 200.706 47.9038C200.593 47.8408 200.47 47.8081 200.345 47.8081C200.22 47.8081 200.097 47.8408 199.984 47.9038C199.871 47.9668 199.773 48.0584 199.695 48.1718L197.973 51.1039L197.987 51.0999Z" fill="#263238"/>
<path d="M200.6 34.6438H200.042V47.5993H200.6V34.6438Z" fill="white" stroke="#263238" stroke-width="0.932567" stroke-linecap="round" stroke-linejoin="round"/>
<path d="M200.909 47.3979L200.549 48.0174C200.525 48.0527 200.494 48.0812 200.459 48.1009C200.425 48.1205 200.386 48.1307 200.348 48.1307C200.309 48.1307 200.271 48.1205 200.236 48.1009C200.201 48.0812 200.171 48.0527 200.147 48.0174L199.786 47.3979C199.698 47.2518 199.81 47.0703 199.984 47.0703H200.712C200.885 47.0703 200.998 47.2676 200.909 47.3979Z" fill="white" stroke="#263238" stroke-width="0.932567" stroke-linecap="round" stroke-linejoin="round"/>
<path d="M200.647 43.0493H200.051C199.888 43.0493 199.755 43.203 199.755 43.3926V46.2655C199.755 46.4551 199.888 46.6088 200.051 46.6088H200.647C200.81 46.6088 200.943 46.4551 200.943 46.2655V43.3926C200.943 43.203 200.81 43.0493 200.647 43.0493Z" fill="white" stroke="#263238" stroke-width="0.932567" stroke-linecap="round" stroke-linejoin="round"/>
<path d="M200.647 32.1619H200.051C199.888 32.1619 199.755 32.3156 199.755 32.5052V35.3781C199.755 35.5677 199.888 35.7214 200.051 35.7214H200.647C200.81 35.7214 200.943 35.5677 200.943 35.3781V32.5052C200.943 32.3156 200.81 32.1619 200.647 32.1619Z" fill="white" stroke="#263238" stroke-width="0.932567" stroke-linecap="round" stroke-linejoin="round"/>
<path d="M209.784 52.8361H206.34C206.101 52.8445 205.864 52.7866 205.649 52.6671C205.433 52.5477 205.245 52.3702 205.101 52.1494C204.978 51.9489 204.912 51.7089 204.912 51.4628C204.912 51.2167 204.978 50.9767 205.101 50.7762V50.7762L206.823 47.8441C206.972 47.6263 207.162 47.4504 207.378 47.3295C207.594 47.2086 207.83 47.1458 208.07 47.1458C208.31 47.1458 208.547 47.2086 208.763 47.3295C208.979 47.4504 209.168 47.6263 209.317 47.8441L211.039 50.7762C211.162 50.9767 211.228 51.2167 211.228 51.4628C211.228 51.7089 211.162 51.9489 211.039 52.1494C210.894 52.3735 210.703 52.553 210.485 52.6727C210.266 52.7923 210.025 52.8484 209.784 52.8361V52.8361ZM205.7 51.0998C205.635 51.2044 205.6 51.33 205.6 51.4589C205.6 51.5877 205.635 51.7133 205.7 51.818C205.775 51.9322 205.873 52.024 205.985 52.0858C206.096 52.1475 206.219 52.1775 206.343 52.1731H209.787C209.911 52.1775 210.035 52.1475 210.147 52.0858C210.259 52.024 210.358 51.9323 210.433 51.818C210.498 51.7133 210.533 51.5877 210.533 51.4589C210.533 51.33 210.498 51.2044 210.433 51.0998L208.712 48.1716C208.637 48.0546 208.538 47.9604 208.425 47.8972C208.312 47.8339 208.187 47.8035 208.062 47.8086C207.936 47.8032 207.812 47.8334 207.699 47.8967C207.587 47.96 207.489 48.0544 207.415 48.1716L205.69 51.1037L205.7 51.0998Z" fill="#263238"/>
<path d="M208.318 34.6438H207.76V47.5993H208.318V34.6438Z" fill="white" stroke="#263238" stroke-width="0.932567" stroke-linecap="round" stroke-linejoin="round"/>
<path d="M208.628 47.3979L208.264 48.0174C208.24 48.0527 208.21 48.0812 208.175 48.1008C208.14 48.1205 208.102 48.1307 208.063 48.1307C208.025 48.1307 207.987 48.1205 207.952 48.1008C207.917 48.0812 207.886 48.0527 207.863 48.0174L207.502 47.3979C207.413 47.2518 207.526 47.0703 207.699 47.0703H208.428C208.604 47.0703 208.713 47.2676 208.628 47.3979Z" fill="white" stroke="#263238" stroke-width="0.932567" stroke-linecap="round" stroke-linejoin="round"/>
<path d="M208.362 43.0493H207.767C207.603 43.0493 207.471 43.203 207.471 43.3926V46.2655C207.471 46.4551 207.603 46.6088 207.767 46.6088H208.362C208.526 46.6088 208.659 46.4551 208.659 46.2655V43.3926C208.659 43.203 208.526 43.0493 208.362 43.0493Z" fill="white" stroke="#263238" stroke-width="0.932567" stroke-linecap="round" stroke-linejoin="round"/>
<path d="M208.362 32.1619H207.767C207.603 32.1619 207.471 32.3156 207.471 32.5052V35.3781C207.471 35.5677 207.603 35.7214 207.767 35.7214H208.362C208.526 35.7214 208.659 35.5677 208.659 35.3781V32.5052C208.659 32.3156 208.526 32.1619 208.362 32.1619Z" fill="white" stroke="#263238" stroke-width="0.932567" stroke-linecap="round" stroke-linejoin="round"/>
<path d="M175.348 56.1353L175.528 57.8203L171.826 58.0216L172.135 56.3326L175.348 56.1353Z" fill="#E8E8E8" stroke="#263238" stroke-width="0.932567" stroke-linecap="round" stroke-linejoin="round"/>
<path d="M181.627 70.2986C181.627 70.2986 175.198 77.1532 173.715 77.2597C173.351 77.2874 173.034 77.5518 172.728 77.311C172.047 76.7744 171.064 75.6378 171.207 71.0207C171.282 68.4951 172.599 57.9705 172.599 57.9705L174.981 57.8481L175.559 69.6869C177.601 67.2323 181.15 63.8307 181.154 63.8307C182.263 67.9426 181.627 70.2986 181.627 70.2986Z" fill="white" stroke="#263238" stroke-width="0.932567" stroke-linecap="round" stroke-linejoin="round"/>
<path d="M197.837 79.8284C197.997 79.0098 198.302 78.2386 198.732 77.5632Z" fill="white"/>
<path d="M197.837 79.8284C197.997 79.0098 198.302 78.2386 198.732 77.5632" stroke="#263238" stroke-width="0.932567" stroke-linecap="round" stroke-linejoin="round"/>
<path d="M174.83 72.4723C175.078 72.3421 175.67 71.0595 175.548 68.8694" stroke="#263238" stroke-width="0.932567" stroke-linecap="round" stroke-linejoin="round"/>
<path d="M177.112 44.3595V39.6437C177.113 39.4159 177.192 39.1977 177.331 39.0366C177.47 38.8755 177.658 38.7845 177.854 38.7834H184.238C184.434 38.7845 184.623 38.8755 184.762 39.0366C184.9 39.1977 184.979 39.4159 184.98 39.6437V44.3595C184.98 44.5877 184.902 44.8065 184.762 44.9678C184.623 45.1292 184.435 45.2198 184.238 45.2198H182.016L182.193 47.0153H181.046V48.7122L179.685 45.9498H180.798L180.682 45.2237H177.851C177.753 45.2232 177.657 45.2005 177.567 45.1567C177.477 45.113 177.396 45.0492 177.327 44.969C177.259 44.8887 177.204 44.7936 177.167 44.689C177.131 44.5844 177.112 44.4725 177.112 44.3595Z" fill="white" stroke="#263238" stroke-width="0.932567" stroke-linecap="round" stroke-linejoin="round"/>
<path d="M182.645 40.3977H178.331" stroke="#263238" stroke-width="0.932567" stroke-linecap="round" stroke-linejoin="round"/>
<path d="M183.762 41.7354H178.331" stroke="#263238" stroke-width="0.932567" stroke-linecap="round" stroke-linejoin="round"/>
<path d="M182.925 43.0693H178.331" stroke="#263238" stroke-width="0.932567" stroke-linecap="round" stroke-linejoin="round"/>
<path d="M35.1337 161.078C43.9085 161.078 51.0219 159.864 51.0219 158.367C51.0219 156.87 43.9085 155.656 35.1337 155.656C26.359 155.656 19.2456 156.87 19.2456 158.367C19.2456 159.864 26.359 161.078 35.1337 161.078Z" fill="#E8E8E8"/>
<path d="M33.7427 115.163C49.0239 115.163 61.4117 100.797 61.4117 83.0762C61.4117 65.3551 49.0239 50.9893 33.7427 50.9893C18.4616 50.9893 6.07373 65.3551 6.07373 83.0762C6.07373 100.797 18.4616 115.163 33.7427 115.163Z" fill="#E8E8E8"/>
<path d="M20.9814 104.059C20.9814 104.059 21.6858 108.794 19.3071 114.118H49.0519C49.0519 114.118 47.6907 111.636 46.2649 104.059H20.9814Z" fill="white" stroke="#263238" stroke-width="0.87381" stroke-linecap="round" stroke-linejoin="round"/>
<path d="M27.7629 105.152C26.1347 105.303 24.5742 105.973 23.2533 107.087C21.9323 108.201 20.9022 109.716 20.2765 111.466C19.9566 112.366 19.6232 113.277 19.3067 114.129C17.4963 118.987 19.208 126.055 23.8359 126.055H45.0564C49.2522 126.055 50.399 119.895 49.3951 115.254C48.7486 112.271 47.4453 109.276 45.2198 107.176C42.2456 104.355 33.5546 104.615 27.7629 105.152Z" fill="#263238" stroke="#263238" stroke-width="0.87381" stroke-linecap="round" stroke-linejoin="round"/>
<path d="M7.50311 99.939C7.50311 99.939 3.69866 102.607 3.57275 104.059H8.23813L10.0927 102.516L9.46658 104.067H10.8856C10.8856 104.067 12.3931 102.709 12.4747 101.206L12.3216 99.939L9.59929 98.5342L7.50311 99.939Z" fill="white" stroke="#263238" stroke-width="0.87381" stroke-linecap="round" stroke-linejoin="round"/>
<path d="M52.0671 90.1403C52.0671 90.1403 51.458 85.4955 50.1207 78.8066C48.7833 72.1177 46.1699 71.5929 46.1699 71.5929H46.1461C42.7432 69.896 33.8956 68.9805 33.8956 68.9805H33.4873C33.4873 68.9805 24.6193 69.896 21.2368 71.5929H21.213C21.213 71.5929 18.5758 72.1296 17.2384 78.8066C15.9011 85.4837 15.2886 90.1403 15.2886 90.1403C15.2886 90.1403 12.8725 90.8979 8.52358 97.2435C7.84079 98.2498 7.25965 99.3434 6.7915 100.503V100.503C6.7915 100.503 10.1332 99.2285 12.4743 101.182C12.4743 101.182 20.1445 97.4093 20.529 93.4314C20.529 93.2894 20.5596 93.1315 20.5767 92.9618C20.7944 98.9996 20.9816 104.043 20.9816 104.043H46.3741C46.3741 104.043 46.5646 98.9996 46.7824 92.9618C46.7824 93.1315 46.813 93.2894 46.8266 93.4314C47.2146 97.4093 55.7048 101.869 55.7048 101.869C58.0324 97.717 61.4115 100.01 61.4115 100.01L52.0671 90.1403Z" fill="white"/>
<path opacity="0.3" d="M20.5303 93.4393C20.5303 93.3209 20.5575 93.1868 20.5711 93.0447L20.0164 79.071C20.0164 79.071 18.4851 79.4341 18.9241 83.7237C19.3631 88.0132 20.2852 87.2753 19.7714 88.9288C19.2576 90.5823 17.2635 88.6881 16.6033 90.1127C15.9431 91.5372 20.2921 91.2334 18.4953 94.9034C16.6986 98.5734 12.4756 101.217 12.4756 101.217C12.4756 101.217 20.1491 97.425 20.5303 93.4393Z" fill="black"/>
<g opacity="0.3">
<path opacity="0.3" d="M46.9463 93.4396C46.9463 93.3212 47.9467 93.5264 46.9463 93.4396L47.2491 81.4785C47.2491 81.4785 47.1743 87.2637 47.7085 88.929C48.2428 90.5943 50.2165 88.6883 50.8732 90.1129C51.53 91.5375 47.1845 91.2336 48.9846 94.9036C50.7848 98.5737 55.001 101.218 55.001 101.218C55.001 101.218 47.3342 97.4253 46.9463 93.4396Z" fill="black"/>
</g>
<path opacity="0.3" d="M46.5583 96.1621C46.3915 100.688 46.2656 104.055 46.2656 104.055H23.4355C38.7486 104.055 46.5753 96.1621 46.5753 96.1621H46.5583Z" fill="black"/>
<path d="M52.0671 90.1403C52.0671 90.1403 51.458 85.4955 50.1207 78.8066C48.7833 72.1177 46.1699 71.5929 46.1699 71.5929H46.1461C42.7432 69.896 33.8956 68.9805 33.8956 68.9805H33.4873C33.4873 68.9805 24.6193 69.896 21.2368 71.5929H21.213C21.213 71.5929 18.5758 72.1296 17.2384 78.8066C15.9011 85.4837 15.2886 90.1403 15.2886 90.1403C15.2886 90.1403 12.8725 90.8979 8.52358 97.2435C7.84079 98.2498 7.25965 99.3434 6.7915 100.503V100.503C6.7915 100.503 10.1332 99.2285 12.4743 101.182C12.4743 101.182 20.1445 97.4093 20.529 93.4314C20.529 93.2894 20.5596 93.1315 20.5767 92.9618C20.7944 98.9996 20.9816 104.043 20.9816 104.043H46.3741C46.3741 104.043 46.5646 98.9996 46.7824 92.9618C46.7824 93.1315 46.813 93.2894 46.8266 93.4314C47.2146 97.4093 55.7048 101.869 55.7048 101.869C58.0324 97.717 61.4115 100.01 61.4115 100.01L52.0671 90.1403Z" stroke="#263238" stroke-width="0.87381" stroke-linecap="round" stroke-linejoin="round"/>
<path d="M16.1011 90.1128C17.3256 90.0415 18.5257 90.5271 19.4461 91.4664" stroke="#263238" stroke-width="0.87381" stroke-linecap="round" stroke-linejoin="round"/>
<path d="M18.4927 79.4894C18.4927 79.4894 20.0648 79.884 20.4255 88.7473L19.9525 77.1138" stroke="#263238" stroke-width="0.87381" stroke-linecap="round" stroke-linejoin="round"/>
<path d="M20.4468 89.9785L20.5181 91.774" stroke="#263238" stroke-width="0.87381" stroke-linecap="round" stroke-linejoin="round"/>
<path d="M51.2562 90.1125C50.034 90.0357 48.8342 90.5142 47.9111 91.4463" stroke="#263238" stroke-width="0.87381" stroke-linecap="round" stroke-linejoin="round"/>
<path d="M47.3096 79.4893C47.339 78.7001 47.3707 77.9108 47.4046 77.1216" stroke="#263238" stroke-width="0.87381" stroke-linecap="round" stroke-linejoin="round"/>
<path d="M38.4452 69.6199C38.0335 72.0113 36.0394 72.8756 33.6369 72.8756C31.2345 72.8756 29.2472 72.0153 28.8286 69.6317H28.9239C29.1728 69.5924 29.4055 69.4665 29.5914 69.2707C29.7773 69.0748 29.9076 68.8182 29.9652 68.5347C29.9985 68.4216 30.0158 68.303 30.0162 68.1835V65.3777H37.3665V68.1835C37.3656 68.3589 37.3933 68.533 37.4482 68.6965C37.5274 68.9401 37.6619 69.1545 37.8373 69.317C38.0128 69.4795 38.2228 69.5842 38.4452 69.6199V69.6199Z" fill="white"/>
<path d="M37.3053 67.4771C36.0871 68.8661 34.7293 69.7304 33.4192 69.7974C32.058 69.8685 30.4791 68.5741 29.8359 67.3034C29.8625 67.193 29.8751 67.0787 29.8734 66.964V66.1038L37.2236 66.1945V66.964C37.2236 67.1456 37.4108 67.3587 37.3053 67.4771Z" fill="#263238"/>
<path d="M38.4452 69.6199C38.0335 72.0113 36.0394 72.8756 33.6369 72.8756C31.2345 72.8756 29.2472 72.0153 28.8286 69.6317H28.9239C29.1728 69.5924 29.4055 69.4665 29.5914 69.2707C29.7773 69.0748 29.9076 68.8182 29.9652 68.5347C29.9985 68.4216 30.0158 68.303 30.0162 68.1835V65.3777H37.3665V68.1835C37.3656 68.3589 37.3933 68.533 37.4482 68.6965C37.5274 68.9401 37.6619 69.1545 37.8373 69.317C38.0128 69.4795 38.2228 69.5842 38.4452 69.6199V69.6199Z" stroke="#263238" stroke-width="0.87381" stroke-linecap="round" stroke-linejoin="round"/>
<path d="M28.2678 59.3517C28.2678 59.3517 25.7191 56.0092 26.0525 51.4039C26.386 46.7987 29.646 46.7987 29.646 46.7987C29.646 46.7987 33.5764 42.7774 37.9627 45.2951C42.349 47.8129 42.0462 56.542 38.7998 58.7124L28.2678 59.3517Z" fill="#263238"/>
<path d="M39.5028 57.1022C39.5368 56.3366 39.5334 55.8631 39.5334 55.8631C39.2408 53.8268 37.0935 53.6216 36.1067 53.5861C31.9722 53.4243 30.8832 50.4843 30.8832 50.4843C28.3753 49.6122 27.6641 55.8631 27.6641 55.8631C27.6641 55.8631 27.6641 56.3366 27.6981 57.1022C27.2551 57.2003 26.8573 57.4799 26.5774 57.89C26.2975 58.3001 26.1542 58.8133 26.1736 59.3358C26.1736 60.5828 26.9495 61.5891 27.9091 61.5891C28.0061 61.5885 28.1029 61.578 28.1984 61.5575L28.6475 64.4935C28.7326 65.1525 29.2669 66.7113 29.7467 67.0823C30.7675 67.8715 32.3839 68.9962 33.5988 68.9962C34.6469 68.9962 36.1169 67.9938 37.2024 67.3111C37.8082 66.9165 38.4751 65.4051 38.533 64.6119L38.8154 61.6443C38.9749 61.6355 39.1339 61.6171 39.2918 61.5891C40.248 61.5891 41.0273 60.5828 41.0273 59.3358C41.0467 58.8133 40.9034 58.3001 40.6235 57.89C40.3436 57.4799 39.9458 57.2003 39.5028 57.1022V57.1022Z" fill="white" stroke="#263238" stroke-width="0.87381" stroke-linecap="round" stroke-linejoin="round"/>
<path d="M26.8403 55.208H26.3911V57.0627H26.8403V55.208Z" fill="white" stroke="#263238" stroke-width="0.87381" stroke-linecap="round" stroke-linejoin="round"/>
<path d="M40.5654 55.2083H40.1162V57.063H40.5654V55.2083Z" fill="white" stroke="#263238" stroke-width="0.87381" stroke-linecap="round" stroke-linejoin="round"/>
<path d="M33.4763 47.1064C31.566 47.106 29.73 47.9649 28.3546 49.5024C26.9793 51.04 26.1719 53.1363 26.1023 55.3502C26.1009 55.3914 26.1067 55.4325 26.1195 55.471C26.1322 55.5095 26.1516 55.5446 26.1765 55.5741C26.2013 55.6037 26.2311 55.6271 26.2639 55.6428C26.2968 55.6586 26.3321 55.6664 26.3677 55.6659H26.8441C26.9133 55.6659 26.9798 55.6345 27.0294 55.5785C27.079 55.5225 27.1077 55.4462 27.1095 55.3659C27.1853 53.4668 27.8891 51.6745 29.0748 50.3616C30.2606 49.0487 31.8369 48.3161 33.4763 48.3161C35.1158 48.3161 36.6921 49.0487 37.8779 50.3616C39.0636 51.6745 39.7674 53.4668 39.8432 55.3659C39.8458 55.4466 39.8753 55.5228 39.9254 55.5788C39.9756 55.6347 40.0424 55.6659 40.112 55.6659H40.585C40.6207 55.6664 40.6562 55.6586 40.6892 55.6429C40.7223 55.6271 40.7523 55.6038 40.7774 55.5744C40.8025 55.5449 40.8222 55.5098 40.8353 55.4713C40.8485 55.4328 40.8548 55.3916 40.8538 55.3502C40.7834 53.1359 39.9752 51.0396 38.5993 49.5022C37.2234 47.9647 35.387 47.106 33.4763 47.1064Z" fill="white" stroke="#263238" stroke-width="0.87381" stroke-linecap="round" stroke-linejoin="round"/>
<path d="M27.6082 56.396H27.5061C26.9037 56.4227 26.3337 56.719 25.9157 57.2226C25.4977 57.7263 25.2642 58.3982 25.2642 59.0972C25.2642 59.7963 25.4977 60.4681 25.9157 60.9718C26.3337 61.4754 26.9037 61.7717 27.5061 61.7984H27.6082V56.396Z" fill="#263238" stroke="#263238" stroke-width="0.87381" stroke-miterlimit="10"/>
<path d="M28.1612 59.1073C28.1612 61.108 28.236 62.4103 27.6405 62.4103C27.045 62.4103 26.8408 61.108 26.8408 59.1073C26.8408 57.1065 27.045 55.8003 27.6405 55.8003C28.236 55.8003 28.1612 57.0868 28.1612 59.1073Z" fill="white" stroke="#263238" stroke-width="0.87381" stroke-linecap="round" stroke-linejoin="round"/>
<path d="M39.3501 56.396H39.4522C40.0545 56.4227 40.6246 56.719 41.0426 57.2226C41.4606 57.7263 41.6941 58.3982 41.6941 59.0972C41.6941 59.7963 41.4606 60.4681 41.0426 60.9718C40.6246 61.4754 40.0545 61.7717 39.4522 61.7984H39.3501V56.396Z" fill="#263238" stroke="#263238" stroke-width="0.87381" stroke-miterlimit="10"/>
<path d="M38.7932 59.1073C38.7932 61.108 38.7217 62.4103 39.3173 62.4103C39.9128 62.4103 40.1169 61.108 40.1169 59.1073C40.1169 57.1065 39.9128 55.8003 39.3173 55.8003C38.7217 55.8003 38.7932 57.0868 38.7932 59.1073Z" fill="white" stroke="#263238" stroke-width="0.87381" stroke-linecap="round" stroke-linejoin="round"/>
<path d="M29.4956 59.5923C29.4956 59.5923 30.4654 60.9774 32.2826 59.8843" stroke="#263238" stroke-width="0.87381" stroke-linecap="round" stroke-linejoin="round"/>
<path d="M32.2812 64.9788C32.6824 65.3166 33.1654 65.4986 33.6611 65.4986C34.1569 65.4986 34.6399 65.3166 35.041 64.9788" stroke="#263238" stroke-width="0.75" stroke-linecap="round" stroke-linejoin="round"/>
<path d="M29.2261 57.7338C29.2261 57.7338 30.9854 56.1789 32.5507 57.7338" stroke="#263238" stroke-width="0.87381" stroke-linecap="round" stroke-linejoin="round"/>
<path d="M37.8671 57.785C37.8671 57.785 36.1078 56.2066 34.5425 57.785" stroke="#263238" stroke-width="0.87381" stroke-linecap="round" stroke-linejoin="round"/>
<path d="M34.9393 62.8008C34.9393 62.8008 35.0959 63.811 33.4999 63.7873C33.1086 63.7873 32.3974 63.4637 32.3735 62.8008" stroke="#263238" stroke-width="0.75" stroke-linecap="round" stroke-linejoin="round"/>
<path d="M29.877 59.9595C30.0233 60.2949 30.3534 60.6816 31.0918 60.7013C31.8302 60.7211 31.9595 60.3817 31.9731 60.0502C31.6441 60.2354 31.2808 60.324 30.9153 60.3082C30.5498 60.2923 30.1932 60.1726 29.877 59.9595V59.9595Z" fill="#263238"/>
<path d="M37.6112 59.5925C37.6112 59.5925 36.6414 60.9777 34.8242 59.8846" stroke="#263238" stroke-width="0.87381" stroke-linecap="round" stroke-linejoin="round"/>
<path d="M37.2295 59.9595C37.0832 60.2949 36.7531 60.6816 36.0147 60.7013C35.2762 60.7211 35.1469 60.3817 35.1333 60.0502C35.4623 60.2357 35.8256 60.3245 36.1912 60.3087C36.5567 60.2929 36.9133 60.1729 37.2295 59.9595V59.9595Z" fill="#263238"/>
<path d="M30.4812 44.8767C30.4812 44.8767 29.5862 45.4568 29.6849 47.1063C29.6849 47.1063 29.3719 45.9935 28.2217 46.4789" stroke="#263238" stroke-width="0.87381" stroke-linecap="round" stroke-linejoin="round"/>
<path d="M33.6775 74.1028C34.8504 74.1025 35.9945 73.6818 36.9533 72.8984C37.9121 72.115 38.6387 71.0071 39.0336 69.7264C38.724 69.6711 38.4177 69.6238 38.1217 69.5764C37.6553 70.4571 37.0021 71.1844 36.2244 71.689C35.4466 72.1935 34.5703 72.4584 33.6792 72.4584C32.788 72.4584 31.9117 72.1935 31.134 71.689C30.3562 71.1844 29.703 70.4571 29.2367 69.5764C28.9406 69.6238 28.6344 69.6711 28.3247 69.7264C28.7194 71.0065 29.4455 72.1139 30.4037 72.8973C31.3618 73.6806 32.5052 74.1017 33.6775 74.1028Z" fill="#263238" stroke="#263238" stroke-width="0.87381" stroke-linecap="round" stroke-linejoin="round"/>
<path d="M46.7808 92.9776C46.9305 89.1313 47.0814 85.2837 47.2333 81.4348" stroke="#263238" stroke-width="0.87381" stroke-linecap="round" stroke-linejoin="round"/>
<path d="M46.8944 53.6651V49.415C46.8944 49.2057 46.8227 49.0049 46.695 48.8569C46.5674 48.7089 46.3943 48.6257 46.2138 48.6257H40.4765C40.296 48.6257 40.1229 48.7089 39.9952 48.8569C39.8676 49.0049 39.7959 49.2057 39.7959 49.415V53.6651C39.7959 53.8744 39.8676 54.0752 39.9952 54.2232C40.1229 54.3712 40.296 54.4543 40.4765 54.4543H42.4774L42.3174 56.0723H43.3383V57.5995L44.56 55.1094H43.5561L43.6616 54.4543H46.2104C46.3 54.4549 46.3889 54.4348 46.4719 54.3954C46.5548 54.356 46.6303 54.2979 46.6938 54.2246C46.7574 54.1512 46.8078 54.064 46.8422 53.968C46.8766 53.872 46.8944 53.7691 46.8944 53.6651V53.6651Z" fill="white" stroke="#263238" stroke-width="0.87381" stroke-linecap="round" stroke-linejoin="round"/>
<path d="M40.9048 50.0977H44.7943" stroke="#263238" stroke-width="0.87381" stroke-linecap="round" stroke-linejoin="round"/>
<path d="M40.9048 51.3015H45.7948" stroke="#263238" stroke-width="0.87381" stroke-linecap="round" stroke-linejoin="round"/>
<path d="M40.9048 52.5049H45.0427" stroke="#263238" stroke-width="0.87381" stroke-linecap="round" stroke-linejoin="round"/>
<path d="M64.5211 102.003C64.5211 103.258 62.8197 104.043 60.7303 104.043C58.6409 104.043 56.9395 103.254 56.9395 102.003C56.9395 100.752 58.6409 99.7258 60.7303 99.7258C62.8197 99.7258 64.5211 100.744 64.5211 102.003Z" fill="white" stroke="#263238" stroke-width="0.87381" stroke-linecap="round" stroke-linejoin="round"/>
<path d="M58.2775 103.589C58.3795 103.561 58.4612 102.899 57.539 102.405C56.8993 102.066 56.8823 101.707 57.2498 101.265C57.6173 100.823 58.2434 100.452 58.7266 100.614C59.5127 100.874 60.0333 102.772 60.3838 102.362C60.9113 102.204 60.275 100.464 59.3323 99.8915C61.0338 100.381 61.1155 102.654 61.8981 102.472C62.497 102.338 61.4626 100.081 60.5676 99.414C61.1412 99.7239 61.6428 100.188 62.0309 100.768C62.5991 101.726 62.6638 102.05 63.0517 101.912C63.5554 101.726 62.3541 99.6192 62.2044 99.3903C62.9598 99.7376 63.1028 100.472 63.3342 100.768C63.5656 101.064 63.6745 101.557 63.9943 101.363C64.3142 101.17 64.0181 100.483 63.8038 100.081C62.7829 98.167 61.0814 97.8473 59.4617 98.0841C58.1822 98.2735 56.7121 98.897 55.9329 100.081C55.7346 100.376 55.618 100.734 55.5986 101.107C55.5792 101.48 55.6577 101.852 55.824 102.172C56.0962 102.839 57.0694 103.905 58.2775 103.589Z" fill="white" stroke="#263238" stroke-width="0.87381" stroke-linecap="round" stroke-linejoin="round"/>
<path d="M65.5152 104.059H2.89158C2.70552 104.059 2.55469 104.234 2.55469 104.45V105.077C2.55469 105.293 2.70552 105.468 2.89158 105.468H65.5152C65.7013 105.468 65.8521 105.293 65.8521 105.077V104.45C65.8521 104.234 65.7013 104.059 65.5152 104.059Z" fill="#BFBFBF" stroke="#263238" stroke-width="0.87381" stroke-miterlimit="10"/>
<path d="M4.72901 104.059L0.121486 87.8199C0.104121 87.7566 0.0996135 87.6896 0.108318 87.624C0.117022 87.5584 0.138699 87.496 0.171656 87.4417C0.204613 87.3875 0.247953 87.3428 0.298285 87.3112C0.348616 87.2795 0.404573 87.2619 0.461776 87.2595H15.016L20.1986 104.059H4.72901Z" fill="#263238"/>
<path d="M15.4141 87.2595L20.1782 103.116H32.9391V103.672C32.9391 103.777 32.9032 103.877 32.8394 103.951C32.7756 104.025 32.6891 104.067 32.5988 104.067H19.3615L14.7778 87.9146C14.7575 87.8421 14.7522 87.765 14.7623 87.6896C14.7725 87.6143 14.7978 87.5428 14.8363 87.4809C14.8747 87.419 14.9252 87.3685 14.9836 87.3335C15.0421 87.2984 15.1068 87.2799 15.1725 87.2793L15.4141 87.2595Z" fill="white" stroke="#263238" stroke-width="0.87381" stroke-linecap="round" stroke-linejoin="round"/>
<path d="M8.6563 95.6611C8.61134 95.3852 8.50051 95.1296 8.33643 94.9232C8.40766 94.8255 8.497 94.7479 8.59776 94.6959C8.69853 94.644 8.80811 94.6191 8.91832 94.6232C9.17553 94.6359 9.42212 94.7457 9.62054 94.9359C9.81896 95.1261 9.95834 95.3863 10.0175 95.6769C10.0489 95.8027 10.0541 95.9354 10.0325 96.064C10.0109 96.1927 9.96326 96.3135 9.89341 96.4164C9.82356 96.5194 9.73356 96.6016 9.63086 96.6562C9.52816 96.7109 9.41572 96.7363 9.30285 96.7305C9.04189 96.7235 8.79135 96.6104 8.59505 96.4109C8.69319 96.1778 8.71496 95.9114 8.6563 95.6611V95.6611Z" fill="white"/>
<path d="M38.1425 104.059H42.7942C43.4139 103.532 43.9161 102.842 44.2588 102.045C44.6016 101.248 44.775 100.368 44.7645 99.477V96.9396C44.7645 96.8432 44.7482 96.7477 44.7163 96.6587C44.6845 96.5696 44.6379 96.4887 44.5791 96.4205C44.5204 96.3524 44.4506 96.2983 44.3738 96.2614C44.297 96.2245 44.2147 96.2056 44.1316 96.2056H36.8221C36.7392 96.2056 36.657 96.2246 36.5804 96.2615C36.5038 96.2984 36.4343 96.3526 36.3758 96.4208C36.3173 96.489 36.271 96.5699 36.2395 96.659C36.2081 96.748 36.1921 96.8434 36.1926 96.9396V99.477C36.1795 100.366 36.3496 101.245 36.6888 102.042C37.0279 102.839 37.5263 103.53 38.1425 104.059V104.059Z" fill="white" stroke="#263238" stroke-width="0.87381" stroke-linecap="round" stroke-linejoin="round"/>
<path d="M46.0835 97.2868C45.8874 97.1437 45.6628 97.062 45.4314 97.0495C45.2 97.0371 44.9698 97.0944 44.7632 97.2158V98.1313C44.9647 98.0922 45.1717 98.1399 45.3451 98.2655C46.0018 98.7075 45.8623 99.6112 45.4029 100.531C45.1928 101.052 44.8314 101.471 44.382 101.715C44.2477 102.094 44.0777 102.455 43.875 102.792C44.7495 103.013 45.5492 102.153 46.1754 100.898C46.9104 99.4217 47.1316 97.9893 46.0835 97.2868Z" fill="white" stroke="#263238" stroke-width="0.87381" stroke-linecap="round" stroke-linejoin="round"/>
<path d="M40.5649 92.208C40.734 91.5689 40.8178 90.9035 40.8133 90.2349C40.8133 86.5254 37.8052 86.0874 37.8052 81.8728" stroke="#263238" stroke-width="0.87381" stroke-linecap="round" stroke-linejoin="round"/>
<path d="M38.4307 95.4798C38.9755 95.0862 39.4466 94.5695 39.8157 93.9604" stroke="#263238" stroke-width="0.87381" stroke-linecap="round" stroke-linejoin="round"/>
<path d="M40.3033 85.4087C40.1356 85.0465 40.0658 84.6339 40.103 84.2249" stroke="#263238" stroke-width="0.87381" stroke-linecap="round" stroke-linejoin="round"/>
<path d="M42.6471 90.6178C42.494 89.4576 41.9189 88.3684 41.3506 87.3779" stroke="#263238" stroke-width="0.87381" stroke-linecap="round" stroke-linejoin="round"/>
<path d="M40.9048 95.5232C40.9048 95.5232 41.8984 95.0378 42.4429 92.8477" stroke="#263238" stroke-width="0.87381" stroke-linecap="round" stroke-linejoin="round"/>
<path d="M46.9826 126.043H21.5017C19.6411 126.043 18.1328 127.793 18.1328 129.95V149.484C18.1328 151.642 19.6411 153.391 21.5017 153.391H46.9826C48.8432 153.391 50.3515 151.642 50.3515 149.484V129.95C50.3515 127.793 48.8432 126.043 46.9826 126.043Z" fill="white" stroke="#263238" stroke-width="0.87381" stroke-miterlimit="10"/>
<path d="M26.188 144.859L26.5725 152.661L26.6168 152.728C26.9212 153.202 27.3181 153.586 27.7748 153.848C28.2315 154.11 28.7353 154.243 29.2449 154.237C29.7545 154.23 30.2556 154.084 30.7072 153.81C31.1589 153.536 31.5482 153.143 31.8436 152.661V152.661L31.9865 144.859H26.188Z" fill="white" stroke="#263238" stroke-width="0.87381" stroke-linecap="round" stroke-linejoin="round"/>
<path d="M33.2586 160.285C30.6773 160.81 28.037 160.81 25.4557 160.285V160.285C25.2147 160.009 25.0075 159.695 24.8398 159.354C24.5789 158.815 24.4315 158.213 24.4096 157.595C24.3877 156.978 24.492 156.364 24.7139 155.802L26.269 152.586L32.4317 152.665L33.82 155.601C34.1532 156.298 34.2967 157.095 34.2318 157.888C34.1668 158.681 33.8963 159.433 33.4559 160.044C33.3938 160.128 33.3279 160.209 33.2586 160.285V160.285Z" fill="#BFBFBF" stroke="#263238" stroke-width="0.87381" stroke-miterlimit="10"/>
<path d="M31.7451 156.236C32.1263 156.431 32.49 156.669 32.8306 156.946Z" fill="#BFBFBF"/>
<path d="M31.7451 156.236C32.1263 156.431 32.49 156.669 32.8306 156.946" stroke="#263238" stroke-width="0.87381" stroke-miterlimit="10"/>
<path d="M25.9321 156.946C26.6085 156.409 27.3701 156.033 28.1727 155.84C28.9753 155.647 29.803 155.641 30.6077 155.822" fill="#BFBFBF"/>
<path d="M25.9321 156.946C26.6085 156.409 27.3701 156.033 28.1727 155.84C28.9753 155.647 29.803 155.641 30.6077 155.822" stroke="#263238" stroke-width="0.87381" stroke-miterlimit="10"/>
<path d="M22.8694 112.662L25.5917 148.841H32.6323C32.6323 148.841 33.3299 126.742 33.7722 112.393C33.8012 111.542 33.6813 110.693 33.4198 109.897C33.1583 109.101 32.7606 108.374 32.2507 107.761C31.7407 107.148 31.1291 106.661 30.4525 106.329C29.776 105.997 29.0485 105.828 28.314 105.831V105.831C27.5599 105.828 26.8135 106.006 26.1221 106.356C25.4307 106.705 24.8093 107.217 24.2975 107.859C23.7856 108.501 23.3943 109.26 23.1485 110.086C22.9027 110.913 22.8076 111.79 22.8694 112.662Z" fill="#263238"/>
<path d="M29.8759 106.087C29.3633 105.913 28.8313 105.826 28.297 105.831V105.831C27.5443 105.831 26.7998 106.011 26.1104 106.362C25.421 106.712 24.8017 107.224 24.2917 107.866C23.7817 108.508 23.3919 109.266 23.1471 110.091C22.9023 110.916 22.8077 111.792 22.8694 112.662L23.8358 126.043" stroke="white" stroke-width="0.87381" stroke-linecap="round" stroke-linejoin="round"/>
<path d="M32.8157 108.553C32.5368 108.094 32.2087 107.678 31.8391 107.314C31.8391 107.314 31.4137 106.92 31.2231 106.793" stroke="white" stroke-width="0.87381" stroke-linecap="round" stroke-linejoin="round"/>
<path d="M33.3071 126.044C33.4466 121.565 33.6644 116.324 33.7835 112.394C33.8161 111.418 33.653 110.446 33.3071 109.556" stroke="white" stroke-width="0.87381" stroke-linecap="round" stroke-linejoin="round"/>
<path d="M37.6411 144.859L38.0256 152.661L38.0699 152.728C38.3744 153.202 38.7712 153.585 39.2279 153.848C39.6847 154.11 40.1884 154.243 40.698 154.237C41.2076 154.23 41.7087 154.084 42.1603 153.81C42.612 153.536 43.0014 153.142 43.2967 152.661V152.661L43.4396 144.859H37.6411Z" fill="white" stroke="#263238" stroke-width="0.87381" stroke-linecap="round" stroke-linejoin="round"/>
<path d="M44.7134 160.285C42.1321 160.81 39.4918 160.81 36.9105 160.285C36.6701 160.009 36.4639 159.696 36.298 159.354C36.0357 158.816 35.8873 158.213 35.8648 157.596C35.8423 156.979 35.9465 156.364 36.1687 155.802L37.7272 152.586L43.8865 152.665L45.2748 155.601C45.608 156.298 45.7515 157.095 45.6866 157.888C45.6216 158.681 45.3511 159.433 44.9107 160.044C44.8486 160.128 44.7827 160.209 44.7134 160.285Z" fill="#BFBFBF" stroke="#263238" stroke-width="0.87381" stroke-miterlimit="10"/>
<path d="M43.1992 156.236C43.5808 156.43 43.9445 156.668 44.2848 156.947Z" fill="#BFBFBF"/>
<path d="M43.1992 156.236C43.5808 156.43 43.9445 156.668 44.2848 156.947" stroke="#263238" stroke-width="0.87381" stroke-miterlimit="10"/>
<path d="M37.394 156.947C38.0705 156.41 38.8321 156.034 39.6347 155.841C40.4372 155.648 41.2649 155.641 42.0696 155.822" fill="#BFBFBF"/>
<path d="M37.394 156.947C38.0705 156.41 38.8321 156.034 39.6347 155.841C40.4372 155.648 41.2649 155.641 42.0696 155.822" stroke="#263238" stroke-width="0.87381" stroke-miterlimit="10"/>
<path d="M34.3342 112.662L37.0565 148.841H44.0971C44.0971 148.841 44.7947 126.742 45.2405 112.393C45.2671 111.54 45.1447 110.69 44.8807 109.893C44.6167 109.096 44.2164 108.369 43.7041 107.756C43.1917 107.143 42.5777 106.656 41.8991 106.326C41.2205 105.995 40.4912 105.826 39.755 105.831C39.0029 105.832 38.2591 106.013 37.5706 106.364C36.882 106.715 36.2635 107.227 35.7542 107.869C35.2449 108.511 34.8558 109.268 34.6114 110.093C34.367 110.918 34.2726 111.792 34.3342 112.662V112.662Z" fill="#263238"/>
<path d="M42.0009 106.375C41.2942 106.011 40.5285 105.825 39.755 105.831C39.0029 105.832 38.2591 106.013 37.5706 106.364C36.882 106.715 36.2635 107.227 35.7542 107.869C35.2449 108.511 34.8558 109.268 34.6114 110.093C34.367 110.918 34.2726 111.792 34.3342 112.662L35.3551 126.043" stroke="white" stroke-width="0.87381" stroke-linecap="round" stroke-linejoin="round"/>
<path d="M44.2715 108.554C43.9945 108.092 43.6661 107.676 43.2949 107.314" stroke="white" stroke-width="0.87381" stroke-linecap="round" stroke-linejoin="round"/>
<path d="M45.0558 126.043C45.1953 121.564 45.1171 116.324 45.2396 112.393C45.2671 111.53 45.1421 110.669 44.8721 109.864" stroke="white" stroke-width="0.87381" stroke-linecap="round" stroke-linejoin="round"/>
<path d="M128.447 51.0839V34.2452C128.447 33.431 128.168 32.6501 127.671 32.0743C127.175 31.4985 126.501 31.175 125.799 31.175H103.02C102.318 31.175 101.644 31.4985 101.148 32.0743C100.651 32.6501 100.373 33.431 100.373 34.2452V51.0839C100.373 51.8981 100.651 52.6791 101.148 53.2548C101.644 53.8306 102.318 54.1541 103.02 54.1541H110.952L110.326 60.5628H114.41V66.6045L119.255 56.7389H115.281L115.699 54.1501H125.799C126.501 54.1501 127.174 53.8272 127.67 53.2523C128.166 52.6774 128.446 51.8975 128.447 51.0839V51.0839Z" fill="white" stroke="#263238" stroke-width="1.02547" stroke-linecap="round" stroke-linejoin="round"/>
<path d="M104.72 36.9368H120.122" stroke="#263238" stroke-width="1.02547" stroke-linecap="round" stroke-linejoin="round"/>
<path d="M104.72 41.7075H124.096" stroke="#263238" stroke-width="1.02547" stroke-linecap="round" stroke-linejoin="round"/>
<path d="M104.72 46.4788H121.115" stroke="#263238" stroke-width="1.02547" stroke-linecap="round" stroke-linejoin="round"/>
<path d="M145.844 123.186L159.605 128.505L156.192 132.467L162.562 139.855L148.801 134.535L152.214 130.573L145.844 123.186Z" fill="#E8E8E8" stroke="#263238" stroke-width="1.02547" stroke-linecap="round" stroke-linejoin="round"/>
<path d="M82.9724 123.186L69.211 128.506L72.6241 132.468L66.2539 139.855L80.0152 134.535L76.6021 130.573L82.9724 123.186Z" fill="#E8E8E8" stroke="#263238" stroke-width="1.02547" stroke-linecap="round" stroke-linejoin="round"/>
<path d="M114.024 1.1521L107.535 16.2031H112.367V26.6528L118.853 11.6018H114.024V1.1521Z" fill="#E8E8E8" stroke="#263238" stroke-width="1.02547" stroke-linecap="round" stroke-linejoin="round"/>
</g>
<defs>
<clipPath id="clip0_107_1168">
<rect width="241" height="164" fill="white"/>
</clipPath>
</defs>
</svg>
