<svg width="186" height="172" viewBox="0 0 186 172" fill="none" xmlns="http://www.w3.org/2000/svg">
<path d="M164.191 113.683L163.873 116.715L169.426 109.823C170.09 109.897 170.757 109.935 171.425 109.936" stroke="#263238" stroke-linecap="round" stroke-linejoin="round"/>
<path d="M157.235 92.769C156.506 93.938 156.048 95.2742 155.901 96.6677C155.375 101.706 159.096 106.471 164.718 108.676L164.432 111.383" stroke="#263238" stroke-linecap="round" stroke-linejoin="round"/>
<path d="M159.394 90.2607C159.033 90.5716 158.689 90.9058 158.366 91.2614" stroke="#263238" stroke-linecap="round" stroke-linejoin="round"/>
<path d="M180.218 90.2608C177.683 88.4164 174.753 87.2783 171.695 86.9512C168.464 86.5307 165.186 87.0425 162.205 88.4327" stroke="#263238" stroke-linecap="round" stroke-linejoin="round"/>
<path d="M175.29 109.529C180.594 108.364 184.613 104.764 185.082 100.094C185.425 96.8279 183.985 93.6786 181.41 91.2615" stroke="#263238" stroke-linecap="round" stroke-linejoin="round"/>
<path d="M162.209 93.6094C162.658 93.6983 163.119 93.692 163.566 93.5909C164.013 93.4897 164.436 93.2958 164.812 93.0203L166.795 94.6534C166.656 94.701 166.668 94.3891 166.815 94.3805C166.962 94.3718 167.072 94.5147 167.174 94.6274C167.639 95.1515 168.423 95.1689 169.088 95.0172C169.753 94.8656 170.402 94.5841 171.079 94.61C171.482 94.6546 171.878 94.7521 172.258 94.9003C174.983 95.797 177.819 96.2475 180.642 96.6893" stroke="#263238" stroke-linecap="round" stroke-linejoin="round"/>
<path d="M159.867 96.6892C160.275 96.6632 162.548 96.6892 162.874 96.3989L163.429 97.4256L164.041 96.7975C164.147 97.2306 164.253 97.6638 164.355 98.071C164.816 98.188 164.763 97.2436 165.171 96.9621C165.297 96.8967 165.441 96.8841 165.575 96.9267C165.709 96.9692 165.822 97.0639 165.893 97.1917C166.027 97.4577 166.092 97.7567 166.081 98.058L168.872 98.3006L169.414 98.3483C169.608 98.0342 169.895 97.7978 170.23 97.6768C170.128 98.3613 170.94 98.7511 171.585 98.8897C174.759 99.5771 177.95 100.171 181.157 100.67" stroke="#263238" stroke-linecap="round" stroke-linejoin="round"/>
<path d="M161.107 101.394C161.364 101.584 161.679 101.229 161.993 101.186C162.307 101.142 162.564 101.394 162.841 101.545C163.119 101.697 163.576 101.632 163.592 101.303C163.657 101.736 164.163 101.892 164.575 101.952L175.29 103.551" stroke="#263238" stroke-linecap="round" stroke-linejoin="round"/>
<path d="M17.7441 86.5962L22.0363 92.7301L21.1754 84.7032C22.2016 84.1742 23.1831 83.5524 24.1089 82.8448C28.5072 79.466 30.2779 74.0295 28.6663 69.65C27.5361 66.5917 24.8882 64.5124 21.5426 63.6504" stroke="#263238" stroke-linecap="round" stroke-linejoin="round"/>
<path d="M0.792074 76.9187C0.658315 78.3079 0.837308 79.7109 1.31431 81.0123C3.05239 85.734 8.42983 88.1166 14.3703 87.2935" stroke="#263238" stroke-linecap="round" stroke-linejoin="round"/>
<path d="M1.60397 73.6309C1.42173 74.0856 1.26506 74.5513 1.13477 75.0257" stroke="#263238" stroke-linecap="round" stroke-linejoin="round"/>
<path d="M20.0454 63.3557C16.9928 62.9682 13.8975 63.4032 11.045 64.6206C8.0004 65.8429 5.32247 67.914 3.29297 70.6159" stroke="#263238" stroke-linecap="round" stroke-linejoin="round"/>
<path d="M5.56055 75.2033C6.43824 74.9127 7.17175 74.2647 7.60055 73.4012L10.0485 73.8691C9.94247 73.9774 9.82007 73.6958 9.94655 73.6135C10.073 73.5312 10.2321 73.6135 10.3545 73.6568C10.9992 73.8907 11.6969 73.5225 12.2191 73.059C12.7413 72.5955 13.1901 72.0194 13.8062 71.7161C14.1826 71.5565 14.5758 71.4459 14.9772 71.3869C17.7842 70.8411 20.4893 69.8361 23.1861 68.8354" stroke="#263238" stroke-linecap="round" stroke-linejoin="round"/>
<path d="M4.83496 79.089C5.19808 78.8594 7.20952 77.7635 7.37272 77.3563L8.3152 77.9931C8.40496 77.7072 8.49472 77.4169 8.5804 77.1267L9.4168 78.1014C9.87784 77.9801 9.4168 77.17 9.63712 76.7282C9.71919 76.6082 9.8411 76.5258 9.97819 76.4977C10.1153 76.4696 10.2573 76.4977 10.3756 76.5766C10.6086 76.7425 10.7959 76.9713 10.9182 77.2393L13.4927 76.0784L13.9986 75.8531C14.0276 75.4811 14.171 75.1295 14.4066 74.8525C14.6188 75.5153 15.5082 75.4546 16.1366 75.2597C19.251 74.3067 22.3368 73.2584 25.3941 72.1147" stroke="#263238" stroke-linecap="round" stroke-linejoin="round"/>
<path d="M7.99316 82.641C8.30732 82.6843 8.42972 82.2078 8.68676 82.0172C8.9438 81.8266 9.28652 81.9262 9.5966 81.9175C9.90668 81.9089 10.2861 81.636 10.1556 81.3371C10.4044 81.6879 10.9226 81.5753 11.3102 81.428L21.5102 77.551" stroke="#263238" stroke-linecap="round" stroke-linejoin="round"/>
<path d="M142.155 12.2788H40.4242C38.4435 12.2788 36.8379 13.9836 36.8379 16.0865V113.389C36.8379 115.492 38.4435 117.196 40.4242 117.196H142.155C144.136 117.196 145.741 115.492 145.741 113.389V16.0865C145.741 13.9836 144.136 12.2788 142.155 12.2788Z" fill="white"/>
<path opacity="0.2" d="M145.741 69.7493V113.501C145.741 114.48 145.375 115.419 144.723 116.112C144.072 116.805 143.187 117.195 142.265 117.196H40.3181C39.3951 117.196 38.5099 116.807 37.8572 116.114C37.2046 115.421 36.8379 114.481 36.8379 113.501V104.837H37.0541V110.677C37.0541 111.232 37.1572 111.781 37.3573 112.294C37.5575 112.807 37.8509 113.272 38.2207 113.665C38.5905 114.057 39.0295 114.368 39.5126 114.58C39.9957 114.792 40.5135 114.901 41.0362 114.9H139.523C140.046 114.901 140.564 114.792 141.047 114.58C141.53 114.368 141.969 114.057 142.339 113.665C142.709 113.272 143.002 112.807 143.202 112.294C143.402 111.781 143.505 111.232 143.505 110.677V76.2384C143.505 75.4583 143.214 74.7102 142.694 74.1586C142.174 73.6069 141.47 73.2971 140.735 73.2971H36.8379V69.7493H145.741Z" fill="black"/>
<path d="M142.155 12.2788H40.4242C38.4435 12.2788 36.8379 13.9836 36.8379 16.0865V113.389C36.8379 115.492 38.4435 117.196 40.4242 117.196H142.155C144.136 117.196 145.741 115.492 145.741 113.389V16.0865C145.741 13.9836 144.136 12.2788 142.155 12.2788Z" stroke="#263238" stroke-linecap="round" stroke-linejoin="round"/>
<path d="M136.26 82.2078V77.1958C136.261 76.9522 136.216 76.7109 136.128 76.4857C136.041 76.2605 135.912 76.0558 135.75 75.8836C135.588 75.7113 135.395 75.5747 135.183 75.4818C134.971 75.3888 134.744 75.3412 134.514 75.3418H48.067C47.6039 75.3418 47.1597 75.5371 46.8322 75.8848C46.5048 76.2325 46.3208 76.7041 46.3208 77.1958V82.2078C46.3208 82.6995 46.1368 83.1711 45.8093 83.5188C45.4818 83.8665 45.0377 84.0618 44.5745 84.0618V84.0618C44.1103 84.0618 43.6651 84.2576 43.3369 84.6061C43.0086 84.9546 42.8242 85.4273 42.8242 85.9202V95.8098C42.8242 98.0903 43.6775 100.277 45.1963 101.89C46.7151 103.503 48.7751 104.409 50.923 104.409V104.409C51.2682 104.409 51.5992 104.554 51.8433 104.813C52.0874 105.072 52.2245 105.424 52.2245 105.79V108.753C52.2245 109.847 52.6338 110.896 53.3622 111.669C54.0906 112.443 55.0786 112.877 56.1087 112.877H126.472C127.503 112.877 128.49 112.443 129.219 111.669C129.947 110.896 130.357 109.847 130.357 108.753V105.79C130.357 105.424 130.494 105.072 130.738 104.813C130.982 104.554 131.313 104.409 131.658 104.409C132.722 104.409 133.775 104.186 134.757 103.754C135.74 103.322 136.633 102.689 137.385 101.89C138.137 101.092 138.733 100.144 139.14 99.1004C139.547 98.0572 139.757 96.939 139.757 95.8098V85.9202C139.757 85.4281 139.573 84.956 139.246 84.6076C138.918 84.2593 138.474 84.063 138.011 84.0618C137.547 84.0618 137.103 83.8666 136.774 83.5191C136.446 83.1715 136.261 82.6999 136.26 82.2078V82.2078Z" fill="#263238"/>
<path d="M52.9421 78.1792H49.9188C49.5487 78.1792 49.1938 78.3353 48.9321 78.6131C48.6704 78.8909 48.5234 79.2678 48.5234 79.6607V80.4837C48.5234 82.1905 49.825 84.3564 51.4325 84.3564C53.04 84.3564 54.3415 82.1905 54.3415 80.4837V79.6607C54.3404 79.2674 54.1925 78.8906 53.9302 78.6129C53.6679 78.3351 53.3125 78.1792 52.9421 78.1792V78.1792Z" fill="white" stroke="#263238" stroke-linecap="round" stroke-linejoin="round"/>
<path d="M60.1757 78.1792H57.1524C56.7819 78.1792 56.4266 78.3351 56.1643 78.6129C55.9019 78.8906 55.754 79.2674 55.7529 79.6607V80.4838C55.7529 82.1905 57.0544 84.3564 58.662 84.3564C60.2695 84.3564 61.571 82.1905 61.571 80.4838V79.6607C61.571 79.2678 61.424 78.891 61.1623 78.6131C60.9006 78.3353 60.5457 78.1792 60.1757 78.1792V78.1792Z" fill="white" stroke="#263238" stroke-linecap="round" stroke-linejoin="round"/>
<path d="M67.4392 78.1792H64.4159C64.0458 78.1792 63.6909 78.3353 63.4292 78.6131C63.1675 78.8909 63.0205 79.2678 63.0205 79.6607V80.4837C63.0205 82.1905 64.322 84.3564 65.9255 84.3564C67.5289 84.3564 68.8345 82.1905 68.8345 80.4837V79.6607C68.8345 79.2678 68.6875 78.8909 68.4258 78.6131C68.1641 78.3353 67.8092 78.1792 67.4392 78.1792V78.1792Z" fill="white" stroke="#263238" stroke-linecap="round" stroke-linejoin="round"/>
<path d="M74.6852 78.1792H71.662C71.2919 78.1792 70.937 78.3353 70.6753 78.6131C70.4136 78.8909 70.2666 79.2678 70.2666 79.6607V80.4837C70.2666 82.1905 71.5681 84.3564 73.1756 84.3564C74.7832 84.3564 76.0806 82.1905 76.0806 80.4837V79.6607C76.0806 79.4661 76.0445 79.2735 75.9744 79.0937C75.9043 78.914 75.8015 78.7507 75.6719 78.6131C75.5423 78.4755 75.3885 78.3664 75.2192 78.292C75.0499 78.2175 74.8685 78.1792 74.6852 78.1792V78.1792Z" fill="white" stroke="#263238" stroke-linecap="round" stroke-linejoin="round"/>
<path d="M81.9304 78.1792H78.9071C78.537 78.1792 78.1821 78.3353 77.9204 78.6131C77.6587 78.891 77.5117 79.2678 77.5117 79.6607V80.4838C77.5117 82.1905 78.8132 84.3564 80.4208 84.3564C82.0283 84.3564 83.3298 82.1905 83.3298 80.4838V79.6607C83.3287 79.2674 83.1808 78.8906 82.9185 78.6129C82.6561 78.3351 82.3008 78.1792 81.9304 78.1792V78.1792Z" fill="white" stroke="#263238" stroke-linecap="round" stroke-linejoin="round"/>
<path d="M89.1815 78.1792H86.1582C85.7878 78.1792 85.4324 78.3351 85.1701 78.6129C84.9078 78.8906 84.7599 79.2674 84.7588 79.6607V80.4837C84.7588 82.1905 86.0603 84.3564 87.6678 84.3564C89.2754 84.3564 90.5769 82.1905 90.5769 80.4837V79.6607C90.5769 79.2678 90.4299 78.8909 90.1682 78.6131C89.9065 78.3353 89.5516 78.1792 89.1815 78.1792V78.1792Z" fill="white" stroke="#263238" stroke-linecap="round" stroke-linejoin="round"/>
<path d="M96.4274 78.1792H93.4042C93.0341 78.1792 92.6792 78.3353 92.4175 78.6131C92.1558 78.891 92.0088 79.2678 92.0088 79.6607V80.4838C92.0088 82.1905 93.3103 84.3564 94.9138 84.3564C96.5172 84.3564 97.8228 82.1905 97.8228 80.4838V79.6607C97.8228 79.2678 97.6758 78.891 97.4141 78.6131C97.1524 78.3353 96.7975 78.1792 96.4274 78.1792V78.1792Z" fill="white" stroke="#263238" stroke-linecap="round" stroke-linejoin="round"/>
<path d="M103.674 78.1792H100.65C100.28 78.1792 99.9253 78.3353 99.6636 78.6131C99.4019 78.891 99.2549 79.2678 99.2549 79.6607V80.4837C99.2549 82.1905 100.556 84.3564 102.164 84.3564C103.771 84.3564 105.069 82.1905 105.069 80.4837V79.6607C105.069 79.2678 104.922 78.891 104.66 78.6131C104.398 78.3353 104.044 78.1792 103.674 78.1792V78.1792Z" fill="white" stroke="#263238" stroke-linecap="round" stroke-linejoin="round"/>
<path d="M110.92 78.1791H107.913C107.73 78.1791 107.548 78.2174 107.379 78.2918C107.21 78.3663 107.056 78.4754 106.926 78.613C106.797 78.7505 106.694 78.9139 106.624 79.0936C106.554 79.2734 106.518 79.466 106.518 79.6606V80.4836C106.518 82.1904 107.819 84.3563 109.427 84.3563C111.034 84.3563 112.336 82.1904 112.336 80.4836V79.6606C112.335 79.4643 112.298 79.2702 112.226 79.0893C112.155 78.9083 112.05 78.7443 111.919 78.6065C111.787 78.4688 111.631 78.3601 111.46 78.2867C111.288 78.2134 111.105 78.1768 110.92 78.1791V78.1791Z" fill="white" stroke="#263238" stroke-linecap="round" stroke-linejoin="round"/>
<path d="M118.169 78.1792H115.146C114.775 78.1792 114.42 78.3351 114.157 78.6129C113.895 78.8906 113.747 79.2674 113.746 79.6607V80.4837C113.746 82.1905 115.048 84.3564 116.655 84.3564C118.263 84.3564 119.564 82.1905 119.564 80.4837V79.6607C119.564 79.2678 119.417 78.891 119.155 78.6131C118.894 78.3353 118.539 78.1792 118.169 78.1792V78.1792Z" fill="white" stroke="#263238" stroke-linecap="round" stroke-linejoin="round"/>
<path d="M125.416 78.1792H122.392C122.022 78.1792 121.667 78.3353 121.406 78.6131C121.144 78.891 120.997 79.2678 120.997 79.6607V80.4838C120.997 82.1905 122.299 84.3564 123.902 84.3564C125.505 84.3564 126.811 82.1905 126.811 80.4838V79.6607C126.811 79.2678 126.664 78.891 126.402 78.6131C126.141 78.3353 125.786 78.1792 125.416 78.1792V78.1792Z" fill="white" stroke="#263238" stroke-linecap="round" stroke-linejoin="round"/>
<path d="M132.662 78.1793H129.639C129.268 78.1793 128.914 78.3354 128.652 78.6132C128.39 78.8911 128.243 79.2679 128.243 79.6608V80.4839C128.243 82.1863 129.537 84.3522 131.168 84.3522C132.8 84.3522 134.073 82.1863 134.073 80.4795V79.6565C134.073 79.4608 134.036 79.2672 133.964 79.0868C133.893 78.9064 133.789 78.7429 133.658 78.6055C133.526 78.4682 133.371 78.3598 133.2 78.2867C133.029 78.2135 132.846 78.177 132.662 78.1793V78.1793Z" fill="white" stroke="#263238" stroke-linecap="round" stroke-linejoin="round"/>
<path d="M52.9421 94.4844H49.9188C49.5487 94.4844 49.1938 94.6405 48.9321 94.9183C48.6704 95.1961 48.5234 95.5729 48.5234 95.9659V96.7889C48.5234 98.4957 49.825 100.662 51.4325 100.662C53.04 100.662 54.3415 98.4957 54.3415 96.7889V95.9659C54.3404 95.5725 54.1925 95.1957 53.9302 94.918C53.6679 94.6403 53.3125 94.4844 52.9421 94.4844V94.4844Z" fill="white" stroke="#263238" stroke-linecap="round" stroke-linejoin="round"/>
<path d="M60.1757 94.4844H57.1524C56.7819 94.4844 56.4266 94.6403 56.1643 94.918C55.9019 95.1957 55.754 95.5725 55.7529 95.9659V96.7889C55.7529 98.4957 57.0544 100.662 58.662 100.662C60.2695 100.662 61.571 98.4957 61.571 96.7889V95.9659C61.571 95.5729 61.424 95.1961 61.1623 94.9183C60.9006 94.6405 60.5457 94.4844 60.1757 94.4844V94.4844Z" fill="white" stroke="#263238" stroke-linecap="round" stroke-linejoin="round"/>
<path d="M67.4392 94.4844H64.4159C64.0458 94.4844 63.6909 94.6405 63.4292 94.9183C63.1675 95.1961 63.0205 95.5729 63.0205 95.9659V96.7889C63.0205 98.4957 64.322 100.662 65.9255 100.662C67.5289 100.662 68.8345 98.4957 68.8345 96.7889V95.9659C68.8345 95.5729 68.6875 95.1961 68.4258 94.9183C68.1641 94.6405 67.8092 94.4844 67.4392 94.4844V94.4844Z" fill="white" stroke="#263238" stroke-linecap="round" stroke-linejoin="round"/>
<path d="M74.6852 94.4844H71.662C71.2919 94.4844 70.937 94.6405 70.6753 94.9183C70.4136 95.1961 70.2666 95.5729 70.2666 95.9659V96.7889C70.2666 98.4957 71.5681 100.662 73.1756 100.662C74.7832 100.662 76.0806 98.4957 76.0806 96.7889V95.9659C76.0806 95.7713 76.0445 95.5787 75.9744 95.3989C75.9043 95.2192 75.8015 95.0559 75.6719 94.9183C75.5423 94.7807 75.3885 94.6716 75.2192 94.5971C75.0499 94.5227 74.8685 94.4844 74.6852 94.4844V94.4844Z" fill="white" stroke="#263238" stroke-linecap="round" stroke-linejoin="round"/>
<path d="M81.9304 94.4844H78.9071C78.537 94.4844 78.1821 94.6405 77.9204 94.9183C77.6587 95.1961 77.5117 95.5729 77.5117 95.9659V96.7889C77.5117 98.4957 78.8132 100.662 80.4208 100.662C82.0283 100.662 83.3298 98.4957 83.3298 96.7889V95.9659C83.3287 95.5725 83.1808 95.1957 82.9185 94.918C82.6561 94.6403 82.3008 94.4844 81.9304 94.4844V94.4844Z" fill="white" stroke="#263238" stroke-linecap="round" stroke-linejoin="round"/>
<path d="M89.1815 94.4844H86.1582C85.7878 94.4844 85.4324 94.6403 85.1701 94.918C84.9078 95.1957 84.7599 95.5725 84.7588 95.9659V96.7889C84.7588 98.4957 86.0603 100.662 87.6678 100.662C89.2754 100.662 90.5769 98.4957 90.5769 96.7889V95.9659C90.5769 95.5729 90.4299 95.1961 90.1682 94.9183C89.9065 94.6405 89.5516 94.4844 89.1815 94.4844Z" fill="white" stroke="#263238" stroke-linecap="round" stroke-linejoin="round"/>
<path d="M96.4274 94.4844H93.4042C93.0341 94.4844 92.6792 94.6405 92.4175 94.9183C92.1558 95.1961 92.0088 95.5729 92.0088 95.9659V96.7889C92.0088 98.4957 93.3103 100.662 94.9138 100.662C96.5172 100.662 97.8228 98.4957 97.8228 96.7889V95.9659C97.8228 95.5729 97.6758 95.1961 97.4141 94.9183C97.1524 94.6405 96.7975 94.4844 96.4274 94.4844V94.4844Z" fill="white" stroke="#263238" stroke-linecap="round" stroke-linejoin="round"/>
<path d="M103.674 94.4844H100.65C100.28 94.4844 99.9253 94.6405 99.6636 94.9183C99.4019 95.1961 99.2549 95.5729 99.2549 95.9659V96.7889C99.2549 98.4957 100.556 100.662 102.164 100.662C103.771 100.662 105.069 98.4957 105.069 96.7889V95.9659C105.069 95.5729 104.922 95.1961 104.66 94.9183C104.398 94.6405 104.044 94.4844 103.674 94.4844V94.4844Z" fill="white" stroke="#263238" stroke-linecap="round" stroke-linejoin="round"/>
<path d="M110.92 94.4845H107.913C107.73 94.4845 107.548 94.5228 107.379 94.5972C107.21 94.6717 107.056 94.7808 106.926 94.9184C106.797 95.056 106.694 95.2193 106.624 95.399C106.554 95.5788 106.518 95.7714 106.518 95.966V96.789C106.518 98.4958 107.819 100.662 109.427 100.662C111.034 100.662 112.336 98.4958 112.336 96.789V95.966C112.335 95.7697 112.298 95.5756 112.226 95.3947C112.155 95.2138 112.05 95.0497 111.919 94.912C111.787 94.7742 111.631 94.6655 111.46 94.5922C111.288 94.5188 111.105 94.4822 110.92 94.4845V94.4845Z" fill="white" stroke="#263238" stroke-linecap="round" stroke-linejoin="round"/>
<path d="M118.169 94.4844H115.146C114.775 94.4844 114.42 94.6403 114.157 94.918C113.895 95.1957 113.747 95.5725 113.746 95.9659V96.7889C113.746 98.4957 115.048 100.662 116.655 100.662C118.263 100.662 119.564 98.4957 119.564 96.7889V95.9659C119.564 95.5729 119.417 95.1961 119.155 94.9183C118.894 94.6405 118.539 94.4844 118.169 94.4844V94.4844Z" fill="white" stroke="#263238" stroke-linecap="round" stroke-linejoin="round"/>
<path d="M125.416 94.4844H122.392C122.022 94.4844 121.667 94.6405 121.406 94.9183C121.144 95.1961 120.997 95.5729 120.997 95.9659V96.7889C120.997 98.4957 122.299 100.662 123.902 100.662C125.505 100.662 126.811 98.4957 126.811 96.7889V95.9659C126.811 95.5729 126.664 95.1961 126.402 94.9183C126.141 94.6405 125.786 94.4844 125.416 94.4844Z" fill="white" stroke="#263238" stroke-linecap="round" stroke-linejoin="round"/>
<path d="M132.662 94.4844H129.639C129.268 94.4844 128.914 94.6405 128.652 94.9183C128.39 95.1961 128.243 95.5729 128.243 95.9659V96.7889C128.243 98.4957 129.545 100.662 131.152 100.662C132.76 100.662 134.057 98.4957 134.057 96.7889V95.9659C134.057 95.5729 133.91 95.1961 133.648 94.9183C133.387 94.6405 133.032 94.4844 132.662 94.4844V94.4844Z" fill="white" stroke="#263238" stroke-linecap="round" stroke-linejoin="round"/>
<path d="M49.3187 86.596H46.3036C45.9335 86.596 45.5786 86.7521 45.3169 87.0299C45.0552 87.3077 44.9082 87.6846 44.9082 88.0775V88.9005C44.9082 90.6029 46.2097 92.7732 47.8172 92.7732C49.4248 92.7732 50.7222 90.6073 50.7222 88.9005V88.0775C50.7222 87.8822 50.6858 87.6888 50.6152 87.5085C50.5446 87.3282 50.4411 87.1645 50.3106 87.0268C50.1802 86.8891 50.0254 86.7802 49.8552 86.7063C49.6849 86.6323 49.5026 86.5948 49.3187 86.596V86.596Z" fill="white" stroke="#263238" stroke-linecap="round" stroke-linejoin="round"/>
<path d="M56.5661 86.5959H53.5428C53.1727 86.5959 52.8178 86.752 52.5562 87.0299C52.2945 87.3077 52.1475 87.6845 52.1475 88.0774V88.9005C52.1475 90.6029 53.449 92.7732 55.0565 92.7732C56.664 92.7732 57.9655 90.6073 57.9655 88.9005V88.0774C57.9645 87.6841 57.8165 87.3073 57.5542 87.0296C57.2919 86.7519 56.9365 86.5959 56.5661 86.5959V86.5959Z" fill="white" stroke="#263238" stroke-linecap="round" stroke-linejoin="round"/>
<path d="M63.8163 86.5959H60.793C60.4225 86.5959 60.0672 86.7519 59.8049 87.0296C59.5426 87.3073 59.3946 87.6841 59.3936 88.0774V88.9005C59.3936 90.6029 60.6992 92.7732 62.3026 92.7732C63.906 92.7732 65.2116 90.6073 65.2116 88.9005V88.0774C65.2116 87.6845 65.0646 87.3077 64.8029 87.0299C64.5413 86.752 64.1864 86.5959 63.8163 86.5959V86.5959Z" fill="white" stroke="#263238" stroke-linecap="round" stroke-linejoin="round"/>
<path d="M71.0612 86.5959H68.0379C67.6679 86.5959 67.3129 86.752 67.0513 87.0299C66.7896 87.3077 66.6426 87.6845 66.6426 88.0774V88.9005C66.6426 90.6029 67.9441 92.7732 69.5475 92.7732C71.151 92.7732 72.4566 90.6073 72.4566 88.9005V88.0774C72.4566 87.8829 72.4205 87.6902 72.3503 87.5105C72.2802 87.3308 72.1774 87.1674 72.0479 87.0299C71.9183 86.8923 71.7645 86.7832 71.5952 86.7087C71.4259 86.6343 71.2444 86.5959 71.0612 86.5959V86.5959Z" fill="white" stroke="#263238" stroke-linecap="round" stroke-linejoin="round"/>
<path d="M78.3078 86.5959H75.2723C74.9022 86.5959 74.5473 86.752 74.2856 87.0299C74.024 87.3077 73.877 87.6845 73.877 88.0774V88.9005C73.877 90.6029 75.1785 92.7732 76.786 92.7732C78.3935 92.7732 79.6909 90.6073 79.6909 88.9005V88.0774C79.691 87.6868 79.5456 87.3119 79.2866 87.0344C79.0276 86.757 78.6758 86.5994 78.3078 86.5959V86.5959Z" fill="white" stroke="#263238" stroke-linecap="round" stroke-linejoin="round"/>
<path d="M85.5534 86.5959H82.5301C82.1601 86.5959 81.8051 86.752 81.5435 87.0299C81.2818 87.3077 81.1348 87.6845 81.1348 88.0774V88.9005C81.1348 90.6029 82.4363 92.7732 84.0438 92.7732C85.6513 92.7732 86.9529 90.6073 86.9529 88.9005V88.0774C86.9518 87.6841 86.8039 87.3073 86.5415 87.0296C86.2792 86.7519 85.9239 86.5959 85.5534 86.5959V86.5959Z" fill="white" stroke="#263238" stroke-linecap="round" stroke-linejoin="round"/>
<path d="M92.8153 86.5959H89.792C89.4216 86.5959 89.0662 86.7519 88.8039 87.0296C88.5416 87.3073 88.3937 87.6841 88.3926 88.0774V88.9005C88.3926 90.6029 89.6982 92.7732 91.3016 92.7732C92.9051 92.7732 94.2107 90.6073 94.2107 88.9005V88.0774C94.2107 87.6845 94.0636 87.3077 93.802 87.0299C93.5403 86.752 93.1854 86.5959 92.8153 86.5959V86.5959Z" fill="white" stroke="#263238" stroke-linecap="round" stroke-linejoin="round"/>
<path d="M100.05 86.5959H97.0272C96.6571 86.5959 96.3022 86.752 96.0405 87.0299C95.7789 87.3077 95.6318 87.6845 95.6318 88.0774V88.9005C95.6318 90.6029 96.9334 92.7732 98.5368 92.7732C100.14 92.7732 101.446 90.6073 101.446 88.9005V88.0774C101.446 87.6845 101.299 87.3077 101.037 87.0299C100.775 86.752 100.421 86.5959 100.05 86.5959Z" fill="white" stroke="#263238" stroke-linecap="round" stroke-linejoin="round"/>
<path d="M107.297 86.5959H104.273C103.903 86.5959 103.548 86.752 103.287 87.0299C103.025 87.3077 102.878 87.6845 102.878 88.0774V88.9005C102.878 90.6029 104.179 92.7732 105.787 92.7732C107.395 92.7732 108.692 90.6073 108.692 88.9005V88.0774C108.692 87.6845 108.545 87.3077 108.283 87.0299C108.022 86.752 107.667 86.5959 107.297 86.5959Z" fill="white" stroke="#263238" stroke-linecap="round" stroke-linejoin="round"/>
<path d="M114.543 86.5959H111.519C111.149 86.5959 110.794 86.752 110.533 87.0299C110.271 87.3077 110.124 87.6845 110.124 88.0774V88.9005C110.124 90.6029 111.426 92.7732 113.033 92.7732C114.641 92.7732 115.942 90.6073 115.942 88.9005V88.0774C115.941 87.6841 115.793 87.3073 115.531 87.0296C115.268 86.7519 114.913 86.5959 114.543 86.5959V86.5959Z" fill="white" stroke="#263238" stroke-linecap="round" stroke-linejoin="round"/>
<path d="M121.784 86.5959H118.761C118.39 86.5959 118.035 86.7519 117.773 87.0296C117.51 87.3073 117.362 87.6841 117.361 88.0774V88.9005C117.361 90.6029 118.667 92.7732 120.27 92.7732C121.874 92.7732 123.179 90.6073 123.179 88.9005V88.0774C123.179 87.6845 123.032 87.3077 122.771 87.0299C122.509 86.752 122.154 86.5959 121.784 86.5959Z" fill="white" stroke="#263238" stroke-linecap="round" stroke-linejoin="round"/>
<path d="M129.038 86.5961H126.015C125.648 86.6018 125.298 86.7604 125.041 87.0376C124.784 87.3148 124.64 87.6884 124.64 88.0776V88.9006C124.64 90.6031 125.941 92.7733 127.545 92.7733C129.148 92.7733 130.454 90.6074 130.454 88.9006V88.0776C130.454 87.8812 130.417 87.6868 130.345 87.5056C130.274 87.3244 130.169 87.1602 130.038 87.0223C129.906 86.8844 129.75 86.7758 129.578 86.7026C129.406 86.6294 129.223 86.5932 129.038 86.5961V86.5961Z" fill="white" stroke="#263238" stroke-linecap="round" stroke-linejoin="round"/>
<path d="M136.284 86.5959H133.261C132.891 86.5959 132.536 86.752 132.274 87.0299C132.012 87.3077 131.865 87.6845 131.865 88.0774V88.9005C131.865 90.6029 133.167 92.7732 134.774 92.7732C136.382 92.7732 137.679 90.6073 137.679 88.9005V88.0774C137.679 87.6845 137.532 87.3077 137.271 87.0299C137.009 86.752 136.654 86.5959 136.284 86.5959V86.5959Z" fill="white" stroke="#263238" stroke-linecap="round" stroke-linejoin="round"/>
<path d="M118.97 102.698H63.6124C62.8891 102.698 62.3027 103.32 62.3027 104.088V108.307C62.3027 109.075 62.8891 109.698 63.6124 109.698H118.97C119.693 109.698 120.28 109.075 120.28 108.307V104.088C120.28 103.32 119.693 102.698 118.97 102.698Z" fill="white" stroke="#263238" stroke-linecap="round" stroke-linejoin="round"/>
<path d="M126.382 103.109H123.358C122.988 103.109 122.633 103.265 122.372 103.543C122.11 103.821 121.963 104.198 121.963 104.591V105.414C121.963 107.12 123.264 109.286 124.872 109.286C126.479 109.286 127.777 107.12 127.777 105.414V104.591C127.777 104.198 127.63 103.821 127.368 103.543C127.107 103.265 126.752 103.109 126.382 103.109Z" fill="white" stroke="#263238" stroke-linecap="round" stroke-linejoin="round"/>
<path d="M59.2214 103.109H56.1981C55.828 103.109 55.4731 103.265 55.2114 103.543C54.9497 103.821 54.8027 104.198 54.8027 104.591V105.414C54.8027 107.12 56.1043 109.286 57.7118 109.286C59.3193 109.286 60.6208 107.12 60.6208 105.414V104.591C60.6197 104.197 60.4718 103.821 60.2095 103.543C59.9472 103.265 59.5918 103.109 59.2214 103.109V103.109Z" fill="white" stroke="#263238" stroke-linecap="round" stroke-linejoin="round"/>
<path opacity="0.2" d="M53.109 80.5316C53.2555 80.5323 53.4016 80.5468 53.5456 80.5749C53.5456 80.5446 53.5456 80.5143 53.5456 80.4839V79.6609C53.5445 79.4905 53.48 79.3274 53.3661 79.2073C53.2522 79.0872 53.0982 79.0198 52.9377 79.0198H49.9144C49.7546 79.0209 49.6016 79.0888 49.4886 79.2088C49.3756 79.3288 49.3116 79.4912 49.3105 79.6609V80.4839C49.3105 81.6665 50.1265 83.1567 51.0894 83.4556C50.7916 82.143 51.4607 80.5316 53.109 80.5316Z" fill="black"/>
<path opacity="0.2" d="M60.5181 80.3107C60.6105 80.304 60.7032 80.304 60.7956 80.3107V79.6436C60.7945 79.4739 60.7306 79.3115 60.6175 79.1915C60.5045 79.0715 60.3516 79.0036 60.1917 79.0024H57.1685C57.0079 79.0024 56.8539 79.0698 56.74 79.19C56.6261 79.3101 56.5616 79.4731 56.5605 79.6436V80.4666C56.5605 81.7662 57.5275 83.3906 58.6005 83.4989C58.1069 82.156 58.7556 80.3107 60.5181 80.3107Z" fill="black"/>
<path opacity="0.2" d="M67.9815 80.1977H68.0427V79.6563C68.0427 79.4862 67.979 79.3231 67.8658 79.2029C67.7526 79.0827 67.599 79.0151 67.4388 79.0151H64.4155C64.255 79.0151 64.101 79.0825 63.9871 79.2027C63.8732 79.3228 63.8087 79.4858 63.8076 79.6563V80.4793C63.8076 81.8005 64.8358 83.5116 65.9251 83.5116C65.9781 83.5159 66.0313 83.5159 66.0843 83.5116C65.5375 82.1427 66.1699 80.1977 67.9815 80.1977Z" fill="black"/>
<path opacity="0.2" d="M74.7661 79.9771C74.9357 79.9719 75.1053 79.9864 75.272 80.0204V79.6436C75.272 79.4735 75.2084 79.3105 75.0951 79.1902C74.9819 79.07 74.8283 79.0024 74.6681 79.0024H71.6449C71.4847 79.0024 71.3311 79.07 71.2179 79.1902C71.1046 79.3105 71.041 79.4735 71.041 79.6436V80.4666C71.041 81.7055 71.9386 83.2823 72.9505 83.4989C72.2569 82.1387 72.8566 79.9771 74.7661 79.9771Z" fill="black"/>
<path opacity="0.2" d="M82.3837 79.9767H82.5387V79.6519C82.5376 79.4814 82.4731 79.3184 82.3592 79.1983C82.2453 79.0781 82.0913 79.0107 81.9308 79.0107H78.9076C78.7477 79.0119 78.5948 79.0798 78.4818 79.1998C78.3687 79.3198 78.3048 79.4822 78.3037 79.6519V80.4749C78.3037 81.7961 79.3319 83.5072 80.4212 83.5072C80.4769 83.5115 80.5328 83.5115 80.5885 83.5072C79.8745 82.1427 80.4743 79.9767 82.3837 79.9767Z" fill="black"/>
<path opacity="0.2" d="M89.691 80.0202H89.7848V79.6433C89.7838 79.4736 89.7198 79.3112 89.6068 79.1912C89.4938 79.0712 89.3408 79.0033 89.181 79.0022H86.1577C85.9972 79.0022 85.8432 79.0696 85.7293 79.1897C85.6154 79.3098 85.5509 79.4729 85.5498 79.6433V80.4664C85.5498 81.7876 86.578 83.4987 87.6673 83.4987C87.7338 83.5051 87.8007 83.5051 87.8672 83.4987C87.1981 82.1341 87.806 80.0202 89.691 80.0202Z" fill="black"/>
<path opacity="0.2" d="M96.684 79.9769C96.7999 79.9786 96.9157 79.9873 97.0308 80.0029V79.6606C97.0308 79.4906 96.9672 79.3275 96.8539 79.2073C96.7407 79.0871 96.5871 79.0195 96.4269 79.0195H93.4036C93.2435 79.0195 93.0899 79.0871 92.9767 79.2073C92.8634 79.3275 92.7998 79.4906 92.7998 79.6606V80.4837C92.7998 81.7832 93.8116 83.49 94.8928 83.516C94.1707 82.1558 94.7664 79.9769 96.684 79.9769Z" fill="black"/>
<path opacity="0.2" d="M104.276 80.0894V79.6563C104.276 79.4862 104.212 79.3231 104.099 79.2029C103.986 79.0827 103.832 79.0151 103.672 79.0151H100.649C100.489 79.0151 100.335 79.0827 100.222 79.2029C100.109 79.3231 100.045 79.4862 100.045 79.6563V80.4793C100.045 81.8005 101.069 83.5116 102.162 83.5116C102.272 83.5098 102.381 83.4908 102.485 83.4553C101.897 82.1211 102.497 80.1501 104.276 80.0894Z" fill="black"/>
<path opacity="0.2" d="M110.931 79.9206C111.132 79.9201 111.332 79.9478 111.526 80.0029V79.6606C111.525 79.4902 111.461 79.3271 111.347 79.207C111.233 79.0869 111.079 79.0195 110.918 79.0195H107.911C107.752 79.0207 107.599 79.0886 107.486 79.2086C107.373 79.3285 107.309 79.491 107.308 79.6606V80.4837C107.308 81.7053 108.181 83.2474 109.172 83.4813C108.409 82.1255 109.001 79.9206 110.931 79.9206Z" fill="black"/>
<path opacity="0.2" d="M118.342 79.9208C118.487 79.9213 118.631 79.9358 118.774 79.9641V79.6609C118.773 79.4912 118.709 79.3288 118.596 79.2088C118.483 79.0888 118.33 79.0209 118.17 79.0198H115.147C114.986 79.0198 114.832 79.0872 114.719 79.2073C114.605 79.3274 114.54 79.4905 114.539 79.6609V80.4839C114.539 81.7835 115.518 83.4339 116.579 83.5162C115.812 82.156 116.4 79.9208 118.342 79.9208Z" fill="black"/>
<path opacity="0.2" d="M125.701 80.1417C125.807 80.1436 125.914 80.1523 126.019 80.1677V79.6609C126.019 79.4909 125.955 79.3278 125.842 79.2076C125.729 79.0873 125.575 79.0198 125.415 79.0198H122.392C122.313 79.0198 122.234 79.0364 122.161 79.0686C122.088 79.1008 122.021 79.148 121.965 79.2076C121.909 79.2671 121.864 79.3378 121.834 79.4155C121.804 79.4933 121.788 79.5767 121.788 79.6609V80.4839C121.788 81.7835 122.767 83.4296 123.828 83.5162C123.236 82.1474 123.861 80.1417 125.701 80.1417Z" fill="black"/>
<path opacity="0.2" d="M133.265 80.0421V79.6609C133.265 79.4909 133.202 79.3278 133.088 79.2076C132.975 79.0873 132.821 79.0198 132.661 79.0198H129.638C129.478 79.0198 129.324 79.0873 129.211 79.2076C129.098 79.3278 129.034 79.4909 129.034 79.6609V80.4839C129.034 81.8052 130.058 83.5162 131.152 83.5162C131.309 83.5138 131.464 83.4785 131.609 83.4123C131.029 82.104 131.576 80.1894 133.265 80.0421Z" fill="black"/>
<path opacity="0.2" d="M53.3179 96.0482C53.3954 96.0438 53.473 96.0438 53.5505 96.0482V95.9573C53.5494 95.7868 53.4849 95.6238 53.371 95.5037C53.2571 95.3836 53.1031 95.3162 52.9425 95.3162H49.9193C49.7594 95.3173 49.6065 95.3852 49.4935 95.5052C49.3805 95.6252 49.3165 95.7876 49.3154 95.9573V96.7803C49.3154 98.1015 50.3436 99.8126 51.4329 99.8126C51.5083 99.8106 51.5834 99.8019 51.6573 99.7866C50.7434 98.4697 51.2983 96.0482 53.3179 96.0482Z" fill="black"/>
<path opacity="0.2" d="M60.4161 96.0482C60.5433 96.0486 60.6702 96.0602 60.7956 96.0828V95.9702C60.7945 95.8005 60.7306 95.6381 60.6175 95.5181C60.5045 95.3981 60.3516 95.3302 60.1917 95.3291H57.1685C57.0079 95.3291 56.8539 95.3965 56.74 95.5166C56.6261 95.6367 56.5616 95.7998 56.5605 95.9702V96.7933C56.5605 98.1145 57.5887 99.8256 58.6781 99.8256H58.7678C57.8335 98.4914 58.3843 96.0482 60.4161 96.0482Z" fill="black"/>
<path opacity="0.2" d="M67.619 96.1564C67.7559 96.1568 67.8924 96.1698 68.027 96.1954V95.9658C68.027 95.8816 68.0114 95.7983 67.9811 95.7205C67.9507 95.6427 67.9063 95.572 67.8502 95.5125C67.7941 95.453 67.7275 95.4057 67.6543 95.3735C67.581 95.3413 67.5025 95.3247 67.4232 95.3247H64.3999C64.2394 95.3247 64.0854 95.3921 63.9715 95.5122C63.8576 95.6323 63.7931 95.7954 63.792 95.9658V96.7889C63.792 98.0884 64.8038 99.7908 65.885 99.8212C65.0731 98.474 65.6402 96.1564 67.619 96.1564Z" fill="black"/>
<path opacity="0.2" d="M74.9744 96.2127C75.0795 96.2131 75.1844 96.2203 75.2886 96.2344V95.9658C75.2886 95.8816 75.273 95.7983 75.2426 95.7205C75.2123 95.6427 75.1678 95.572 75.1117 95.5125C75.0557 95.453 74.9891 95.4057 74.9158 95.3735C74.8426 95.3413 74.764 95.3247 74.6847 95.3247H71.6615C71.5822 95.3247 71.5036 95.3413 71.4304 95.3735C71.3571 95.4057 71.2906 95.453 71.2345 95.5125C71.1784 95.572 71.1339 95.6427 71.1036 95.7205C71.0732 95.7983 71.0576 95.8816 71.0576 95.9658V96.7889C71.0576 98.1101 72.0817 99.8212 73.1751 99.8212H73.2241C72.4407 98.4653 73.0242 96.2127 74.9744 96.2127Z" fill="black"/>
<path opacity="0.2" d="M82.0736 96.0482C82.2297 96.0483 82.3855 96.0642 82.5387 96.0958V95.9702C82.5376 95.7998 82.4731 95.6367 82.3592 95.5166C82.2453 95.3965 82.0913 95.3291 81.9308 95.3291H78.9076C78.7477 95.3302 78.5948 95.3981 78.4818 95.5181C78.3687 95.6381 78.3048 95.8005 78.3037 95.9702V96.7933C78.3037 98.1145 79.3319 99.8256 80.4212 99.8256C79.491 98.5 80.0377 96.0482 82.0736 96.0482Z" fill="black"/>
<path opacity="0.2" d="M89.4299 96.1001C89.5487 96.1011 89.6674 96.1112 89.7848 96.1304V95.9658C89.7838 95.7961 89.7198 95.6337 89.6068 95.5137C89.4938 95.3938 89.3408 95.3258 89.181 95.3247H86.1577C85.9972 95.3247 85.8432 95.3921 85.7293 95.5122C85.6154 95.6323 85.5509 95.7954 85.5498 95.9658V96.7889C85.5498 98.1101 86.578 99.8212 87.6673 99.8212H87.7448C86.8636 98.4783 87.4266 96.1001 89.4299 96.1001Z" fill="black"/>
<path opacity="0.2" d="M96.9451 96.2649H97.0308V95.9617C97.0308 95.7916 96.9672 95.6286 96.8539 95.5083C96.7407 95.3881 96.5871 95.3206 96.4269 95.3206H93.4036C93.2435 95.3206 93.0899 95.3881 92.9767 95.5083C92.8634 95.6286 92.7998 95.7916 92.7998 95.9617V96.7847C92.7998 98.1059 93.8239 99.817 94.9133 99.817C94.9929 99.8157 95.0722 99.8056 95.1499 99.7867C94.4481 98.4351 95.0316 96.2649 96.9451 96.2649Z" fill="black"/>
<path opacity="0.2" d="M104.239 96.1001H104.264V95.9658C104.264 95.8816 104.248 95.7983 104.218 95.7205C104.187 95.6427 104.143 95.572 104.087 95.5125C104.031 95.453 103.964 95.4057 103.891 95.3735C103.818 95.3413 103.739 95.3247 103.66 95.3247H100.649C100.569 95.3247 100.491 95.3413 100.418 95.3735C100.344 95.4057 100.278 95.453 100.222 95.5125C100.166 95.572 100.121 95.6427 100.091 95.7205C100.061 95.7983 100.045 95.8816 100.045 95.9658V96.7889C100.045 98.1101 101.069 99.8212 102.162 99.8212C102.288 99.8192 102.412 99.7958 102.53 99.7519C101.701 98.409 102.277 96.1001 104.239 96.1001Z" fill="black"/>
<path opacity="0.2" d="M111.294 95.9356H111.522C111.516 95.7697 111.45 95.6128 111.337 95.4974C111.225 95.3821 111.075 95.3171 110.918 95.3162H107.911C107.752 95.3173 107.599 95.3852 107.486 95.5052C107.373 95.6252 107.309 95.7876 107.308 95.9573V96.7803C107.308 98.1015 108.336 99.8126 109.425 99.8126C109.525 99.8094 109.623 99.7934 109.719 99.7649C108.695 98.4741 109.225 95.9356 111.294 95.9356Z" fill="black"/>
<path opacity="0.2" d="M118.76 96.0482V95.9702C118.759 95.8005 118.695 95.6381 118.582 95.5181C118.469 95.3981 118.316 95.3302 118.157 95.3291H115.133C114.973 95.3291 114.819 95.3965 114.705 95.5166C114.591 95.6367 114.526 95.7998 114.525 95.9702V96.7933C114.525 98.1145 115.554 99.8256 116.643 99.8256C116.782 99.8232 116.92 99.7969 117.051 99.7476C116.198 98.4047 116.761 96.0482 118.76 96.0482Z" fill="black"/>
<path opacity="0.2" d="M125.864 96.0483H126.027V95.9617C126.027 95.8775 126.011 95.7941 125.981 95.7163C125.951 95.6385 125.906 95.5679 125.85 95.5083C125.794 95.4488 125.727 95.4016 125.654 95.3694C125.581 95.3371 125.502 95.3206 125.423 95.3206H122.4C122.24 95.3206 122.086 95.3881 121.973 95.5083C121.86 95.6286 121.796 95.7916 121.796 95.9617V96.7847C121.796 98.1059 122.82 99.817 123.909 99.817C124.006 99.8157 124.102 99.8011 124.195 99.7737C123.285 98.4481 123.844 96.0483 125.864 96.0483Z" fill="black"/>
<path opacity="0.2" d="M133.004 96.3773C133.094 96.3773 133.184 96.3773 133.265 96.3773V95.9441C133.265 95.7741 133.202 95.611 133.088 95.4908C132.975 95.3705 132.821 95.303 132.661 95.303H129.638C129.478 95.303 129.324 95.3705 129.211 95.4908C129.098 95.611 129.034 95.7741 129.034 95.9441V96.7671C129.034 98.0884 130.058 99.7994 131.152 99.7994C130.519 98.4566 131.131 96.3773 133.004 96.3773Z" fill="black"/>
<path opacity="0.2" d="M49.875 88.2897H49.9281V88.0774C49.927 87.907 49.8624 87.7439 49.7486 87.6238C49.6347 87.5037 49.4807 87.4363 49.3201 87.4363H46.305C46.1449 87.4363 45.9913 87.5038 45.878 87.6241C45.7648 87.7443 45.7012 87.9074 45.7012 88.0774V88.9004C45.7012 90.2217 46.7253 91.9327 47.8187 91.9327C47.9238 91.93 48.028 91.9125 48.1288 91.8808C47.3454 90.5292 47.937 88.2897 49.875 88.2897Z" fill="black"/>
<path opacity="0.2" d="M56.9695 88.2898H57.1735V88.0688C57.1724 87.8984 57.1079 87.7354 56.994 87.6152C56.8801 87.4951 56.7261 87.4277 56.5656 87.4277H53.5423C53.3825 87.4289 53.2295 87.4968 53.1165 87.6168C53.0035 87.7368 52.9395 87.8992 52.9385 88.0688V88.8919C52.9385 90.2131 53.9666 91.9242 55.056 91.9242C55.1158 91.9285 55.1757 91.9285 55.2355 91.9242C54.4318 90.5683 55.0111 88.2898 56.9695 88.2898Z" fill="black"/>
<path opacity="0.2" d="M64.3823 88.2897H64.419V88.0775C64.4179 87.9078 64.354 87.7454 64.2409 87.6254C64.1279 87.5054 63.975 87.4375 63.8151 87.4363H60.7919C60.7117 87.4352 60.6321 87.4509 60.5577 87.4826C60.4832 87.5142 60.4154 87.5612 60.3582 87.6208C60.3009 87.6804 60.2553 87.7514 60.224 87.8298C60.1927 87.9081 60.1763 87.9923 60.1758 88.0775V88.9005C60.1758 90.2217 61.2039 91.9328 62.2933 91.9328C62.4028 91.9313 62.5115 91.9123 62.6156 91.8765C61.8527 90.5293 62.4361 88.2897 64.3823 88.2897Z" fill="black"/>
<path opacity="0.2" d="M71.4778 88.251H71.6655V88.0864C71.6655 87.9164 71.6019 87.7533 71.4887 87.6331C71.3754 87.5129 71.2218 87.4453 71.0617 87.4453H68.0384C67.8783 87.4453 67.7247 87.5129 67.6114 87.6331C67.4982 87.7533 67.4346 87.9164 67.4346 88.0864V88.9095C67.4346 90.2307 68.4587 91.9418 69.548 91.9418C69.622 91.94 69.6958 91.9313 69.7683 91.9158C68.9238 90.5686 69.495 88.251 71.4778 88.251Z" fill="black"/>
<path opacity="0.2" d="M78.5358 88.2899C78.6657 88.2899 78.7953 88.3015 78.9234 88.3246V88.0776C78.9234 87.9076 78.8598 87.7445 78.7465 87.6243C78.6333 87.5041 78.4797 87.4365 78.3196 87.4365H75.2718C75.1117 87.4365 74.9581 87.5041 74.8448 87.6243C74.7316 87.7445 74.668 87.9076 74.668 88.0776V88.9007C74.668 90.2219 75.692 91.933 76.7855 91.933C75.9776 90.5858 76.5529 88.2899 78.5358 88.2899Z" fill="black"/>
<path opacity="0.2" d="M85.8313 88.0124C85.9404 88.0129 86.0494 88.0201 86.1577 88.0341C86.1464 87.872 86.078 87.7205 85.966 87.6097C85.8541 87.4988 85.7069 87.4369 85.5539 87.4363H82.5306C82.3708 87.4374 82.2178 87.5053 82.1048 87.6253C81.9918 87.7453 81.9278 87.9077 81.9268 88.0774V88.9004C81.9268 90.2217 82.9549 91.9327 84.0443 91.9327C84.1226 91.9312 84.2005 91.921 84.2768 91.9024C83.216 90.6159 83.7342 88.0124 85.8313 88.0124Z" fill="black"/>
<path opacity="0.2" d="M93.1345 88.3419C93.2283 88.3419 93.3222 88.3419 93.4079 88.3419V88.0603C93.4068 87.8906 93.3428 87.7282 93.2298 87.6082C93.1168 87.4882 92.9638 87.4203 92.804 87.4192H89.7808C89.6202 87.4192 89.4662 87.4866 89.3523 87.6067C89.2385 87.7268 89.1739 87.8899 89.1729 88.0603V88.8834C89.1729 90.2046 90.201 91.9157 91.2904 91.9157H91.372C90.609 90.5728 91.1843 88.3419 93.1345 88.3419Z" fill="black"/>
<path opacity="0.2" d="M100.654 88.0776C100.654 87.9076 100.59 87.7445 100.477 87.6243C100.364 87.5041 100.21 87.4365 100.05 87.4365H97.0267C96.9474 87.4365 96.8689 87.4531 96.7956 87.4853C96.7224 87.5175 96.6558 87.5648 96.5997 87.6243C96.5436 87.6838 96.4992 87.7545 96.4688 87.8323C96.4385 87.9101 96.4229 87.9934 96.4229 88.0776V88.9007C96.4229 90.2219 97.4469 91.933 98.5363 91.933C98.7539 91.9273 98.9669 91.8648 99.1565 91.751C98.3323 90.4602 98.83 88.2509 100.654 88.0776Z" fill="black"/>
<path opacity="0.2" d="M107.913 88.251V88.0864C107.913 87.9164 107.849 87.7533 107.736 87.6331C107.622 87.5129 107.469 87.4453 107.309 87.4453H104.285C104.125 87.4453 103.972 87.5129 103.858 87.6331C103.745 87.7533 103.682 87.9164 103.682 88.0864V88.9095C103.682 90.2307 104.706 91.9418 105.799 91.9418C105.974 91.9388 106.147 91.896 106.305 91.8161C105.558 90.4949 106.093 88.3593 107.913 88.251Z" fill="black"/>
<path opacity="0.2" d="M114.896 88.1208C114.982 88.1208 115.068 88.1208 115.149 88.1208V88.0645C115.148 87.894 115.084 87.731 114.97 87.6108C114.856 87.4907 114.702 87.4233 114.541 87.4233H111.518C111.358 87.4245 111.205 87.4924 111.092 87.6124C110.979 87.7324 110.915 87.8948 110.914 88.0645V88.8875C110.914 90.2087 111.942 91.9198 113.032 91.9198C113.109 91.9185 113.185 91.9084 113.26 91.8895C112.314 90.5856 112.856 88.1208 114.896 88.1208Z" fill="black"/>
<path opacity="0.2" d="M122.397 88.4025V88.0776C122.396 87.908 122.332 87.7455 122.219 87.6256C122.106 87.5056 121.953 87.4377 121.793 87.4365H118.77C118.609 87.4365 118.455 87.5039 118.342 87.624C118.228 87.7441 118.163 87.9072 118.162 88.0776V88.9007C118.162 90.2219 119.19 91.933 120.28 91.933C120.403 91.9309 120.525 91.909 120.643 91.868C119.978 90.5251 120.561 88.4545 122.397 88.4025Z" fill="black"/>
<path opacity="0.2" d="M129.3 88.1773C129.415 88.179 129.529 88.1877 129.643 88.2033V88.0776C129.643 87.9076 129.579 87.7445 129.466 87.6243C129.353 87.5041 129.199 87.4365 129.039 87.4365H126.016C125.937 87.4365 125.858 87.4531 125.785 87.4853C125.712 87.5175 125.645 87.5648 125.589 87.6243C125.533 87.6838 125.488 87.7545 125.458 87.8323C125.428 87.9101 125.412 87.9934 125.412 88.0776V88.9007C125.412 90.2219 126.436 91.933 127.526 91.933C127.564 91.9353 127.602 91.9353 127.64 91.933C126.726 90.5944 127.281 88.1773 129.3 88.1773Z" fill="black"/>
<path opacity="0.2" d="M136.608 88.5106C136.701 88.5039 136.795 88.5039 136.889 88.5106V88.0774C136.889 87.9074 136.826 87.7443 136.712 87.6241C136.599 87.5038 136.445 87.4363 136.285 87.4363H133.262C133.102 87.4363 132.948 87.5038 132.835 87.6241C132.722 87.7443 132.658 87.9074 132.658 88.0774V88.9004C132.658 90.2 133.674 91.9327 134.763 91.9327C134.127 90.5682 134.743 88.5106 136.608 88.5106Z" fill="black"/>
<path opacity="0.2" d="M119.487 108.333V104.062C119.487 103.773 119.266 103.538 118.994 103.538H63.5872C63.3146 103.538 63.0936 103.773 63.0936 104.062V108.333C63.0936 108.623 63.3146 108.857 63.5872 108.857H118.994C119.266 108.857 119.487 108.623 119.487 108.333Z" fill="black"/>
<path opacity="0.2" d="M126.987 105.019V104.586C126.987 104.502 126.971 104.419 126.941 104.341C126.911 104.263 126.866 104.192 126.81 104.133C126.754 104.073 126.687 104.026 126.614 103.994C126.541 103.962 126.462 103.945 126.383 103.945H123.36C123.28 103.945 123.202 103.962 123.129 103.994C123.055 104.026 122.989 104.073 122.933 104.133C122.877 104.192 122.832 104.263 122.802 104.341C122.771 104.419 122.756 104.502 122.756 104.586V105.409C122.756 106.73 123.78 108.442 124.873 108.442C124.964 108.439 125.055 108.426 125.143 108.403C124.539 107.051 125.155 105.032 126.987 105.019Z" fill="black"/>
<path opacity="0.2" d="M59.4738 104.742C59.5927 104.743 59.7113 104.753 59.8288 104.773V104.591C59.8277 104.42 59.7632 104.257 59.6493 104.137C59.5354 104.017 59.3814 103.949 59.2209 103.949H56.1976C56.0378 103.951 55.8848 104.019 55.7718 104.139C55.6588 104.258 55.5948 104.421 55.5938 104.591V105.414C55.5938 106.735 56.6219 108.446 57.7113 108.446H57.7806C56.9116 107.103 57.4828 104.742 59.4738 104.742Z" fill="black"/>
<path opacity="0.2" d="M41.2861 14.3926H141.295C141.982 14.3926 142.641 14.6824 143.127 15.1982C143.613 15.7141 143.886 16.4138 143.886 17.1433V41.4017H38.6953V17.1433C38.6953 16.4138 38.9683 15.7141 39.4541 15.1982C39.94 14.6824 40.599 14.3926 41.2861 14.3926V14.3926Z" fill="black"/>
<path d="M133.118 18.9672H49.4777C48.7802 12.8174 47.551 6.74888 45.8057 0.838379H136.806C135.033 6.74213 133.798 12.8129 133.118 18.9672V18.9672Z" fill="white"/>
<path opacity="0.2" d="M133.942 13.1235C133.334 16.6497 133.126 18.9672 133.126 18.9672H49.4858C49.4858 18.9672 49.2737 16.693 48.6494 13.1235H133.942Z" fill="black"/>
<path d="M133.118 18.9672H49.4777C48.7802 12.8174 47.551 6.74888 45.8057 0.838379H136.806C135.033 6.74213 133.798 12.8129 133.118 18.9672V18.9672Z" stroke="#263238" stroke-linecap="round" stroke-linejoin="round"/>
<path d="M131.98 34.2327H49.9268V70.0744H131.98V34.2327Z" fill="#263238"/>
<g opacity="0.4">
<path opacity="0.4" d="M88.9092 66.9035L89.3417 66.9251C89.8857 57.9871 90.4296 49.0346 90.9736 40.0676C90.28 49.0375 89.5919 57.9827 88.9092 66.9035Z" fill="white"/>
<path opacity="0.4" d="M87.5137 66.7909L87.9462 66.8299C88.89 57.9496 89.8325 49.0303 90.7736 40.072C89.6883 49.0361 88.6017 57.9423 87.5137 66.7909Z" fill="white"/>
<path opacity="0.4" d="M86.1543 66.6262C86.2971 66.6262 86.444 66.6608 86.5868 66.6782C87.925 57.8932 89.2714 49.023 90.626 40.0676C89.13 49.0317 87.6394 57.8845 86.1543 66.6262Z" fill="white"/>
<path opacity="0.4" d="M84.7793 66.4051L85.2159 66.4788C86.9512 57.815 88.7002 49.0069 90.4627 40.0544C88.5587 49.0156 86.6643 57.7992 84.7793 66.4051Z" fill="white"/>
<path opacity="0.4" d="M83.4082 66.1323L83.8488 66.2276C85.9704 57.7285 88.1206 49.0071 90.2993 40.0632C87.9819 49.01 85.6848 57.6997 83.4082 66.1323Z" fill="white"/>
<path opacity="0.4" d="M82.0459 65.803L82.4865 65.92C84.9876 57.6115 87.558 48.9954 90.1365 40.0588C87.407 48.9954 84.6857 57.5725 82.0459 65.803Z" fill="white"/>
<path opacity="0.4" d="M80.6875 65.4133L81.1322 65.5519C83.9882 57.4773 86.9789 48.9782 89.9736 40.0503C86.8279 48.9782 83.6945 57.4297 80.6875 65.4133Z" fill="white"/>
<path opacity="0.4" d="M79.3516 64.9714L79.7963 65.123C83.0236 57.3257 86.41 48.9609 89.8208 40.0459C86.2427 48.9609 82.7012 57.265 79.3516 64.9714Z" fill="white"/>
<path opacity="0.4" d="M77.999 64.4647L78.4478 64.6379C82.0219 57.1352 85.8204 48.9393 89.6474 40.0374C85.6613 48.9393 81.7037 57.0615 77.999 64.4647Z" fill="white"/>
<path opacity="0.4" d="M76.6768 63.8927L77.1256 64.092C81.026 56.9271 85.2366 48.9305 89.4839 40.0286C85.0652 48.9132 80.7037 56.8665 76.6768 63.8927Z" fill="white"/>
<path opacity="0.4" d="M75.3662 63.2517L75.815 63.4813C80.0256 56.702 84.6482 48.883 89.3198 40.02C84.4809 48.883 79.6992 56.6283 75.3662 63.2517Z" fill="white"/>
<path opacity="0.4" d="M74.0771 62.5411L74.5259 62.801C79.014 56.4462 84.0609 48.8481 89.1568 40.0068C84.5092 47.7961 79.4755 55.3181 74.0771 62.5411V62.5411Z" fill="white"/>
<path opacity="0.4" d="M72.8242 61.7615C72.9711 61.8611 73.1261 61.9521 73.2771 62.0474C78.9395 55.0449 84.1935 47.6815 89.0096 39.9983C84.0809 47.6304 78.6735 54.9012 72.8242 61.7615Z" fill="white"/>
<path opacity="0.4" d="M71.5723 60.8995L72.017 61.2244C78.1271 54.6184 83.7483 47.522 88.8307 39.9983C83.6428 47.4692 77.8694 54.4611 71.5723 60.8995V60.8995Z" fill="white"/>
<path opacity="0.4" d="M88.6666 39.9724C82.1019 48.7011 75.68 55.3592 70.376 59.9596L70.8125 60.3191C77.3607 54.1562 83.3393 47.343 88.6666 39.9724V39.9724Z" fill="white"/>
<path opacity="0.4" d="M88.5041 39.9592C81.511 48.6229 74.677 54.9561 69.2139 58.9414L69.6464 59.3356C75.036 55.0991 81.6946 48.6446 88.5041 39.9592Z" fill="white"/>
<path opacity="0.4" d="M88.3289 39.9463C80.9155 48.545 73.6939 54.5057 68.1084 57.8325C68.243 57.9798 68.3777 58.1271 68.5164 58.2657C74.0489 54.6703 81.1114 48.5667 88.3289 39.9463Z" fill="white"/>
<path opacity="0.4" d="M88.1784 39.929C80.3611 48.441 72.7641 54.0075 67.0889 56.6499L67.4969 57.1221C73.115 54.1894 80.5406 48.467 88.1784 39.929Z" fill="white"/>
<path opacity="0.4" d="M66.1494 55.3851C66.2677 55.5583 66.3901 55.7316 66.5125 55.9005C72.2041 53.6696 79.9765 48.3458 88.0182 39.916C79.8133 48.3068 71.8737 53.4574 66.1494 55.3851Z" fill="white"/>
<path opacity="0.4" d="M65.3174 54.0682C65.4235 54.2501 65.5336 54.4321 65.6438 54.614C71.3558 53.0892 79.4668 48.1899 87.8553 39.8857C79.3036 48.1422 71.0498 52.8596 65.3174 54.0682Z" fill="white"/>
<path opacity="0.4" d="M64.6074 52.7295C64.6972 52.9201 64.791 53.1064 64.8849 53.297C70.5969 52.4739 78.9854 48.0078 87.6921 39.8899C78.8426 47.9298 70.3194 52.2097 64.6074 52.7295Z" fill="white"/>
<path opacity="0.4" d="M64.0283 51.3607C64.1018 51.5513 64.1793 51.7462 64.2568 51.9368C69.9362 51.7895 78.5368 47.7653 87.5128 39.8596C78.4348 47.6829 69.6995 51.5123 64.0283 51.3607Z" fill="white"/>
<path opacity="0.4" d="M90.291 66.9642H90.7194C90.85 58.0117 90.986 49.0476 91.1274 40.072C90.8418 49.0418 90.563 58.0059 90.291 66.9642Z" fill="white"/>
<path opacity="0.4" d="M91.6697 66.9727H92.1022C91.8302 58.0202 91.5581 49.0562 91.2861 40.0806L91.6697 66.9727Z" fill="white"/>
<path opacity="0.4" d="M93.0489 66.9337H93.4814C92.8014 58.01 92.1214 49.0575 91.4414 40.0762C91.9772 49.046 92.5131 57.9985 93.0489 66.9337Z" fill="white"/>
<path opacity="0.4" d="M94.4487 66.8429L94.8812 66.8082C93.7932 57.951 92.7052 49.039 91.6172 40.072C92.5529 49.039 93.4967 57.9626 94.4487 66.8429Z" fill="white"/>
<path opacity="0.4" d="M95.8074 66.7042L96.2399 66.6479C94.7603 57.8946 93.2643 49.0346 91.752 40.0676C93.1147 49.0346 94.4665 57.9134 95.8074 66.7042Z" fill="white"/>
<path opacity="0.4" d="M97.1818 66.5092L97.6183 66.4399C95.7415 57.8195 93.8444 49.0288 91.9268 40.0676C93.6893 49.0317 95.441 57.8455 97.1818 66.5092Z" fill="white"/>
<path opacity="0.4" d="M98.5536 66.2623L98.9901 66.1756C96.7244 57.7256 94.4246 49.0215 92.0908 40.0632C94.2614 49.0215 96.4156 57.7545 98.5536 66.2623Z" fill="white"/>
<path opacity="0.4" d="M99.9162 65.959L100.361 65.8507C97.717 57.6202 94.9916 49.0128 92.2539 40.0588C94.8406 49.0142 97.3947 57.6476 99.9162 65.959Z" fill="white"/>
<path opacity="0.4" d="M101.279 65.6039L101.719 65.4696C98.7084 57.4687 95.5708 49.0086 92.417 40.0503C95.4158 48.9999 98.4024 57.4947 101.279 65.6039Z" fill="white"/>
<path opacity="0.4" d="M102.629 65.1836L103.078 65.0277C99.7037 57.3083 96.1419 48.9998 92.5801 40.0459C95.9991 48.9825 99.3937 57.356 102.629 65.1836Z" fill="white"/>
<path opacity="0.4" d="M103.971 64.7029L104.42 64.5253C100.707 57.1222 96.7416 48.9653 92.7432 40.0374C96.5824 48.9653 100.389 57.1785 103.971 64.7029Z" fill="white"/>
<path opacity="0.4" d="M105.302 64.1613C105.453 64.092 105.608 64.0313 105.755 63.962C101.716 56.9184 97.334 48.9435 92.9072 40.0286C97.1708 48.9435 101.385 56.9791 105.302 64.1613Z" fill="white"/>
<path opacity="0.4" d="M106.619 63.5591L107.072 63.3295C102.727 56.6888 97.9245 48.9218 93.0693 40.0242C97.7573 48.9131 102.392 56.7581 106.619 63.5591Z" fill="white"/>
<path opacity="0.4" d="M107.913 62.879C108.064 62.7967 108.215 62.7057 108.361 62.6191C102.943 55.3709 97.8904 47.8229 93.2246 40.0068C98.3491 48.8871 103.425 56.5069 107.913 62.879Z" fill="white"/>
<path opacity="0.4" d="M109.194 62.1295L109.651 61.8436C103.776 54.9581 98.3458 47.6597 93.3965 39.998C98.2308 47.7116 103.507 55.1026 109.194 62.1295V62.1295Z" fill="white"/>
<path opacity="0.4" d="M93.5596 39.9854C98.6623 47.5442 104.308 54.6726 110.447 61.3067L110.9 60.9819C104.571 54.5161 98.7701 47.4921 93.5596 39.9854V39.9854Z" fill="white"/>
<path opacity="0.4" d="M93.7227 39.9722C99.0749 47.3781 105.087 54.2194 111.675 60.4012C111.826 60.2842 111.968 60.1629 112.115 60.0417C106.795 55.4412 100.324 48.7528 93.7227 39.9722Z" fill="white"/>
<path opacity="0.4" d="M93.8857 39.9592C100.74 48.6966 107.439 55.177 112.845 59.4136C112.992 59.2836 113.143 59.1537 113.286 59.0194C107.803 55.0427 100.924 48.6922 93.8857 39.9592Z" fill="white"/>
<path opacity="0.4" d="M94.04 39.9463C101.323 48.61 108.422 54.7569 113.971 58.348C114.114 58.205 114.248 58.0534 114.379 57.9148C108.789 54.5923 101.515 48.61 94.04 39.9463Z" fill="white"/>
<path opacity="0.4" d="M94.2119 39.929C101.911 48.532 109.394 54.2804 115.02 57.1914L115.428 56.7149C109.753 54.1028 102.094 48.5147 94.2119 39.929Z" fill="white"/>
<path opacity="0.4" d="M116.028 55.9612C116.155 55.7879 116.273 55.6146 116.395 55.437C110.663 53.5527 102.65 48.3848 94.3633 39.916C102.474 48.4194 110.324 53.7606 116.028 55.9612Z" fill="white"/>
<path opacity="0.4" d="M116.914 54.6571L117.249 54.1026C111.508 52.9546 103.177 48.2243 94.5352 39.8984C103.017 48.2719 111.177 53.1842 116.914 54.6571Z" fill="white"/>
<path opacity="0.4" d="M117.705 53.3101C117.803 53.1195 117.897 52.9289 117.99 52.734C112.278 52.3008 103.665 48.0166 94.7344 39.8813C103.498 48.0859 111.993 52.5607 117.705 53.3101Z" fill="white"/>
<path opacity="0.4" d="M94.8564 39.8596C103.93 47.8562 112.645 51.8805 118.316 51.9412C118.398 51.7462 118.476 51.5513 118.553 51.3564C112.89 51.6033 104.061 47.7696 94.8564 39.8596Z" fill="white"/>
</g>
<path opacity="0.2" d="M79.3523 40.7173C77.806 44.9279 79.4788 57.1784 90.6376 57.1784C101.796 57.1784 105.848 48.571 105.395 43.2515L120.291 40.7043C120.291 40.7043 124.857 54.0984 115.162 63.4682C105.468 72.838 71.8655 72.2316 64.7622 65.11C57.6589 57.9884 61.6002 43.9186 61.6002 43.9186L79.3523 40.7173Z" fill="black"/>
<path d="M144.73 22.5496V19.5952C144.73 19.4859 144.763 19.3794 144.824 19.2913C144.885 19.2032 144.971 19.1382 145.069 19.1057L147.109 18.43V15.4757C147.109 15.1218 147.242 14.7824 147.477 14.5322C147.713 14.282 148.032 14.1414 148.366 14.1414H150.814C150.934 14.139 151.051 14.1865 151.139 14.2738C151.228 14.361 151.281 14.4814 151.287 14.6093V15.5623C151.287 15.6925 151.239 15.8175 151.152 15.91C151.066 16.0024 150.949 16.055 150.826 16.0561H147.713V18.9455C147.711 19.0326 147.689 19.1179 147.649 19.1936C147.608 19.2693 147.55 19.3329 147.48 19.3787L145.742 20.4963V22.5539L144.73 22.5496Z" fill="#999999" stroke="#263238" stroke-linecap="round" stroke-linejoin="round"/>
<path d="M147.415 22.5496H144.73V31.0746H147.415V22.5496Z" fill="#263238"/>
<path d="M150.772 21.8262H147.414V31.7981H150.772V21.8262Z" fill="#757575"/>
<path opacity="0.2" d="M150.764 27.8994H147.414V31.7981H150.764V27.8994Z" fill="black"/>
<path d="M150.772 21.8262H147.414V31.7981H150.772V21.8262Z" stroke="#263238" stroke-linecap="round" stroke-linejoin="round"/>
<path d="M35.1659 31.0703H37.8506V22.5452H35.1659V31.0703Z" fill="#263238"/>
<path d="M31.8082 31.7939H35.166V21.822H31.8082V31.7939Z" fill="#757575"/>
<path opacity="0.2" d="M35.1703 27.8994H31.8125V31.7028H35.1703V27.8994Z" fill="black"/>
<path d="M31.8082 31.7939H35.166V21.822H31.8082V31.7939Z" stroke="#263238" stroke-linecap="round" stroke-linejoin="round"/>
<path d="M37.4466 27.319C37.689 26.6437 37.7265 25.9049 37.5539 25.2058C37.3812 24.5068 37.007 23.8825 36.4837 23.4204L34.509 21.6876C34.3833 21.5752 34.2372 21.4915 34.0797 21.4417C33.9223 21.3919 33.7568 21.3771 33.5937 21.3983C33.4306 21.4194 33.2734 21.476 33.1318 21.5646C32.9902 21.6531 32.8674 21.7717 32.7709 21.9129L24.9414 33.3793C24.7924 33.5938 24.7123 33.8535 24.7129 34.1201V46.4355C24.7129 46.6008 24.7438 46.7645 24.8039 46.917C24.8639 47.0695 24.952 47.2078 25.0628 47.3239C25.1736 47.4399 25.3051 47.5315 25.4496 47.5931C25.594 47.6548 25.7486 47.6854 25.9043 47.6831V47.6831C26.2159 47.6831 26.5148 47.5516 26.7351 47.3177C26.9555 47.0837 27.0793 46.7664 27.0793 46.4355V36.4333C27.08 36.1864 27.1527 35.9458 27.2874 35.7445L33.1422 27.0808C33.1934 27.0047 33.259 26.9408 33.3348 26.893C33.4105 26.8453 33.4948 26.8147 33.5822 26.8033C33.6697 26.7919 33.7584 26.7999 33.8427 26.8268C33.9271 26.8537 34.0053 26.8989 34.0724 26.9595L35.1495 27.9298C35.4162 28.1701 35.7545 28.3021 36.1042 28.3024V28.3024C36.3951 28.3005 36.6787 28.2057 36.9181 28.0304C37.1576 27.855 37.3417 27.6071 37.4466 27.319V27.319Z" fill="white" stroke="#263238" stroke-linecap="round" stroke-linejoin="round"/>
<path d="M35.8304 26.1969C36.1392 26.1969 36.3894 25.9312 36.3894 25.6035C36.3894 25.2757 36.1392 25.01 35.8304 25.01C35.5217 25.01 35.2715 25.2757 35.2715 25.6035C35.2715 25.9312 35.5217 26.1969 35.8304 26.1969Z" fill="#999999" stroke="#263238" stroke-linecap="round" stroke-linejoin="round"/>
<path d="M142.242 18.4302H40.3438V35.1858H142.242V18.4302Z" fill="#263238"/>
<path opacity="0.2" d="M140.768 19.6907H41.775C41.464 19.6907 41.2119 19.9583 41.2119 20.2885V23.0002C41.2119 23.3304 41.464 23.598 41.775 23.598H140.768C141.079 23.598 141.331 23.3304 141.331 23.0002V20.2885C141.331 19.9583 141.079 19.6907 140.768 19.6907Z" fill="white"/>
<path d="M133.118 38.5558H49.4777C47.1206 32.8356 45.8718 26.6703 45.8057 20.427H136.806C136.806 28.8221 133.118 38.5558 133.118 38.5558Z" fill="white"/>
<g opacity="0.7">
<path opacity="0.7" d="M56.2441 37.1958C56.2441 37.1958 58.0761 37.0918 59.1001 36.4377C60.1242 35.7836 60.0508 37.0268 60.6383 37.1091C61.2258 37.1914 62.613 36.6759 63.3474 36.6759C64.0818 36.6759 63.5229 37.1524 64.3511 37.1091C65.1793 37.0658 64.7346 37.1524 65.1671 37.0658L68.7126 36.4377C68.7126 36.4377 70.5119 36.0695 70.875 36.2557C71.2381 36.442 71.7155 37.3604 72.2459 37.1221C72.7763 36.8839 72.4948 36.6889 73.2945 36.6889C73.7888 36.6914 74.2805 36.7672 74.7551 36.9142C74.7551 36.9142 74.8285 36.6933 75.1957 36.6889H75.8526C75.8526 36.6889 77.2439 37.0788 77.4642 37.0788C77.6845 37.0788 79.3288 36.6933 79.3859 36.6889C79.443 36.6846 81.0179 36.2557 81.0179 36.2557C81.352 36.6265 81.7753 36.8932 82.2419 37.0268C82.8376 37.1091 83.4659 36.9402 83.9147 37.1524C84.3635 37.3647 85.8405 37.0658 85.8405 37.0658C86.1928 37.0682 86.5446 37.0972 86.8931 37.1524C87.3501 37.2632 87.8262 37.2483 88.2762 37.1091C89.1036 36.8769 89.9718 36.862 90.8058 37.0658C92.1318 37.3214 93.3517 36.6803 93.9148 36.6759C94.4778 36.6716 96.73 36.9402 97.5052 36.9402C98.2804 36.9402 100.333 37.2347 101.761 37.0658C103.189 36.8968 104.123 37.2781 105.082 37.2781C106.041 37.2781 107.065 37.2347 107.285 37.2347C107.505 37.2347 108.566 36.4983 110.084 36.6759C111.602 36.8535 110.251 36.455 111.185 36.6759C112.12 36.8969 112.858 37.1091 113.254 37.1524C113.571 37.1721 113.89 37.1576 114.205 37.1091L115.837 36.9835H123.972" stroke="#263238" stroke-linecap="round" stroke-linejoin="round"/>
<path opacity="0.7" d="M54.5508 33.8514C54.5508 33.8514 59.5896 33.8514 60.4994 33.7648C61.4093 33.6782 61.8948 33.1843 62.3803 33.1843C62.8658 33.1843 65.3179 33.6782 65.3179 33.6782C65.3894 33.5166 65.5062 33.3825 65.6523 33.2941C65.7983 33.2057 65.9665 33.1674 66.1339 33.1843C66.7989 33.1843 66.4603 33.2493 67.0723 33.5092C67.6843 33.7691 67.3661 33.5092 67.6884 33.7648C68.1689 33.9939 68.6769 34.1513 69.198 34.2326C69.198 34.2326 71.4705 34.3453 71.5562 33.7648C71.6419 33.1843 72.7802 34.2326 72.7802 34.2326C72.7802 34.2326 75.8647 33.7648 77.056 33.7648C78.2474 33.7648 81.234 33.5092 81.234 33.5092C81.234 33.5092 83.682 33.8514 83.7962 33.8514C83.9104 33.8514 84.3144 34.5315 84.7509 34.2326C85.1875 33.9337 85.6077 33.5915 86.1259 33.6782C86.6071 33.8049 87.0727 33.991 87.5131 34.2326L88.6514 33.5915L89.957 33.6782C89.957 33.6782 91.2871 34.6182 92.2377 34.2326C92.9615 33.9255 93.6684 33.5755 94.3552 33.1843L95.5262 34.2326H96.2932L98.5658 33.7648C98.7407 33.993 98.9765 34.1598 99.2422 34.2433C99.508 34.3268 99.7913 34.3231 100.055 34.2326C101.018 33.9381 110.218 34.2326 112.56 34.2326C114.902 34.2326 115.416 33.5915 115.416 33.5915L117.22 34.2326H126.196" stroke="#263238" stroke-linecap="round" stroke-linejoin="round"/>
</g>
<path opacity="0.2" d="M133.971 36.052C133.478 37.6115 133.119 38.5558 133.119 38.5558H49.4787C49.4787 38.5558 49.0707 37.6461 48.5117 36.052H133.971Z" fill="black"/>
<path opacity="0.2" d="M135.714 29.4937C135.432 30.7932 135.122 32.0624 134.816 33.1844H47.602C47.3001 32.0841 46.99 30.8409 46.7207 29.4937H135.714Z" fill="black"/>
<path d="M133.118 38.5558H49.4777C47.1206 32.8356 45.8718 26.6703 45.8057 20.427H136.806C136.806 28.8221 133.118 38.5558 133.118 38.5558Z" stroke="#263238" stroke-linecap="round" stroke-linejoin="round"/>
<path d="M40.3239 17.5679H37.8311V36.0562H40.3239V17.5679Z" fill="#757575"/>
<path opacity="0.2" d="M40.2733 30.5723H37.8457V36.0564H40.2733V30.5723Z" fill="black"/>
<path d="M40.3239 17.5679H37.8311V36.0562H40.3239V17.5679Z" stroke="#263238" stroke-linecap="round" stroke-linejoin="round"/>
<path d="M144.751 17.5679H142.258V36.0562H144.751V17.5679Z" fill="#757575"/>
<path opacity="0.2" d="M144.75 30.5723H142.236V36.0564H144.75V30.5723Z" fill="black"/>
<path d="M144.751 17.5679H142.258V36.0562H144.751V17.5679Z" stroke="#263238" stroke-linecap="round" stroke-linejoin="round"/>
<path d="M142.278 16.7925V30.2775H40.3024V16.7925H39.3232V31.1829H143.257V16.7925H142.278Z" fill="#999999" stroke="#263238" stroke-linecap="round" stroke-linejoin="round"/>
<path d="M148.305 39.5088V69.7494C148.305 70.2595 148.114 70.7487 147.774 71.1094C147.434 71.4701 146.974 71.6728 146.493 71.6728H36.0762C35.5957 71.6728 35.135 71.4701 34.7952 71.1094C34.4555 70.7487 34.2646 70.2595 34.2646 69.7494V39.5088C34.2646 38.9987 34.4555 38.5095 34.7952 38.1488C35.135 37.7881 35.5957 37.5854 36.0762 37.5854H86.9538V39.5088C86.9538 39.5088 78.2675 47.5097 63.2898 50.4597C65.4359 60.7738 77.1618 68.6535 91.3112 68.6535C105.461 68.6535 117.187 60.7652 119.337 50.4597C104.339 47.5097 95.6524 39.5088 95.6524 39.5088V37.5681H146.506C146.744 37.5698 146.979 37.6214 147.199 37.7199C147.418 37.8184 147.617 37.9619 147.784 38.1422C147.951 38.3224 148.083 38.5359 148.173 38.7704C148.262 39.0049 148.307 39.2558 148.305 39.5088Z" fill="white" stroke="#263238" stroke-linecap="round" stroke-linejoin="round"/>
<path d="M148.304 39.5088V69.7494C148.304 70.0024 148.257 70.2528 148.166 70.4865C148.074 70.7201 147.941 70.9323 147.772 71.111C147.603 71.2896 147.403 71.4312 147.183 71.5276C146.963 71.624 146.727 71.6733 146.488 71.6728H36.0754C35.8371 71.6733 35.6011 71.624 35.3809 71.5276C35.1606 71.4312 34.9604 71.2896 34.7918 71.111C34.6231 70.9323 34.4893 70.7201 34.398 70.4865C34.3068 70.2528 34.2598 70.0024 34.2598 69.7494V39.5088C34.2608 38.9979 34.4525 38.5082 34.7927 38.147C35.133 37.7857 35.5942 37.5823 36.0754 37.5811H86.953V39.5088C86.953 39.5088 78.2626 47.5054 63.289 50.4597C65.435 60.7738 77.161 68.6535 91.3145 68.6535C105.468 68.6535 117.186 60.7652 119.336 50.4597C104.338 47.5054 95.6515 39.5088 95.6515 39.5088V37.5681H146.505C146.985 37.5727 147.445 37.7796 147.782 38.1434C148.12 38.5072 148.307 38.9983 148.304 39.5088V39.5088Z" fill="white"/>
<path opacity="0.2" d="M145.856 39.9722V67.891C145.856 68.0766 145.822 68.2603 145.755 68.4317C145.687 68.6031 145.589 68.7587 145.465 68.8895C145.341 69.0204 145.194 69.1239 145.032 69.1941C144.87 69.2644 144.697 69.2999 144.522 69.2988H37.161C36.9867 69.2994 36.814 69.2634 36.6529 69.1928C36.4918 69.1223 36.3454 69.0186 36.2221 68.8877C36.0989 68.7569 36.0013 68.6015 35.9348 68.4304C35.8684 68.2593 35.8344 68.076 35.835 67.891V39.9722C35.8344 39.7867 35.8683 39.603 35.9347 39.4314C36.001 39.2599 36.0985 39.1039 36.2217 38.9723C36.3448 38.8408 36.4911 38.7363 36.6523 38.6648C36.8134 38.5933 36.9863 38.5562 37.161 38.5557H86.937V39.5087C86.937 39.5087 78.2466 47.5053 63.273 50.4596C65.419 60.7737 77.145 68.6534 91.2985 68.6534C105.452 68.6534 117.17 60.7651 119.32 50.4596C104.322 47.5053 95.6355 39.5087 95.6355 39.5087V38.5557H144.534C144.886 38.5591 145.222 38.7098 145.47 38.9751C145.717 39.2404 145.856 39.5987 145.856 39.9722V39.9722Z" fill="white"/>
<path d="M148.304 39.5088V69.7494C148.304 70.0024 148.257 70.2528 148.166 70.4865C148.074 70.7201 147.941 70.9323 147.772 71.111C147.603 71.2896 147.403 71.4312 147.183 71.5276C146.963 71.624 146.727 71.6733 146.488 71.6728H36.0754C35.8371 71.6733 35.6011 71.624 35.3809 71.5276C35.1606 71.4312 34.9604 71.2896 34.7918 71.111C34.6231 70.9323 34.4893 70.7201 34.398 70.4865C34.3068 70.2528 34.2598 70.0024 34.2598 69.7494V39.5088C34.2608 38.9979 34.4525 38.5082 34.7927 38.147C35.133 37.7857 35.5942 37.5823 36.0754 37.5811H86.953V39.5088C86.953 39.5088 78.2626 47.5054 63.289 50.4597C65.435 60.7738 77.161 68.6535 91.3145 68.6535C105.468 68.6535 117.186 60.7652 119.336 50.4597C104.338 47.5054 95.6515 39.5088 95.6515 39.5088V37.5681H146.505C146.985 37.5727 147.445 37.7796 147.782 38.1434C148.12 38.5072 148.307 38.9983 148.304 39.5088V39.5088Z" stroke="#263238" stroke-linecap="round" stroke-linejoin="round"/>
<path opacity="0.2" d="M111.829 80.6356L117.251 96.6937C117.251 96.6937 119.597 79.0198 120.996 79.0198C122.396 79.0198 125.411 88.6841 125.411 88.6841C125.411 88.6841 127.271 83.6419 129.034 83.4599C130.796 83.278 132.392 95.8404 132.392 95.8404L132.665 123.725L130.441 165.895C130.441 165.895 116.255 149.304 112.118 145.029C107.981 140.753 104.028 131.344 102.885 129.434C101.743 127.524 101.453 117.521 101.453 117.521C102.899 115.556 103.655 113.118 103.591 110.625C103.591 110.625 106.92 104.708 106.716 100.341C106.512 95.9746 105.998 79.0068 111.829 80.6356Z" fill="black" fill-opacity="0.7"/>
<path d="M154.51 158.427L133.033 170.422C133.033 170.3 130.21 165.444 126.799 159.952C125.257 157.465 123.592 154.853 122.013 152.488C119.426 148.62 116.138 145.28 115.856 144.552C115.04 142.386 108.749 134.277 107.341 131.123C105.934 127.97 105.611 118.158 104.991 115.849C104.371 113.54 106.15 111.335 107.578 110.261C109.006 109.187 110.503 106.362 110.503 106.362C110.503 106.362 108.924 99.8299 108.908 96.5074C108.892 93.1848 107.827 81.5885 109.1 80.5055C110.373 79.4225 111.511 79.8774 111.829 80.6225C112.874 83.0786 113.812 89.2558 114.616 92.1019C115.42 94.9479 116.929 103.204 117.672 103.798C118.414 104.391 119.736 102.165 119.736 102.165C119.736 102.165 119.863 95.2338 120.144 92.3618L119.736 83.2649C119.736 83.2649 118.973 77.7981 120.748 77.2783C123.196 76.5635 124.09 78.1966 124.367 78.8854C124.645 79.5742 125.787 83.5421 125.787 83.5421L125.852 83.815C125.852 83.841 125.852 83.867 125.852 83.8973V83.945C125.871 84.0201 125.892 84.1024 125.913 84.1919C125.958 84.3738 126.011 84.5904 126.068 84.8374C126.611 87.0942 127.656 91.6124 127.611 92.7256C127.55 94.2288 127.056 102.555 127.754 104.283L128.839 92.782C128.839 92.782 127.088 83.919 127.598 82.6411C128.108 81.3632 130.512 82.7754 130.797 83.2779C131.083 83.7804 133.417 86.8213 133.833 87.9823L134.241 89.1432C134.241 89.1432 134.816 86.3968 136.166 87.1116C137.517 87.8263 137.684 91.3178 137.778 92.8426C137.872 94.3674 138.851 104.175 139.002 104.192C139.153 104.209 140.712 109.304 140.499 112.67C140.055 119.873 141.23 125.232 141.271 127.996C141.311 130.759 139.349 137.162 139.349 137.162C139.418 137.287 140.699 139.601 141.05 141.632C141.307 143.122 145.881 148.507 149.618 152.791C152.217 155.745 154.396 158.163 154.51 158.427Z" fill="white"/>
<path opacity="0.4" d="M126.802 159.96C125.259 157.474 123.595 154.862 122.016 152.497C119.429 148.628 116.141 145.288 115.859 144.561C115.043 142.395 108.752 134.286 107.344 131.132C105.937 127.978 105.614 118.167 104.994 115.858C104.374 113.549 106.153 111.344 107.581 110.27C109.009 109.195 110.506 106.371 110.506 106.371C110.506 106.371 108.927 99.8387 108.911 96.5161C108.895 93.1936 107.83 81.5973 109.103 80.5143C110.376 79.4313 111.514 79.8862 111.832 80.6313C112.877 83.0874 113.815 89.2646 114.619 92.1107C115.423 94.9567 116.932 103.213 117.675 103.807C118.417 104.4 119.739 102.174 119.739 102.174C119.739 102.174 119.866 95.2426 120.147 92.3706L119.739 83.2737C119.739 83.2737 118.976 77.8069 120.751 77.2871C123.199 76.5723 124.093 78.2054 124.37 78.8942C124.647 79.5829 125.79 83.5509 125.79 83.5509L125.855 83.8238C125.855 83.8498 125.855 83.8758 125.855 83.9061V83.9538C125.872 84.0289 125.892 84.1112 125.916 84.2007C125.961 84.3826 126.014 84.5992 126.071 84.8461C125.439 83.7848 124.57 82.8795 123.407 82.6412C120.143 81.9655 120.849 85.8208 121.159 88.134C121.335 89.669 121.301 91.2229 121.057 92.7474L121.873 92.2493C121.286 93.3626 120.445 102.615 120.445 104.673C120.445 106.731 118.911 107.415 117.536 106.813C116.161 106.211 115.671 96.7674 114.627 95.0736C113.583 93.3799 110.678 96.6158 110.547 99.5744C110.416 102.533 113.015 111.357 112.399 113.436C111.783 115.516 111.791 123.4 111.791 123.4L111.041 121.368C111.09 121.645 111.041 122.577 109.47 125.319C108.88 126.311 108.498 127.427 108.351 128.59C108.204 129.753 108.295 130.936 108.617 132.059C109.576 134.307 114.439 140.233 115.255 140.844C115.255 140.844 115.847 138.271 117.703 138.955C117.071 140.022 116.611 141.193 116.341 142.421C115.957 144.309 119.829 145.518 121.041 147.316C121.783 148.412 122.281 151.752 126.802 159.96Z" fill="white"/>
<path opacity="0.4" d="M149.642 152.795C145.824 148.711 139.104 144.821 139.512 143.803C140.059 142.434 139.365 139.518 138.19 137.153C137.015 134.788 138.598 130.95 138.598 130.95L139.324 133.181C139.905 130.608 139.973 127.934 139.524 125.332C138.782 120.909 138.202 122.464 138.202 122.464C138.202 122.464 138.353 118.479 139.018 116.304C139.683 114.129 140.242 108.849 139.324 105.726C138.406 102.602 136.468 103.191 135.95 104.266C135.432 105.34 135.987 109.529 136.415 110.902C136.844 112.275 135.02 114.584 134.983 112.869C134.946 111.153 134.257 106.371 134.257 106.371L135.64 96.7673L134.257 89.1389C134.257 89.1389 134.832 86.3925 136.183 87.1072C137.533 87.822 137.7 91.3135 137.794 92.8383C137.888 94.3631 138.867 104.17 139.018 104.188C139.169 104.205 140.728 109.299 140.516 112.665C140.071 119.869 141.246 125.228 141.287 127.991C141.327 130.755 139.365 137.157 139.365 137.157C139.434 137.283 140.715 139.596 141.066 141.628C141.323 143.118 145.897 148.503 149.634 152.787L149.642 152.795Z" fill="white"/>
<path opacity="0.4" d="M133.832 87.9823C133.91 88.1989 133.975 88.3765 134.024 88.5195C132.727 85.3182 130.515 86.3102 130.124 87.2199C129.732 88.1296 131.05 93.774 131.348 94.6491C131.646 95.5241 130.165 102.511 129.948 104.825C129.732 107.138 129.157 107.61 129.157 107.61C127.692 107.727 127.525 103.434 127.525 102.845C127.553 103.338 127.644 103.824 127.794 104.292L128.879 92.7907C128.879 92.7907 127.088 83.9191 127.598 82.6412C128.108 81.3633 130.511 82.7755 130.797 83.2779C131.083 83.7804 133.416 86.8214 133.832 87.9823Z" fill="white"/>
<path d="M154.509 158.427C154.232 157.76 141.49 144.132 141.045 141.628C140.686 139.54 139.34 137.153 139.34 137.153C139.34 137.153 141.302 130.764 141.261 127.987C141.22 125.21 140.037 119.865 140.49 112.661C140.702 109.295 139.148 104.201 138.993 104.183C138.838 104.166 137.859 94.3588 137.769 92.834C137.679 91.3092 137.512 87.8177 136.157 87.1029C134.803 86.3882 134.231 89.1346 134.231 89.1346L133.823 87.9736C133.415 86.8127 131.074 83.7718 130.788 83.2693C130.502 82.7668 128.103 81.3502 127.589 82.6325C127.075 83.9147 128.866 92.7647 128.866 92.7647L127.789 104.279C127.091 102.546 127.585 94.2245 127.646 92.7214C127.708 91.2182 125.79 83.5378 125.79 83.5378C125.79 83.5378 124.639 79.5872 124.37 78.8768C124.101 78.1663 123.199 76.5549 120.751 77.2696C118.976 77.7895 119.739 83.2563 119.739 83.2563L120.147 92.3531C119.874 95.2382 119.739 102.156 119.739 102.156C119.739 102.156 118.417 104.378 117.675 103.789C116.932 103.2 115.423 94.9479 114.619 92.0932C113.815 89.2385 112.877 83.07 111.832 80.6138C111.514 79.8688 110.376 79.4139 109.103 80.4969C107.83 81.5798 108.891 93.1719 108.911 96.4987C108.931 99.8256 110.506 106.354 110.506 106.354C110.506 106.354 109.009 109.161 107.581 110.252C106.153 111.344 104.374 113.527 104.994 115.84C105.614 118.154 105.937 127.97 107.344 131.115C108.752 134.259 115.027 142.377 115.859 144.543C116.141 145.271 119.429 148.611 122.016 152.479C127.096 160.073 133.032 170.24 133.032 170.413" stroke="#263238" stroke-linecap="round" stroke-linejoin="round"/>
<path d="M110.502 106.375C110.502 106.375 111.514 111.699 111.477 112.591C111.477 112.591 110.591 116.702 110.583 119.366C109.964 120.37 109.408 121.416 108.919 122.498C108.576 123.46 107.964 125.825 108.217 127.142" stroke="#263238" stroke-linecap="round" stroke-linejoin="round"/>
<path d="M108.653 114.242C108.653 114.242 111.134 114.264 110.975 115.373" stroke="#263238" stroke-linecap="round" stroke-linejoin="round"/>
<path d="M110.584 119.366C110.584 119.366 108.993 118.634 108.434 119.618" stroke="#263238" stroke-linecap="round" stroke-linejoin="round"/>
<path d="M119.743 102.173C119.743 102.173 119.629 106.254 118.617 105.929" stroke="#263238" stroke-linecap="round" stroke-linejoin="round"/>
<path d="M127.789 104.279C127.789 104.279 127.495 106.51 128.286 107.198" stroke="#263238" stroke-linecap="round" stroke-linejoin="round"/>
<path d="M134.244 89.1433C134.244 89.1433 135.346 94.7747 135.599 96.1089C135.852 97.4431 134.346 104.253 134.375 106.025C134.403 107.796 135.117 110.33 135.019 111.522" stroke="#263238" stroke-linecap="round" stroke-linejoin="round"/>
<path d="M138.643 131.912C138.643 131.912 138.288 135.589 139.353 137.162" stroke="#263238" stroke-linecap="round" stroke-linejoin="round"/>
<path d="M117.25 139.189C117.25 139.189 114.876 141.485 115.745 144.309" stroke="#263238" stroke-linecap="round" stroke-linejoin="round"/>
<path d="M132.857 110.564C132.894 112.184 132 114.073 131.906 116.313" stroke="#263238" stroke-linecap="round" stroke-linejoin="round"/>
<path d="M125.293 109.117C125.799 110.443 124.697 113.328 124.53 114.411C124.463 115.258 124.55 116.111 124.787 116.923" stroke="#263238" stroke-linecap="round" stroke-linejoin="round"/>
<path d="M139.511 113.683C139.307 115.091 138.369 116.096 138.189 120.428" stroke="#263238" stroke-linecap="round" stroke-linejoin="round"/>
<path d="M116.344 108.706C117.029 109.499 116.568 113.285 116.752 113.904" stroke="#263238" stroke-linecap="round" stroke-linejoin="round"/>
<path d="M129.127 86.8949C129.127 86.8949 131.461 85.0799 133.468 87.2198" stroke="#263238" stroke-linecap="round" stroke-linejoin="round"/>
<path d="M121.091 82.7236C121.091 82.7236 121.499 82.0001 123.469 82.1777C125.44 82.3553 125.791 83.5336 125.791 83.5336" stroke="#263238" stroke-linecap="round" stroke-linejoin="round"/>
<path d="M115.333 95.0908C115.333 95.0908 114.672 94.0555 112.929 94.3977C111.187 94.7399 110.412 97.3564 110.412 97.3564" fill="white"/>
<path d="M115.333 95.0908C115.333 95.0908 114.672 94.0555 112.929 94.3977C111.187 94.7399 110.412 97.3564 110.412 97.3564" stroke="#263238" stroke-linecap="round" stroke-linejoin="round"/>
<path d="M139.005 104.192C139.005 104.192 137.553 101.957 135.807 102.914" stroke="#263238" stroke-linecap="round" stroke-linejoin="round"/>
<path opacity="0.2" d="M77.1281 87.8176C79.5761 89.8319 77.5116 102.195 77.5116 102.195L77.7279 106.219L81.9262 104.279L83.8397 112.877C83.8397 112.877 83.7908 116.027 85.3452 117.209C85.3452 117.209 85.7288 124.275 85.3452 129.438C84.9617 134.602 77.1852 140.671 74.5047 146.09C71.8241 151.509 54.3413 167.437 54.3413 167.437L39.5391 159.96L50.2409 114.069L59.8289 100.982L65.5124 85.929C65.5124 85.929 66.4875 95.7623 65.9204 102.39L77.1281 87.8176Z" fill="black" fill-opacity="0.7"/>
<path d="M81.2493 115.281C80.878 117.179 81.7715 127.58 81.6165 128.983C81.4614 130.387 73.6686 139.813 73.277 140.527C72.8853 141.242 67.6751 144.426 66.4634 145.947C60.8003 152.96 57.7077 159.419 55.223 165.895C54.7456 167.142 54.2886 168.394 53.8398 169.65L31.3672 155.789C33.2562 153.302 35.0392 151.093 36.6712 149.083C39.9352 145.007 42.5342 141.745 43.8071 138.665C44.1978 137.878 44.6452 137.125 45.1454 136.412C45.6513 135.65 46.1041 135.022 46.1041 135.022C46.1041 135.022 44.4722 130.14 44.8516 128.606C45.231 127.073 44.3824 114.467 44.3824 114.467C44.3824 114.467 43.2767 105.886 42.1874 103.72C41.9198 103.154 41.7987 102.523 41.8365 101.892C41.8895 99.912 42.9707 97.4168 43.5011 94.5275C44.211 90.6288 43.8683 88.7011 46.096 90.0483C48.3237 91.3955 47.2833 99.5784 47.2833 99.5784L50.6493 107.497C51.5346 105.582 50.6493 99.9943 50.6044 98.673C50.6044 98.4565 50.6044 98.0969 50.5718 97.6291C50.5024 95.3505 50.3596 90.6071 50.5432 88.7358C50.5432 88.6318 50.5432 88.5365 50.5758 88.4499C50.8492 86.5179 51.8243 80.371 52.4445 79.6865C53.3666 78.6729 54.8313 77.8195 56.2103 80.1197C56.9814 81.4193 56.651 91.7247 56.651 91.7247C56.651 91.7247 59.8497 87.6268 60.8207 86.6262C61.7918 85.6255 64.7375 83.7975 65.525 85.9157C66.3124 88.034 63.4074 94.5794 63.4074 94.5794C64.0154 96.0956 64.0888 100.293 64.0888 100.293C64.0888 100.293 65.4638 105.539 66.3083 105.491H66.345C66.5898 105.435 66.8591 104.482 67.1406 103.144C67.8342 99.8643 68.589 94.2546 69.1806 93.7651L69.5886 93.4185C69.6073 93.3936 69.6293 93.3717 69.6539 93.3535L69.8049 93.2106C71.2492 91.846 74.2929 88.8137 74.2929 88.8137C74.2929 88.8137 74.5091 87.3626 77.1734 87.8088C79.8376 88.2549 75.9902 96.6024 75.9902 96.6024C75.4557 99.2578 74.6356 106.089 74.6356 106.089C74.3867 108.931 74.5336 116.568 74.5336 116.568C74.5336 116.568 75.7943 112.123 75.7127 110.503C75.6311 108.883 78.2178 104.915 78.9767 103.893C79.7356 102.871 83.122 103.23 82.1795 105.192C81.237 107.155 81.6206 113.375 81.2493 115.281Z" fill="white"/>
<path opacity="0.4" d="M43.7951 138.682C44.1857 137.896 44.6332 137.143 45.1333 136.429C45.1333 136.429 43.8073 140.328 43.6768 142.403C43.5911 143.772 40.1965 146.141 36.6592 149.1C39.9436 145.024 42.5221 141.762 43.7951 138.682Z" fill="white"/>
<path opacity="0.4" d="M45.1338 136.43C45.6397 135.667 46.0926 135.039 46.0926 135.039C46.0926 135.039 44.4606 130.157 44.84 128.624C45.2195 127.09 44.3708 114.484 44.3708 114.484C44.3708 114.484 43.2651 105.903 42.1758 103.737L44.7135 108.446C44.7135 108.446 44.4647 112.167 45.1868 114.207C45.909 116.247 46.8188 122.472 46.8188 122.472C46.8188 122.472 45.7499 127.705 46.113 129.59C46.4761 131.474 48.1122 130.789 48.1122 130.789C48.1122 130.789 48.9159 134.238 45.1338 136.43Z" fill="white"/>
<path opacity="0.4" d="M51.0532 100.982C52.8035 111.864 49.7884 108.853 48.699 106.505C47.6097 104.157 45.0515 99.7127 43.1257 100.661C42.5849 100.931 42.1319 101.365 41.8242 101.909C41.8773 99.9293 42.9585 97.4342 43.4889 94.5448C44.1988 90.6462 43.8561 88.7185 46.0837 90.0657C48.3114 91.4129 47.271 99.5958 47.271 99.5958L50.637 107.514C51.5224 105.6 50.637 100.012 50.5921 98.6904C50.5921 98.4738 50.5921 98.1143 50.5595 97.6464C50.6941 98.6471 50.8573 99.7604 51.0532 100.982Z" fill="white"/>
<path opacity="0.4" d="M55.3375 90.2306C55.3375 90.2306 53.4485 87.6055 51.8083 87.7397C51.5267 87.7559 51.2556 87.8593 51.0287 88.0371C50.8018 88.215 50.6288 88.4594 50.5312 88.7404C50.5313 88.6364 50.5313 88.5411 50.5639 88.4545C50.8373 86.5225 51.8124 80.3756 52.4325 79.6912C53.3546 78.6775 54.8193 77.8241 56.1984 80.1244C56.9695 81.4239 56.639 91.7294 56.639 91.7294C56.639 91.7294 59.8377 87.6315 60.8088 86.6308C61.7798 85.6301 64.7256 83.8021 65.513 85.9204C66.3004 88.0386 63.3955 94.5841 63.3955 94.5841C64.0034 96.1002 64.0768 100.298 64.0768 100.298C64.0768 100.298 65.4518 105.544 66.2964 105.496C64.4359 109.213 63.1956 100.995 63.1956 100.995C63.473 99.2971 62.4856 95.6151 62.5836 94.6447C62.6815 93.6744 60.87 90.2436 57.8181 91.1792C54.7663 92.1149 56.9695 104.92 56.9695 104.92C56.3664 105.94 56.0156 107.105 55.9495 108.307C55.007 107.073 55.9495 103.542 55.9495 103.542C55.1131 100.163 55.3375 90.2306 55.3375 90.2306Z" fill="white"/>
<path opacity="0.4" d="M69.5603 93.4058C68.2588 94.8569 68.4383 98.526 67.1123 103.131C67.8059 99.8516 68.5607 94.2418 69.1523 93.7523L69.5603 93.4058Z" fill="white"/>
<path opacity="0.4" d="M81.2499 115.282C80.8787 117.179 81.7722 127.58 81.6171 128.983C81.4621 130.387 73.6693 139.813 73.2776 140.528C72.8859 141.242 67.6758 144.426 66.464 145.947C60.801 152.96 57.7084 159.419 55.2236 165.895C56.1596 162.538 57.2892 159.245 58.6059 156.036C61.2865 149.637 62.3799 148.498 63.9875 146.67C65.595 144.842 65.4196 140.956 65.4196 140.956C66.606 140.653 67.8222 140.5 69.0426 140.502C71.0826 140.502 77.121 131.361 79.1977 129.759C81.2744 128.156 81.6457 128.156 79.1977 124.621C76.7497 121.086 77.4433 125.189 76.7089 125.054C75.9745 124.92 75.5747 126.627 75.5747 126.627C75.3176 123.023 73.1267 118.829 72.6656 117.781C72.2046 116.733 73.7836 110.586 73.4572 108.875C73.1308 107.164 74.8607 96.7456 74.8607 96.7456C74.8607 96.7456 74.6444 92.7473 71.2336 92.7343C70.7101 92.7036 70.1931 92.8692 69.7729 93.2021C71.2172 91.8376 74.2609 88.8053 74.2609 88.8053C74.2609 88.8053 74.4772 87.3541 77.1414 87.8003C79.8056 88.2465 75.9582 96.594 75.9582 96.594C75.4237 99.2494 74.6036 106.081 74.6036 106.081C74.3547 108.922 74.5016 116.559 74.5016 116.559C74.5016 116.559 75.7623 112.115 75.6807 110.495C75.5991 108.875 78.1859 104.907 78.9447 103.884C79.7036 102.862 83.09 103.222 82.1476 105.184C81.2051 107.146 81.6212 113.376 81.2499 115.282Z" fill="white"/>
<path d="M53.8359 169.69C56.6062 161.923 59.703 154.342 66.4635 145.968C67.6875 144.47 72.8813 141.286 73.2771 140.549C73.6729 139.813 81.4657 130.404 81.6166 129.005C81.7676 127.606 80.8781 117.201 81.2494 115.303C81.6207 113.406 81.1882 107.151 82.1266 105.201C83.065 103.252 79.6786 102.897 78.9238 103.902C78.169 104.907 75.5905 108.909 75.6598 110.512C75.7292 112.115 74.4807 116.577 74.4807 116.577C74.4807 116.577 74.3338 108.94 74.5827 106.098C74.5827 106.098 75.3987 99.2667 75.9373 96.6113C75.9373 96.6113 79.7806 88.2594 77.1205 87.8176C74.4603 87.3757 74.24 88.8226 74.24 88.8226C74.24 88.8226 69.9927 93.0591 69.1522 93.7522C68.3117 94.4453 67.1653 105.275 66.3207 105.479C65.4761 105.682 64.0645 100.28 64.0645 100.28C64.0645 100.28 63.991 96.0828 63.3831 94.5666C63.3831 94.5666 66.284 88.0385 65.5006 85.9029C64.7173 83.7673 61.7715 85.617 60.7964 86.6133C59.8213 87.6097 56.6266 91.7119 56.6266 91.7119C56.6266 91.7119 56.9571 81.3978 56.186 80.1069C54.807 77.798 53.33 78.6514 52.4202 79.6737C51.8 80.3581 50.8249 86.505 50.5515 88.437C50.2782 90.3691 50.5515 97.3347 50.5801 98.6602C50.6086 99.9858 51.5103 105.57 50.625 107.484L47.259 99.5656C47.259 99.5656 48.3034 91.374 46.0717 90.0355C43.8399 88.697 44.1867 90.629 43.4768 94.5146C42.7669 98.4003 41.0778 101.558 42.163 103.728C43.2483 105.899 44.3581 114.476 44.3581 114.476C44.3581 114.476 45.1986 127.082 44.8273 128.615C44.456 130.148 46.0921 135.035 46.0921 135.035C46.0921 135.035 44.2071 137.673 43.795 138.678C41.8938 143.265 37.0834 148.282 31.3633 155.828" stroke="#263238" stroke-linecap="round" stroke-linejoin="round"/>
<path d="M56.6379 91.738C56.1641 92.4819 55.9241 93.366 55.9524 94.2635C55.9524 95.9096 56.9684 104.92 56.9684 104.92C56.9684 104.92 56.2299 105.847 56.1932 106.653" stroke="#263238" stroke-linecap="round" stroke-linejoin="round"/>
<path d="M74.4883 116.555C74.5998 118.077 74.9688 119.565 75.5776 120.947C76.5324 122.949 76.2223 124.053 75.8959 125.236C75.6772 126.273 75.561 127.331 75.5491 128.394" stroke="#263238" stroke-linecap="round" stroke-linejoin="round"/>
<path d="M50.9966 105.721C50.9966 105.721 51.7065 108.112 50.3887 109.247" stroke="#263238" stroke-linecap="round" stroke-linejoin="round"/>
<path d="M66.3336 105.479C66.3336 105.479 66.4723 106.419 65.2197 106.505" stroke="#263238" stroke-linecap="round" stroke-linejoin="round"/>
<path d="M74.7455 94.6489C74.7455 94.6489 71.6039 91.0101 69.1641 93.7522" stroke="#263238" stroke-linecap="round" stroke-linejoin="round"/>
<path d="M62.0167 92.6044C62.0167 92.6044 60.5683 90.6594 59.3117 90.7763C58.0551 90.8933 56.3578 91.7077 56.166 92.7776" stroke="#263238" stroke-linecap="round" stroke-linejoin="round"/>
<path d="M76.166 124.067C76.6727 124.836 77.042 125.698 77.2554 126.609" stroke="#263238" stroke-linecap="round" stroke-linejoin="round"/>
<path d="M68.0067 109.278C67.0316 111.205 67.4967 114.476 67.1377 115.372" stroke="#263238" stroke-linecap="round" stroke-linejoin="round"/>
<path d="M57.6756 106.076C57.9041 107.185 57.182 108.992 57.0718 110.322C56.9616 111.652 57.9857 113.705 57.798 115.572" stroke="#263238" stroke-linecap="round" stroke-linejoin="round"/>
<path d="M51.0535 110.616C51.0535 110.616 50.2008 112.704 50.2375 114.082C50.2742 115.459 50.7352 118.479 50.7352 118.479" stroke="#263238" stroke-linecap="round" stroke-linejoin="round"/>
<path d="M44.7814 110.516C44.7814 110.516 44.4714 112.682 45.1894 114.207C45.9075 115.732 46.6052 118.972 46.6052 118.972" stroke="#263238" stroke-linecap="round" stroke-linejoin="round"/>
<path d="M46.0908 135.035C46.4669 134.924 46.803 134.696 47.0555 134.38C47.3079 134.064 47.4651 133.675 47.5066 133.263" stroke="#263238" stroke-linecap="round" stroke-linejoin="round"/>
<path d="M66.6027 141.636C66.6027 141.636 67.3819 144.699 65.8887 146.67" stroke="#263238" stroke-linecap="round" stroke-linejoin="round"/>
<path d="M41.8438 101.545C41.8438 101.545 44.0388 99.271 45.6993 101.19" stroke="#263238" stroke-linecap="round" stroke-linejoin="round"/>
<path d="M50.5635 88.4543C50.5635 88.4543 52.1955 86.6393 54.1049 88.5799" stroke="#263238" stroke-linecap="round" stroke-linejoin="round"/>
</svg>
