<svg width="120" height="120" viewBox="0 0 120 120" fill="none" xmlns="http://www.w3.org/2000/svg">
<g clip-path="url(#clip0_7822_1595)">
<path d="M70.0934 75.0556C74.7439 73.863 78.7836 71.24 81.776 67.4702C85.4449 62.8481 87.0715 57.0762 86.356 51.2177C85.6405 45.3605 82.6694 40.1457 77.9937 36.5431C73.4636 33.0506 67.8161 31.498 62.0916 32.1713C56.3674 32.8445 51.2339 35.6651 47.6369 40.113C44.5533 43.9262 42.8715 48.5256 42.7732 53.4142C42.6137 61.3503 39.8789 69.0557 35.0725 75.1109L29.8133 81.7365C27.4804 84.6754 27.9735 88.9642 30.9124 91.2971L35.8701 95.2323C38.809 97.5652 43.0979 97.0719 45.4307 94.1331L50.6895 87.508C55.5493 81.386 62.2445 77.0682 70.0934 75.0556ZM45.5771 53.4707C45.6628 49.2104 47.1291 45.2012 49.8175 41.8766C56.2762 33.8898 68.1478 32.4936 76.2812 38.7642C80.3592 41.9128 82.9484 46.4518 83.5719 51.5579C84.1958 56.6653 82.7777 61.6972 79.5793 65.7267C76.9706 69.0132 73.4495 71.2997 69.3966 72.3391C61.1265 74.4599 54.0166 78.9491 48.8016 85.336L37.5936 76.4394C42.5779 69.9716 45.409 61.8368 45.5771 53.4707ZM32.6007 82.7357L33.3066 81.8466L43.5102 92.042L43.2342 92.3896C43.0889 92.5727 42.9283 92.7359 42.7597 92.8864L32.6007 82.7357ZM35.0616 79.6356L35.8531 78.6385L47.0774 87.548L45.2652 89.831L35.0616 79.6356ZM32.6559 89.1006C31.4761 88.1641 30.9681 86.6914 31.2006 85.3012L39.796 93.8897C39.0252 93.832 38.2635 93.5515 37.6138 93.0358L32.6561 89.1005L32.6559 89.1006Z" fill="black"/>
<path d="M52.4713 46.9017C52.8418 46.2589 53.2697 45.636 53.7431 45.0507C54.2301 44.4486 54.1367 43.5657 53.5346 43.0787C52.9363 42.5952 52.0496 42.685 51.5625 43.2872C50.997 43.9865 50.4852 44.7313 50.0414 45.5012C49.69 46.1108 49.8479 46.8742 50.383 47.2989C50.4369 47.3417 50.4947 47.3811 50.5561 47.4165C51.2271 47.803 52.0845 47.5727 52.4713 46.9017Z" fill="black"/>
<path d="M45.6924 68.7151C45.806 68.8053 45.9359 68.8793 46.0795 68.9324C46.8061 69.2003 47.6124 68.8284 47.8802 68.1019C49.6012 63.4341 50.5246 58.5454 50.6244 53.5719C50.641 52.7498 50.7285 51.9296 50.8848 51.1339C51.034 50.3739 50.5388 49.637 49.7788 49.4878C49.0189 49.3387 48.2819 49.8338 48.1327 50.5938C47.9454 51.5485 47.8403 52.5314 47.8205 53.5156C47.7269 58.1764 46.8617 62.7575 45.249 67.1317C45.034 67.7146 45.2308 68.3487 45.6924 68.7151Z" fill="black"/>
<path d="M73.1985 66.7919C72.832 66.1097 71.9816 65.8539 71.2996 66.2205C70.3102 66.7524 69.2481 67.1657 68.1429 67.449C67.3927 67.6413 66.9406 68.4055 67.1329 69.1556C67.2118 69.4637 67.3873 69.7214 67.6185 69.9049C67.9505 70.1684 68.3974 70.279 68.8396 70.1655C70.1641 69.8259 71.4384 69.3296 72.6272 68.6909C73.3094 68.3243 73.5653 67.4741 73.1985 66.7919Z" fill="black"/>
<path d="M73.3606 42.8885C79.4162 47.6953 80.4321 56.5326 75.6253 62.5883C75.352 62.9325 75.0608 63.2669 74.7598 63.582C74.225 64.1422 74.2453 65.0296 74.8053 65.5646C74.837 65.5948 74.8695 65.6232 74.9032 65.65C75.4645 66.0955 76.2832 66.0476 76.7879 65.5191C77.1476 65.1423 77.4956 64.7429 77.8219 64.3319C83.5901 57.065 82.371 46.4601 75.1042 40.6919C74.4976 40.2104 73.6155 40.3118 73.1341 40.9184C72.6526 41.5249 72.754 42.407 73.3606 42.8885Z" fill="black"/>
<path d="M79.7465 34.8432C80.3531 35.3247 81.2351 35.2233 81.7166 34.6167L86.5987 28.4662C87.0802 27.8596 86.9788 26.9775 86.3722 26.4961C85.7657 26.0146 84.8836 26.116 84.4021 26.7226L79.52 32.8731C79.0385 33.4797 79.1399 34.3618 79.7465 34.8432Z" fill="black"/>
<path d="M66.9128 28.1936C66.8366 28.7076 67.0493 29.1975 67.4288 29.4988C67.6151 29.6467 67.8417 29.7492 68.0939 29.7866C68.8599 29.9003 69.5732 29.3715 69.6869 28.6055L70.8396 20.841C70.9533 20.0747 70.4246 19.3617 69.6586 19.248C68.8925 19.1343 68.1792 19.6631 68.0655 20.4291L66.9128 28.1936Z" fill="black"/>
<path d="M78.2132 84.976L75.3285 77.6757C75.0439 76.9552 74.2292 76.6021 73.509 76.8869C72.7887 77.1715 72.4355 77.986 72.7202 78.7064L75.605 86.0067C75.6986 86.2439 75.8497 86.4412 76.0361 86.5891C76.4157 86.8904 76.9414 86.9864 77.4244 86.7955C78.1447 86.5109 78.4978 85.6962 78.2132 84.976Z" fill="black"/>
<path d="M50.7691 23.1485L53.6538 30.4489C53.7474 30.686 53.8985 30.8833 54.085 31.0313C54.4645 31.3326 54.9902 31.4285 55.4733 31.2376C56.1935 30.9531 56.5467 30.1385 56.262 29.4182L53.3773 22.1178C53.0929 21.3974 52.2782 21.0444 51.5578 21.3291C50.8376 21.6136 50.4845 22.428 50.7691 23.1485Z" fill="black"/>
<path d="M91.8309 73.9734L85.6803 69.0913C85.0738 68.6098 84.1917 68.7112 83.7102 69.3178C83.2288 69.9244 83.3302 70.8064 83.9367 71.2879L90.0872 76.17C90.6938 76.6515 91.5759 76.5501 92.0574 75.9435C92.5388 75.337 92.4376 74.455 91.8309 73.9734Z" fill="black"/>
<path d="M45.2722 38.8068C45.7537 38.2003 45.6523 37.3182 45.0457 36.8367L38.8952 31.9546C38.2886 31.4731 37.4065 31.5745 36.9251 32.1811C36.4436 32.7876 36.545 33.6697 37.1516 34.1512L43.3021 39.0333C43.9088 39.5149 44.7908 39.4134 45.2722 38.8068Z" fill="black"/>
<path d="M89.2828 58.9702C89.4691 59.1181 89.6956 59.2206 89.9479 59.258L97.7124 60.4107C98.4784 60.5244 99.1917 59.9956 99.3054 59.2296C99.4191 58.4636 98.8902 57.7502 98.1243 57.6366L90.3598 56.4839C89.5938 56.3702 88.8804 56.8989 88.7668 57.665C88.6905 58.1788 88.9034 58.669 89.2828 58.9702Z" fill="black"/>
<path d="M39.0344 48.8666L31.2699 47.7139C30.5039 47.6002 29.7906 48.1289 29.6769 48.8949C29.6007 49.4087 29.8134 49.8989 30.193 50.2002C30.3792 50.348 30.6058 50.4505 30.858 50.488L38.6225 51.6407C39.3885 51.7544 40.1019 51.2256 40.2155 50.4596C40.3295 49.6936 39.8002 48.98 39.0344 48.8666Z" fill="black"/>
<path d="M87.316 45.0446C87.4097 45.2818 87.5608 45.479 87.7472 45.627C88.1267 45.9283 88.6524 46.0242 89.1355 45.8334L96.4358 42.9486C97.156 42.6641 97.5091 41.8494 97.2246 41.1292C96.9402 40.409 96.1254 40.0557 95.4051 40.3404L88.1047 43.2251C87.3845 43.5097 87.0314 44.3244 87.316 45.0446Z" fill="black"/>
</g>
<defs>
<clipPath id="clip0_7822_1595">
<rect width="85.2353" height="85.2353" fill="white" transform="translate(52.9922) rotate(38.4415)"/>
</clipPath>
</defs>
</svg>
