<svg width="281" height="283" viewBox="0 0 281 283" fill="none" xmlns="http://www.w3.org/2000/svg">
<g clip-path="url(#clip0_10_140)">
<path d="M235.857 256.11C245.809 249.088 253.959 239.813 259.643 229.04C295.196 162.43 287.166 64.2103 218.696 22.0822C187.049 2.61363 141.5 -9.70819 107.29 10.2891C79.5488 26.5046 62.5433 57.0386 48.4737 84.8171C39.6351 102.314 32.3514 121.092 21.454 137.438C7.32216 158.636 -8.23406 186.95 7.47144 211.581C28.8745 245.131 69.2982 260.451 105.953 270.54C145.723 281.481 190.445 283.036 227.181 261.689C230.154 259.96 233.046 258.1 235.857 256.11Z" fill="#C8C8C8"/>
<path opacity="0.7" d="M235.857 256.11C245.809 249.088 253.959 239.813 259.643 229.04C295.196 162.43 287.166 64.2103 218.696 22.0822C187.049 2.61363 141.5 -9.70819 107.29 10.2891C79.5488 26.5046 62.5433 57.0386 48.4737 84.8171C39.6351 102.314 32.3514 121.092 21.454 137.438C7.32216 158.636 -8.23406 186.95 7.47144 211.581C28.8745 245.131 69.2982 260.451 105.953 270.54C145.723 281.481 190.445 283.036 227.181 261.689C230.154 259.96 233.046 258.1 235.857 256.11Z" fill="white"/>
<g opacity="0.3">
<path opacity="0.3" d="M267.144 36.0522H203.078V120.19H267.144V36.0522Z" stroke="black" stroke-miterlimit="10"/>
<path opacity="0.3" d="M255.388 51.4903H214.834V104.752H255.388V51.4903Z" stroke="black" stroke-miterlimit="10"/>
</g>
<path d="M188.069 26.6228H18.4496V177.607H188.069V26.6228Z" fill="#263238" stroke="#263238" stroke-miterlimit="10"/>
<path d="M184.853 22.9468H15.2339V173.931H184.853V22.9468Z" fill="white" stroke="#263238" stroke-linecap="round" stroke-linejoin="round"/>
<path d="M151.825 83.8779H160.259V75.4436H151.825V83.8779Z" fill="white" stroke="#263238" stroke-linecap="round" stroke-linejoin="round"/>
<path d="M162.866 83.8779H171.3V75.4436H162.866V83.8779Z" fill="white" stroke="#263238" stroke-linecap="round" stroke-linejoin="round"/>
<path d="M148.454 80.1709H105.604" stroke="#263238" stroke-linecap="round" stroke-linejoin="round"/>
<path d="M151.825 103.788H160.259V95.3538H151.825V103.788Z" fill="white" stroke="#263238" stroke-linecap="round" stroke-linejoin="round"/>
<path d="M162.866 103.788H171.3V95.3538H162.866V103.788Z" fill="white" stroke="#263238" stroke-linecap="round" stroke-linejoin="round"/>
<path d="M148.454 100.075H105.604" stroke="#263238" stroke-linecap="round" stroke-linejoin="round"/>
<path d="M151.825 123.698H160.259V115.264H151.825V123.698Z" fill="white" stroke="#263238" stroke-linecap="round" stroke-linejoin="round"/>
<path d="M162.866 123.698H171.3V115.264H162.866V123.698Z" fill="white" stroke="#263238" stroke-linecap="round" stroke-linejoin="round"/>
<path d="M148.454 119.985H105.604" stroke="#263238" stroke-linecap="round" stroke-linejoin="round"/>
<path d="M71.1892 83.8779H79.6235V75.4436H71.1892V83.8779Z" fill="white" stroke="#263238" stroke-linecap="round" stroke-linejoin="round"/>
<path d="M82.2356 83.8779H90.6699V75.4436H82.2356V83.8779Z" fill="white" stroke="#263238" stroke-linecap="round" stroke-linejoin="round"/>
<path d="M67.8178 80.1709H24.9683" stroke="#263238" stroke-linecap="round" stroke-linejoin="round"/>
<path d="M71.1892 103.788H79.6235V95.3538H71.1892V103.788Z" fill="white" stroke="#263238" stroke-linecap="round" stroke-linejoin="round"/>
<path d="M82.2356 103.788H90.6699V95.3538H82.2356V103.788Z" fill="white" stroke="#263238" stroke-linecap="round" stroke-linejoin="round"/>
<path d="M67.8178 100.075H24.9682" stroke="#263238" stroke-linecap="round" stroke-linejoin="round"/>
<path d="M71.1892 123.698H79.6235V115.264H71.1892V123.698Z" fill="white" stroke="#263238" stroke-linecap="round" stroke-linejoin="round"/>
<path d="M82.2356 123.698H90.6699V115.264H82.2356V123.698Z" fill="white" stroke="#263238" stroke-linecap="round" stroke-linejoin="round"/>
<path d="M67.8178 119.985H24.9682" stroke="#263238" stroke-linecap="round" stroke-linejoin="round"/>
<path d="M36.923 152.696H27.6304V161.989H36.923V152.696Z" fill="white" stroke="#263238" stroke-linecap="round" stroke-linejoin="round"/>
<path d="M74.8464 152.696H65.5537V161.989H74.8464V152.696Z" fill="white" stroke="#263238" stroke-linecap="round" stroke-linejoin="round"/>
<path d="M114.275 152.696H104.982V161.989H114.275V152.696Z" fill="white" stroke="#263238" stroke-linecap="round" stroke-linejoin="round"/>
<path d="M85.0034 78.2674L86.4402 81.1535L93.4004 74.4297" stroke="#263238" stroke-width="2" stroke-linecap="round" stroke-linejoin="round"/>
<path d="M85.0034 97.9538L86.4402 100.834L93.4004 94.1099" stroke="#263238" stroke-width="2" stroke-linecap="round" stroke-linejoin="round"/>
<path d="M72.999 118.598L74.4421 121.478L81.4023 114.754" stroke="#263238" stroke-width="2" stroke-linecap="round" stroke-linejoin="round"/>
<path d="M165.173 78.0312L166.61 80.9111L173.57 74.1873" stroke="#263238" stroke-width="2" stroke-linecap="round" stroke-linejoin="round"/>
<path d="M153.554 98.1902L154.991 101.07L161.951 94.3524" stroke="#263238" stroke-width="2" stroke-linecap="round" stroke-linejoin="round"/>
<path d="M153.554 118.418L154.991 121.297L161.951 114.58" stroke="#263238" stroke-width="2" stroke-linecap="round" stroke-linejoin="round"/>
<path d="M184.853 22.9468H15.2339V46.533H184.853V22.9468Z" fill="white" stroke="#263238" stroke-linecap="round" stroke-linejoin="round"/>
<path d="M184.853 22.9468H178.465V173.931H184.853V22.9468Z" fill="#DBDBDB" stroke="#263238" stroke-linecap="round" stroke-linejoin="round"/>
<path d="M184.853 45.6375H178.465V74.7782H184.853V45.6375Z" fill="#949494" stroke="#263238" stroke-linecap="round" stroke-linejoin="round"/>
<path d="M184.853 22.9468H15.2339V34.4165H184.853V22.9468Z" fill="#DBDBDB" stroke="#263238" stroke-linecap="round" stroke-linejoin="round"/>
<path d="M90.7258 26.2869H23.8359V31.0638H90.7258V26.2869Z" fill="white" stroke="#263238" stroke-linecap="round" stroke-linejoin="round"/>
<path d="M174.839 26.5107H180.711" stroke="#263238" stroke-linecap="round" stroke-linejoin="round"/>
<path d="M174.839 28.9927H180.711" stroke="#263238" stroke-linecap="round" stroke-linejoin="round"/>
<path d="M174.839 31.4807H180.711" stroke="#263238" stroke-linecap="round" stroke-linejoin="round"/>
<path d="M74.4858 56.0746C74.4858 54.6004 75.2633 53.7607 76.6815 53.7607C78.0997 53.7607 78.8709 54.6004 78.8709 56.0746V60.8515C78.8709 62.3195 78.0997 63.1592 76.6815 63.1592C75.2633 63.1592 74.4858 62.3195 74.4858 60.8515V56.0746ZM75.9351 60.9448C75.9351 61.5979 76.2212 61.8467 76.6815 61.8467C77.1418 61.8467 77.4279 61.5979 77.4279 60.9448V55.9688C77.4279 55.3095 77.1418 55.0607 76.6815 55.0607C76.2212 55.0607 75.9351 55.3095 75.9351 55.9688V60.9448Z" fill="#263238"/>
<path d="M81.091 56.4042V63.0534H79.791V53.8665H81.601L83.0876 59.3649V53.8665H84.3752V63.0534H82.8886L81.091 56.4042Z" fill="#263238"/>
<path d="M85.4077 53.8665H86.857V61.741H89.2517V63.0534H85.4264L85.4077 53.8665Z" fill="#263238"/>
<path d="M89.874 53.8665H91.3171V63.0534H89.874V53.8665Z" fill="#263238"/>
<path d="M93.6432 56.4042V63.0534H92.3619V53.8665H94.1719L95.6585 59.3649V53.8665H96.9398V63.0534H95.4719L93.6432 56.4042Z" fill="#263238"/>
<path d="M99.4029 57.7415H101.387V59.0539H99.4029V61.741H101.891V63.0534H97.9599V53.8665H101.897V55.1789H99.4092L99.4029 57.7415Z" fill="#263238"/>
<path d="M104.41 53.8665H108.87V55.1789H107.358V63.0534H105.915V55.1789H104.41V53.8665Z" fill="#263238"/>
<path d="M110.947 57.7415H112.925V59.0539H110.947V61.741H113.435V63.0534H109.498V53.8665H113.435V55.1789H110.947V57.7415Z" fill="#263238"/>
<path d="M116.272 53.7606C117.677 53.7606 118.399 54.6003 118.399 56.0745V56.3606H117.037V55.9812C117.037 55.3218 116.775 55.073 116.315 55.073C115.855 55.073 115.594 55.3218 115.594 55.9812C115.594 57.8472 118.411 58.2266 118.411 60.8514C118.411 62.3193 117.677 63.159 116.259 63.159C114.841 63.159 114.132 62.3193 114.132 60.8514V60.2854H115.5V60.9447C115.5 61.5978 115.786 61.8342 116.247 61.8342C116.707 61.8342 116.993 61.5978 116.993 60.9447C116.993 59.0787 114.175 58.6993 114.175 56.0745C114.132 54.6003 114.872 53.7606 116.272 53.7606Z" fill="#263238"/>
<path d="M118.822 53.8665H123.282V55.1789H121.776V63.0534H120.352V55.1789H118.84L118.822 53.8665Z" fill="#263238"/>
<path d="M34.864 150.457H33.4023L33.1535 148.79H31.4057L31.1569 150.457H29.8071L31.275 141.27H33.3898L34.864 150.457ZM31.5674 147.54H32.9607L32.264 142.893L31.5674 147.54Z" fill="#263238"/>
<path d="M72.178 143.366V143.689C72.178 144.635 71.8919 145.238 71.245 145.555C72.0225 145.854 72.3211 146.551 72.3211 147.521V148.274C72.3211 149.692 71.5747 150.451 70.1316 150.451H67.8613V141.27H70.0383C71.5373 141.27 72.178 141.967 72.178 143.366ZM69.3044 142.564V144.989H69.8704C70.4053 144.989 70.735 144.753 70.735 144.019V143.509C70.735 142.85 70.511 142.564 70.001 142.564H69.3044ZM69.3044 146.296V149.12H70.1316C70.6168 149.12 70.878 148.896 70.878 148.211V147.415C70.878 146.557 70.6043 146.296 69.9512 146.296H69.3044Z" fill="#263238"/>
<path d="M111.98 147.03V148.274C111.98 149.748 111.246 150.587 109.827 150.587C108.409 150.587 107.675 149.748 107.675 148.274V143.497C107.675 142.029 108.409 141.189 109.827 141.189C111.246 141.189 111.98 142.029 111.98 143.497V144.392H110.617V143.366C110.617 142.707 110.325 142.458 109.865 142.458C109.404 142.458 109.118 142.707 109.118 143.366V148.342C109.118 149.001 109.411 149.238 109.865 149.238C110.319 149.238 110.617 149.001 110.617 148.342V147.03H111.98Z" fill="#263238"/>
<path d="M25.6211 136.375H135.871" stroke="#263238" stroke-linecap="round" stroke-linejoin="round"/>
<path opacity="0.3" d="M206.704 23.6871H218.877V11.5145L206.704 11.5145V23.6871Z" stroke="black" stroke-linecap="round" stroke-linejoin="round"/>
<path opacity="0.3" d="M222.646 23.6871H234.819V11.5145L222.646 11.5145V23.6871Z" stroke="black" stroke-linecap="round" stroke-linejoin="round"/>
<path opacity="0.3" d="M209.323 16.3287L211.4 20.4836L217.508 13.7598" stroke="black" stroke-width="2" stroke-linecap="round" stroke-linejoin="round"/>
<path opacity="0.3" d="M22.4368 202.276H34.6094V190.103H22.4368V202.276Z" stroke="black" stroke-linecap="round" stroke-linejoin="round"/>
<path opacity="0.3" d="M38.3724 202.276H50.5449V190.103H38.3724V202.276Z" stroke="black" stroke-linecap="round" stroke-linejoin="round"/>
<path opacity="0.3" d="M25.043 194.917L27.1204 199.072L33.2285 192.349" stroke="black" stroke-width="2" stroke-linecap="round" stroke-linejoin="round"/>
<path opacity="0.3" d="M80.1024 202.276H92.2749V190.103H80.1024V202.276Z" stroke="black" stroke-linecap="round" stroke-linejoin="round"/>
<path opacity="0.3" d="M96.0443 202.276H108.217V190.103H96.0443V202.276Z" stroke="black" stroke-linecap="round" stroke-linejoin="round"/>
<path opacity="0.3" d="M82.7148 194.917L84.7923 199.072L90.9003 192.349" stroke="black" stroke-width="2" stroke-linecap="round" stroke-linejoin="round"/>
<g opacity="0.3">
<path opacity="0.3" d="M98.9803 17.6025C103.24 16.9142 106.135 12.9033 105.446 8.64394C104.758 4.38457 100.747 1.48969 96.4876 2.17803C92.2283 2.86637 89.3334 6.87727 90.0217 11.1366C90.7101 15.396 94.721 18.2909 98.9803 17.6025Z" stroke="black" stroke-linecap="round" stroke-linejoin="round"/>
<path opacity="0.3" d="M99.9191 12.7149L97.7359 9.89102V5.44373" stroke="black" stroke-linecap="round" stroke-linejoin="round"/>
</g>
<g opacity="0.3">
<path opacity="0.3" d="M243.558 159.737H242.401L242.202 158.418H240.796L240.597 159.737H239.546L240.715 152.453H242.388L243.558 159.737ZM240.945 157.429H242.046L241.493 153.741L240.945 157.429Z" fill="black"/>
<path opacity="0.3" d="M259.848 154.127V154.388C259.892 154.678 259.845 154.975 259.714 155.238C259.583 155.501 259.373 155.717 259.114 155.856C259.406 155.988 259.647 156.213 259.801 156.494C259.955 156.776 260.013 157.1 259.966 157.417V158.039C259.995 158.274 259.97 158.512 259.892 158.735C259.814 158.959 259.686 159.161 259.518 159.328C259.35 159.494 259.146 159.62 258.922 159.695C258.698 159.77 258.459 159.793 258.225 159.762H256.427V152.453H258.156C259.338 152.453 259.848 153.001 259.848 154.127ZM257.572 153.505V155.433H258.02C258.443 155.433 258.704 155.246 258.704 154.661V154.257C258.704 153.735 258.53 153.505 258.119 153.505H257.572ZM257.572 156.472V158.711H258.225C258.61 158.711 258.847 158.537 258.847 157.995V157.373C258.847 156.702 258.623 156.49 258.107 156.49L257.572 156.472Z" fill="black"/>
<path opacity="0.3" d="M276.344 157.05V158.014C276.344 159.183 275.765 159.849 274.639 159.849C273.513 159.849 272.929 159.183 272.929 158.014V154.226C272.929 153.057 273.513 152.391 274.639 152.391C275.765 152.391 276.344 153.057 276.344 154.226V154.935H275.261V154.126C275.261 153.604 275.031 153.411 274.67 153.411C274.31 153.411 274.048 153.604 274.048 154.126V158.064C274.048 158.586 274.279 158.773 274.67 158.773C275.062 158.773 275.261 158.586 275.261 158.064V157.05H276.344Z" fill="black"/>
<path opacity="0.3" d="M245.834 163.712H236.983V172.563H245.834V163.712Z" stroke="black" stroke-miterlimit="10"/>
<path opacity="0.3" d="M262.299 163.712H253.448V172.563H262.299V163.712Z" stroke="black" stroke-miterlimit="10"/>
<path opacity="0.3" d="M278.763 163.712H269.912V172.563H278.763V163.712Z" stroke="black" stroke-miterlimit="10"/>
</g>
<path d="M36.0337 266.248H17.3053" stroke="#263238" stroke-miterlimit="10"/>
<path d="M280.411 266.248H42.1353" stroke="#263238" stroke-miterlimit="10"/>
<path d="M208.452 266.037L212.458 205.205L215.406 176.282L207.32 167.257L203.264 164.309C203.264 164.309 197.554 169.285 193.505 170.386C189.456 171.487 185.562 172.6 185.562 172.6C185.562 172.6 171.748 198.575 170.634 210.362C169.521 222.149 167.686 265.813 167.686 265.813L169.222 266.037H208.452Z" fill="#9E9E9E" stroke="#263238" stroke-miterlimit="10"/>
<path d="M189.463 215.885C189.463 215.885 188.772 215.53 190.153 211.973" stroke="#263238" stroke-miterlimit="10"/>
<path d="M187.839 171.978C188.526 176.893 188.906 181.845 188.977 186.807C188.977 186.807 193.126 185.146 196.441 179.343C198.273 176.228 199.849 172.971 201.156 169.602L187.839 171.978Z" fill="#263238" stroke="#263238" stroke-miterlimit="10"/>
<path d="M208.452 266.037L212.054 211.344C208.521 213.148 201.548 216.127 193.854 216.258C184.636 216.414 173.222 209.254 173.222 209.254L170.653 210.262C170.653 210.293 170.653 210.33 170.653 210.362C169.546 222.18 167.705 265.813 167.705 265.813L169.241 266.037H208.452Z" fill="white" stroke="#263238" stroke-miterlimit="10"/>
<path d="M202.456 235.422C202.456 249.51 202.941 263.064 203.078 266.024H230.228C230.601 261.633 232.94 234.302 234.141 224.506C235.453 213.801 244.062 197.866 244.062 192.162C244.062 186.458 245.809 187.36 237.947 183.211C230.085 179.063 212.744 170.106 210.343 169.011C207.942 167.916 205.317 165.279 205.317 165.279C205.317 165.279 206.188 170.74 205.939 185.587C205.69 200.434 202.456 219.493 202.456 235.422Z" fill="white"/>
<g opacity="0.2">
<path opacity="0.2" d="M205.317 165.335C205.641 167.919 205.828 170.519 205.877 173.122V165.864C205.529 165.546 205.317 165.335 205.317 165.335Z" fill="black"/>
<path opacity="0.2" d="M241.02 200.882V202.748C241.232 202.182 241.443 201.635 241.642 201.094V200.87H241.723C241.804 200.665 241.878 200.453 241.953 200.248H241.642V192.504H244.049C244.049 192.411 244.049 192.311 244.049 192.218C244.049 192.124 244.049 191.994 244.049 191.882H241.642V185.251C241.449 185.133 241.244 185.021 241.02 184.897V191.882H234.489V184.107H239.54L238.37 183.485H234.489V181.432L233.867 181.103V183.466H227.336V177.707L226.714 177.383V183.466H220.183V175.71H223.436L222.23 175.088H220.183V174.037L219.561 173.713V175.088H213.03V170.392C212.812 170.28 212.607 170.174 212.408 170.081V175.088H205.939C205.939 175.293 205.939 175.498 205.939 175.71H212.408V183.485H205.995C205.995 183.69 205.995 183.895 205.995 184.107H212.408V191.882H205.877V188.927C205.753 191.963 205.529 195.147 205.255 198.388V200.254H205.093L205.037 200.876H205.255V208.676H204.322L204.26 209.298H205.286V217.073H203.52L203.464 217.695H205.286V225.47H202.86L202.823 226.092H205.311V233.867H202.556C202.556 234.078 202.556 234.284 202.556 234.489H205.317V242.264H202.574C202.574 242.475 202.574 242.681 202.574 242.886H205.311V250.661H202.699C202.699 250.872 202.699 251.078 202.699 251.283H205.299V266.055H205.921V251.264H212.408V266.037H213.03V251.264H219.561V266.037H220.183V251.264H226.714V266.037H227.336V251.264H231.522C231.522 251.059 231.522 250.854 231.578 250.642H227.336V242.886H232.312C232.312 242.681 232.356 242.475 232.374 242.264H227.336V234.489H233.083C233.083 234.277 233.121 234.078 233.146 233.867H227.336V226.092H233.867V226.919L234.141 224.537C234.228 223.84 234.346 223.119 234.489 222.379V217.695H235.652L235.839 217.073H234.489V209.298H238.532C238.613 209.093 238.688 208.881 238.768 208.676H234.489V200.901L241.02 200.882ZM234.489 192.504H241.02V200.279H234.489V192.504ZM212.408 250.642H205.877V242.886H212.408V250.642ZM212.408 242.245H205.877V234.47H212.408V242.245ZM212.408 233.848H205.877V226.092H212.408V233.848ZM212.408 225.451H205.877V217.676H212.408V225.451ZM212.408 217.054H205.877V209.298H212.408V217.054ZM212.408 208.657H205.877V200.882H212.408V208.657ZM212.408 200.26H205.877V192.504H212.408V200.26ZM219.561 250.642H213.03V242.886H219.561V250.642ZM219.561 242.245H213.03V234.47H219.561V242.245ZM219.561 233.848H213.03V226.092H219.561V233.848ZM219.561 225.451H213.03V217.676H219.561V225.451ZM219.561 217.054H213.03V209.298H219.561V217.054ZM219.561 208.657H213.03V200.882H219.561V208.657ZM219.561 200.26H213.03V192.504H219.561V200.26ZM219.561 191.863H213.03V184.088H219.561V191.863ZM219.561 183.466H213.03V175.71H219.561V183.466ZM226.714 250.642H220.183V242.886H226.714V250.642ZM226.714 242.245H220.183V234.47H226.714V242.245ZM226.714 233.848H220.183V226.092H226.714V233.848ZM226.714 225.451H220.183V217.676H226.714V225.451ZM226.714 217.054H220.183V209.298H226.714V217.054ZM226.714 208.657H220.183V200.882H226.714V208.657ZM226.714 200.26H220.183V192.504H226.714V200.26ZM226.714 191.863H220.183V184.088H226.714V191.863ZM233.867 225.451H227.336V217.676H233.867V225.451ZM233.867 217.054H227.336V209.298H233.867V217.054ZM233.867 208.657H227.336V200.882H233.867V208.657ZM233.867 200.26H227.336V192.504H233.867V200.26ZM233.867 191.863H227.336V184.088H233.867V191.863Z" fill="black"/>
</g>
<path d="M202.456 235.422C202.456 249.51 202.941 263.064 203.078 266.024H230.228C230.601 261.633 232.94 234.302 234.141 224.506C235.453 213.801 244.062 197.866 244.062 192.162C244.062 186.458 245.809 187.36 237.947 183.211C230.085 179.063 212.744 170.106 210.343 169.011C207.942 167.916 205.317 165.279 205.317 165.279C205.317 165.279 206.188 170.74 205.939 185.587C205.69 200.434 202.456 219.493 202.456 235.422Z" stroke="#263238" stroke-miterlimit="10"/>
<path d="M205.317 165.335C205.317 165.335 206.188 170.796 205.939 185.643C205.89 189.375 205.635 193.406 205.317 197.561C206.064 196.534 208.471 193.257 209.049 193.07C209.702 192.852 213.198 196.13 216.034 196.566C218.871 197.001 219.965 197.001 216.911 193.723C213.857 190.445 212.557 180.841 211.45 173.632C211.24 172.089 210.9 170.566 210.436 169.079H210.362C207.936 167.96 205.317 165.335 205.317 165.335Z" fill="#263238" stroke="#263238" stroke-miterlimit="10"/>
<path d="M223.237 232.884C225.246 231.97 226.826 231.18 226.826 231.18L227.566 236.89C227.566 236.89 216.694 241.679 210.617 242.046C204.54 242.413 203.986 242.6 203.986 242.6L204.167 237.076" stroke="#263238" stroke-miterlimit="10"/>
<path d="M217.794 235.117C218.908 234.744 220.214 234.215 221.489 233.662" stroke="#263238" stroke-miterlimit="10"/>
<path d="M206.188 236.523C209.367 236.442 212.538 236.153 215.68 235.658" stroke="#263238" stroke-miterlimit="10"/>
<path d="M227.566 236.89L227.933 241.312" stroke="#263238" stroke-miterlimit="10"/>
<path d="M144.231 266.037H174.783C174.852 263.642 175.735 233.208 176.332 217.676C176.954 201.504 187.926 176.973 187.926 176.973C187.926 176.973 189.394 173.514 187.839 171.959C186.284 170.404 182.552 171.026 179.753 173.203C176.954 175.38 151.141 186.576 149.586 188.131C148.031 189.686 148.342 194.973 147.72 201.193C147.098 207.413 136.835 250.331 136.835 250.331C136.835 250.331 134.036 250.953 133.103 251.575C132.17 252.197 132.17 254.063 132.17 254.063C132.17 254.063 133.414 254.374 137.146 256.24C140.579 257.957 143.745 264.923 144.231 266.037Z" fill="white"/>
<path opacity="0.2" d="M183.796 184.088V187.267C184.008 186.695 184.213 186.141 184.418 185.606V184.088H185.003L185.245 183.466H184.418V175.71H188.337C188.38 175.517 188.43 175.306 188.461 175.088H184.418V171.182C184.213 171.213 184.008 171.244 183.796 171.294V175.088H177.265V174.665L176.643 174.982V175.088H176.432L175.188 175.71H176.643V183.485H170.112V178.136L169.49 178.428V183.466H162.959V181.482L162.337 181.775V183.466H158.723L157.405 184.088H162.337V191.882H155.806V184.853L155.184 185.152V191.882H148.653V190.315C148.303 192.58 148.096 194.865 148.031 197.157V200.267H147.807L147.751 200.889H148.031V208.676H146.358L146.227 209.298H148.031V217.073H144.542C144.498 217.278 144.449 217.49 144.405 217.695H148.031V225.47H142.651C142.601 225.682 142.558 225.887 142.508 226.092H148.031V233.867H141.5V230.446L140.878 233.133V233.836H140.717L140.573 234.458H140.878V242.264H138.751L138.602 242.886H140.878V250.661H135.597C134.963 250.831 134.34 251.038 133.731 251.283V251.283V254.667C133.918 254.741 134.123 254.828 134.353 254.934V251.283H140.878V259.991C141.096 260.302 141.301 260.613 141.5 260.93V251.289H148.031V266.062H148.653V251.264H155.184V266.037H155.806V251.264H162.337V266.037H162.959V251.264H169.49V266.037H170.112V251.264H175.219V250.642H170.112V242.886H175.48V242.264H170.112V234.489H175.748V233.867H170.112V226.092H176.027C176.027 225.887 176.027 225.675 176.027 225.47H170.112V217.695H176.332C176.332 217.49 176.332 217.285 176.363 217.073H170.112V209.298H176.643V213.895C176.805 212.57 177.01 211.208 177.265 209.827V209.298H177.365C177.402 209.093 177.446 208.888 177.483 208.676H177.265V200.901H179.349C179.405 200.696 179.467 200.491 179.523 200.279H177.265V192.504H181.93C182.005 192.299 182.073 192.087 182.142 191.882H177.265V184.107L183.796 184.088ZM177.265 175.71H183.796V183.485H177.265V175.71ZM148.031 250.661H141.5V242.886H148.031V250.661ZM148.031 242.264H141.5V234.489H148.031V242.264ZM155.184 250.661H148.653V242.886H155.184V250.661ZM155.184 242.264H148.653V234.489H155.184V242.264ZM155.184 233.867H148.653V226.092H155.184V233.867ZM155.184 225.47H148.653V217.695H155.184V225.47ZM155.184 217.073H148.653V209.298H155.184V217.073ZM155.184 208.676H148.653V200.901H155.184V208.676ZM155.184 200.279H148.653V192.504H155.184V200.279ZM162.337 250.661H155.806V242.886H162.337V250.661ZM162.337 242.264H155.806V234.489H162.337V242.264ZM162.337 233.867H155.806V226.092H162.337V233.867ZM162.337 225.47H155.806V217.695H162.337V225.47ZM162.337 217.073H155.806V209.298H162.337V217.073ZM162.337 208.676H155.806V200.901H162.337V208.676ZM162.337 200.279H155.806V192.504H162.337V200.279ZM169.49 250.661H162.959V242.886H169.49V250.661ZM169.49 242.264H162.959V234.489H169.49V242.264ZM169.49 233.867H162.959V226.092H169.49V233.867ZM169.49 225.47H162.959V217.695H169.49V225.47ZM169.49 217.073H162.959V209.298H169.49V217.073ZM169.49 208.676H162.959V200.901H169.49V208.676ZM169.49 200.279H162.959V192.504H169.49V200.279ZM169.49 191.882H162.959V184.107H169.49V191.882ZM176.643 208.676H170.112V200.901H176.643V208.676ZM176.643 200.279H170.112V192.504H176.643V200.279ZM176.643 191.882H170.112V184.107H176.643V191.882Z" fill="black"/>
<path d="M144.231 266.037H174.783C174.852 263.642 175.735 233.208 176.332 217.676C176.954 201.504 187.926 176.973 187.926 176.973C187.926 176.973 189.394 173.514 187.839 171.959C186.284 170.404 182.552 171.026 179.753 173.203C176.954 175.38 151.141 186.576 149.586 188.131C148.031 189.686 148.342 194.973 147.72 201.193C147.098 207.413 136.835 250.331 136.835 250.331C136.835 250.331 134.036 250.953 133.103 251.575C132.17 252.197 132.17 254.063 132.17 254.063C132.17 254.063 133.414 254.374 137.146 256.24C140.579 257.957 143.745 264.923 144.231 266.037Z" stroke="#263238" stroke-miterlimit="10"/>
<path d="M132.17 254.082C132.17 254.082 133.414 254.393 137.146 256.259C140.878 258.125 144.299 266.211 144.299 266.211H150.326C150.706 265.079 151.632 260.961 147.409 255.948C142.433 250.039 136.835 250.35 136.835 250.35C136.835 250.35 134.036 250.972 133.103 251.594C132.17 252.216 132.17 254.082 132.17 254.082Z" fill="#263238" stroke="#263238" stroke-miterlimit="10"/>
<path d="M184.082 171.219C182.745 174.758 179.579 182.763 176.954 186.576C173.533 191.552 167.313 195.595 169.49 197.461C171.667 199.327 177.887 193.418 177.887 193.418C177.887 193.418 179.442 197.772 179.753 199.016C179.77 199.073 179.797 199.125 179.834 199.172C182.079 191.616 184.779 184.202 187.92 176.973C187.92 176.973 189.388 173.514 187.833 171.959C187.031 171.151 185.662 170.939 184.082 171.219Z" fill="#263238" stroke="#263238" stroke-miterlimit="10"/>
<path d="M161.367 201.243C161.545 200.093 161.661 198.935 161.715 197.772" stroke="#263238" stroke-miterlimit="10"/>
<path d="M156.428 266.814C156.428 266.814 157.361 246.91 157.361 235.403C157.361 227.112 159.619 213.167 160.887 204.627" stroke="#263238" stroke-miterlimit="10"/>
<path d="M157.983 231.068C157.983 231.068 162.959 232.623 165.447 232.934L172.911 233.867L172.345 240.914C172.345 240.914 171.978 240.709 166.38 238.843C160.782 236.977 157.361 235.422 157.361 235.422" stroke="#263238" stroke-miterlimit="10"/>
<path d="M172.345 240.896C172.345 240.896 171.978 254.704 171.978 256.57C171.978 258.436 166.38 257.192 166.38 257.192" stroke="#263238" stroke-miterlimit="10"/>
<path d="M176.811 164.651C176.811 164.651 182.676 173.085 187.926 176.973C193.176 180.86 197.654 175.418 201.156 169.583C204.658 163.749 206.99 159.47 208.738 154.413C210.486 149.356 208.738 140.996 201.741 134.384C194.743 127.772 178.397 118.044 174.317 123.101C170.236 128.158 166.343 139.273 169.061 148.771C170.684 154.481 173.308 159.858 176.811 164.651V164.651Z" fill="#9E9E9E" stroke="#263238" stroke-miterlimit="10"/>
<path d="M174.342 146.507C176.555 145.844 178.914 145.844 181.128 146.507" stroke="#263238" stroke-width="2" stroke-miterlimit="10" stroke-linecap="round"/>
<path d="M179.361 151.713C179.548 152.721 179.311 153.61 178.832 153.697C178.353 153.785 177.825 153.038 177.638 152.024C177.451 151.01 177.688 150.127 178.167 150.04C178.646 149.953 179.174 150.699 179.361 151.713Z" fill="#263238"/>
<path d="M196.665 151.981C196.846 152.988 196.609 153.847 196.136 153.965C195.664 154.083 195.129 153.305 194.942 152.292C194.756 151.278 194.992 150.395 195.471 150.307C195.95 150.22 196.479 150.967 196.665 151.981Z" fill="#263238"/>
<path d="M183.846 165.696C186.093 166.47 188.47 166.8 190.843 166.666C194.93 166.473 198.432 163.556 198.432 163.556" stroke="#263238" stroke-miterlimit="10"/>
<path d="M174.92 127.399C174.92 127.399 183.56 147.104 184.642 147.645C185.724 148.186 187.883 141.705 187.883 141.705C187.883 141.705 190.85 147.098 194.37 148.721C197.891 150.345 198.96 147.645 198.96 147.645C200.724 148.639 202.437 149.72 204.092 150.886L205.442 151.962L206.791 156.82C206.791 156.82 202.742 170.05 204.092 171.673C205.442 173.297 212.999 171.132 212.999 171.132C212.999 171.132 211.133 173.832 213.54 173.832C215.947 173.832 220.289 174.373 226.496 166.001C232.704 157.628 233.245 144.137 233.245 144.137C233.245 144.137 236.212 147.372 236.486 143.322C236.759 139.273 232.978 132.525 232.978 132.525C232.978 132.525 238.912 138.465 238.377 132.257C237.842 126.05 234.327 119.027 232.978 117.41C231.628 115.793 223.523 111.19 223.523 111.19C223.523 111.19 226.764 110.649 224.338 106.867C221.912 103.085 212.999 102.009 209.758 102.009C206.518 102.009 199.769 103.091 199.769 103.091C199.769 103.091 204.092 94.7194 199.502 94.1782C194.911 93.6371 186.813 102.55 186.813 102.55C186.813 102.55 178.727 96.0691 176.282 97.4188C173.838 98.7686 175.474 100.659 175.474 100.659C175.474 100.659 164.95 101.468 161.976 106.058C159.003 110.649 162.517 113.348 162.517 113.348C162.517 113.348 143.621 126.305 146.588 131.162C149.555 136.02 154.96 131.436 154.96 131.436C154.96 131.436 147.397 150.874 148.479 152.223C149.561 153.573 154.699 151.682 154.699 151.682C154.699 151.682 154.431 167.338 158.481 168.961C162.53 170.585 163.339 167.612 163.339 167.612C163.339 167.612 165.497 169.77 170.361 170.037C175.225 170.305 176.836 164.638 176.836 164.638C176.836 164.638 171.437 151.95 171.711 141.425C171.984 130.901 174.92 127.399 174.92 127.399Z" fill="#263238" stroke="#263238" stroke-miterlimit="10"/>
<path d="M185.793 150.133C185.793 150.133 183.846 160.247 185.401 162.387C186.956 164.526 192.404 162.387 192.79 161.224" fill="#9E9E9E"/>
<path d="M185.793 150.133C185.793 150.133 183.846 160.247 185.401 162.387C186.956 164.526 192.404 162.387 192.79 161.224" stroke="#263238" stroke-miterlimit="10"/>
<path d="M177.719 156.359C181.961 156.359 185.4 153.834 185.4 150.718C185.4 147.602 181.961 145.076 177.719 145.076C173.476 145.076 170.037 147.602 170.037 150.718C170.037 153.834 173.476 156.359 177.719 156.359Z" stroke="#263238" stroke-miterlimit="10"/>
<path d="M196.192 155.974C200.435 155.974 203.874 153.448 203.874 150.332C203.874 147.217 200.435 144.691 196.192 144.691C191.95 144.691 188.511 147.217 188.511 150.332C188.511 153.448 191.95 155.974 196.192 155.974Z" stroke="#263238" stroke-miterlimit="10"/>
<path d="M185.792 150.133C185.792 150.133 187.347 148.97 188.511 150.332" stroke="#263238" stroke-miterlimit="10"/>
<path d="M121.789 257.758C121.789 257.758 131.554 255.003 134.558 254.505C137.562 254.007 143.577 259.512 144.579 262.516C145.58 265.521 144.299 266.192 144.299 266.192L124.289 265.527L121.789 257.758Z" fill="#9E9E9E" stroke="#263238" stroke-miterlimit="10"/>
<path d="M125.328 256.788C125.328 256.788 132.699 259.549 134.54 260.657C136.381 261.764 135.827 263.972 134.726 265.073C133.398 266.183 131.814 266.944 130.117 267.287C128.4 267.385 126.678 267.385 124.961 267.287C122.753 267.1 120.725 267.474 118.884 267.474C117.043 267.474 111.513 266.92 111.513 266.92L109.853 265.813C109.853 265.813 106.743 266.733 104.329 267.679C101.916 268.624 102.669 266.572 104.51 265.098C106.351 263.623 110.96 259.941 111.7 259.574C112.44 259.207 121.832 256.464 121.832 256.464L125.328 256.788Z" fill="#9E9E9E" stroke="#263238" stroke-miterlimit="10"/>
<path d="M128.09 257.522C128.09 257.522 123.294 255.313 122.007 255.313C120.719 255.313 111.507 258.423 110.22 259.363C108.932 260.302 107.638 269.128 108.559 269.682C109.48 270.235 110.22 268.575 110.425 267.474C110.63 266.373 113.193 260.47 113.193 260.47L111.327 269.868C111.327 269.868 112.067 271.336 112.801 270.049C113.535 268.761 118.144 259.916 118.511 259.363C118.994 258.849 119.554 258.415 120.172 258.075C120.172 258.075 119.251 262.131 118.511 265.999C117.771 269.868 118.331 270.975 119.438 271.156C120.545 271.336 121.092 268.761 121.646 267.474C122.199 266.186 124.594 258.809 124.594 258.809" fill="#9E9E9E"/>
<path d="M128.09 257.522C128.09 257.522 123.294 255.313 122.007 255.313C120.719 255.313 111.507 258.423 110.22 259.363C108.932 260.302 107.638 269.128 108.559 269.682C109.48 270.235 110.22 268.575 110.425 267.474C110.63 266.373 113.193 260.47 113.193 260.47L111.327 269.868C111.327 269.868 112.067 271.336 112.801 270.049C113.535 268.761 118.144 259.916 118.511 259.363C118.994 258.849 119.554 258.415 120.172 258.075C120.172 258.075 119.251 262.131 118.511 265.999C117.771 269.868 118.331 270.975 119.438 271.156C120.545 271.336 121.092 268.761 121.646 267.474C122.199 266.186 124.594 258.809 124.594 258.809" stroke="#263238" stroke-miterlimit="10"/>
<path d="M133.414 261.21C133.414 261.21 127.89 266.92 127.15 268.208C126.41 269.495 126.416 269.682 128.444 269.682C130.472 269.682 136.735 265.626 137.283 265.073C137.83 264.519 137.656 262.865 136.362 261.758C135.95 261.437 135.467 261.221 134.955 261.125C134.442 261.03 133.913 261.059 133.414 261.21V261.21Z" fill="#9E9E9E" stroke="#263238" stroke-miterlimit="10"/>
<path d="M167.91 260.576C167.91 260.576 160.54 262.958 158.73 264.308C156.919 265.657 154.307 267.144 154.873 267.598C155.439 268.052 157.255 267.598 157.821 267.144C158.387 266.69 160.994 266.236 160.994 266.236C160.994 266.236 164.054 264.42 166.436 262.952C168.818 261.484 170.628 259.891 167.91 260.576Z" fill="#9E9E9E" stroke="#263238" stroke-miterlimit="10"/>
<path d="M208.595 248.098C208.595 248.098 188.069 251.83 180.642 254.437C173.216 257.043 170.261 258.859 166.548 261.484C162.834 264.109 155.308 269.066 156.428 269.937C157.547 270.808 161.447 267.754 162.107 267.1C162.766 266.447 167.562 264.482 167.562 264.482L170.771 262.84C170.771 262.84 165.938 268.792 164.197 270.304C162.455 271.815 163.631 272.761 164.943 272.325C166.255 271.89 168.731 269.284 168.731 269.284L176.711 264.034C176.711 264.034 173.433 268.624 171.903 269.931C170.373 271.237 173.651 272.338 174.31 271.243C174.97 270.148 178.241 267.312 178.241 267.312C178.241 267.312 183.696 264.476 185.009 263.381C186.321 262.286 189.593 259.232 189.593 259.232L214.05 261.198C214.05 261.198 215.58 260.327 214.709 255.301C213.838 250.275 208.595 248.098 208.595 248.098Z" fill="#9E9E9E" stroke="#263238" stroke-miterlimit="10"/>
<path d="M225.19 209.447L237.201 239.154L217.763 245.921L223.224 261.863C223.224 261.863 237.182 261.9 248.104 261.241C259.027 260.582 266.69 253.995 264.942 246.139C263.194 238.283 256.644 226.919 251.401 213.378C246.158 199.837 247.781 191.764 245.38 187.615C242.979 183.466 236.206 182.372 236.206 182.372L232.474 181.75" fill="white"/>
<path opacity="0.2" d="M263.101 254.399V251.289H264.724C264.793 251.084 264.849 250.879 264.898 250.667H263.101V242.886H264.034C263.965 242.687 263.891 242.476 263.822 242.264H263.101V240.367C262.902 239.851 262.696 239.322 262.479 238.793V242.264H255.948V234.489H260.638C260.544 234.284 260.457 234.079 260.364 233.867H255.948V226.092H256.819C256.719 225.887 256.626 225.682 256.532 225.47H255.948V224.17C255.742 223.71 255.531 223.25 255.326 222.783V225.47H248.795V217.695H253.149C253.062 217.49 252.975 217.285 252.894 217.073H248.795V209.298H249.958C249.889 209.093 249.827 208.881 249.765 208.676H248.795V205.131C248.558 204.148 248.353 203.209 248.173 202.307V208.676H241.642V200.901H247.912L247.8 200.279H241.642V192.504H246.748L246.655 191.882H241.642V184.256C241.096 183.964 240.536 183.7 239.962 183.466H234.489V182.073L233.867 181.961V183.466H232.032L231.864 184.088H233.867V191.882H229.824L229.662 192.504H233.873V200.279H227.609L227.442 200.901H233.867V208.676H227.336V201.299L226.714 203.657V208.633H225.395L225.233 209.255H226.714V213.192L227.336 214.728V209.298H233.867V217.073H228.269L228.518 217.695H233.867V225.47H231.69L231.945 226.092H233.898V230.925L234.52 232.461V226.092H241.02V233.867H235.055L235.31 234.489H241.02V242.264H234.489V240.112L233.867 240.33V242.264H228.306L226.515 242.886H226.714V250.661H220.183V245.063L219.561 245.281V250.63H219.38L220.183 252.969V251.252H226.714V261.826H227.336V251.252H233.867V261.745H234.489V251.264H241.02V261.546H241.642V251.264H248.173V261.216L248.795 261.167V251.264H255.326V259.798L255.948 259.562V251.264H262.479V255.171C262.696 254.916 262.908 254.661 263.101 254.399ZM233.867 250.667H227.336V242.886H233.867V250.667ZM241.02 250.667H234.489V242.886H241.02V250.667ZM241.02 225.476H234.489V217.701H241.02V225.476ZM241.02 217.079H234.489V209.298H241.02V217.079ZM241.02 208.682H234.489V200.907H241.02V208.682ZM241.02 200.285H234.489V192.504H241.02V200.285ZM241.02 191.888H234.489V184.113H241.02V191.888ZM248.173 250.667H241.642V242.886H248.173V250.667ZM248.173 242.27H241.642V234.495H248.173V242.27ZM248.173 233.873H241.642V226.092H248.173V233.873ZM248.173 225.476H241.642V217.701H248.173V225.476ZM248.173 217.079H241.642V209.298H248.173V217.079ZM255.326 250.667H248.795V242.886H255.326V250.667ZM255.326 242.27H248.795V234.495H255.326V242.27ZM255.326 233.873H248.795V226.092H255.326V233.873ZM255.948 250.667V242.886H262.479V250.661L255.948 250.667Z" fill="#263238"/>
<path d="M225.19 209.447L237.201 239.154L217.763 245.921L223.224 261.863C223.224 261.863 237.182 261.9 248.104 261.241C259.027 260.582 266.69 253.995 264.942 246.139C263.194 238.283 256.644 226.919 251.401 213.378C246.158 199.837 247.781 191.764 245.38 187.615C242.979 183.466 236.206 182.372 236.206 182.372L232.474 181.75" stroke="#263238" stroke-miterlimit="10"/>
<path d="M248.894 236.131C244.931 236.865 241.024 237.873 237.201 239.148C237.201 239.148 245.498 233.687 250.082 233.251" stroke="#263238" stroke-miterlimit="10"/>
<path d="M254.455 235.87C253.595 235.746 252.723 235.717 251.855 235.783" stroke="#263238" stroke-miterlimit="10"/>
<path d="M223.442 243.508C223.442 243.508 227.858 247.731 229.164 251.003C230.471 254.275 229.992 263.163 229.121 264.034C228.25 264.905 211.997 264.799 209.323 261.459C208.626 260.588 213.397 258.579 210.996 253.771C208.595 248.963 207.5 248.534 207.5 248.534C207.5 248.534 205.535 247.439 209.248 245.038C212.961 242.637 221.477 240.896 223.442 243.508Z" fill="#263238" stroke="#263238" stroke-miterlimit="10"/>
<path d="M262.162 277.183H246.04L244.024 245.312H264.177L262.162 277.183Z" fill="#263238" stroke="#263238" stroke-linejoin="round"/>
<path d="M265.073 245.362H243.135V250.002H265.073V245.362Z" fill="white" stroke="#263238" stroke-linejoin="round"/>
<path d="M265.073 245.536H243.135L245.324 242.787H262.877L265.073 245.536Z" fill="white" stroke="#263238" stroke-linejoin="round"/>
<path d="M262.752 267.835L263.555 255.14H244.646L245.448 267.835H262.752Z" fill="white" stroke="#263238" stroke-linejoin="round"/>
<path d="M169.253 279.304L189.12 274.055V276.742L169.253 282.308V279.304Z" fill="#263238" stroke="#263238" stroke-linejoin="round"/>
<path d="M189.12 274.054H85.2525L65.1744 279.304H169.254L189.12 274.054Z" fill="white" stroke="#263238" stroke-linejoin="round"/>
<path d="M169.254 219.281H65.1744V282.308H169.254V219.281Z" fill="white" stroke="#263238" stroke-linejoin="round"/>
<path d="M169.254 228.4C146.613 229.476 133.128 250.344 113.093 264.326C94.8314 277.077 72.2776 279.254 65.1993 279.596V282.308H169.254V228.4Z" fill="#263238" stroke="#263238" stroke-linejoin="round"/>
<path d="M169.254 279.304H65.1744V282.308H169.254V279.304Z" fill="white" stroke="#263238" stroke-miterlimit="10"/>
<path d="M34.3605 258.511C34.3605 258.511 25.6898 244.64 32.65 236.834C39.6102 229.028 50.856 232.785 53.176 240.012C55.4961 247.24 50.5761 259.381 50.5761 259.381L34.3605 258.511Z" fill="white" stroke="#263238" stroke-linecap="round" stroke-linejoin="round"/>
<path d="M34.6468 242.612C33.2038 242.612 27.7115 240.591 25.9761 237.991C24.2408 235.391 23.9422 229.606 28.8684 229.606C33.7947 229.606 35.5176 238.277 35.5176 238.277L35.8037 241.455" fill="white"/>
<path d="M34.6468 242.612C33.2038 242.612 27.7115 240.591 25.9761 237.991C24.2408 235.391 23.9422 229.606 28.8684 229.606C33.7947 229.606 35.5176 238.277 35.5176 238.277L35.8037 241.455" stroke="#263238" stroke-linecap="round" stroke-linejoin="round"/>
<path d="M39.0941 237.213C37.8004 236.591 33.7885 232.312 33.3966 229.208C33.0047 226.104 35.331 220.805 39.7286 222.988C44.1261 225.171 41.8061 233.718 41.8061 233.718L40.6429 236.691" fill="white"/>
<path d="M39.0941 237.213C37.8004 236.591 33.7885 232.312 33.3966 229.208C33.0047 226.104 35.331 220.805 39.7286 222.988C44.1261 225.171 41.8061 233.718 41.8061 233.718L40.6429 236.691" stroke="#263238" stroke-linecap="round" stroke-linejoin="round"/>
<path d="M44.3436 238.669C43.6221 237.425 42.6518 231.646 44.0451 228.847C45.4383 226.048 50.3148 222.926 52.753 227.193C55.1913 231.46 48.5297 237.269 48.5297 237.269L45.911 239.098" fill="white"/>
<path d="M44.3436 238.669C43.6221 237.425 42.6518 231.646 44.0451 228.847C45.4383 226.048 50.3148 222.926 52.753 227.193C55.1913 231.46 48.5297 237.269 48.5297 237.269L45.911 239.098" stroke="#263238" stroke-linecap="round" stroke-linejoin="round"/>
<path d="M46.0665 249.031C45.8302 247.601 46.9125 241.854 49.1765 239.701C51.4406 237.549 57.107 236.312 57.9219 241.157C58.7367 246.002 50.4579 249.156 50.4579 249.156L47.3479 249.964" fill="white"/>
<path d="M46.0665 249.031C45.8302 247.601 46.9125 241.854 49.1765 239.701C51.4406 237.549 57.107 236.312 57.9219 241.157C58.7367 246.002 50.4579 249.156 50.4579 249.156L47.3479 249.964" stroke="#263238" stroke-linecap="round" stroke-linejoin="round"/>
<path d="M26.6104 234.501L27.5869 236.038" stroke="white" stroke-linecap="round" stroke-linejoin="round"/>
<path d="M29.4034 238.271L30.9335 239.521" stroke="white" stroke-linecap="round" stroke-linejoin="round"/>
<path d="M27.73 231.572L29.2601 233.805" stroke="white" stroke-linecap="round" stroke-linejoin="round"/>
<path d="M31.3564 235.621L33.0296 238.687" stroke="white" stroke-linecap="round" stroke-linejoin="round"/>
<path d="M35.2564 228.225L35.8162 229.899" stroke="white" stroke-linecap="round" stroke-linejoin="round"/>
<path d="M37.2095 232.965L38.186 234.365" stroke="white" stroke-linecap="round" stroke-linejoin="round"/>
<path d="M36.793 224.879L38.0494 227.666" stroke="white" stroke-linecap="round" stroke-linejoin="round"/>
<path d="M31.9102 244.547L32.3331 247.053" stroke="white" stroke-linecap="round" stroke-linejoin="round"/>
<path d="M33.1665 249.423L33.7263 251.519" stroke="white" stroke-linecap="round" stroke-linejoin="round"/>
<path d="M34.5596 244.684L35.1194 247.47" stroke="white" stroke-linecap="round" stroke-linejoin="round"/>
<path d="M36.376 249.423L36.7927 251.519" stroke="white" stroke-linecap="round" stroke-linejoin="round"/>
<path d="M37.3525 241.057L38.186 244.964" stroke="white" stroke-linecap="round" stroke-linejoin="round"/>
<path d="M39.3056 248.727L39.4424 250.543" stroke="white" stroke-linecap="round" stroke-linejoin="round"/>
<path d="M40.8359 239.801L41.5326 243.427" stroke="white" stroke-linecap="round" stroke-linejoin="round"/>
<path d="M41.5322 247.196L41.8121 250.959" stroke="white" stroke-linecap="round" stroke-linejoin="round"/>
<path d="M44.8848 241.194V244.267" stroke="white" stroke-linecap="round" stroke-linejoin="round"/>
<path d="M44.4619 248.173L44.605 250.543" stroke="white" stroke-linecap="round" stroke-linejoin="round"/>
<path d="M48.368 226.689L47.6714 228.368" stroke="white" stroke-linecap="round" stroke-linejoin="round"/>
<path d="M47.3915 230.315L46.6948 232.691" stroke="white" stroke-linecap="round" stroke-linejoin="round"/>
<path d="M51.4346 229.899L50.3212 232.132" stroke="white" stroke-linecap="round" stroke-linejoin="round"/>
<path d="M47.9513 234.645L46.6948 236.038" stroke="white" stroke-linecap="round" stroke-linejoin="round"/>
<path d="M45.3015 229.762L44.8848 231.572" stroke="white" stroke-linecap="round" stroke-linejoin="round"/>
<path d="M51.4344 239.801L49.9043 242.314" stroke="white" stroke-linecap="round" stroke-linejoin="round"/>
<path d="M48.9281 243.844L48.0884 246.077" stroke="white" stroke-linecap="round" stroke-linejoin="round"/>
<path d="M50.1846 247.196L52.6912 245.797" stroke="white" stroke-linecap="round" stroke-linejoin="round"/>
<path d="M54.2271 239.801L52.9707 241.897" stroke="white" stroke-linecap="round" stroke-linejoin="round"/>
<path d="M55.4838 242.171L53.8106 243.427" stroke="white" stroke-linecap="round" stroke-linejoin="round"/>
<path d="M53.6799 253.671H29.9692V277.382H53.6799V253.671Z" fill="#263238" stroke="#263238" stroke-linecap="round" stroke-linejoin="round"/>
</g>
<defs>
<clipPath id="clip0_10_140">
<rect width="281" height="283" fill="white"/>
</clipPath>
</defs>
</svg>
