<svg width="316" height="282" viewBox="0 0 316 282" fill="none" xmlns="http://www.w3.org/2000/svg">
<g clip-path="url(#clip0_11_633)">
<path d="M312.816 131.971C309.253 114.543 302.997 97.5292 295.557 81.8892C282.733 54.9068 261.721 32.5008 234.84 19.2C168.88 -13.44 121.28 0.159995 95.4402 26.68C69.6002 53.2 77.0802 98.76 49.2002 118.48C21.3202 138.2 1.60023 147.04 0.240225 183.08C-1.11977 219.12 16.5602 246.32 45.1202 255.16C73.6802 264 116.52 292.56 202.2 276.24C287.88 259.92 308.96 214.36 314.4 181.72C317.12 165.298 316.182 148.448 312.816 131.971Z" fill="#CBCBCB"/>
<path opacity="0.7" d="M312.816 131.971C309.253 114.543 302.997 97.5292 295.557 81.8892C282.733 54.9068 261.721 32.5008 234.84 19.2C168.88 -13.44 121.28 0.159995 95.4402 26.68C69.6002 53.2 77.0802 98.76 49.2002 118.48C21.3202 138.2 1.60023 147.04 0.240225 183.08C-1.11977 219.12 16.5602 246.32 45.1202 255.16C73.6802 264 116.52 292.56 202.2 276.24C287.88 259.92 308.96 214.36 314.4 181.72C317.12 165.298 316.182 148.448 312.816 131.971Z" fill="white"/>
<path d="M111.978 32.4736H105.817V59.7756H111.978V32.4736Z" fill="#C9C9C9" stroke="#263238" stroke-linecap="round" stroke-linejoin="round"/>
<path d="M111.978 36.5808H105.817V39.2464H111.978V36.5808Z" fill="white" stroke="#263238" stroke-linecap="round" stroke-linejoin="round"/>
<path d="M111.978 53.5197H105.817V56.1853H111.978V53.5197Z" fill="white" stroke="#263238" stroke-linecap="round" stroke-linejoin="round"/>
<path d="M119.165 32.4736H110.543V59.7756H119.165V32.4736Z" fill="#878787" stroke="#263238" stroke-linecap="round" stroke-linejoin="round"/>
<path d="M118.553 32.4736H112.393V59.7756H118.553V32.4736Z" fill="#C9C9C9" stroke="#263238" stroke-linecap="round" stroke-linejoin="round"/>
<path d="M118.553 36.5808H112.393V39.2464H118.553V36.5808Z" fill="white" stroke="#263238" stroke-linecap="round" stroke-linejoin="round"/>
<path d="M118.553 53.5197H112.393V56.1853H118.553V53.5197Z" fill="white" stroke="#263238" stroke-linecap="round" stroke-linejoin="round"/>
<path d="M125.734 32.4736H117.112V59.7756H125.734V32.4736Z" fill="#878787" stroke="#263238" stroke-linecap="round" stroke-linejoin="round"/>
<path d="M125.122 32.4736H118.961V59.7756H125.122V32.4736Z" fill="#C9C9C9" stroke="#263238" stroke-linecap="round" stroke-linejoin="round"/>
<path d="M125.122 36.5808H118.961V39.2464H125.122V36.5808Z" fill="white" stroke="#263238" stroke-linecap="round" stroke-linejoin="round"/>
<path d="M125.122 53.5197H118.961V56.1853H125.122V53.5197Z" fill="white" stroke="#263238" stroke-linecap="round" stroke-linejoin="round"/>
<path d="M132.303 32.4736H123.681V59.7756H132.303V32.4736Z" fill="#C9C9C9" stroke="#263238" stroke-linecap="round" stroke-linejoin="round"/>
<path d="M137.92 60.0544H152.39L156.239 56.5728H137.92V60.0544Z" fill="white" stroke="#263238" stroke-linecap="round" stroke-linejoin="round"/>
<path d="M154.6 60.2312L154.138 59.4356L137.621 59.4016L138.097 60.2312H154.6Z" fill="white" stroke="#263238" stroke-linecap="round" stroke-linejoin="round"/>
<path d="M129.542 33.042L124.209 36.1262L137.876 59.7609L143.21 56.6767L129.542 33.042Z" fill="#C9C9C9" stroke="#263238" stroke-linecap="round" stroke-linejoin="round"/>
<path d="M131.6 36.5881L126.267 39.6722L127.601 41.9797L132.934 38.8956L131.6 36.5881Z" fill="white" stroke="#263238" stroke-linecap="round" stroke-linejoin="round"/>
<path d="M140.085 51.2499L134.751 54.334L136.086 56.6415L141.419 53.5574L140.085 51.2499Z" fill="white" stroke="#263238" stroke-linecap="round" stroke-linejoin="round"/>
<path d="M156.144 56.8107L143.067 56.7767L129.399 33.1399L142.476 33.1739L156.144 56.8107Z" fill="#C9C9C9" stroke="#263238" stroke-linecap="round" stroke-linejoin="round"/>
<path d="M163.27 46.23C163.27 46.23 160.89 45.38 160.21 41.64C159.53 37.9 158.34 32.63 159.7 31.44C161.06 30.25 163.61 29.57 163.95 31.95C164.29 34.33 163.78 38.92 164.29 39.94C164.8 40.96 166.5 40.28 166.5 38.24C166.5 34.8808 165.14 31.44 165.623 28.04C166.303 23.3412 171.063 22.8244 171.573 28.04C171.858 30.9232 171.94 33.8676 171.94 36.7644C171.94 37.9544 173.98 38.6344 173.81 35.7444C173.688 33.7044 175.17 31.3244 177.21 32.0044C179.25 32.6844 177.55 41.6944 176.87 43.2244C176.19 44.7544 171.94 45.04 171.94 45.04V48.95L166.84 49.12L166.67 45.21C165.632 45.8102 164.467 46.1595 163.27 46.23V46.23Z" fill="#CBCBCB" stroke="#263238" stroke-linecap="round" stroke-linejoin="round"/>
<path d="M167.86 38.7771C167.922 39.6271 167.962 40.1371 167.962 40.1371" stroke="#263238" stroke-linecap="round" stroke-linejoin="round"/>
<path d="M168.2 25.592C168.2 25.592 167.085 26.3672 167.166 28.6928C167.221 30.1072 167.493 34.024 167.704 36.8868" stroke="#263238" stroke-linecap="round" stroke-linejoin="round"/>
<path d="M170.118 33.6091L170.294 39.3007" stroke="#263238" stroke-linecap="round" stroke-linejoin="round"/>
<path d="M172.607 43C172.213 43.0613 171.815 43.0954 171.417 43.102" stroke="#263238" stroke-linecap="round" stroke-linejoin="round"/>
<path d="M176.156 33.4392C175.763 34.1835 175.556 35.0116 175.551 35.8532C175.551 37.2132 175.639 41.028 174.776 42.0616C174.565 42.2937 174.308 42.479 174.021 42.6056" stroke="#263238" stroke-linecap="round" stroke-linejoin="round"/>
<path d="M161.4 41.0891C161.605 42.1115 162.095 43.0548 162.815 43.8091C163.24 44.1497 163.766 44.342 164.311 44.3568C164.856 44.3715 165.391 44.2078 165.834 43.8907" stroke="#263238" stroke-linecap="round" stroke-linejoin="round"/>
<path d="M161.237 31.8889C161.237 31.8889 159.517 31.8889 160.115 34.9013C160.374 36.1729 160.612 37.7369 160.918 39.2125" stroke="#263238" stroke-linecap="round" stroke-linejoin="round"/>
<path d="M167.704 43.3535L168.05 47.0595" stroke="#263238" stroke-linecap="round" stroke-linejoin="round"/>
<path d="M176.53 47.4199L175.911 52.4927L175.49 55.9471L175 59.9659H162.767L162.277 55.9471L161.856 52.4927L161.237 47.4199H176.53Z" fill="white" stroke="#263238" stroke-linecap="round" stroke-linejoin="round"/>
<path d="M175.912 52.4927L175.49 55.9471H162.278L161.856 52.4927H175.912Z" fill="#CBCBCB" stroke="#263238" stroke-linecap="round" stroke-linejoin="round"/>
<path d="M183.249 59.9659H104.729V65.168H183.249V59.9659Z" fill="white" stroke="#263238" stroke-linecap="round" stroke-linejoin="round"/>
<path d="M183.249 59.9659H165.147V65.168H183.249V59.9659Z" fill="white" stroke="#263238" stroke-linecap="round" stroke-linejoin="round"/>
<path d="M163.386 65.1884C171.797 68.2892 170.281 74.1507 170.281 74.1507H178.244V65.1884H163.386Z" fill="#919191" stroke="#263238" stroke-linecap="round" stroke-linejoin="round"/>
<path d="M166.072 65.1884C174.477 68.2892 172.96 74.1507 172.96 74.1507H180.93V65.1884H166.072Z" fill="white" stroke="#263238" stroke-linecap="round" stroke-linejoin="round"/>
<path d="M109.496 65.1885C117.907 68.2893 116.391 74.1509 116.391 74.1509H124.354V65.1885H109.496Z" fill="#919191" stroke="#263238" stroke-linecap="round" stroke-linejoin="round"/>
<path d="M112.182 65.1885C120.586 68.2893 119.07 74.1509 119.07 74.1509H127.04V65.1885H112.182Z" fill="white" stroke="#263238" stroke-linecap="round" stroke-linejoin="round"/>
<path d="M292.667 33.446H222.247V131.203H292.667V33.446Z" fill="#919191" stroke="#263238" stroke-linecap="round" stroke-linejoin="round"/>
<path d="M289.614 37.6893H225.307V126.96H289.614V37.6893Z" fill="#CBCBCB"/>
<path opacity="0.5" d="M289.614 37.6893H225.307V126.96H289.614V37.6893Z" fill="white"/>
<path d="M239.444 120.18C237.719 122.81 235.541 125.113 233.011 126.98H289.614V37.6892H279.183L277.823 38.1176C267.623 41.334 257.083 50.6432 251.106 67.5616" stroke="#263238" stroke-linecap="round" stroke-linejoin="round"/>
<path d="M250.113 70.5265C247.738 78.5949 246.426 86.9386 246.21 95.3465C245.836 105.438 243.687 112.693 240.817 117.909" stroke="#263238" stroke-linecap="round" stroke-linejoin="round"/>
<path d="M283.324 60.3468C273.974 65.7868 263.087 74.926 259.021 88.9408C256.838 96.4208 258.885 103.166 262.931 108.94" stroke="#263238" stroke-linecap="round" stroke-linejoin="round"/>
<path d="M265.121 111.755C270.731 118.324 278.721 123.492 285.187 126.966H289.614V57.0488C288.349 57.6404 287.003 58.3068 285.602 59.0888" stroke="#263238" stroke-linecap="round" stroke-linejoin="round"/>
<path d="M235.996 60.9656C240.919 50.9288 241.436 42.966 240.872 37.6892H225.32V78.53C227.619 75.2592 230.434 70.8868 233.834 65.0252C234.045 64.6648 234.242 64.3452 234.439 63.9644" stroke="#263238" stroke-linecap="round" stroke-linejoin="round"/>
<path d="M242.089 99.6237C241.334 104.567 239.063 108.158 236.384 108.158C233.086 108.158 230.407 102.718 230.407 95.9857C230.407 89.2537 233.086 83.8137 236.384 83.8137C239.682 83.8137 242.361 89.2537 242.361 95.9857" stroke="#263238" stroke-linecap="round" stroke-linejoin="round"/>
<path d="M244.925 71.0024C244.925 73.5932 243.782 75.7012 242.361 75.7012C240.94 75.7012 239.804 73.5932 239.804 71.0024C239.804 68.4116 240.947 66.3036 242.361 66.3036C243.775 66.3036 244.925 68.4048 244.925 71.0024Z" stroke="#263238" stroke-linecap="round" stroke-linejoin="round"/>
<path d="M277.551 90.8516C280.019 92.028 281.631 94.0816 281.631 96.414C281.631 100.066 277.619 103.03 272.662 103.03C267.704 103.03 263.699 100.066 263.699 96.414C263.699 92.7624 267.711 89.7908 272.662 89.7908C273.452 89.7902 274.24 89.8677 275.014 90.022" stroke="#263238" stroke-linecap="round" stroke-linejoin="round"/>
<path d="M276.443 96.414C276.443 97.944 274.763 99.1884 272.682 99.1884C270.601 99.1884 268.922 97.944 268.922 96.414C268.922 94.884 270.608 93.6328 272.682 93.6328C274.756 93.6328 276.443 94.8772 276.443 96.414Z" stroke="#263238" stroke-linecap="round" stroke-linejoin="round"/>
<path d="M282.508 79.5432C282.508 81.6648 280.407 83.3852 277.809 83.3852C275.212 83.3852 273.11 81.6648 273.11 79.5432C273.11 77.4216 275.212 75.7012 277.809 75.7012C280.407 75.7012 282.508 77.4216 282.508 79.5432Z" stroke="#263238" stroke-linecap="round" stroke-linejoin="round"/>
<path d="M248.556 58.1911C250.325 58.1911 251.759 54.6535 251.759 50.2895C251.759 45.9256 250.325 42.3879 248.556 42.3879C246.787 42.3879 245.353 45.9256 245.353 50.2895C245.353 54.6535 246.787 58.1911 248.556 58.1911Z" stroke="#263238" stroke-linecap="round" stroke-linejoin="round"/>
<path d="M257.314 118.195C257.314 119.082 257.051 119.95 256.558 120.688C256.065 121.426 255.364 122.001 254.544 122.341C253.724 122.681 252.821 122.769 251.951 122.596C251.08 122.423 250.281 121.996 249.653 121.368C249.025 120.74 248.598 119.941 248.425 119.07C248.251 118.2 248.34 117.297 248.68 116.477C249.02 115.657 249.595 114.956 250.333 114.463C251.071 113.97 251.939 113.707 252.826 113.707C254.017 113.707 255.158 114.179 256 115.021C256.842 115.863 257.314 117.004 257.314 118.195Z" stroke="#263238" stroke-linecap="round" stroke-linejoin="round"/>
<path d="M278.238 51.568C278.239 52.1187 278.077 52.6573 277.772 53.1158C277.467 53.5742 277.033 53.9317 276.524 54.143C276.016 54.3544 275.456 54.41 274.916 54.3029C274.376 54.1958 273.879 53.9308 273.49 53.5414C273.101 53.1521 272.836 52.6559 272.728 52.1158C272.621 51.5756 272.677 51.0159 272.888 50.5074C273.1 49.9989 273.457 49.5646 273.916 49.2595C274.374 48.9545 274.913 48.7923 275.463 48.7936C276.199 48.7954 276.903 49.0883 277.423 49.6082C277.943 50.1281 278.236 50.8328 278.238 51.568Z" stroke="#263238" stroke-linecap="round" stroke-linejoin="round"/>
<path d="M260.728 71.2132C260.729 71.5094 260.643 71.7993 260.479 72.0462C260.315 72.2931 260.082 72.4859 259.809 72.6002C259.536 72.7145 259.235 72.7451 258.944 72.6881C258.653 72.6311 258.386 72.4892 258.176 72.2803C257.966 72.0713 257.823 71.8048 257.765 71.5144C257.707 71.224 257.736 70.9229 257.849 70.6491C257.962 70.3753 258.154 70.1413 258.4 69.9766C258.646 69.8119 258.936 69.724 259.232 69.724C259.428 69.7231 259.622 69.761 259.804 69.8354C259.985 69.9098 260.15 70.0194 260.289 70.1578C260.428 70.2962 260.538 70.4606 260.614 70.6418C260.689 70.8229 260.728 71.0171 260.728 71.2132V71.2132Z" stroke="#263238" stroke-linecap="round" stroke-linejoin="round"/>
<path d="M289.614 37.6893H225.307V126.96H289.614V37.6893Z" stroke="#263238" stroke-linecap="round" stroke-linejoin="round"/>
<path d="M184.513 164.985H167.044V171.561H184.513V164.985Z" fill="#263238" stroke="#263238" stroke-linecap="round" stroke-linejoin="round"/>
<path d="M207.953 165.978H138.423L141.714 112.081H211.251L207.953 165.978Z" fill="#919191" stroke="#263238" stroke-linecap="round" stroke-linejoin="round"/>
<path d="M205.961 165.978H136.431L139.722 112.081H209.252L205.961 165.978Z" fill="#263238" stroke="#263238" stroke-linecap="round" stroke-linejoin="round"/>
<path d="M202.282 162.979H140.477L143.401 115.073H205.206L202.282 162.979Z" fill="white" stroke="#263238" stroke-linecap="round" stroke-linejoin="round"/>
<path d="M184.303 155.839H142.319L144.57 118.922H186.56L184.303 155.839Z" fill="#919191" stroke="#263238" stroke-linecap="round" stroke-linejoin="round"/>
<path d="M158.884 139.982C158.884 139.982 150.139 143.443 150.085 144.375C150.031 145.306 148.317 155.839 148.317 155.839H174.32L172.131 143.708L162.509 139.71L158.884 139.982Z" fill="white" stroke="#263238" stroke-linecap="round" stroke-linejoin="round"/>
<path d="M159.143 137.847C158.484 138.02 157.873 138.338 157.354 138.778C156.674 139.458 155.845 141.709 155.845 141.709L155.811 144.375L159.258 142.511L162.76 142.28L166.038 145.347L166.459 140.682C166.459 140.682 165.956 138.017 164.895 137.881C163.835 137.745 159.143 137.847 159.143 137.847Z" fill="white" stroke="#263238" stroke-linecap="round" stroke-linejoin="round"/>
<path d="M159.034 135.317L158.884 139.982L160.945 143.314L164.351 139.846L164.882 135.582L159.034 135.317Z" fill="white" stroke="#263238" stroke-linecap="round" stroke-linejoin="round"/>
<path d="M167.439 129.863C167.194 133.773 164.596 138.513 161.747 138.513C158.898 138.513 156.878 133.753 157.116 129.863C157.354 125.974 159.836 122.784 162.706 122.784C165.575 122.784 167.677 125.96 167.439 129.863Z" fill="white" stroke="#263238" stroke-linecap="round" stroke-linejoin="round"/>
<path d="M157.069 130.38C157.069 130.38 156.151 127.986 155.77 129.85C155.389 131.713 157.266 133.712 157.266 133.712L157.069 130.38Z" fill="white" stroke="#263238" stroke-linecap="round" stroke-linejoin="round"/>
<path d="M167.439 129.863C167.439 129.863 169.69 128.918 169.03 130.917C168.863 131.483 168.57 132.004 168.175 132.442C167.779 132.88 167.291 133.223 166.745 133.447L167.439 129.863Z" fill="white" stroke="#263238" stroke-linecap="round" stroke-linejoin="round"/>
<path d="M161.468 130.38C161.486 130.14 161.454 129.899 161.373 129.672C161.293 129.445 161.166 129.237 161.001 129.062C160.836 128.887 160.636 128.748 160.415 128.654C160.193 128.56 159.954 128.513 159.714 128.517C159.212 128.53 158.734 128.727 158.369 129.071C158.004 129.415 157.778 129.881 157.735 130.38C157.717 130.62 157.749 130.862 157.829 131.089C157.91 131.316 158.036 131.525 158.201 131.7C158.366 131.876 158.566 132.016 158.788 132.11C159.009 132.205 159.248 132.253 159.489 132.25C159.991 132.237 160.471 132.038 160.836 131.693C161.201 131.348 161.426 130.881 161.468 130.38V130.38Z" fill="white" stroke="#263238" stroke-linecap="round" stroke-linejoin="round"/>
<path d="M165.997 130.38L168.03 129.85" stroke="#263238" stroke-linecap="round" stroke-linejoin="round"/>
<path d="M165.997 130.38C166.015 130.141 165.983 129.9 165.903 129.674C165.823 129.447 165.697 129.24 165.532 129.065C165.368 128.889 165.169 128.75 164.948 128.656C164.727 128.562 164.489 128.514 164.249 128.517C163.747 128.528 163.266 128.725 162.9 129.069C162.534 129.413 162.307 129.88 162.264 130.38C162.246 130.621 162.278 130.862 162.358 131.089C162.438 131.317 162.565 131.525 162.73 131.701C162.895 131.876 163.095 132.016 163.316 132.111C163.538 132.205 163.777 132.253 164.018 132.25C164.52 132.237 165 132.039 165.365 131.694C165.73 131.348 165.955 130.881 165.997 130.38V130.38Z" fill="white" stroke="#263238" stroke-linecap="round" stroke-linejoin="round"/>
<path d="M162.243 121.982C162.243 121.982 160.203 120.921 158.673 121.588C157.143 122.254 156.015 125.851 156.089 126.783C156.329 128.004 156.657 129.206 157.069 130.38L158.687 125.715L162.93 123.852L162.243 121.982Z" fill="#263238" stroke="#263238" stroke-linecap="round" stroke-linejoin="round"/>
<path d="M160.19 122.921C160.19 122.921 163.549 120.255 166.269 121.561C167.101 121.922 167.79 122.551 168.224 123.348C168.659 124.145 168.816 125.064 168.669 125.96C168.629 126.64 168.574 129.687 168.574 129.687L166.956 129.959L166.16 127.449C165.241 127.086 164.346 126.663 163.481 126.185C163.481 126.185 159.884 125.715 160.19 122.921Z" fill="#263238" stroke="#263238" stroke-linecap="round" stroke-linejoin="round"/>
<path d="M161.468 130.38L161.23 134.249H162.162" fill="white"/>
<path d="M161.468 130.38L161.23 134.249H162.162" stroke="#263238" stroke-linecap="round" stroke-linejoin="round"/>
<path d="M160.741 135.711H162.74" stroke="#263238" stroke-linecap="round" stroke-linejoin="round"/>
<path d="M160.945 143.314L160.204 155.438" stroke="#263238" stroke-linecap="round" stroke-linejoin="round"/>
<path d="M172.117 143.708C172.117 143.708 169.336 149.978 169.254 151.31C169.173 152.643 168.86 155.574 168.86 155.574" stroke="#263238" stroke-linecap="round" stroke-linejoin="round"/>
<path d="M150.085 144.375C150.085 144.375 152.853 149.175 153.213 149.815C153.573 150.454 153.131 155.547 153.131 155.547" stroke="#263238" stroke-linecap="round" stroke-linejoin="round"/>
<path d="M173.973 148.244L174.891 144.109L176.455 142.511L177.931 140.111H178.597L177.781 142.647L179.848 141.444L181.181 139.315L181.956 139.71L180.052 144.646L177.033 146.108L176.51 148.108L173.973 148.244Z" fill="white" stroke="#263238" stroke-linecap="round" stroke-linejoin="round"/>
<path d="M176.558 155.839L176.809 147.577L173.776 147.04L171.383 155.839H176.558Z" fill="white" stroke="#263238" stroke-linecap="round" stroke-linejoin="round"/>
<path d="M184.119 158.906H142.129L142.319 155.839H184.303L184.119 158.906Z" fill="white" stroke="#263238" stroke-linecap="round" stroke-linejoin="round"/>
<path d="M143.843 157.043H182.365" stroke="#263238" stroke-linecap="round" stroke-linejoin="round"/>
<path d="M202.35 128.775H188.219L188.818 119.044H202.948L202.35 128.775Z" fill="#CBCBCB" stroke="#263238" stroke-linecap="round" stroke-linejoin="round"/>
<path d="M202.35 128.775H188.219L188.321 127.177H202.452L202.35 128.775Z" fill="white" stroke="#263238" stroke-linecap="round" stroke-linejoin="round"/>
<path d="M197.787 123.342L194.115 121.146L193.85 125.539L197.787 123.342Z" fill="white" stroke="#263238" stroke-linecap="round" stroke-linejoin="round"/>
<path d="M201.432 143.837H187.301L187.893 134.113H202.023L201.432 143.837Z" fill="#CBCBCB" stroke="#263238" stroke-linecap="round" stroke-linejoin="round"/>
<path d="M201.432 143.837H187.301L187.403 142.239H201.527L201.432 143.837Z" fill="white" stroke="#263238" stroke-linecap="round" stroke-linejoin="round"/>
<path d="M196.869 138.411L193.197 136.215L192.932 140.607L196.869 138.411Z" fill="white" stroke="#263238" stroke-linecap="round" stroke-linejoin="round"/>
<path d="M200.507 158.906H186.383L186.975 149.175H201.105L200.507 158.906Z" fill="#CBCBCB" stroke="#263238" stroke-linecap="round" stroke-linejoin="round"/>
<path d="M200.507 158.906H186.383L186.479 157.308H200.609L200.507 158.906Z" fill="white" stroke="#263238" stroke-linecap="round" stroke-linejoin="round"/>
<path d="M195.944 153.473L192.279 151.277L192.007 155.669L195.944 153.473Z" fill="white" stroke="#263238" stroke-linecap="round" stroke-linejoin="round"/>
<path d="M188.26 130.38H201.983" stroke="#263238" stroke-linecap="round" stroke-linejoin="round"/>
<path d="M188.158 131.985H201.887" stroke="#263238" stroke-linecap="round" stroke-linejoin="round"/>
<path d="M187.329 145.578H201.058" stroke="#263238" stroke-linecap="round" stroke-linejoin="round"/>
<path d="M187.233 147.176H200.963" stroke="#263238" stroke-linecap="round" stroke-linejoin="round"/>
<path d="M181.243 171.561H170.92C170.92 170.531 171.329 169.544 172.058 168.815C172.786 168.087 173.773 167.678 174.803 167.678H177.346C178.376 167.678 179.364 168.087 180.092 168.815C180.82 169.544 181.229 170.531 181.229 171.561H181.243Z" fill="white" stroke="#263238" stroke-linecap="round" stroke-linejoin="round"/>
<path d="M166.004 169.446H115.534V171.561H166.004V169.446Z" fill="#919191" stroke="#263238" stroke-linecap="round" stroke-linejoin="round"/>
<path d="M165.99 169.446H153.308V171.561H165.99V169.446Z" fill="white" stroke="#263238" stroke-linecap="round" stroke-linejoin="round"/>
<path d="M94.8486 67.9085V27.7273" stroke="#263238" stroke-linecap="round" stroke-linejoin="round"/>
<path d="M94.8486 269.005V71.9069" stroke="#263238" stroke-linecap="round" stroke-linejoin="round"/>
<path d="M186.607 185.664L192.727 268.168C192.759 268.47 192.905 268.747 193.134 268.945C193.363 269.143 193.659 269.245 193.962 269.232C194.264 269.219 194.551 269.092 194.762 268.875C194.974 268.658 195.095 268.369 195.101 268.066L194.183 185.664H186.607Z" fill="#919191" stroke="#263238" stroke-linecap="round" stroke-linejoin="round"/>
<path d="M191.225 185.664L194.455 269.12C194.645 269.019 194.804 268.867 194.915 268.681C195.025 268.495 195.082 268.282 195.08 268.066L194.183 185.664H191.225Z" fill="white" stroke="#263238" stroke-linecap="round" stroke-linejoin="round"/>
<path d="M225.075 185.664L231.195 268.168C231.227 268.47 231.372 268.747 231.602 268.945C231.831 269.143 232.127 269.245 232.43 269.232C232.732 269.219 233.018 269.092 233.23 268.875C233.442 268.658 233.563 268.369 233.568 268.066L232.65 185.664H225.075Z" fill="#919191" stroke="#263238" stroke-linecap="round" stroke-linejoin="round"/>
<path d="M229.332 185.664L233.099 268.998C233.24 268.888 233.354 268.746 233.432 268.585C233.51 268.423 233.55 268.246 233.548 268.066L232.65 185.664H229.332Z" fill="white" stroke="#263238" stroke-linecap="round" stroke-linejoin="round"/>
<path d="M123.673 186.562L117.553 268.162C117.533 268.461 117.399 268.742 117.179 268.946C116.959 269.151 116.67 269.264 116.37 269.263V269.263C116.213 269.266 116.056 269.238 115.91 269.179C115.764 269.121 115.63 269.035 115.518 268.925C115.405 268.815 115.316 268.683 115.254 268.538C115.193 268.393 115.161 268.238 115.16 268.08L116.064 186.344L123.673 186.562Z" fill="#263238" stroke="#263238" stroke-linecap="round" stroke-linejoin="round"/>
<path d="M85.2399 186.562L79.1199 268.162C79.0992 268.461 78.9655 268.742 78.7458 268.946C78.5261 269.151 78.2369 269.264 77.9367 269.263V269.263C77.7798 269.262 77.6247 269.231 77.4802 269.17C77.3357 269.108 77.2048 269.019 77.0948 268.908C76.9848 268.796 76.8981 268.663 76.8395 268.518C76.7809 268.372 76.7517 268.217 76.7535 268.06L77.6579 186.324L85.2399 186.562Z" fill="#263238" stroke="#263238" stroke-linecap="round" stroke-linejoin="round"/>
<path d="M234.901 173.479H75.3526V186.331H234.901V173.479Z" fill="#919191" stroke="#263238" stroke-linecap="round" stroke-linejoin="round"/>
<path d="M234.901 173.479H189.178V186.331H234.901V173.479Z" fill="white" stroke="#263238" stroke-linecap="round" stroke-linejoin="round"/>
<path d="M234.901 175.519H75.3526V179.061H234.901V175.519Z" fill="#263238" stroke="#263238" stroke-linecap="round" stroke-linejoin="round"/>
<path d="M237.199 171.636H73.0542V175.933H237.199V171.636Z" fill="#919191" stroke="#263238" stroke-linecap="round" stroke-linejoin="round"/>
<path d="M237.192 171.636H192.115V175.933H237.192V171.636Z" fill="white" stroke="#263238" stroke-linecap="round" stroke-linejoin="round"/>
<path d="M188.797 91.96H166.643C165.489 91.96 164.382 92.4185 163.566 93.2346C162.75 94.0508 162.291 95.1577 162.291 96.312V104.472C162.29 105.044 162.402 105.61 162.62 106.138C162.839 106.667 163.159 107.147 163.564 107.551C163.968 107.956 164.448 108.276 164.977 108.494C165.505 108.713 166.071 108.825 166.643 108.824H178.244L173.899 120.962L182.222 108.824H188.797C189.369 108.825 189.936 108.713 190.464 108.494C190.992 108.276 191.472 107.956 191.877 107.551C192.281 107.147 192.602 106.667 192.82 106.138C193.038 105.61 193.15 105.044 193.149 104.472V96.312C193.149 95.1577 192.691 94.0508 191.875 93.2346C191.059 92.4185 189.952 91.96 188.797 91.96Z" fill="white" stroke="#263238" stroke-linecap="round" stroke-linejoin="round"/>
<path d="M171.784 102.248C172.659 102.248 173.368 101.539 173.368 100.664C173.368 99.7889 172.659 99.0796 171.784 99.0796C170.909 99.0796 170.199 99.7889 170.199 100.664C170.199 101.539 170.909 102.248 171.784 102.248Z" fill="#263238"/>
<path d="M177.72 102.248C178.595 102.248 179.305 101.539 179.305 100.664C179.305 99.7889 178.595 99.0796 177.72 99.0796C176.845 99.0796 176.136 99.7889 176.136 100.664C176.136 101.539 176.845 102.248 177.72 102.248Z" fill="#263238"/>
<path d="M185.234 100.664C185.234 100.35 185.141 100.044 184.967 99.783C184.792 99.5223 184.544 99.3193 184.255 99.1995C183.965 99.0798 183.646 99.0488 183.338 99.1105C183.031 99.1722 182.748 99.3238 182.527 99.5461C182.306 99.7683 182.155 100.051 182.095 100.359C182.035 100.667 182.067 100.986 182.188 101.275C182.309 101.564 182.513 101.811 182.775 101.985C183.036 102.158 183.343 102.25 183.657 102.248C183.864 102.248 184.07 102.207 184.262 102.128C184.454 102.048 184.628 101.931 184.775 101.784C184.921 101.637 185.037 101.462 185.116 101.27C185.195 101.078 185.235 100.872 185.234 100.664Z" fill="#263238"/>
<path d="M294 269.44H312.36" stroke="#263238" stroke-linecap="round" stroke-linejoin="round"/>
<path d="M4.31982 269.44H284.48" stroke="#263238" stroke-linecap="round" stroke-linejoin="round"/>
<path d="M112.195 149.27C110.203 145.87 104.341 132.78 104.341 132.78C104.518 131.382 104.805 130 105.198 128.646C105.681 127.286 106.898 123.165 106.653 122.308C106.409 121.452 102.879 119.874 102.519 119.752C102.159 119.629 103.002 117.562 101.662 117.072C100.323 116.583 99.8398 117.317 99.8398 117.317L99.3298 120.717L97.7658 123.165C97.1145 122.67 96.4332 122.216 95.7258 121.805C94.631 121.193 92.0742 120.948 91.9518 121.928C91.8294 122.907 93.9918 123.75 94.7466 124.362C95.5014 124.974 96.4534 127.891 97.3102 128.748C98.0887 129.598 98.8197 130.49 99.4998 131.42L99.9894 133.005C99.9894 133.005 101.655 149.046 101.853 153.038C102.05 157.029 102.648 167.59 103.845 169.181C105.042 170.772 105.246 171.778 108.605 170.582C111.964 169.385 112.59 167.787 113.365 164.196C114.14 160.606 114.188 152.657 112.195 149.27Z" fill="white" stroke="#263238" stroke-linecap="round" stroke-linejoin="round"/>
<path d="M113.392 164.217C114.188 160.633 114.188 152.657 112.195 149.257C111.978 148.883 111.712 148.4 111.413 147.829C106.905 146.516 102.621 148.658 102.621 148.658L101.533 149.134C101.676 150.8 101.784 152.194 101.825 153.044C102.029 157.029 102.621 167.596 103.818 169.188C105.014 170.779 105.218 171.785 108.578 170.588C111.937 169.392 112.59 167.807 113.392 164.217Z" fill="#CBCBCB" stroke="#263238" stroke-linecap="round" stroke-linejoin="round"/>
<path d="M97.657 95.36C98.148 97.1637 98.422 99.0197 98.473 100.888C98.473 103.547 97.657 105.186 98.8878 106.002C100.119 106.818 101.139 106.825 100.928 108.464C100.847 109.368 100.488 110.226 99.901 110.918C99.901 110.918 99.493 119.31 99.085 120.132C98.677 120.955 93.3526 119.928 92.1218 119.718C90.891 119.507 87.4162 121.152 85.1586 116.651C82.901 112.149 84.7506 105.39 88.8442 101.908C91.6599 99.5662 94.6019 97.3801 97.657 95.36V95.36Z" fill="white" stroke="#263238" stroke-linecap="round" stroke-linejoin="round"/>
<path d="M98.473 100.854C98.473 100.854 97.3646 100.025 96.7798 101.48" stroke="#263238" stroke-linecap="round" stroke-linejoin="round"/>
<path d="M97.4801 104.241C97.321 105.065 97.3724 105.917 97.6297 106.716" stroke="#263238" stroke-linecap="round" stroke-linejoin="round"/>
<path d="M99.52 113.856C99.3383 113.914 99.1463 113.934 98.9566 113.913C98.7669 113.892 98.5836 113.832 98.4188 113.736C98.2539 113.639 98.1112 113.51 97.9998 113.355C97.8885 113.2 97.811 113.023 97.7724 112.836" stroke="#263238" stroke-linecap="round" stroke-linejoin="round"/>
<path d="M101.839 152.344C101.839 152.344 101.159 155.458 100.554 157.104C99.9486 158.75 89.0958 161.769 84.3698 162.394C81.2566 162.783 78.1232 162.99 74.9858 163.013L75.285 171.622C75.285 171.622 84.4378 171.806 85.0838 171.622C85.7298 171.438 101.139 164.55 101.139 164.55L107.789 163.68C107.789 163.68 110.584 163 110.693 160.83C110.801 158.661 108.333 152.494 107.211 151.535C106.089 150.576 103.723 148.033 102.301 149.597C100.88 151.161 101.839 152.344 101.839 152.344Z" fill="white" stroke="#263238" stroke-linecap="round" stroke-linejoin="round"/>
<path d="M81.4321 167.8C81.4321 164.081 82.3841 163.985 83.4721 162.51C80.6607 162.824 77.8349 162.992 75.0061 163.013L74.7817 170.915C74.7817 170.915 79.7933 171.377 82.8465 171.595C82.5949 171.982 81.4321 170.194 81.4321 167.8Z" fill="#CBCBCB" stroke="#263238" stroke-linecap="round" stroke-linejoin="round"/>
<path d="M110.985 184.528C107.364 180.459 102.761 177.386 97.6158 175.6L85.675 180.693C84.7477 178.416 83.5171 176.275 82.0166 174.328L79.7862 171.608L81.221 163.809C81.221 163.809 89.8162 157.92 90.9246 155.37L90.9654 155.288C92.6926 157.961 100.186 169.528 101.594 170.65C103.185 171.928 107.959 172.084 110.026 170.173C112.093 168.263 113.052 166.991 112.576 164.128C112.576 164.128 109.393 157.281 107.639 154.255C105.885 151.229 102.07 140.41 100.159 137.064C98.799 134.671 98.2346 132.984 97.269 131.855C96.5986 130.701 95.8076 129.62 94.9094 128.632C92.9986 126.592 87.7422 126.082 86.627 125.606C85.5118 125.13 85.3554 124.967 78.9906 123.063C72.6258 121.159 65.4586 120.037 60.3654 124.015C60.3654 124.015 53.5246 132.134 50.8454 145.503C48.1662 158.872 47.9758 172.404 47.663 174.791C47.3502 177.178 44.637 188.799 43.8414 195.483C43.0458 202.167 50.0226 208.879 54.3202 210.96C58.6178 213.041 77.0798 213.347 87.9054 210.96C98.731 208.573 115.921 197.748 115.921 197.748C115.921 197.748 116.554 191.056 110.985 184.528Z" fill="#CBCBCB" stroke="#263238" stroke-linecap="round" stroke-linejoin="round"/>
<path d="M82.8396 155.118L80.6568 155.044" stroke="#263238" stroke-linecap="round" stroke-linejoin="round"/>
<path d="M82.0166 151.643C85.0743 152.674 88.0517 153.928 90.9246 155.397L85.3214 155.207" stroke="#263238" stroke-linecap="round" stroke-linejoin="round"/>
<path d="M111.59 155.662C112.218 156.649 112.605 157.769 112.719 158.933C112.719 160.436 112.971 162.449 112.345 161.823C111.719 161.197 111.461 159.055 111.461 159.055L111.59 155.662Z" fill="white" stroke="#263238" stroke-linecap="round" stroke-linejoin="round"/>
<path d="M107.823 153.908C107.823 153.908 110.176 152.63 111.223 154.166C112.27 155.703 111.991 158.77 111.223 160.286C110.454 161.803 109.577 160.354 109.686 159.008C109.795 157.662 107.823 153.908 107.823 153.908Z" fill="white" stroke="#263238" stroke-linecap="round" stroke-linejoin="round"/>
<path d="M106.939 152.276C106.939 152.276 109.299 150.998 110.339 152.534C111.379 154.071 111.101 157.131 110.339 158.654C109.577 160.178 108.693 158.722 108.802 157.376C108.911 156.03 106.939 152.276 106.939 152.276Z" fill="white" stroke="#263238" stroke-linecap="round" stroke-linejoin="round"/>
<path d="M105.857 150.515C105.857 150.515 108.217 149.236 109.257 150.773C110.298 152.31 110.026 155.377 109.257 156.893C108.489 158.409 107.612 156.961 107.721 155.615C107.829 154.268 105.857 150.515 105.857 150.515Z" fill="white" stroke="#263238" stroke-linecap="round" stroke-linejoin="round"/>
<path d="M99.8872 88.9748C99.9263 91.4186 99.2961 93.8266 98.0648 95.938C94.5832 101.262 91.3124 100.644 89.9048 104.948C88.4972 109.252 86.396 113.72 88.64 116.209C90.884 118.698 92.72 117.229 92.72 117.229C92.72 117.229 94.1548 120.914 90.4692 124.6C86.7836 128.286 80.4392 126.851 78.8004 126.239C77.7684 125.841 76.803 125.289 75.9376 124.6C75.9376 124.6 74.9108 127.47 69.8176 127.47C64.7244 127.47 58.9376 123.988 58.9376 117.637C58.9376 111.286 62.4124 106.995 63.2352 104.533C64.058 102.072 61.8004 94.5032 65.2752 89.7976C68.75 85.092 74.1152 81.6376 78.1952 81.6376C82.2752 81.6376 90.238 83.8748 90.272 83.8884C90.8092 84.1808 94.25 82.78 95.1816 82.8412C98.602 83.0316 99.8464 85.84 99.8872 88.9748Z" fill="#263238" stroke="#263238" stroke-linecap="round" stroke-linejoin="round"/>
<path d="M86.6 118.099C87.3425 118.198 88.0948 118.198 88.8372 118.099" stroke="#919191" stroke-linecap="round" stroke-linejoin="round"/>
<path d="M96.9362 92.5448C96.6133 94.3676 95.9414 96.1108 94.9574 97.6788C91.775 102.677 88.1574 104.479 83.8258 109.239C81.0446 112.319 81.5682 115.393 83.8258 117.004" stroke="#919191" stroke-linecap="round" stroke-linejoin="round"/>
<path d="M96.9971 87.234C97.1296 87.9838 97.1956 88.7438 97.1943 89.5052" stroke="#919191" stroke-linecap="round" stroke-linejoin="round"/>
<path d="M92.72 92.0007C92.72 92.0007 92.04 99.0387 89.0888 103.126C86.1376 107.212 80.2488 109.246 80.4596 113.57" stroke="#919191" stroke-linecap="round" stroke-linejoin="round"/>
<path d="M120.124 209.811C120.124 209.811 124.367 231.612 127.998 242.206C131.629 252.8 135.261 262.49 136.158 263.402C137.056 264.313 139.49 267.638 139.49 267.638C138.365 268.536 136.99 269.066 135.553 269.154C133.431 269.154 130.711 266.434 128.284 264.911C125.856 263.388 125.564 262.49 120.715 260.675C115.867 258.859 119.811 254.018 121.021 251.59C121.721 250.28 122.134 248.836 122.232 247.354C120.307 240.535 116.896 234.227 112.243 228.885C104.688 220.412 103.171 200.76 103.171 200.76L117.703 195.32L120.124 209.811Z" fill="white" stroke="#263238" stroke-linecap="round" stroke-linejoin="round"/>
<path d="M135.56 262.314L134.683 262.49C134.683 262.49 129.535 255.527 125.605 253.106C124.265 252.182 122.689 251.658 121.063 251.597C119.845 254.018 115.915 258.859 120.757 260.675C125.598 262.49 125.904 263.395 128.325 264.911C130.746 266.428 133.473 269.154 135.594 269.154C137.031 269.066 138.406 268.537 139.531 267.638C139.531 267.638 137.104 264.306 136.199 263.402C135.942 263.067 135.727 262.702 135.56 262.314V262.314Z" fill="#CBCBCB" stroke="#263238" stroke-linecap="round" stroke-linejoin="round"/>
<path d="M133.119 268.291C130.725 266.638 128.563 262.966 124.666 260.675C121.124 258.594 119.301 258.512 118.546 258.669C118.731 259.154 119.029 259.589 119.414 259.938C119.799 260.287 120.262 260.539 120.763 260.675C125.612 262.49 125.911 263.395 128.332 264.911C129.862 265.89 131.548 267.4 133.119 268.291Z" fill="#CBCBCB" stroke="#263238" stroke-linecap="round" stroke-linejoin="round"/>
<path d="M135.56 269.154C135.405 269.149 135.251 269.133 135.098 269.107C135.25 269.136 135.405 269.152 135.56 269.154V269.154Z" fill="#CBCBCB" stroke="#263238" stroke-linecap="round" stroke-linejoin="round"/>
<path d="M93.1414 176.96C93.1414 176.96 107.693 171.806 109.053 175.206C110.413 178.606 116.642 191.288 114.371 196.496C112.1 201.705 96.1334 181.536 93.8622 181.101C91.591 180.666 92.8762 178.483 93.1414 176.96Z" fill="white" stroke="#263238" stroke-linecap="round" stroke-linejoin="round"/>
<path d="M107.401 183.604C107.401 183.604 123.946 182.244 127.121 185.195C130.297 188.146 119.417 223.499 113.521 234.604C104.28 251.971 107.075 256.52 107.075 256.52C107.075 256.52 107.755 259.24 112.29 263.551C116.826 267.862 118.186 268.536 116.595 269.216C115.004 269.896 108.21 269.216 107.53 268.76C106.85 268.304 101.866 264.231 97.3304 262.871C92.7948 261.511 93.4748 260.6 95.5148 256.52C97.5548 252.44 97.3304 255.84 99.5948 248.816C102.309 240.159 104.454 231.334 106.014 222.398C107.218 215.115 109.054 207.118 108.537 199.713L107.401 183.604Z" fill="white" stroke="#263238" stroke-linecap="round" stroke-linejoin="round"/>
<path d="M119.519 194.674C117.787 190.494 114.806 186.951 110.985 184.528C103.75 179.911 97.6162 175.6 97.6162 175.6L85.6754 180.693C85.6754 180.693 88.5858 185.63 73.6258 188.126C62.1066 190.043 51.5326 187.262 45.8274 183.91C45.0318 187.86 44.2022 192.253 43.7874 195.47C42.9918 202.154 49.9958 208.838 54.2934 210.912C58.591 212.986 93.2166 217.277 102.539 211.286C119.519 200.427 119.519 194.674 119.519 194.674Z" fill="#263238" stroke="#263238" stroke-linecap="round" stroke-linejoin="round"/>
<path d="M84.3221 184.44C82.7241 185.752 79.6097 187.16 73.6257 188.132C62.1065 190.05 51.5325 187.269 45.8273 183.916C45.6233 184.93 45.4193 185.956 45.2153 187.01C49.1253 189.363 57.3397 193.348 66.6013 192.212C77.6513 190.859 82.5609 187.84 84.3221 184.44Z" fill="#CBCBCB" stroke="#263238" stroke-linecap="round" stroke-linejoin="round"/>
<path d="M75.4957 199.005C74.9653 199.685 74.4145 200.365 73.8569 201.046" stroke="white" stroke-linecap="round" stroke-linejoin="round"/>
<path d="M83.8254 186.099C81.7327 189.947 79.3978 193.658 76.835 197.21" stroke="white" stroke-linecap="round" stroke-linejoin="round"/>
<path d="M78.8414 190.403C78.8414 190.403 74.7614 195.843 70.457 199.019" stroke="white" stroke-linecap="round" stroke-linejoin="round"/>
<path d="M112.29 263.538C107.755 259.24 107.075 256.52 107.075 256.52C106.923 256.379 106.802 256.208 106.721 256.017C106.415 256.336 105.49 256.942 103.226 256.071C101.261 255.316 99.3976 254.031 97.4324 253.168C96.9632 254.004 96.5076 254.528 95.5148 256.52C93.4748 260.6 92.7948 261.511 97.3304 262.871C101.866 264.231 106.85 268.311 107.53 268.76C108.21 269.209 115.01 269.896 116.595 269.216C118.179 268.536 116.826 267.842 112.29 263.538Z" fill="#CBCBCB" stroke="#263238" stroke-linecap="round" stroke-linejoin="round"/>
<path d="M116.466 196.979L124.177 192.219" stroke="#263238" stroke-linecap="round" stroke-linejoin="round"/>
<path d="M24.3462 153.881C24.3462 153.881 48.9078 150.807 64.6022 155.241L66.989 214.952H30.1602C30.1602 214.952 32.5334 182.876 24.3462 153.881Z" fill="#919191" stroke="#263238" stroke-linecap="round" stroke-linejoin="round"/>
<path d="M64.6022 155.241C48.9078 150.807 24.3462 153.881 24.3462 153.881C26.9746 163.545 28.7203 173.427 29.5618 183.406C43.2766 190.255 55.8379 199.202 66.7918 209.926L64.6022 155.241Z" fill="#757575" stroke="#263238" stroke-linecap="round" stroke-linejoin="round"/>
<path d="M110.917 270.8C110.639 270.801 110.367 270.717 110.139 270.559C109.91 270.401 109.736 270.176 109.638 269.916C104.198 255.255 102.838 217.196 102.757 215.584C102.744 215.223 102.875 214.872 103.121 214.608C103.367 214.345 103.708 214.189 104.069 214.176C104.43 214.164 104.781 214.295 105.045 214.541C105.309 214.787 105.464 215.128 105.477 215.489C105.477 215.883 106.891 254.718 112.188 268.964C112.314 269.302 112.299 269.676 112.149 270.004C111.998 270.332 111.724 270.586 111.386 270.712C111.237 270.771 111.077 270.801 110.917 270.8Z" fill="white" stroke="#263238" stroke-linecap="round" stroke-linejoin="round"/>
<path d="M81.3029 270.8C81.0262 270.8 80.7562 270.715 80.529 270.557C80.3018 270.399 80.1282 270.175 80.0313 269.916C74.5913 255.255 73.2313 217.196 73.1429 215.584C73.1303 215.223 73.2615 214.872 73.5076 214.608C73.7537 214.345 74.0946 214.189 74.4553 214.176C74.816 214.164 75.167 214.295 75.4309 214.541C75.6949 214.787 75.8503 215.128 75.8629 215.489C75.8629 215.883 77.2773 254.718 82.5813 268.964C82.7066 269.302 82.6925 269.676 82.542 270.004C82.3915 270.332 82.117 270.586 81.7789 270.712C81.6273 270.771 81.4658 270.801 81.3029 270.8V270.8Z" fill="white" stroke="#263238" stroke-linecap="round" stroke-linejoin="round"/>
<path d="M110.55 214.924H29.5142V212.204H107.843C108.565 212.204 109.257 212.491 109.767 213.001C110.277 213.511 110.563 214.203 110.563 214.924H110.55Z" fill="#919191" stroke="#263238" stroke-linecap="round" stroke-linejoin="round"/>
<path d="M110.543 214.265H29.5142V216.964H110.543V214.265Z" fill="white" stroke="#263238" stroke-linecap="round" stroke-linejoin="round"/>
<path d="M63.9968 270.8C63.7921 270.804 63.5891 270.762 63.4029 270.677C63.2166 270.592 63.052 270.466 62.9213 270.309C62.7906 270.151 62.6971 269.966 62.6478 269.768C62.5985 269.569 62.5948 269.362 62.6368 269.161C70.3276 232.727 63.3168 156.111 63.2216 155.343C63.2051 155.164 63.2239 154.984 63.277 154.813C63.3301 154.641 63.4164 154.482 63.531 154.344C63.6456 154.206 63.7862 154.092 63.9449 154.009C64.1036 153.925 64.2772 153.874 64.4558 153.857C64.8165 153.824 65.1757 153.935 65.4543 154.166C65.7329 154.398 65.9082 154.731 65.9416 155.091C66.0164 155.866 73.0816 232.883 65.3092 269.719C65.2459 270.021 65.0814 270.293 64.8428 270.49C64.6042 270.686 64.3059 270.796 63.9968 270.8Z" fill="white" stroke="#263238" stroke-linecap="round" stroke-linejoin="round"/>
<path d="M21.8368 269.807C21.7101 269.809 21.5839 269.79 21.4628 269.753C21.1171 269.654 20.8243 269.423 20.6485 269.11C20.4727 268.796 20.428 268.426 20.5244 268.08C38.2044 205.316 23.1968 154.778 23.0472 154.275C22.9615 153.937 23.0092 153.578 23.1805 153.274C23.3518 152.97 23.6335 152.743 23.9673 152.641C24.3011 152.539 24.6615 152.569 24.9737 152.725C25.286 152.881 25.5263 153.151 25.6448 153.48C25.8012 153.99 41.0672 205.248 23.1424 268.814C23.0625 269.099 22.8917 269.351 22.6561 269.53C22.4205 269.709 22.1328 269.806 21.8368 269.807V269.807Z" fill="white" stroke="#263238" stroke-linecap="round" stroke-linejoin="round"/>
<path d="M270.458 157.682C270.458 157.682 262.101 153.038 261.482 163.564C260.863 174.09 259.32 242.505 259.32 242.505" stroke="#263238" stroke-width="2" stroke-linecap="round" stroke-linejoin="round"/>
<path d="M257.144 164.489C257.144 164.489 263.944 179.659 260.864 241.58" stroke="#263238" stroke-width="2" stroke-linecap="round" stroke-linejoin="round"/>
<path d="M263.842 159.804C263.842 159.804 260.639 161.844 258.823 159.504C257.008 157.165 260.054 152.868 257.368 151.032C254.682 149.196 250.038 151.997 250.038 151.997C250.038 151.997 253.608 153.044 253.492 154.996C253.377 156.948 251.656 157.682 251.452 156.832C251.248 155.982 249.514 151.684 246.617 153.473C245.78 153.966 245.052 154.624 244.477 155.407C243.902 156.191 243.492 157.082 243.272 158.029C243.272 158.029 250.024 157.308 250.432 159.844C250.84 162.381 247.665 159.402 244.877 159.239C242.089 159.076 239.545 159.484 239.729 161.17C239.791 162.662 239.702 164.157 239.464 165.631C240.99 164.363 242.92 163.683 244.904 163.714C247.971 163.897 247.855 165.849 245.067 165.686C242.279 165.522 239.885 168.174 239.885 168.174C239.885 168.174 242.429 172.52 245.659 174.668C248.889 176.817 250.051 176.028 250.419 174.39C250.786 172.751 249.929 168.487 251.881 168.603C253.832 168.718 248.651 175.96 251.139 176.389C253.628 176.817 255.634 176.096 256.287 174.458L256.967 172.819C256.967 172.819 256.097 168.569 256.477 166.916C256.858 165.264 257.314 166.964 257.756 168.956C258.198 170.949 258.477 175.709 259.327 175.478C260.177 175.246 262.903 171.778 263.543 170.412C264.182 169.045 259.952 164.89 260 164.054C260.047 163.217 263.311 164.808 263.821 165.679C264.192 166.34 264.526 167.021 264.821 167.719C264.821 167.719 266.861 166.44 266.807 162.524C266.752 158.607 263.842 159.804 263.842 159.804Z" fill="#CBCBCB"/>
<path opacity="0.3" d="M263.842 159.804C263.842 159.804 260.639 161.844 258.823 159.504C257.008 157.165 260.054 152.868 257.368 151.032C254.682 149.196 250.038 151.997 250.038 151.997C250.038 151.997 253.608 153.044 253.492 154.996C253.377 156.948 251.656 157.682 251.452 156.832C251.248 155.982 249.514 151.684 246.617 153.473C245.78 153.966 245.052 154.624 244.477 155.407C243.902 156.191 243.492 157.082 243.272 158.029C243.272 158.029 250.024 157.308 250.432 159.844C250.84 162.381 247.665 159.402 244.877 159.239C242.089 159.076 239.545 159.484 239.729 161.17C239.791 162.662 239.702 164.157 239.464 165.631C240.99 164.363 242.92 163.683 244.904 163.714C247.971 163.897 247.855 165.849 245.067 165.686C242.279 165.522 239.885 168.174 239.885 168.174C239.885 168.174 242.429 172.52 245.659 174.668C248.889 176.817 250.051 176.028 250.419 174.39C250.786 172.751 249.929 168.487 251.881 168.603C253.832 168.718 248.651 175.96 251.139 176.389C253.628 176.817 255.634 176.096 256.287 174.458L256.967 172.819C256.967 172.819 256.097 168.569 256.477 166.916C256.858 165.264 257.314 166.964 257.756 168.956C258.198 170.949 258.477 175.709 259.327 175.478C260.177 175.246 262.903 171.778 263.543 170.412C264.182 169.045 259.952 164.89 260 164.054C260.047 163.217 263.311 164.808 263.821 165.679C264.192 166.34 264.526 167.021 264.821 167.719C264.821 167.719 266.861 166.44 266.807 162.524C266.752 158.607 263.842 159.804 263.842 159.804Z" fill="#263238"/>
<path d="M247.631 168.99C249.718 166.413 252.785 162.925 255.362 161.259" stroke="#263238" stroke-linecap="round" stroke-linejoin="round"/>
<path d="M245.217 172.125C245.217 172.125 245.747 171.384 246.618 170.269" stroke="#263238" stroke-linecap="round" stroke-linejoin="round"/>
<path d="M256.722 161.898C256.722 161.898 259.823 166.277 260.394 170.786" stroke="#263238" stroke-linecap="round" stroke-linejoin="round"/>
<path d="M253.2 164.489C253.2 164.489 254.071 163.979 253.744 169.555" stroke="#263238" stroke-linecap="round" stroke-linejoin="round"/>
<path d="M255.478 159.28C255.478 159.28 257.253 157.709 256.314 154.574" stroke="#263238" stroke-linecap="round" stroke-linejoin="round"/>
<path d="M253.085 161.966L251.82 159.654" stroke="#263238" stroke-linecap="round" stroke-linejoin="round"/>
<path d="M250.426 164.326C250.426 164.326 246.414 161.293 243.904 161.143" stroke="#263238" stroke-linecap="round" stroke-linejoin="round"/>
<path d="M275.239 151.542C275.239 151.542 275.109 156.138 271.519 156.363C267.929 156.587 265.712 150.603 262.04 152.045C258.368 153.486 258.014 160.042 258.014 160.042C258.014 160.042 261.496 157.179 263.373 158.62C265.249 160.062 264.814 162.292 263.801 161.939C262.788 161.585 257.334 160.368 257.144 164.489C257.068 165.664 257.23 166.842 257.622 167.952C258.013 169.062 258.626 170.082 259.422 170.949C259.422 170.949 263.305 163.693 266.133 165.012C268.962 166.332 263.801 167.488 261.734 170.167C259.667 172.846 258.334 175.668 260.163 176.64C261.699 177.591 263.135 178.696 264.447 179.938C264.447 179.938 263.957 176.144 266.229 173.2C268.5 170.255 270.37 171.697 268.309 174.376C266.249 177.055 267.269 181.264 267.269 181.264C267.269 181.264 273.348 181.679 277.7 179.904C282.052 178.13 282.079 176.443 280.679 174.94C279.278 173.438 274.436 171.411 275.878 169.5C277.319 167.59 281.046 177.749 283.174 175.546C285.303 173.342 285.942 170.847 284.745 169.072L283.548 167.304C283.548 167.304 278.707 165.264 277.306 163.768C275.905 162.272 277.925 162.966 280.216 163.877C282.508 164.788 287.465 167.76 287.819 166.746C288.172 165.733 286.547 160.626 285.622 159.076C284.697 157.526 277.639 158.906 276.837 158.287C276.034 157.668 279.849 155.486 281.066 155.567C281.979 155.643 282.887 155.768 283.786 155.941C283.786 155.941 283.895 153.031 279.937 150.413C275.98 147.795 275.239 151.542 275.239 151.542Z" fill="#CBCBCB"/>
<path opacity="0.2" d="M275.239 151.542C275.239 151.542 275.109 156.138 271.519 156.363C267.929 156.587 265.712 150.603 262.04 152.045C258.368 153.486 258.014 160.042 258.014 160.042C258.014 160.042 261.496 157.179 263.373 158.62C265.249 160.062 264.814 162.292 263.801 161.939C262.788 161.585 257.334 160.368 257.144 164.489C257.068 165.664 257.23 166.842 257.622 167.952C258.013 169.062 258.626 170.082 259.422 170.949C259.422 170.949 263.305 163.693 266.133 165.012C268.962 166.332 263.801 167.488 261.734 170.167C259.667 172.846 258.334 175.668 260.163 176.64C261.699 177.591 263.135 178.696 264.447 179.938C264.447 179.938 263.957 176.144 266.229 173.2C268.5 170.255 270.37 171.697 268.309 174.376C266.249 177.055 267.269 181.264 267.269 181.264C267.269 181.264 273.348 181.679 277.7 179.904C282.052 178.13 282.079 176.443 280.679 174.94C279.278 173.438 274.436 171.411 275.878 169.5C277.319 167.59 281.046 177.749 283.174 175.546C285.303 173.342 285.942 170.847 284.745 169.072L283.548 167.304C283.548 167.304 278.707 165.264 277.306 163.768C275.905 162.272 277.925 162.966 280.216 163.877C282.508 164.788 287.465 167.76 287.819 166.746C288.172 165.733 286.547 160.626 285.622 159.076C284.697 157.526 277.639 158.906 276.837 158.287C276.034 157.668 279.849 155.486 281.066 155.567C281.979 155.643 282.887 155.768 283.786 155.941C283.786 155.941 283.895 153.031 279.937 150.413C275.98 147.795 275.239 151.542 275.239 151.542Z" fill="#263238"/>
<path d="M273.389 174.029C272.24 170.16 270.825 164.72 270.921 161.021" stroke="#263238" stroke-linecap="round" stroke-linejoin="round"/>
<path d="M274.879 178.592C274.879 178.592 274.498 177.545 273.974 175.92" stroke="#263238" stroke-linecap="round" stroke-linejoin="round"/>
<path d="M272.485 160.096C272.485 160.096 278.979 159.974 283.882 162.476" stroke="#263238" stroke-linecap="round" stroke-linejoin="round"/>
<path d="M272.689 165.4C272.689 165.4 272.771 164.183 278.129 168.31" stroke="#263238" stroke-linecap="round" stroke-linejoin="round"/>
<path d="M269.044 159.572C269.044 159.572 268.677 156.73 264.903 155.533" stroke="#263238" stroke-linecap="round" stroke-linejoin="round"/>
<path d="M270.071 163.782L266.895 163.469" stroke="#263238" stroke-linecap="round" stroke-linejoin="round"/>
<path d="M270.622 168.052C270.622 168.052 264.849 170.003 262.992 172.417" stroke="#263238" stroke-linecap="round" stroke-linejoin="round"/>
<path d="M236.717 182.142C236.717 182.142 254.982 194.212 254.676 240.962" stroke="#263238" stroke-width="2" stroke-linecap="round" stroke-linejoin="round"/>
<path d="M259.239 178.952C259.239 178.952 258.654 184.243 254.479 184.161C250.303 184.08 248.359 176.967 243.952 178.286C239.546 179.605 238.546 187.126 238.546 187.126C238.546 187.126 242.844 184.148 244.87 185.997C246.897 187.847 246.183 190.37 245.047 189.866C243.911 189.363 237.73 187.439 237.125 192.178C236.928 193.527 237.008 194.902 237.358 196.22C237.709 197.537 238.324 198.769 239.165 199.842C239.165 199.842 244.333 191.838 247.468 193.634C250.603 195.429 244.544 196.265 241.905 199.162C239.267 202.059 237.478 205.187 239.478 206.479C241.163 207.722 242.717 209.135 244.115 210.695C244.115 210.695 243.905 206.275 246.801 203.086C249.698 199.896 251.731 201.726 249.093 204.643C246.455 207.56 247.243 212.49 247.243 212.49C247.243 212.49 254.227 213.544 259.415 211.912C264.604 210.28 264.787 208.335 263.312 206.472C261.836 204.609 256.444 201.807 258.287 199.781C260.129 197.754 263.468 209.79 266.134 207.444C268.799 205.098 269.765 202.29 268.555 200.128L267.344 197.965C267.344 197.965 261.952 195.17 260.476 193.3C259.001 191.43 261.265 192.437 263.822 193.702C266.379 194.966 271.825 198.863 272.322 197.734C272.818 196.605 271.431 190.567 270.513 188.67C269.595 186.772 261.319 187.718 260.449 186.929C259.579 186.14 264.196 183.984 265.59 184.209C266.628 184.382 267.656 184.609 268.67 184.889C268.67 184.889 269.065 181.543 264.747 178.143C260.429 174.743 259.239 178.952 259.239 178.952Z" fill="#CBCBCB"/>
<path opacity="0.3" d="M259.239 178.952C259.239 178.952 258.654 184.243 254.479 184.161C250.303 184.08 248.359 176.967 243.952 178.286C239.546 179.605 238.546 187.126 238.546 187.126C238.546 187.126 242.844 184.148 244.87 185.997C246.897 187.847 246.183 190.37 245.047 189.866C243.911 189.363 237.73 187.439 237.125 192.178C236.928 193.527 237.008 194.902 237.358 196.22C237.709 197.537 238.324 198.769 239.165 199.842C239.165 199.842 244.333 191.838 247.468 193.634C250.603 195.429 244.544 196.265 241.905 199.162C239.267 202.059 237.478 205.187 239.478 206.479C241.163 207.722 242.717 209.135 244.115 210.695C244.115 210.695 243.905 206.275 246.801 203.086C249.698 199.896 251.731 201.726 249.093 204.643C246.455 207.56 247.243 212.49 247.243 212.49C247.243 212.49 254.227 213.544 259.415 211.912C264.604 210.28 264.787 208.335 263.312 206.472C261.836 204.609 256.444 201.807 258.287 199.781C260.129 197.754 263.468 209.79 266.134 207.444C268.799 205.098 269.765 202.29 268.555 200.128L267.344 197.965C267.344 197.965 261.952 195.17 260.476 193.3C259.001 191.43 261.265 192.437 263.822 193.702C266.379 194.966 271.825 198.863 272.322 197.734C272.818 196.605 271.431 190.567 270.513 188.67C269.595 186.772 261.319 187.718 260.449 186.929C259.579 186.14 264.196 183.984 265.59 184.209C266.628 184.382 267.656 184.609 268.67 184.889C268.67 184.889 269.065 181.543 264.747 178.143C260.429 174.743 259.239 178.952 259.239 178.952Z" fill="#263238"/>
<path d="M254.982 204.724C254.003 200.182 252.908 193.756 253.357 189.479" stroke="#263238" stroke-linecap="round" stroke-linejoin="round"/>
<path d="M256.274 210.13C256.274 210.13 255.934 208.886 255.478 206.962" stroke="#263238" stroke-linecap="round" stroke-linejoin="round"/>
<path d="M255.24 188.561C255.24 188.561 262.72 189.037 268.16 192.382" stroke="#263238" stroke-linecap="round" stroke-linejoin="round"/>
<path d="M254.988 194.64C254.988 194.64 255.199 193.246 260.993 198.516" stroke="#263238" stroke-linecap="round" stroke-linejoin="round"/>
<path d="M251.33 187.636C251.33 187.636 251.173 184.318 246.937 182.577" stroke="#263238" stroke-linecap="round" stroke-linejoin="round"/>
<path d="M252.119 192.586L248.488 191.927" stroke="#263238" stroke-linecap="round" stroke-linejoin="round"/>
<path d="M252.357 197.564C252.357 197.564 245.509 199.277 243.136 201.882" stroke="#263238" stroke-linecap="round" stroke-linejoin="round"/>
<path d="M243.836 218.977C243.836 218.977 255.6 227.953 256.838 241.268L254.363 196.68" stroke="#263238" stroke-width="2" stroke-linecap="round" stroke-linejoin="round"/>
<path d="M272.315 212.476C256.838 209.688 256.838 241.268 256.838 241.268" stroke="#263238" stroke-width="2" stroke-linecap="round" stroke-linejoin="round"/>
<path d="M258.694 240.962C258.694 240.962 249.718 175.641 275.694 175.641" stroke="#263238" stroke-width="2" stroke-linecap="round" stroke-linejoin="round"/>
<path d="M266.419 210.6C264.305 208.22 259.81 208.22 257.171 214.299C254.533 220.378 256.906 219.324 256.906 219.324C256.906 219.324 261.925 217.733 265.1 216.679C268.276 215.625 272.499 212.98 272.764 214.564C273.029 216.148 270.649 217.733 267.739 218.263C264.828 218.793 257.171 220.908 257.96 222.52C258.749 224.131 260.605 228.864 260.605 228.864C262.863 226.946 265.246 225.181 267.739 223.581C271.179 221.466 273.294 222.255 271.445 224.635C269.595 227.015 264.305 229.653 265.365 232.829C266.426 236.004 272.764 239.962 272.764 239.962C272.764 239.962 273.559 233.359 275.409 231.244C277.259 229.129 277.259 231.509 276.728 235.209C276.463 236.784 276.286 238.373 276.198 239.969L283.596 242.614C284.806 240.772 286.13 239.007 287.561 237.33L288.921 235.97C288.921 235.97 283.107 230.952 282.841 227.81C282.576 224.669 286.806 227.81 288.125 228.341C289.444 228.871 291.559 232.57 291.559 232.57C291.559 232.57 292.885 226.491 293.15 224.376L293.415 222.261C293.415 222.261 287.86 220.147 285.745 220.147C283.63 220.147 282.576 221.731 282.576 219.623C282.576 217.515 284.691 216.182 287.071 216.448C289.224 216.808 291.346 217.337 293.415 218.032C293.415 218.032 295 216.713 294.469 212.748C293.939 208.784 292.62 208.784 289.451 209.838C286.282 210.892 284.161 213.279 281.781 213.279C279.401 213.279 280.727 210.368 282.311 209.58C283.895 208.791 287.86 207.2 288.655 206.934C289.451 206.669 284.426 202.97 281.781 202.44C279.135 201.909 275.715 203.8 275.967 206.404C276.463 211.919 268.534 213 266.419 210.6Z" fill="#CBCBCB"/>
<path d="M283.433 237.813C283.514 238.606 283.569 239.402 283.596 240.2" stroke="#263238" stroke-linecap="round" stroke-linejoin="round"/>
<path d="M278.122 218.841C280.452 224.074 282.13 229.574 283.12 235.216" stroke="#263238" stroke-linecap="round" stroke-linejoin="round"/>
<path d="M277.17 216.72C275.864 213.904 274.878 212.184 274.878 212.184C276.321 211.505 277.52 210.398 278.312 209.015C278.931 207.763 279.837 206.674 280.958 205.84" stroke="#263238" stroke-linecap="round" stroke-linejoin="round"/>
<path d="M265.63 221.16C265.63 221.16 275.15 217.196 275.15 217.984" stroke="#263238" stroke-linecap="round" stroke-linejoin="round"/>
<path d="M280.4 216.148C280.4 216.148 284.63 214.034 288.329 214.034" stroke="#263238" stroke-linecap="round" stroke-linejoin="round"/>
<path d="M278.843 222.52C277.008 224.028 275.325 225.711 273.817 227.545C272.275 229.364 271.027 231.413 270.118 233.618" stroke="#263238" stroke-linecap="round" stroke-linejoin="round"/>
<path d="M281.76 223.553C281.76 223.553 287.316 221.962 290.219 224.608" stroke="#263238" stroke-linecap="round" stroke-linejoin="round"/>
<path d="M291.804 187.84C288.927 186.14 285.745 186.099 284.181 184.304C282.617 182.509 285.684 181.584 287.322 182.264C288.961 182.944 292.762 184.896 293.476 185.317C294.19 185.739 293.701 179.53 292.368 177.157C291.035 174.784 287.384 173.451 285.568 175.369C281.726 179.401 275.728 174.111 276.136 170.956C276.544 167.8 273.6 164.407 267.296 166.393C260.993 168.378 263.332 169.487 263.332 169.487C263.332 169.487 267.82 172.241 270.703 173.941C273.586 175.641 278.346 177.103 277.32 178.34C276.293 179.578 273.539 178.823 271.234 176.98C268.928 175.138 262.312 170.731 261.632 172.37C260.952 174.009 258.572 178.524 258.572 178.524C261.501 178.973 264.398 179.616 267.242 180.448C271.091 181.659 271.88 183.774 268.874 183.937C265.868 184.1 260.401 181.842 258.674 184.719C256.947 187.595 258.137 194.98 258.137 194.98C258.137 194.98 263.645 191.254 266.453 191.26C269.262 191.267 267.466 192.831 264.325 194.858C262.962 195.689 261.648 196.598 260.388 197.578L263.244 204.901C265.428 204.605 267.629 204.447 269.833 204.425L271.696 204.561C271.696 204.561 271.696 196.877 273.899 194.599C276.102 192.321 276.497 197.591 276.966 198.938C277.435 200.284 276.028 204.303 276.028 204.303C276.028 204.303 281.468 201.318 283.249 200.128L285.024 198.944C285.024 198.944 282.984 193.362 281.59 191.77C280.196 190.179 278.319 190.41 279.91 189.05C281.502 187.69 283.895 188.37 285.255 190.37C286.395 192.23 287.384 194.179 288.213 196.197C288.213 196.197 290.253 196.53 292.898 193.532C295.544 190.533 294.68 189.54 291.804 187.84ZM266.8 196.299C264.685 195.238 269.704 193.124 269.704 193.124C271.56 192.865 268.908 197.36 266.8 196.299ZM270.356 186.432C269.459 185.984 272.158 185.072 272.158 185.072C276.062 185.8 271.254 186.881 270.35 186.432H270.356Z" fill="#CBCBCB"/>
<path d="M266.732 201.685C266.188 202.263 265.617 202.827 265.039 203.371" stroke="#263238" stroke-linecap="round" stroke-linejoin="round"/>
<path d="M277.578 185.235C275.149 190.421 272.091 195.288 268.473 199.726" stroke="#263238" stroke-linecap="round" stroke-linejoin="round"/>
<path d="M278.557 183.128C279.829 180.292 280.475 178.422 280.475 178.422C281.937 179.063 283.559 179.244 285.126 178.939C286.475 178.582 287.89 178.552 289.254 178.85" stroke="#263238" stroke-linecap="round" stroke-linejoin="round"/>
<path d="M276.259 182.434C276.857 181.91 267.629 177.327 267.629 177.327" stroke="#263238" stroke-linecap="round" stroke-linejoin="round"/>
<path d="M281.121 185.208C281.121 185.208 285.493 187.017 287.921 189.812" stroke="#263238" stroke-linecap="round" stroke-linejoin="round"/>
<path d="M275.293 188.173C272.953 187.776 270.58 187.608 268.208 187.67C265.821 187.7 263.453 188.101 261.19 188.86" stroke="#263238" stroke-linecap="round" stroke-linejoin="round"/>
<path d="M276.401 191.063C276.401 191.063 281.236 194.212 281.161 198.142" stroke="#263238" stroke-linecap="round" stroke-linejoin="round"/>
<path d="M250.731 224.458C248.419 223.098 245.856 223.064 244.611 221.616C243.367 220.167 245.815 219.44 247.134 219.984C248.453 220.528 251.513 222.105 252.091 222.445C252.669 222.785 252.268 217.78 251.194 215.897C250.119 214.013 247.182 212.918 245.72 214.455C242.626 217.706 237.798 213.442 238.131 210.906C238.464 208.369 236.091 205.636 230.998 207.234C225.905 208.832 227.809 209.722 227.809 209.722C227.809 209.722 231.419 211.939 233.738 213.306C236.057 214.673 239.892 215.856 239.063 216.849C238.233 217.842 236.023 217.243 234.167 215.754C232.31 214.265 226.986 210.722 226.442 212.041C225.898 213.36 223.98 216.992 223.98 216.992C226.337 217.355 228.668 217.873 230.957 218.542C234.051 219.514 234.683 221.214 232.263 221.344C229.842 221.473 225.463 219.657 224.103 221.976C222.743 224.295 223.667 230.238 223.667 230.238C223.667 230.238 228.101 227.232 230.359 227.239C232.616 227.246 231.175 228.504 228.652 230.136C227.555 230.806 226.497 231.537 225.483 232.326L227.775 238.214C229.533 237.978 231.305 237.854 233.079 237.84L234.581 237.942C234.581 237.942 234.581 231.761 236.356 229.925C238.131 228.089 238.444 232.332 238.818 233.42C239.192 234.508 238.063 237.738 238.063 237.738C238.063 237.738 242.456 235.331 243.877 234.379L245.305 233.42C245.305 233.42 243.659 228.932 242.544 227.647C241.429 226.362 239.906 226.559 241.184 225.444C242.463 224.329 244.387 224.914 245.482 226.498C246.4 227.997 247.198 229.566 247.869 231.19C247.869 231.19 249.507 231.455 251.636 229.048C253.764 226.641 253.05 225.832 250.731 224.458ZM230.603 231.258C228.903 230.408 232.943 228.708 232.943 228.708C234.432 228.504 232.303 232.122 230.603 231.265V231.258ZM233.48 223.329C232.752 222.962 234.928 222.241 234.928 222.241C238.063 222.846 234.194 223.69 233.48 223.329Z" fill="#CBCBCB"/>
<path d="M230.563 235.603C230.121 236.066 229.665 236.521 229.203 236.963" stroke="#263238" stroke-linecap="round" stroke-linejoin="round"/>
<path d="M239.287 222.364C237.334 226.537 234.874 230.454 231.963 234.026" stroke="#263238" stroke-linecap="round" stroke-linejoin="round"/>
<path d="M240.076 220.663C241.096 218.385 241.62 216.883 241.62 216.883C242.795 217.397 244.1 217.542 245.36 217.298C246.445 217.01 247.582 216.987 248.678 217.229" stroke="#263238" stroke-linecap="round" stroke-linejoin="round"/>
<path d="M231.277 215.999C231.277 215.999 238.709 219.691 238.226 220.079" stroke="#263238" stroke-linecap="round" stroke-linejoin="round"/>
<path d="M242.136 222.343C242.136 222.343 245.652 223.798 247.576 226.049" stroke="#263238" stroke-linecap="round" stroke-linejoin="round"/>
<path d="M237.444 224.73C235.562 224.411 233.654 224.277 231.746 224.329C229.826 224.347 227.921 224.671 226.102 225.288" stroke="#263238" stroke-linecap="round" stroke-linejoin="round"/>
<path d="M238.342 227.056C238.342 227.056 242.231 229.592 242.157 232.747" stroke="#263238" stroke-linecap="round" stroke-linejoin="round"/>
<path d="M241.293 180.816C241.293 180.816 238.383 182.93 236.533 180.816C234.684 178.701 237.329 174.471 234.684 172.887C232.038 171.302 227.816 174.206 227.816 174.206C227.816 174.206 231.25 175.002 231.25 176.851C231.25 178.701 229.665 179.496 229.4 178.701C229.135 177.905 227.285 173.941 224.64 175.797C223.878 176.31 223.228 176.973 222.729 177.744C222.23 178.515 221.892 179.38 221.736 180.285C221.736 180.285 228.074 179.231 228.604 181.611C229.135 183.991 225.966 181.346 223.321 181.346C220.676 181.346 218.296 181.876 218.561 183.461C218.705 184.867 218.705 186.284 218.561 187.69C219.93 186.409 221.712 185.659 223.586 185.576C226.49 185.576 226.49 187.425 223.851 187.425C221.213 187.425 219.091 190.07 219.091 190.07C219.091 190.07 221.736 194.035 224.905 195.884C228.074 197.734 229.135 196.938 229.4 195.354C229.665 193.77 228.604 189.805 230.454 189.805C232.304 189.805 227.816 196.938 230.189 197.204C232.562 197.469 234.418 196.673 234.949 195.089L235.479 193.504C235.479 193.504 234.418 189.54 234.684 187.956C234.949 186.371 235.479 187.956 236.003 189.805C236.526 191.655 237.064 196.143 237.859 195.884C238.655 195.626 241.028 192.178 241.558 190.859C242.089 189.54 237.859 185.841 237.859 185.045C237.859 184.25 241.028 185.576 241.558 186.364C242.089 187.153 242.612 188.214 242.612 188.214C242.612 188.214 244.462 186.895 244.197 183.196C243.932 179.496 241.293 180.816 241.293 180.816Z" fill="#CBCBCB"/>
<path d="M226.483 190.404C228.312 187.854 231.025 184.386 233.364 182.665" stroke="#263238" stroke-linecap="round" stroke-linejoin="round"/>
<path d="M224.375 193.504C224.375 193.504 224.844 192.77 225.599 191.668" stroke="#263238" stroke-linecap="round" stroke-linejoin="round"/>
<path d="M234.684 183.196C234.684 183.196 237.859 187.16 238.648 191.39" stroke="#263238" stroke-linecap="round" stroke-linejoin="round"/>
<path d="M231.515 185.841C231.515 185.841 232.303 185.31 232.303 190.601" stroke="#263238" stroke-linecap="round" stroke-linejoin="round"/>
<path d="M233.364 180.815C233.364 180.815 234.949 179.231 233.895 176.321" stroke="#263238" stroke-linecap="round" stroke-linejoin="round"/>
<path d="M231.249 183.461L229.93 181.346" stroke="#263238" stroke-linecap="round" stroke-linejoin="round"/>
<path d="M228.87 185.841C228.87 185.841 224.905 183.196 222.525 183.196" stroke="#263238" stroke-linecap="round" stroke-linejoin="round"/>
<path d="M267.983 240.03H247.549V269.44H267.983V240.03Z" fill="#263238" stroke="#263238" stroke-width="2" stroke-linecap="round" stroke-linejoin="round"/>
</g>
<defs>
<clipPath id="clip0_11_633">
<rect width="316" height="282" fill="white"/>
</clipPath>
</defs>
</svg>
